<svg width="41" height="48" fill="none" xmlns="http://www.w3.org/2000/svg"><path d="M40.291 43.985c-.197.455-.399.91-.595 1.362l.03-.057c.217-.41.418-.829.61-1.252a.542.542 0 0 1-.045-.053Z" fill="#F9A91F"/><rect y="6.371" width="39.025" height="39.025" rx="19.513" fill="#D9D9D9"/><path d="M22.09 6.575c-.297 1.312-.948 2.593-1.452 3.784-.933 2.208-2.321 4.745-2.299 7.192.01 1.04.257 2.062.207 3.105-.051 1.085-.346 2.158-.531 3.225-.447 2.57-.822 5.155-1.092 7.75a.588.588 0 0 1-.042.16c-.009.216-.018.431-.018.648 0 .471-.43.644-.77.518-.303.286-.917.124-.988-.417-.252-1.916-.19-3.842-.066-5.771-.276 2.07-.327 4.065-.28 6.176.016.663-1.015.809-1.158.157a12.134 12.134 0 0 1-.268-2.35c-.099.862-.19 1.727-.296 2.596-.09.742-1.088.756-1.162 0-.215-2.171.306-4.51.773-6.625.149-.672.315-1.34.489-2.005-.123.335-.237.674-.338 1.017-.77 2.617-1.139 5.326-1.828 7.962-.181.691-1.215.397-1.062-.293.587-2.664.85-5.402 1.526-8.045.59-2.305 1.562-4.374 2.634-6.484 1.099-2.16 1.926-4.408 2.854-6.642.769-1.852 1.666-3.802 1.966-5.818C8.402 6.745 0 15.365 0 25.955c0 10.001 7.492 18.242 17.156 19.41.807-2.307 1.507-4.646 2.425-6.916.262-.645.558-1.32.785-2.011-.027-.028-.055-.055-.08-.089-1.896-2.499-1.067-6.672.073-9.303.12-.275.248-.543.38-.809.83-2.316 2.361-4.43 3.974-6.225.407-.452.912-.951 1.468-1.249l.159-.193c.232-.287.534-.25.746-.07.321-.011.652.072.984.292 1.198.793 1.78 2.584 2.165 3.892.268.916.396 1.83.41 2.734a15.41 15.41 0 0 1-.148 5.04c-.364 1.904-.984 3.947-2.189 5.492-1.105 1.417-2.697 2.794-4.1 3.921-1.006 1.874-1.971 3.772-3.094 5.57 10.026-.818 17.911-9.226 17.911-19.486 0-9.924-7.377-18.116-16.935-19.38Z" fill="#F9A91F"/><path d="M24.776 24.154a1.643 1.643 0 0 1 .015-.368.88.88 0 0 1 .059.385c-.025-.004-.05-.012-.074-.017Zm-1.374-3.872c.352-.983.715-1.962 1.088-2.936.234-.61.471-1.444 1.023-1.876a14.371 14.371 0 0 1-1.283 4.76c-.188.402-.394.795-.618 1.177-.208.356-.416.764-.73 1.038a.77.77 0 0 1-.292.172c.265-.78.535-1.56.812-2.335Zm9.842-6.87c-.07-1.81-.531-3.697-1.463-5.261-.408-.685-.98-1.347-1.767-1.586-.883-.268-1.755.127-2.468.632-.711.505-1.391 1.067-2.062 1.624a25.875 25.875 0 0 0-1.918 1.745c-1.172 1.192-2.191 2.574-2.719 4.175-.603 1.829-.466 3.803.084 5.626a15.798 15.798 0 0 0 .764 1.977c.092.197.185.405.353.55a90.469 90.469 0 0 0-.506 1.576c-1.131 3.653-2.16 7.33-2.997 11.063a145.003 145.003 0 0 0-1.254 6.338c-.02.116.156.166.178.05.695-3.69 1.575-7.348 2.56-10.97a140.486 140.486 0 0 1 2.404-7.874c.62.083 1.179-.816 1.448-1.263a14.812 14.812 0 0 0 2.098-6.736c.009-.128-.146-.261-.273-.208-.688.286-1.05.92-1.325 1.579-.354.848-.663 1.716-.98 2.578-.41 1.12-.808 2.246-1.188 3.377-.041-.073-.075-.152-.106-.217a14.252 14.252 0 0 1-.543-1.307c-.602-1.687-.89-3.537-.49-5.305.346-1.523 1.172-2.876 2.194-4.04 1.055-1.2 2.3-2.215 3.561-3.19.646-.499 1.326-1.098 2.135-1.304.792-.2 1.472.192 1.97.786.515.617.852 1.401 1.122 2.151a11.277 11.277 0 0 1 .039 7.542 11.281 11.281 0 0 1-2.391 3.925 11.228 11.228 0 0 1-1.74 1.521c-.65.459-1.375.915-2.145 1.137a2.538 2.538 0 0 1-.444.083c.005-.488-.152-.96-.666-1.148-.15-.054-.288.063-.338.192-.152.394-.18.804-.114 1.22.015.096.108.163.193.192a2.3 2.3 0 0 0 .306.08 4.525 4.525 0 0 1-.05.174c-.264.83-.55 1.653-.828 2.478a435.637 435.637 0 0 1-6.357 17.574c-.356.923-.672 1.863-1.036 2.783-.105.268.328.384.432.12.336-.85.713-1.682 1.043-2.533a399.1 399.1 0 0 0 2.877-7.635 416.093 416.093 0 0 0 4.087-11.728c.131-.396.29-.793.382-1.201.635-.038 1.262-.314 1.819-.614a11.84 11.84 0 0 0 5.076-5.418 11.636 11.636 0 0 0 1.043-5.31Zm-15.508 3.876a1.273 1.273 0 0 1 .064-.66c.025.296.02.594-.009.889-.021-.075-.043-.15-.055-.229Zm-2.332 6.156c.257.007.515.043.77.093-.809.306-1.655.495-2.48.75.293-.604 1.05-.86 1.71-.843ZM22.129.407l-2.766 8.25-1.372 4.092-.692 2.063c-.204.609-.428 1.215-.603 1.833-.307 1.08-.485 2.423.4 3.287.098.097.26.074.332-.043.23-.373.408-.773.54-1.186.283.376.583.742.74 1.188.26.744.015 1.527-.424 2.149-.386.546-.917.942-1.505 1.236a5.885 5.885 0 0 0-1.375-.232c-.943-.027-2.063.46-2.213 1.5-.02.14.087.304.25.25 1.103-.375 2.335-.593 3.406-1.094.386.109.734.288.786.729.024.201-.002.407-.025.607-.033.279-.068.557-.102.836l-.186 1.533c-.127 1.045-.257 2.09-.386 3.136l-.334 2.71c-.233-.857-.2-1.773-.112-2.656.115-1.145.332-2.292.263-3.447a5.089 5.089 0 0 0-.431-1.82c-.073-.16-.286-.087-.336.044a15.346 15.346 0 0 0-.932 3.875 16.44 16.44 0 0 0-.08 1.98c.007.48.01.969-.078 1.442-.072.389-.21.763-.478 1.038l.51-7.218c.01-.154.05-.334.034-.488-.01-.109-.092-.178-.184-.228a.52.52 0 0 0-.498.018c-.383.209-.565.669-.646 1.071l-.755 3.75-.357 1.77.255-4.733.111-2.064c.01-.165-.205-.238-.315-.13-1.746 1.705-1.25 4.43-1.813 6.596a5.148 5.148 0 0 1-.416 1.088c.23-2.146.495-4.288.816-6.423.172-1.145.342-2.295.574-3.43.218-1.064.507-2.125.983-3.106.48-.989 1.163-1.855 1.774-2.764a15.578 15.578 0 0 0 1.501-2.872c.848-2.1 1.373-4.322 1.966-6.501.64-2.35 1.27-4.7 1.884-7.055l.231-.884c.027-.105-.132-.149-.163-.044a704.623 704.623 0 0 0-2.042 7.047c-.329 1.161-.655 2.323-.987 3.483-.299 1.048-.604 2.096-.98 3.12-.38 1.031-.835 2.037-1.41 2.974-.579.945-1.287 1.805-1.837 2.768-1.105 1.938-1.415 4.198-1.752 6.367a147.619 147.619 0 0 0-1.031 8.1c-.016.163.228.265.332.138 1.546-1.894.988-4.525 1.676-6.722.139-.44.339-.855.611-1.221l-.36 6.713-.11 2.064c-.011.204.32.252.36.049l1.564-7.774c.056-.28.1-.548.256-.792.073-.113.238-.334.391-.28l-.567 8.004c-.01.143.162.223.276.159.906-.51 1.031-1.635 1.042-2.574.008-.616-.013-1.23.028-1.846a14.744 14.744 0 0 1 .798-3.893c.3.938.253 1.955.152 2.927-.119 1.141-.333 2.29-.25 3.44.046.628.187 1.238.462 1.806.088.184.323.067.342-.092.28-2.277.557-4.553.842-6.83l.217-1.741c.058-.46.178-.974-.01-1.418-.12-.28-.348-.457-.61-.58a4.282 4.282 0 0 0 1-.792c.521-.567.913-1.299.93-2.084.019-.868-.49-1.507-.974-2.173a5.553 5.553 0 0 1-.158-.228 5.52 5.52 0 0 0 .043-2.113c-.023-.128-.206-.2-.311-.126-.603.423-.646 1.226-.405 1.869.058.157.137.302.223.443a5.082 5.082 0 0 1-.45 1.16c-.524-.73-.355-1.758-.131-2.58.163-.6.379-1.187.576-1.777l.67-1.996 2.688-8.017L22.53.517c.085-.253-.315-.362-.4-.11Z" fill="#212222"/></svg>