<svg width="152" height="140" viewBox="0 0 152 140" fill="none" xmlns="http://www.w3.org/2000/svg">
<path d="M73.6656 140C114.074 140 146.831 116.058 146.831 86.5249C146.831 56.9914 114.074 33.0498 73.6656 33.0498C33.2574 33.0498 0.5 56.9914 0.5 86.5249C0.5 116.058 33.2574 140 73.6656 140Z" fill="#BC1F17"/>
<path d="M73.2783 130.272C109.909 130.272 139.605 109.92 139.605 84.8144C139.605 59.7089 109.909 39.3569 73.2783 39.3569C36.6473 39.3569 6.95202 59.7089 6.95202 84.8144C6.95202 109.92 36.6473 130.272 73.2783 130.272Z" stroke="#FCEFFD" stroke-miterlimit="10" stroke-linecap="round" stroke-linejoin="round"/>
<path d="M67.0593 130.156C67.0593 130.503 66.9878 135.464 66.9878 135.464H77.2143V132.233L73.3526 132.464" stroke="#FCEFFD" stroke-miterlimit="10" stroke-linecap="round" stroke-linejoin="round"/>
<path d="M80.1105 130.116C80.1359 130.461 80.4289 135.41 80.4289 135.41L90.616 134.343L90.3788 131.125L86.549 131.757" stroke="#FCEFFD" stroke-miterlimit="10" stroke-linecap="round" stroke-linejoin="round"/>
<path d="M93.7209 128.173C93.7749 128.513 94.4787 133.403 94.4787 133.403L104.527 131.135L104.022 127.961L100.264 129.044" stroke="#FCEFFD" stroke-miterlimit="10" stroke-linecap="round" stroke-linejoin="round"/>
<path d="M107.145 124.342C107.24 124.669 108.54 129.383 108.54 129.383L118.198 125.378L117.308 122.326L113.724 124.057" stroke="#FCEFFD" stroke-miterlimit="10" stroke-linecap="round" stroke-linejoin="round"/>
<path d="M119.176 118.165C119.327 118.46 121.434 122.739 121.434 122.739L130.163 116.386L128.751 113.629L125.555 116.225" stroke="#FCEFFD" stroke-miterlimit="10" stroke-linecap="round" stroke-linejoin="round"/>
<path d="M129.895 109.037C130.107 109.273 133.102 112.72 133.102 112.72L140.077 103.805L138.096 101.602L135.603 105.125" stroke="#FCEFFD" stroke-miterlimit="10" stroke-linecap="round" stroke-linejoin="round"/>
<path d="M137.37 97.4869C137.636 97.6252 141.423 99.6861 141.423 99.6861L145.509 88.5106L143.025 87.2197L141.659 91.5319" stroke="#FCEFFD" stroke-miterlimit="10" stroke-linecap="round" stroke-linejoin="round"/>
<path d="M139.689 84.2155C139.974 84.1494 144.072 83.284 144.072 83.284L142.115 71.3179L139.456 71.936L140.384 76.4104" stroke="#FCEFFD" stroke-miterlimit="10" stroke-linecap="round" stroke-linejoin="round"/>
<path d="M29.419 119.33C29.3044 119.648 27.5968 124.173 27.5968 124.173L36.9937 128.983L38.0627 126.014L34.438 124.41" stroke="#FCEFFD" stroke-miterlimit="10" stroke-linecap="round" stroke-linejoin="round"/>
<path d="M40.6963 125.137C40.6202 125.471 39.4622 130.237 39.4622 130.237L49.3321 133.428L50.0414 130.31L46.2637 129.328" stroke="#FCEFFD" stroke-miterlimit="10" stroke-linecap="round" stroke-linejoin="round"/>
<path d="M53.8708 128.593C53.839 128.937 53.3142 133.859 53.3142 133.859L63.4795 135.189L63.775 131.978L59.9152 131.705" stroke="#FCEFFD" stroke-miterlimit="10" stroke-linecap="round" stroke-linejoin="round"/>
<path d="M78.8135 38.9894C78.8121 38.6792 78.8636 34.2345 78.8636 34.2345L68.6382 34.2202L68.6514 37.1143L72.5119 36.9131" stroke="#FCEFFD" stroke-miterlimit="10" stroke-linecap="round" stroke-linejoin="round"/>
<path d="M65.9199 39.3871C65.8859 39.0791 65.4693 34.6565 65.4693 34.6565L55.3132 35.936L55.6309 38.81L59.4432 38.1215" stroke="#FCEFFD" stroke-miterlimit="10" stroke-linecap="round" stroke-linejoin="round"/>
<path d="M52.3902 41.3681C52.3202 41.0676 51.3869 36.7422 51.3869 36.7422L41.4627 39.4437L42.1158 42.2481L45.8167 41.0276" stroke="#FCEFFD" stroke-miterlimit="10" stroke-linecap="round" stroke-linejoin="round"/>
<path d="M116.719 50.2922C116.836 49.9892 118.585 45.6784 118.585 45.6784L109.134 41.4656L108.038 44.2918L111.686 45.6806" stroke="#FCEFFD" stroke-miterlimit="10" stroke-linecap="round" stroke-linejoin="round"/>
<path d="M126.708 57.6065C126.879 57.3421 129.387 53.6015 129.387 53.6015L120.956 46.9927L119.361 49.4587L122.659 51.7783" stroke="#FCEFFD" stroke-miterlimit="10" stroke-linecap="round" stroke-linejoin="round"/>
<path d="M135.814 69.2389C136.537 68.4807 137.288 67.7158 138.069 66.9479C138.603 66.4223 139.134 65.9128 139.659 65.4187L132.628 56.7908L130.624 58.7866C131.557 59.8253 132.489 60.8636 133.422 61.9022" stroke="#FCEFFD" stroke-miterlimit="10" stroke-linecap="round" stroke-linejoin="round"/>
<path d="M105.102 44.7833C105.175 44.4546 106.293 39.7583 106.293 39.7583L96.3424 37.2405L95.6603 40.31L99.4666 41.0417" stroke="#FCEFFD" stroke-miterlimit="10" stroke-linecap="round" stroke-linejoin="round"/>
<path d="M92.2875 41.2941C92.3339 40.9886 93.0717 36.6264 93.0717 36.6264L82.986 34.657L82.5515 37.5064L86.391 38.0466" stroke="#FCEFFD" stroke-miterlimit="10" stroke-linecap="round" stroke-linejoin="round"/>
<path d="M6.90165 86.4617C6.61724 86.531 2.52622 87.4439 2.52622 87.4439L4.57959 99.3868L7.23429 98.7383L6.26924 94.2746" stroke="#FCEFFD" stroke-miterlimit="10" stroke-linecap="round" stroke-linejoin="round"/>
<path d="M10.4167 100.197C10.1948 100.42 6.9706 103.558 6.9706 103.558L13.5723 112.869L15.6418 110.783L13.001 107.416" stroke="#FCEFFD" stroke-miterlimit="10" stroke-linecap="round" stroke-linejoin="round"/>
<path d="M18.8095 111.053C18.6466 111.339 16.2502 115.396 16.2502 115.396L24.712 122.242L26.2338 119.57L22.9299 117.175" stroke="#FCEFFD" stroke-miterlimit="10" stroke-linecap="round" stroke-linejoin="round"/>
<path d="M9.80466 71.9192C9.56849 71.822 6.20885 70.345 6.20885 70.345L2.70201 82.458L4.9058 83.3648L6.07272 78.726" stroke="#FCEFFD" stroke-miterlimit="10" stroke-linecap="round" stroke-linejoin="round"/>
<path d="M17.6344 60.0132C17.4475 59.8156 14.8189 56.9165 14.8189 56.9165L7.68626 66.5027L9.43022 68.3471L11.9992 64.5955" stroke="#FCEFFD" stroke-miterlimit="10" stroke-linecap="round" stroke-linejoin="round"/>
<path d="M28.3243 51.4711C27.8537 50.6715 27.3817 49.8493 26.9101 49.0047C26.5689 48.3941 26.2366 47.7877 25.9136 47.1868L17.0395 54.417L18.3551 56.7115C19.4409 55.7468 20.5263 54.7821 21.6122 53.8174" stroke="#FCEFFD" stroke-miterlimit="10" stroke-linecap="round" stroke-linejoin="round"/>
<path d="M40.6502 45.1859C40.3358 44.2837 40.0239 43.3598 39.7163 42.4137C39.4937 41.7294 39.2793 41.052 39.0724 40.3821L29.0978 45.157L29.9664 47.7359C31.2012 47.0735 32.436 46.4111 33.6708 45.7486" stroke="#FCEFFD" stroke-miterlimit="10" stroke-linecap="round" stroke-linejoin="round"/>
<path d="M67.3705 41.8257C72.4237 41.5574 77.543 41.4549 82.6562 41.7571C102.335 42.9201 116.645 51.0211 122.562 54.2674C125.469 55.8628 127.727 57.2977 129.214 58.2856C128.409 57.9962 127.171 57.5595 125.646 57.0558C120.83 55.4658 119.279 55.2325 115.738 53.8498C114.708 53.4478 113.602 53.0062 112.14 52.3334C109.704 51.2122 108.695 50.5205 105.434 49.3043C98.1099 46.5735 90.0411 44.5076 81.6733 43.2242C76.9713 42.5032 72.1743 42.0298 67.3705 41.8257Z" fill="#6BA91F"/>
<path d="M44.8595 30.9662C48.8901 31.4629 64.3553 33.5112 89.2898 42.3775C94.5813 44.259 100.333 46.5607 111.837 51.1641C119.041 54.0467 124.971 56.491 129.094 58.2074C127.844 55.4341 124.198 53.2282 120.628 51.213C116.686 48.9881 112.635 46.8072 108.109 45.005C105.806 44.0882 103.393 43.2739 100.982 42.4611C97.8816 41.4157 94.781 40.3699 91.6808 39.3244C88.1714 38.141 84.6574 36.9559 81.0041 35.9405C75.5929 34.4363 69.9165 33.3144 64.2516 32.206C61.3268 31.6336 58.3942 31.0627 55.3947 30.6675C49.8802 29.9411 44.1699 29.8204 38.659 30.3134C40.1257 30.4417 42.2788 30.6482 44.8595 30.9662Z" fill="#6BA91F"/>
<path d="M132.129 58.3357C110.387 49.592 84.7975 41.5239 54.8584 35.3366C52.0293 34.7521 49.2106 34.1944 46.4037 33.6624C50.3433 33.941 56.7249 34.4927 64.3031 35.6468C85.0165 38.8013 99.5977 44.1622 116.962 50.6581C121.478 52.3474 127.974 54.8656 135.559 58.1395C134.415 58.2049 133.272 58.2703 132.129 58.3357Z" fill="#6BA91F"/>
<path d="M57.2694 14.0239C62.3387 18.1392 66.6837 21.5239 69.9533 24.0282C89.7889 39.2217 97.9345 43.3885 106.827 45.6448C108.587 46.0914 110.046 46.3794 110.977 46.5491C108.992 45.1382 106.077 43.1212 102.467 40.821C98.4022 38.231 95.3534 36.4909 91.659 34.3897C77.1403 26.1316 76.2878 25.7235 72.6331 23.5815C68.9565 21.4267 63.6375 18.2164 57.2694 14.0239Z" fill="#6BA91F"/>
<path d="M54.7365 14.7158C57.8468 17.5781 61.2071 20.4765 65.0627 23.3673C76.5815 32.0042 92.4768 40.3645 107.682 45.8308C109.191 46.3732 111.198 47.0574 111.986 46.8083C109.452 44.8625 105.735 43.3351 102.519 41.9731C98.2728 40.1748 94.0407 38.2301 89.8914 36.1856C81.5329 32.0667 73.4877 27.5205 66.2043 22.7971C62.1115 20.1428 58.2602 17.4323 54.7365 14.7158Z" fill="#6BA91F"/>
<path d="M50.7942 17.7927C51.016 17.9278 51.2883 18.0925 51.6124 18.2858C63.7664 25.5406 88.5662 35.8571 88.5662 35.8571C99.4987 40.3976 101.352 41.0236 104.025 42.1345C104.025 42.1345 105.745 42.8558 107.387 43.5915C113.157 46.1747 117.811 49.2296 125.21 52.6957C126.229 53.173 127.965 53.9698 130.196 54.9016C128.854 54.4922 127.107 53.9334 125.077 53.2202C121.899 52.1037 119.705 51.194 116.771 49.9721C107.437 46.0833 106.465 45.6359 102.208 43.8956C99.071 42.6132 98.723 42.5221 95.3859 41.1229C92.4836 39.906 89.5817 38.6891 86.6794 37.4725C83.3944 36.0951 80.1051 34.716 76.9167 33.2443C72.1939 31.064 67.7274 28.6973 63.2819 26.3335C60.9863 25.113 58.6882 23.8885 56.5395 22.6033C52.5885 20.2402 49.1728 17.6827 46.5274 15.1069C47.5085 15.7468 48.9687 16.683 50.7942 17.7927Z" fill="#6BA91F"/>
<path d="M133.223 55.9592C123.971 52.0393 116.406 48.9776 111.456 47.0011C88.7606 37.9383 69.2566 31.0225 42.5428 21.5407C38.4889 20.1018 35.1972 18.9442 33.2164 18.2493C36.4874 19.8707 42.0823 22.585 49.2267 25.7357C62.8175 31.7289 78.4101 37.2305 109.041 47.989C111.697 48.9219 130.356 55.4722 130.735 55.6051C130.787 55.6233 133.708 56.6484 133.76 56.6666C133.581 56.4308 133.402 56.195 133.223 55.9592Z" fill="#6BA91F"/>
<path d="M133.753 56.5195C105.685 46.7361 75.8655 35.0551 45.6838 21.1463C42.8319 19.8322 40.0264 18.5206 37.2663 17.2129C40.463 19.083 45.7863 22.105 52.8297 25.6565C72.0818 35.3634 90.178 41.9623 111.89 49.8124C117.536 51.854 125.786 54.7842 135.901 58.1802C135.185 57.6271 134.469 57.0733 133.753 56.5195Z" fill="#6BA91F"/>
<path d="M46.5656 15.1702C47.4002 15.9176 48.6225 16.9774 50.1535 18.1775C55.241 22.1653 59.6075 24.4673 63.0979 26.2688C71.9535 30.8389 79.7611 34.5548 85.049 37.0101" stroke="#07961A" stroke-miterlimit="10" stroke-linecap="round" stroke-linejoin="round"/>
<path d="M38.1617 30.1652C43.9395 29.8083 48.6697 30.0259 51.9725 30.301C58.0086 30.804 63.2087 31.902 73.3626 34.0776C77.8842 35.0462 81.6144 35.9055 84.1765 36.5093" stroke="#07961A" stroke-miterlimit="10" stroke-linecap="round" stroke-linejoin="round"/>
<path d="M122.478 53.6153C115.584 49.6922 105.034 44.8187 91.446 42.5938C81.8834 41.0281 73.5252 41.2179 67.1007 41.8828" stroke="#07961A" stroke-miterlimit="10" stroke-linecap="round" stroke-linejoin="round"/>
<path d="M46.5506 33.6116C50.2071 33.8524 55.1599 34.2761 61.0099 35.0733C64.5518 35.5556 67.1472 36.0015 68.8272 36.2888C95.6178 40.8725 104.402 41.9819 115.592 47.7361C116.475 48.1899 117.169 48.5679 117.492 48.7458" stroke="#07961A" stroke-miterlimit="10" stroke-linecap="round" stroke-linejoin="round"/>
<path d="M114.648 44.2368C115.478 45.0654 116.629 46.1626 118.069 47.3839C119.312 48.4382 120.901 49.7856 122.808 50.9943C123.706 51.5638 124.552 52.1162 125.806 52.7193C126.558 53.0813 128.597 54.047 131.128 54.5422C133.821 55.0689 134.491 54.7773 137.165 54.7527C139.978 54.7266 144.027 55.3019 145.759 57.734C147.846 60.6641 146.643 64.9631 143.531 66.7024C141.43 67.8765 138.604 67.735 136.463 66.6745C133.709 65.3111 132.239 62.7146 130.172 60.647C128.463 58.937 126.264 57.879 124.049 56.8847C123.403 56.5946 122.716 56.2937 121.859 55.9843C118.138 54.6409 115.125 54.8713 115.124 54.6323C115.124 54.5062 116.074 54.4147 119.291 54.1721C120.659 54.0692 121.81 53.9859 122.649 53.9263C121.731 53.1545 120.778 52.2745 119.824 51.2744C117.478 48.812 115.82 46.3463 114.648 44.2368Z" fill="#B2C965"/>
<path d="M140.438 55.4456C141.603 55.5631 142.735 56.0015 143.689 56.7043" stroke="#FFEE5F" stroke-miterlimit="10" stroke-linecap="round" stroke-linejoin="round"/>
<path d="M145.046 57.9919C145.789 58.689 146.261 59.6941 146.335 60.7385" stroke="#FFEE5F" stroke-miterlimit="10" stroke-linecap="round" stroke-linejoin="round"/>
<path d="M144.867 61.6938C144.746 61.1572 144.256 60.6966 143.545 60.4504" stroke="#FFEE5F" stroke-miterlimit="10" stroke-linecap="round" stroke-linejoin="round"/>
<path d="M142.657 59.8759C141.359 59.1438 140.275 58.7011 139.615 58.455C135.54 56.934 133.155 57.4856 128.243 56.0593C127.176 55.7495 126.339 55.448 125.891 55.2808" stroke="#FFEE5F" stroke-miterlimit="10" stroke-linecap="round" stroke-linejoin="round"/>
<path d="M130.141 55.2776C131.7 55.9447 133.348 56.1948 134.991 56.014" stroke="#FFEE5F" stroke-miterlimit="10" stroke-linecap="round" stroke-linejoin="round"/>
<path d="M137.261 55.7965C137.68 55.7393 138.103 55.7214 138.524 55.7436" stroke="#FFEE5F" stroke-miterlimit="10" stroke-linecap="round" stroke-linejoin="round"/>
<path d="M127.741 58.1128C128.57 58.5248 129.581 59.1243 130.628 59.995C131.47 60.6953 132.137 61.4053 132.652 62.0312" stroke="#FFEE5F" stroke-miterlimit="10" stroke-linecap="round" stroke-linejoin="round"/>
<path d="M133.513 63.063C133.979 63.5578 136.565 66.2318 139.849 66.3665C140.56 66.3958 141.911 66.4512 143.293 65.6169C143.871 65.2682 144.284 64.8666 144.551 64.5676" stroke="#FFEE5F" stroke-miterlimit="10" stroke-linecap="round" stroke-linejoin="round"/>
<path d="M144.206 62.9671C143.684 63.4473 142.517 64.3823 140.814 64.6367C138.637 64.9619 136.931 63.9721 136.172 63.5316C134.836 62.7566 134.977 62.3665 132.824 60.6093C131.231 59.3095 129.877 58.4809 129.264 58.1211C128.216 57.5055 126.754 56.7469 124.905 56.0767" stroke="#FFEE5F" stroke-miterlimit="10" stroke-linecap="round" stroke-linejoin="round"/>
<path d="M142.982 61.6839C142.982 61.6839 138.965 62.3571 130.794 57.8337" stroke="#FFEE5F" stroke-miterlimit="10" stroke-linecap="round" stroke-linejoin="round"/>
<path d="M146.17 62.2402C146.173 62.2105 146.196 62.0258 146.081 61.9107C145.965 61.7946 145.788 61.83 145.754 61.8368C145.325 61.9222 144.936 62.7632 145.182 63.2374C145.202 63.2745 145.305 63.4732 145.509 63.5128C145.694 63.5486 145.898 63.4414 146.038 63.2399" stroke="#FFEE5F" stroke-miterlimit="10" stroke-linecap="round" stroke-linejoin="round"/>
<path d="M114.513 44.2253C114.513 44.2253 119.705 53.2238 124.937 55.0042" stroke="#FFEE5F" stroke-miterlimit="10" stroke-linecap="round" stroke-linejoin="round"/>
<path d="M144.759 60.0369C143.813 58.0907 141.704 57.3862 139.823 56.8656C139.501 56.7763 138.998 56.6573 138.379 56.4836" stroke="#FFEE5F" stroke-miterlimit="10" stroke-linecap="round" stroke-linejoin="round"/>
<path d="M114.813 54.4902C114.943 54.4527 120.274 53.8717 122.649 53.9257" stroke="#FFEE5F" stroke-miterlimit="10" stroke-linecap="round" stroke-linejoin="round"/>
<path d="M126.37 72.0692L120.403 71.8549C111.582 60.7827 93.9642 53.2288 73.6656 53.2288C55.4247 53.2288 39.3472 59.3281 29.8739 68.5996L21.5789 68.3012L20.963 86.5357C20.9333 87.0149 20.914 87.4958 20.914 87.9795C20.914 107.172 44.5319 122.73 73.6656 122.73C102.8 122.73 126.418 107.172 126.418 87.9795L126.37 72.0692Z" fill="#BF8C55"/>
<mask id="mask0_18_2845" style="mask-type:luminance" maskUnits="userSpaceOnUse" x="20" y="53" width="107" height="70">
<path d="M126.37 72.0692L120.403 71.8549C111.582 60.7827 93.9642 53.2288 73.6656 53.2288C55.4247 53.2288 39.3472 59.3281 29.8739 68.5996L21.5789 68.3012L20.963 86.5357C20.9333 87.0149 20.914 87.4958 20.914 87.9795C20.914 107.172 44.5319 122.73 73.6656 122.73C102.8 122.73 126.418 107.172 126.418 87.9795L126.37 72.0692Z" fill="white"/>
</mask>
<g mask="url(#mask0_18_2845)">
<path d="M19.4673 74.4194C19.8789 107.212 59.3378 116.591 85.5042 112.641C91.7937 111.692 97.9924 110.115 103.967 107.934" stroke="#FFEE5F" stroke-miterlimit="10" stroke-linecap="round" stroke-linejoin="round"/>
<path d="M108.602 105.617C109.137 105.617 123.755 98.1292 128.569 82.2632" stroke="#FFEE5F" stroke-miterlimit="10" stroke-linecap="round" stroke-linejoin="round"/>
<path d="M19.4673 89.5723C21.4224 93.3353 25.5492 100.066 33.2535 105.854C40.5152 111.309 47.6543 113.447 51.7342 114.352" stroke="#805429" stroke-miterlimit="10"/>
<path d="M70.8091 117.745C80.987 117.983 89.0204 116.467 94.1815 115.144C98.0127 114.162 104.147 112.486 110.908 108.4C113.28 106.967 115.136 105.592 116.446 104.547" stroke="#805429" stroke-miterlimit="10"/>
<path d="M120.19 100.506C120.19 100.506 128.39 91.0579 130.827 85.2937" stroke="#805429" stroke-miterlimit="10"/>
<path d="M34.4419 99.793C40.6284 103.413 53.3124 109.721 70.5715 110.608C89.4841 111.579 103.796 105.521 110.266 102.289" stroke="#805429" stroke-miterlimit="10"/>
</g>
<path d="M73.6656 107.657C102.8 107.657 126.417 92.0989 126.417 72.9065C126.417 53.7142 102.8 38.1558 73.6656 38.1558C44.5317 38.1558 20.914 53.7142 20.914 72.9065C20.914 92.0989 44.5317 107.657 73.6656 107.657Z" fill="#FDCE64"/>
<path d="M124.307 72.9066C124.307 91.3312 101.634 106.267 73.6656 106.267C45.697 106.267 23.0238 91.3312 23.0238 72.9066C23.0238 54.482 45.697 39.5457 73.6656 39.5457" stroke="#FFEE5F" stroke-miterlimit="10"/>
<path d="M73.6656 104.182C99.8862 104.182 121.142 90.1797 121.142 72.9066C121.142 55.6335 99.8862 41.6309 73.6656 41.6309C47.4451 41.6309 26.1891 55.6335 26.1891 72.9066C26.1891 90.1797 47.4451 104.182 73.6656 104.182Z" fill="#AA7037"/>
<mask id="mask1_18_2845" style="mask-type:luminance" maskUnits="userSpaceOnUse" x="26" y="41" width="96" height="64">
<path d="M73.6656 104.182C99.8862 104.182 121.142 90.1797 121.142 72.9066C121.142 55.6335 99.8862 41.6309 73.6656 41.6309C47.4451 41.6309 26.1891 55.6335 26.1891 72.9066C26.1891 90.1797 47.4451 104.182 73.6656 104.182Z" fill="white"/>
</mask>
<g mask="url(#mask1_18_2845)">
<path d="M115.574 54.5563L30.8938 87.3567L31.9239 90.0161L116.604 57.2157L115.574 54.5563Z" fill="#805429"/>
</g>
<mask id="mask2_18_2845" style="mask-type:luminance" maskUnits="userSpaceOnUse" x="26" y="41" width="96" height="64">
<path d="M73.6656 104.182C99.8862 104.182 121.142 90.1797 121.142 72.9066C121.142 55.6335 99.8862 41.6309 73.6656 41.6309C47.4451 41.6309 26.1891 55.6335 26.1891 72.9066C26.1891 90.1797 47.4451 104.182 73.6656 104.182Z" fill="white"/>
</mask>
<g mask="url(#mask2_18_2845)">
<path d="M20.27 62.4143L17.9551 64.0801L50.2827 109.004L52.5976 107.339L20.27 62.4143Z" fill="#BF8C55"/>
<path d="M30.7332 57.4905L28.4106 59.1462L63.8269 108.827L66.1496 107.171L30.7332 57.4905Z" fill="#BF8C55"/>
<path d="M40.2296 50.8164L37.9229 52.4941L79.7589 110.013L82.0656 108.336L40.2296 50.8164Z" fill="#BF8C55"/>
<path d="M50.6891 43.9217L48.3859 45.6042L92.8377 106.453L95.1409 104.771L50.6891 43.9217Z" fill="#BF8C55"/>
<path d="M62.5734 38.692L60.2702 40.3745L104.722 101.223L107.025 99.5409L62.5734 38.692Z" fill="#BF8C55"/>
<path d="M73.3883 33.2247L71.0851 34.9072L115.537 95.7562L117.84 94.0736L73.3883 33.2247Z" fill="#BF8C55"/>
<path d="M92.5544 39.7239L90.3168 41.4929L128.12 89.3108L130.358 87.5418L92.5544 39.7239Z" fill="#BF8C55"/>
<path d="M25.737 60.5717L23.4221 62.2375L55.7497 107.162L58.0646 105.496L25.737 60.5717Z" fill="#BF8C55"/>
<path d="M35.9622 56.1245L33.6396 57.7803L69.0558 107.461L71.3784 105.805L35.9622 56.1245Z" fill="#BF8C55"/>
<path d="M46.1715 48.2017L43.8649 49.8794L85.7011 107.399L88.0078 105.721L46.1715 48.2017Z" fill="#BF8C55"/>
<path d="M56.6314 41.3069L54.3281 42.9895L98.7801 103.839L101.083 102.156L56.6314 41.3069Z" fill="#BF8C55"/>
<path d="M68.5159 36.0772L66.2127 37.7598L110.664 98.6087L112.968 96.9262L68.5159 36.0772Z" fill="#BF8C55"/>
<path d="M83.3677 36.3116L81.067 37.9976L121.478 93.1408L123.778 91.4548L83.3677 36.3116Z" fill="#BF8C55"/>
<path d="M100.75 40.2601L98.5062 42.0205L131.912 84.6055L134.156 82.8451L100.75 40.2601Z" fill="#BF8C55"/>
</g>
<mask id="mask3_18_2845" style="mask-type:luminance" maskUnits="userSpaceOnUse" x="26" y="41" width="96" height="64">
<path d="M73.6656 104.182C99.8862 104.182 121.142 90.1797 121.142 72.9066C121.142 55.6335 99.8862 41.6309 73.6656 41.6309C47.4451 41.6309 26.1891 55.6335 26.1891 72.9066C26.1891 90.1797 47.4451 104.182 73.6656 104.182Z" fill="white"/>
</mask>
<g mask="url(#mask3_18_2845)">
<path d="M33.7437 86.0664C35.264 86.512 36.7843 86.9579 38.3046 87.4034" stroke="#FDCE64" stroke-miterlimit="10" stroke-linecap="round" stroke-linejoin="round"/>
<path d="M35.4077 88.6215C35.8185 87.4381 36.2298 86.2544 36.6407 85.071" stroke="#FDCE64" stroke-miterlimit="10" stroke-linecap="round" stroke-linejoin="round"/>
<path d="M39.181 84.0461C40.7013 84.4917 42.2216 84.9376 43.7419 85.3831" stroke="#FDCE64" stroke-miterlimit="10" stroke-linecap="round" stroke-linejoin="round"/>
<path d="M40.845 86.601C41.2559 85.4176 41.6671 84.2339 42.078 83.0505" stroke="#FDCE64" stroke-miterlimit="10" stroke-linecap="round" stroke-linejoin="round"/>
<path d="M44.5587 81.9956C46.079 82.4412 47.5992 82.8871 49.1195 83.3326" stroke="#FDCE64" stroke-miterlimit="10" stroke-linecap="round" stroke-linejoin="round"/>
<path d="M46.2226 84.5512C46.6335 83.3678 47.0447 82.1841 47.4556 81.0007" stroke="#FDCE64" stroke-miterlimit="10" stroke-linecap="round" stroke-linejoin="round"/>
<path d="M49.3125 80.0352C50.8327 80.4807 52.353 80.9266 53.8733 81.3721" stroke="#FDCE64" stroke-miterlimit="10" stroke-linecap="round" stroke-linejoin="round"/>
<path d="M50.9764 82.59C51.3873 81.4063 51.7985 80.2229 52.2094 79.0396" stroke="#FDCE64" stroke-miterlimit="10" stroke-linecap="round" stroke-linejoin="round"/>
<path d="M56.0275 77.4797C57.5477 77.9253 59.068 78.3712 60.5883 78.8167" stroke="#FDCE64" stroke-miterlimit="10" stroke-linecap="round" stroke-linejoin="round"/>
<path d="M57.6914 80.0351C58.1023 78.8513 58.5135 77.668 58.9244 76.4846" stroke="#FDCE64" stroke-miterlimit="10" stroke-linecap="round" stroke-linejoin="round"/>
<path d="M62.2076 75.103C63.7279 75.5486 65.2481 75.9945 66.7684 76.44" stroke="#FDCE64" stroke-miterlimit="10" stroke-linecap="round" stroke-linejoin="round"/>
<path d="M63.8715 77.6579C64.2824 76.4741 64.6936 75.2908 65.1045 74.1074" stroke="#FDCE64" stroke-miterlimit="10" stroke-linecap="round" stroke-linejoin="round"/>
<path d="M68.2687 72.7852C69.789 73.2307 71.3093 73.6766 72.8296 74.1222" stroke="#FDCE64" stroke-miterlimit="10" stroke-linecap="round" stroke-linejoin="round"/>
<path d="M69.9326 75.3405C70.3435 74.1571 70.7548 72.9734 71.1656 71.79" stroke="#FDCE64" stroke-miterlimit="10" stroke-linecap="round" stroke-linejoin="round"/>
<path d="M74.3892 70.5271C75.9094 70.9726 77.4297 71.4186 78.95 71.8641" stroke="#FDCE64" stroke-miterlimit="10" stroke-linecap="round" stroke-linejoin="round"/>
<path d="M76.0531 73.0824C76.464 71.8987 76.8752 70.7153 77.2861 69.532" stroke="#FDCE64" stroke-miterlimit="10" stroke-linecap="round" stroke-linejoin="round"/>
<path d="M80.4507 68.0908C81.9709 68.5364 83.4912 68.9823 85.0115 69.4278" stroke="#FDCE64" stroke-miterlimit="10" stroke-linecap="round" stroke-linejoin="round"/>
<path d="M82.1142 70.6461C82.5251 69.4624 82.9363 68.2791 83.3472 67.0957" stroke="#FDCE64" stroke-miterlimit="10" stroke-linecap="round" stroke-linejoin="round"/>
<path d="M86.6304 65.7141C88.1507 66.1597 89.671 66.6056 91.1913 67.0511" stroke="#FDCE64" stroke-miterlimit="10" stroke-linecap="round" stroke-linejoin="round"/>
<path d="M88.2943 68.2689C88.7052 67.0852 89.1165 65.9019 89.5274 64.7185" stroke="#FDCE64" stroke-miterlimit="10" stroke-linecap="round" stroke-linejoin="round"/>
<path d="M91.9787 63.5151C93.499 63.9607 95.0193 64.4066 96.5396 64.8521" stroke="#FDCE64" stroke-miterlimit="10" stroke-linecap="round" stroke-linejoin="round"/>
<path d="M93.6423 66.0705C94.0532 64.8871 94.4644 63.7034 94.8753 62.52" stroke="#FDCE64" stroke-miterlimit="10" stroke-linecap="round" stroke-linejoin="round"/>
<path d="M98.0992 61.376C99.6195 61.8215 101.14 62.2674 102.66 62.713" stroke="#FDCE64" stroke-miterlimit="10" stroke-linecap="round" stroke-linejoin="round"/>
<path d="M99.7631 63.931C100.174 62.7473 100.585 61.564 100.996 60.3806" stroke="#FDCE64" stroke-miterlimit="10" stroke-linecap="round" stroke-linejoin="round"/>
<path d="M104.22 58.8804C105.74 59.3259 107.261 59.7718 108.781 60.2174" stroke="#FDCE64" stroke-miterlimit="10" stroke-linecap="round" stroke-linejoin="round"/>
<path d="M105.884 61.4354C106.294 60.2517 106.706 59.0684 107.117 57.885" stroke="#FDCE64" stroke-miterlimit="10" stroke-linecap="round" stroke-linejoin="round"/>
<path d="M109.895 56.5625C111.415 57.008 112.935 57.4539 114.456 57.8995" stroke="#FDCE64" stroke-miterlimit="10" stroke-linecap="round" stroke-linejoin="round"/>
<path d="M111.558 59.1181C111.969 57.9347 112.381 56.751 112.792 55.5676" stroke="#FDCE64" stroke-miterlimit="10" stroke-linecap="round" stroke-linejoin="round"/>
</g>
<path d="M32.8516 64.305C34.4422 66.5567 36.7722 67.2151 39.1031 67.8736C41.5631 68.5686 46.8518 69.5222 52.194 66.8918C57.8229 64.1206 60.7559 57.6629 55.4651 52.7519C53.3528 50.7911 50.1253 49.7853 47.5464 48.643C47.1219 48.4551 46.4816 48.1785 45.6191 48.1485C45.3233 48.1381 44.717 48.2743 43.5029 48.4676C42.5764 48.6151 42.1562 48.6919 41.6221 48.9135C40.9822 49.1789 40.5484 49.508 40.3776 49.6434C39.4733 50.3594 38.9899 51.3713 38.0656 52.078C35.7789 53.8263 33.0499 54.607 31.9205 57.5289C31.044 59.7984 31.4631 62.3395 32.8516 64.305Z" fill="#FEE2B4"/>
<path d="M35.7149 55.2071C35.229 55.5576 34.7488 55.9849 34.588 56.5619C34.4269 57.1389 34.7345 57.8778 35.3262 57.9711C35.9901 58.0758 36.4803 57.3973 36.8415 56.8302C37.6815 55.5122 38.7376 54.3321 39.9546 53.3516C40.194 53.1587 40.5652 52.9793 40.7757 53.2034C40.8546 53.2873 40.8814 53.4067 40.8986 53.5203C41.0079 54.2359 40.866 54.9759 40.5727 55.6376C40.3058 56.2393 39.9196 56.7788 39.5541 57.3265C38.877 58.3412 38.2524 59.4292 38.0502 60.6322C37.848 61.8352 38.1388 63.1822 39.0531 63.9897C39.9021 64.7393 41.1036 64.9019 42.2288 65.0319C42.4567 65.0584 42.6943 65.0837 42.9108 65.0073C43.1456 64.924 43.3239 64.7322 43.4789 64.5371C44.4465 63.318 44.8692 61.7313 44.8938 60.1752C44.9185 58.6192 44.5708 57.0804 44.1314 55.5872C43.9448 54.953 43.7394 54.3142 43.7212 53.6532C43.703 52.9926 43.9005 52.2919 44.3993 51.8585C44.5097 51.7627 44.6619 51.6598 44.8588 51.6427C45.5838 51.5787 46.248 52.8443 46.487 53.3102C48.1816 56.6159 46.9422 59.4724 48.6236 60.7984C49.6105 61.5765 51.3587 61.6341 52.2866 60.892C52.7404 60.529 52.9044 60.0495 52.9279 59.978C53.5593 58.0522 51.1979 54.6822 48.8491 53.6C48.6154 53.4921 47.9984 53.2305 47.6932 52.6149C47.3874 51.9978 47.4106 51.0574 47.9037 50.7259C47.9776 50.6762 48.1556 50.5354 48.4939 50.603C49.3621 50.7766 50.0178 51.4623 50.6681 52.0629C51.3183 52.6635 52.1287 53.2427 53.0058 53.123C53.3049 52.5098 52.5874 51.911 51.9793 51.602C50.4229 50.8109 48.8669 50.0199 47.3106 49.2288C47.0262 49.0841 46.7132 48.9355 46.4005 48.9998C46.1143 49.0587 45.8975 49.2828 45.6674 49.4632C44.1067 50.6873 41.2341 49.4857 40.0182 50.8599C39.4587 51.4923 39.3568 52.3991 38.723 53.0494C37.8573 53.9397 36.7125 54.4875 35.7149 55.2071Z" fill="#F8ECC9"/>
<path d="M42.4406 49.2127C42.1044 49.2727 41.8322 49.3524 41.636 49.4188C41.3309 49.5221 41.2176 49.5907 41.1269 49.6954C41.05 49.7836 40.8953 50.0052 40.9525 50.1456C41.0508 50.3864 41.7271 50.2717 43.048 50.1359C44.6952 49.9666 45.2747 49.9251 45.7227 49.4939C45.9568 49.2688 46.03 49.0376 45.9489 48.8793C45.8774 48.74 45.6881 48.6989 45.6009 48.686" stroke="#F8CDAB" stroke-miterlimit="10" stroke-linecap="round" stroke-linejoin="round"/>
<path d="M37.7394 55.4402C37.7394 55.4402 39.1396 54.2179 39.4497 53.7409C39.7599 53.2643 40.6227 52.8077 40.8521 53.3783C41.0815 53.9489 40.6817 55.5221 39.6348 57.1849C38.5879 58.8478 38.3289 59.6113 38.1849 60.2941" stroke="#F8CDAB" stroke-miterlimit="10" stroke-linecap="round" stroke-linejoin="round"/>
<path d="M44.6626 57.8402C44.6626 57.8402 44.1574 55.9683 43.9198 54.8096C43.6822 53.6509 43.6526 52.4922 44.1574 52.0463C44.6626 51.6008 45.5537 51.3332 46.2669 53.0267C46.9801 54.7203 47.3959 55.5521 47.5149 57.2457C47.6339 58.9392 47.9012 60.2466 48.6143 60.8408" stroke="#F8CDAB" stroke-miterlimit="10" stroke-linecap="round" stroke-linejoin="round"/>
<path d="M48.8594 53.6287C48.261 53.3139 47.7218 52.8284 47.5457 52.1545C47.4413 51.7554 47.3202 50.9165 47.8122 50.7093C48.2356 50.531 48.8594 50.4642 49.7062 51.2888C50.553 52.1134 51.979 53.2053 52.8261 53.1607" stroke="#F8CDAB" stroke-miterlimit="10" stroke-linecap="round" stroke-linejoin="round"/>
<path d="M33.2546 55.444C33.7083 54.5475 34.7163 54.112 35.6027 53.6386C37.0026 52.8915 38.266 51.8896 39.3129 50.6973C39.7591 50.1892 40.1872 49.6301 40.796 49.336C41.3148 49.0856 41.9086 49.0563 42.4842 49.0312" stroke="#FCEFFD" stroke-miterlimit="10" stroke-linecap="round" stroke-linejoin="round"/>
<path d="M40.3501 50.6951C40.0857 50.8133 39.7516 51.0131 39.499 51.3625C39.1335 51.8677 39.2368 52.2743 38.8755 52.8345C38.7351 53.0525 38.5004 53.2433 38.037 53.6152C37.093 54.3731 36.7018 54.5049 35.9264 55.1477C35.5152 55.4885 35.2794 55.684 35.03 55.9862C34.1975 56.9952 34.0656 58.1625 33.9842 58.8864C33.813 60.4045 34.1432 61.6626 34.4233 62.4315" stroke="#FCEFFD" stroke-miterlimit="10" stroke-linecap="round" stroke-linejoin="round"/>
<path d="M45.0364 48.3112C45.9392 48.2579 46.6031 48.4187 47.0444 48.5763C47.6264 48.7846 47.6968 48.9436 48.6357 49.372C49.3728 49.7086 49.4075 49.646 50.3786 50.0541C51.1718 50.3874 51.7692 50.6897 52.1987 50.908C52.775 51.201 53.252 51.4436 53.7365 51.7437C54.3328 52.1128 55.1678 52.7102 56.0617 53.6534" stroke="#FCEFFD" stroke-miterlimit="10" stroke-linecap="round" stroke-linejoin="round"/>
<path d="M57.2029 60.4537C57.4069 59.7256 57.5409 58.9778 57.6024 58.2239" stroke="#FCEFFD" stroke-miterlimit="10" stroke-linecap="round" stroke-linejoin="round"/>
<path d="M54.9841 62.8416C55.4072 61.5486 55.3611 60.1072 54.8562 58.8439C54.3514 57.5805 53.391 56.5043 52.193 55.8594" stroke="#FCEFFD" stroke-miterlimit="10" stroke-linecap="round" stroke-linejoin="round"/>
<path d="M50.1224 54.3123C50.3554 54.5288 50.6041 54.7278 50.866 54.9079" stroke="#FCEFFD" stroke-miterlimit="10" stroke-linecap="round" stroke-linejoin="round"/>
<path d="M56.255 60.6052C56.3379 59.6362 56.3283 58.6515 56.1178 57.7018C55.9074 56.7521 55.4883 55.836 54.8255 55.1243" stroke="#FCEFFD" stroke-miterlimit="10" stroke-linecap="round" stroke-linejoin="round"/>
<path d="M38.4268 65.6309C37.9637 64.7637 37.4896 63.8558 37.4664 62.8733" stroke="#FCEFFD" stroke-miterlimit="10" stroke-linecap="round" stroke-linejoin="round"/>
<path d="M42.5099 50.4124C42.1216 51.2649 41.8968 52.1913 41.8511 53.1267" stroke="#FCEFFD" stroke-miterlimit="10" stroke-linecap="round" stroke-linejoin="round"/>
<path d="M43.1481 50.7166C43.0026 51.1889 42.9612 51.693 43.0273 52.1829" stroke="#FCEFFD" stroke-miterlimit="10" stroke-linecap="round" stroke-linejoin="round"/>
<path d="M45.5666 50.4209C46.5381 51.5707 47.2516 52.937 47.64 54.3908" stroke="#FCEFFD" stroke-miterlimit="10" stroke-linecap="round" stroke-linejoin="round"/>
<path d="M45.4183 60.1147C45.3061 60.7643 45.3665 61.4428 45.5909 62.0624C45.8006 62.6419 46.1472 63.1607 46.4105 63.7181C46.8621 64.6735 47.0619 65.7968 46.7096 66.7929" stroke="#FCEFFD" stroke-miterlimit="10" stroke-linecap="round" stroke-linejoin="round"/>
<path d="M48.4171 66.5975C48.6272 65.9176 48.8394 65.1987 48.6811 64.5049C48.4514 63.4976 47.5203 62.8284 46.964 61.9577C46.3123 60.9376 46.1983 59.6785 46.0468 58.4773C45.8953 57.2764 45.653 56.0073 44.827 55.1223" stroke="#FCEFFD" stroke-miterlimit="10" stroke-linecap="round" stroke-linejoin="round"/>
<path d="M37.3778 61.5055C37.1662 60.4522 36.9833 59.2556 37.6189 58.3891C37.9273 57.9686 38.3889 57.6917 38.7744 57.3405C39.5283 56.6538 39.9889 55.6555 40.0221 54.6365" stroke="#FCEFFD" stroke-miterlimit="10" stroke-linecap="round" stroke-linejoin="round"/>
<path d="M48.1916 46.5912C48.1923 46.4233 48.1752 46.2389 48.0587 46.1142C47.974 46.0235 47.8515 45.9813 47.7343 45.9424C47.2923 45.7959 47.0733 45.7158 47.0526 45.7166C46.6646 45.7233 46.5056 46.4336 45.8781 48.1794C45.568 49.0419 45.4287 49.3645 45.6134 49.6561C45.807 49.9616 46.2712 50.0988 46.6431 50.0416C48.0655 49.8233 48.1909 46.7631 48.1916 46.5912Z" fill="#6BA91F"/>
<path d="M47.8829 46.4058C47.8829 46.4058 47.9462 47.1707 47.7539 47.7553" stroke="#B2C965" stroke-miterlimit="10" stroke-linecap="round" stroke-linejoin="round"/>
<path d="M47.5046 48.4958C47.5046 48.4958 47.3884 48.9911 47.124 49.3834" stroke="#B2C965" stroke-miterlimit="10" stroke-linecap="round" stroke-linejoin="round"/>
<path d="M40.2851 52.4683C40.2994 52.4837 40.353 52.5441 40.4144 52.5351C40.4523 52.5294 40.4805 52.4987 40.5055 52.4701C40.6116 52.3486 40.7174 52.2268 40.8232 52.105C40.846 52.0789 40.8689 52.0521 40.8843 52.021C40.9282 51.9313 40.8978 51.8202 40.8382 51.7402C40.7785 51.6601 40.6935 51.6037 40.6134 51.544C40.2125 51.2428 39.981 50.6836 39.618 50.6797C39.354 50.6768 39.046 51.0109 39.0392 51.3082C39.0263 51.8595 40.0485 52.2189 40.2851 52.4683Z" fill="#6BA91F"/>
<path d="M39.2386 51.3669C39.2386 51.3669 39.2307 51.5181 39.6005 51.8118C39.9703 52.1051 40.2543 52.2545 40.3404 52.3377" stroke="#B2C965" stroke-miterlimit="10" stroke-linecap="round" stroke-linejoin="round"/>
<path d="M36.3827 78.8762C36.0547 80.0282 36.094 81.0143 36.1205 81.5649C36.4299 88.0269 43.1931 92.0289 44.1188 92.5595C44.7598 92.9268 52.7132 97.3737 58.8504 93.6257C59.5497 93.1987 61.8489 91.781 63.0601 88.9348C63.8068 87.1801 64.0212 85.191 63.625 83.1173C63.4978 82.4517 63.3413 81.5634 62.8175 80.5448C62.5131 79.9528 62.1808 79.5683 62.0557 79.4143C59.9388 76.8061 58.8315 74.1403 56.9035 72.5768C55.9546 71.8072 53.7183 70.4219 49.1488 70.9425C48.406 71.0404 38.1963 72.5057 36.3827 78.8762Z" fill="#FEE2B4"/>
<path d="M40.1104 83.8134C41.1122 85.8 42.4271 86.988 43.2628 87.7297C43.9134 88.3071 45.8124 89.8999 48.803 90.8957C49.9742 91.2859 51.1825 91.6571 52.4181 91.7618C53.5968 91.8618 56.0096 91.4377 55.3582 89.5995C55.0277 88.6666 54.0187 88.424 53.8598 87.2753C53.7079 86.178 54.028 85.0164 54.1827 83.9335C54.4661 81.9484 54.7137 79.9414 54.7412 77.9331C54.7473 77.4915 54.5072 76.237 54.8462 75.8883C54.937 75.7947 56.2547 78.7331 56.3194 78.9053C57.3309 81.5975 58.2802 84.7195 57.5895 87.6025C57.5167 87.9062 57.2612 88.8398 57.7396 89.4015C58.2209 89.9668 59.2724 89.9517 59.9881 89.7013C61.498 89.1732 62.0832 87.3982 62.3866 86.4781C62.6127 85.7928 62.925 84.8353 62.7614 83.7798C62.3937 81.4085 60.042 81.2902 57.9736 78.638C55.4833 75.4449 56.682 72.783 54.5125 71.759C53.7143 71.3821 52.4259 71.3746 49.9849 72.0006C48.3789 72.4122 46.7725 72.8238 45.1664 73.2354C43.8337 73.577 42.4735 73.9303 41.3298 74.6646C37.7586 76.957 38.5104 80.6407 40.1104 83.8134Z" fill="#F8ECC9"/>
<path d="M38.8327 84.536C39.4701 85.2902 40.2951 85.8597 41.0068 86.5443C42.1434 87.638 42.9951 89.0297 44.2718 89.9561C45.7435 91.0241 47.6082 91.3542 49.4014 91.6551C49.7169 91.7079 50.0503 91.7594 50.3493 91.6461C50.9439 91.421 51.1307 90.6789 51.1722 90.0444C51.3126 87.8906 50.7592 85.7361 50.8992 83.5823C50.9914 82.1682 51.3805 80.7905 51.5502 79.3838C51.7203 77.9771 51.6467 76.4686 50.8946 75.2674C50.5716 74.7515 50.0828 74.2856 49.4783 74.213C48.5657 74.1037 47.825 74.8833 47.0172 75.3214C45.5562 76.1135 43.7505 75.7923 42.1437 76.2164C39.0195 77.0407 36.5606 81.8463 38.8327 84.536Z" fill="#6D3331"/>
<path d="M50.4872 75.8635C50.3157 75.7538 49.897 75.4744 49.4936 75.4351C49.38 75.424 49.2571 75.4151 49.161 75.4783C49.0731 75.5359 49.0273 75.6416 48.9977 75.7445C48.9173 76.0221 48.9076 76.3441 48.7086 76.5488C48.4056 76.8611 47.8872 76.6939 47.5249 76.458C47.1626 76.2222 46.766 75.9207 46.3498 76.0264C45.8957 76.1418 45.6913 76.8161 46.0011 77.1773C45.7524 77.1412 45.4801 77.2116 45.3101 77.4024C44.9578 77.7979 44.882 78.8362 45.3411 79.1667C45.7056 79.4293 46.2058 79.3889 46.6195 79.2217C46.9583 79.0845 47.2973 78.8208 47.3345 78.4478C47.5539 78.6751 47.7918 78.903 48.0894 78.9959C48.1395 79.0116 48.7794 79.1328 49.166 78.6543C49.4243 78.3346 49.4629 77.8776 49.2628 77.4974" stroke="#522625" stroke-miterlimit="10" stroke-linecap="round" stroke-linejoin="round"/>
<path d="M41.9068 78.0962C42.6543 78.2655 43.0248 78.9576 42.8587 79.4386C42.7143 79.8559 42.148 80.1671 41.7721 80.0217C41.5831 79.9484 41.4416 79.7637 41.2616 79.6644C40.5888 79.2931 40.0024 80.1149 39.6251 80.6348C39.2607 81.1368 38.8541 81.5598 38.6937 82.214C38.4032 83.3974 39.1571 84.3996 40.2215 83.9955C40.5484 83.8711 40.8199 83.6257 41.015 83.2988C41.2351 82.93 41.3616 82.5981 41.7628 82.9929C42.1276 83.3516 42.4263 83.8008 42.6343 84.3013C42.8258 84.7626 42.9616 85.2978 43.3249 85.5865C43.7626 85.9338 44.3664 85.782 44.8309 85.485C44.9563 85.405 45.0903 85.3121 45.2322 85.3343C45.3726 85.3564 45.4798 85.4847 45.5841 85.5969C46.1075 86.1603 46.8346 86.4587 47.5456 86.4022C47.6096 86.3972 47.82 86.3626 48.0566 86.2379C48.6686 85.9152 48.8826 85.2682 49.1267 84.4925C49.2764 84.0166 49.4432 83.3263 49.4832 82.4645" stroke="#522625" stroke-miterlimit="10" stroke-linecap="round" stroke-linejoin="round"/>
<path d="M46.2219 90.2935C46.6135 90.2635 46.974 89.953 47.3591 90.032C47.6618 90.0941 47.8661 90.3743 48.1055 90.5747C48.5253 90.9259 49.1181 91.0445 49.6347 90.8802C49.8477 90.8123 50.0646 90.6787 50.1303 90.4589C50.1939 90.2464 50.0982 90.0213 50.0049 89.8208C49.902 89.6 49.7995 89.3788 49.6966 89.158C49.6533 89.0648 49.6054 88.9665 49.5201 88.9122C49.425 88.8518 49.3053 88.8593 49.1942 88.869C48.9227 88.8922 48.6508 88.9151 48.3792 88.9383C48.0526 88.9662 47.675 88.9744 47.4563 88.7229C47.2455 88.481 47.2812 88.109 47.1726 87.8035C47.0365 87.4198 46.4895 87.0189 46.0789 87.1993C45.7038 87.3644 45.6863 88.0486 45.5284 88.4342C45.26 89.0898 45.1343 90.3828 46.2219 90.2935Z" stroke="#522625" stroke-miterlimit="10" stroke-linecap="round" stroke-linejoin="round"/>
<path d="M43.3885 85.7346C43.5425 86.1141 43.8905 86.4396 44.3 86.456C44.5612 86.4664 44.8113 86.3538 45.0371 86.222C45.2868 86.0758 45.5291 85.8929 45.6598 85.6346C45.8113 85.3348 45.7885 84.9661 45.6513 84.6595C45.5141 84.3526 45.2736 84.1021 45.0056 83.8996C43.5725 82.8173 42.9022 84.5366 43.3885 85.7346Z" fill="#974A48"/>
<path d="M46.7171 86.0038C46.9936 85.7995 47.1408 85.4239 47.0497 85.0924C46.7903 84.1495 45.5548 84.635 45.2011 85.2406C44.7437 86.0238 46.2061 86.3815 46.7171 86.0038Z" fill="#974A48"/>
<path d="M46.2219 88.3238C46.3805 87.1651 44.5612 86.8407 44.3943 88.0337C44.2342 89.1785 46.0643 89.4743 46.2219 88.3238Z" fill="#974A48"/>
<path d="M47.1848 88.3567C47.3563 88.6054 47.6125 88.7812 47.8658 88.9459C48.1659 89.1413 48.5486 89.3339 48.863 89.1621C48.9727 89.1024 49.0559 89.0048 49.132 88.9059C49.4175 88.5339 49.6326 88.108 49.7623 87.6571C49.8034 87.5142 49.8363 87.3645 49.8112 87.218C49.7698 86.9768 49.5776 86.7871 49.3661 86.6646C49.0395 86.4748 48.6472 86.4066 48.2727 86.4559C47.9958 86.4923 47.7229 86.5942 47.511 86.7764C47.0944 87.1351 46.8575 87.8822 47.1848 88.3567Z" fill="#974A48"/>
<path d="M49.5747 84.2811C49.4704 84.0317 49.1985 83.8891 48.9312 83.8473C48.1162 83.7201 46.9586 84.6409 47.8983 85.3244C48.6086 85.841 49.9956 85.2879 49.5747 84.2811Z" fill="#974A48"/>
<path d="M40.8825 80.0815C41.0911 80.0564 41.2984 79.9828 41.457 79.8449C41.5942 79.726 41.691 79.5552 41.7071 79.3758C41.7096 79.3476 41.71 79.319 41.7085 79.2908C41.6935 79.0314 41.5095 78.8109 41.3019 78.6551C39.7366 77.48 39.2871 80.2726 40.8825 80.0815Z" fill="#974A48"/>
<path d="M42.5074 78.7077C42.6096 78.6823 42.7082 78.6373 42.7865 78.5669C42.9941 78.3797 43.0126 78.066 43.0166 77.7866C43.0187 77.6222 43.0184 77.4471 42.9301 77.3082C42.8719 77.2163 42.7811 77.1502 42.6882 77.0941C42.0555 76.7125 41.3555 77.0184 41.2641 77.7798C41.1897 78.3936 41.9583 78.8449 42.5074 78.7077Z" fill="#974A48"/>
<path d="M40.8496 81.4773C40.9353 81.409 41.0168 81.3312 41.0647 81.2329C41.1029 81.155 41.1183 81.0678 41.1204 80.9814C41.1272 80.7241 41.0222 80.4772 40.9003 80.2507C40.8078 80.0788 40.7017 79.9102 40.5541 79.7823C40.4065 79.6547 40.2108 79.5715 40.0171 79.5951C39.8545 79.6151 39.7088 79.7069 39.5866 79.8162C39.2528 80.1139 38.7691 80.9803 39.0253 81.4341C39.38 82.0622 40.4026 81.8321 40.8496 81.4773Z" fill="#974A48"/>
<path d="M50.4665 80.489C50.682 80.5776 50.946 80.6159 51.1354 80.4801C51.2722 80.3818 51.3398 80.2121 51.3658 80.046C51.4384 79.5811 51.2265 79.0995 50.881 78.7804C50.4283 78.3624 49.653 78.5278 49.5018 79.1774C49.3714 79.7373 50.0078 80.3004 50.4665 80.489Z" fill="#974A48"/>
<path d="M51.5652 78.9653C51.8321 78.8191 52.0672 78.5994 52.1855 78.3193C52.3037 78.0392 52.2905 77.6951 52.1104 77.45C51.6613 76.8394 50.3851 76.8951 50.1353 77.6715C49.8427 78.5808 50.688 79.4462 51.5652 78.9653Z" fill="#974A48"/>
<path d="M49.336 81.242C49.2825 80.4339 48.0158 80.5643 47.974 81.3339C47.9276 82.1903 49.3896 82.0513 49.336 81.242Z" fill="#974A48"/>
<path d="M50.5805 77.326C50.4322 76.6621 49.9931 76.1022 49.5236 75.6095C49.2281 75.2994 48.9084 75.0011 48.5211 74.8185C47.7818 74.4705 46.6924 74.7424 46.6646 75.7096C46.6556 76.0172 46.8368 76.3509 46.9268 76.6389C47.0476 77.0251 47.2277 77.3703 47.536 77.6418C48.1005 78.1388 48.8909 78.2753 49.5494 78.6394C49.7927 78.7737 50.0178 78.9395 50.2625 79.0717C50.3115 79.0981 50.3661 79.1239 50.4204 79.1124C50.5198 79.0914 50.5519 78.9681 50.5648 78.8673C50.6291 78.355 50.6931 77.8305 50.5805 77.326ZM50.2139 78.2099C50.205 78.276 50.1828 78.3571 50.1139 78.3711C50.076 78.3786 50.0381 78.3618 50.0042 78.3443C49.8345 78.2574 49.6783 78.1485 49.5093 78.0602C49.0524 77.8215 48.5036 77.7319 48.112 77.4053C47.8979 77.227 47.7729 77.0005 47.6893 76.7468C47.6268 76.5574 47.501 76.3384 47.5071 76.1365C47.5264 75.5016 48.2824 75.323 48.7955 75.5513C49.0645 75.671 49.2864 75.8671 49.4911 76.0708C49.817 76.3942 50.1217 76.7618 50.2246 77.1977C50.3029 77.5289 50.2586 77.8733 50.2139 78.2099Z" fill="#586C17"/>
<path d="M50.3011 77.2892C50.1818 76.7483 49.8281 76.2924 49.45 75.8912C49.2121 75.6385 48.9548 75.3952 48.6429 75.2466C48.0477 74.9633 47.1709 75.1848 47.1483 75.9726C47.1412 76.2231 47.287 76.495 47.3595 76.7297C47.4567 77.0445 47.6018 77.3257 47.8501 77.5469C48.3045 77.952 48.9409 78.0632 49.4711 78.3593C49.6669 78.469 49.8484 78.6037 50.0453 78.7116C50.0846 78.7331 50.1285 78.7541 50.1725 78.7449C50.2525 78.7277 50.2782 78.6273 50.2886 78.5451C50.3404 78.1278 50.3919 77.7001 50.3011 77.2892ZM50.006 78.0096C49.9988 78.0635 49.981 78.1296 49.9252 78.1407C49.8949 78.1468 49.8641 78.1328 49.837 78.1189C49.7005 78.0481 49.5744 77.9595 49.4386 77.8877C49.0706 77.693 48.629 77.6201 48.3135 77.3543C48.1413 77.2092 48.0405 77.0245 47.973 76.8176C47.9226 76.6633 47.8215 76.485 47.8265 76.3203C47.8422 75.8029 48.4507 75.6575 48.8637 75.8436C49.0802 75.9412 49.2589 76.1009 49.4239 76.2667C49.6862 76.5303 49.9317 76.8298 50.0146 77.1849C50.0778 77.4547 50.0421 77.7352 50.006 78.0096Z" fill="#6BA91F"/>
<path d="M47.9637 76.8482C47.7629 76.5305 47.7632 76.1825 47.9033 76.0092C47.9898 75.9024 48.1763 75.8042 48.2481 75.7909C48.266 75.7877 48.2831 75.7856 48.2995 75.7845C48.3474 75.7813 48.3874 75.7859 48.4167 75.7913" stroke="#B2C965" stroke-miterlimit="10" stroke-linecap="round" stroke-linejoin="round"/>
<path d="M48.4225 82.055C48.2895 81.8992 48.1073 81.7945 47.9269 81.6984C47.2513 81.3383 46.5252 81.0457 45.7631 80.9753C45.5123 80.952 45.2497 80.9553 45.0221 81.0635C44.4601 81.3308 44.4183 82.0321 44.7773 82.4848C45.1178 82.9143 45.7206 83.1887 46.249 83.2691C46.8075 83.3538 47.3806 83.2662 47.9223 83.1044C48.1913 83.024 48.4882 82.8921 48.5718 82.6242C48.6325 82.4287 48.5554 82.2104 48.4225 82.055ZM48.3281 82.4952C48.2613 82.6799 48.0251 82.7707 47.8108 82.826C47.3799 82.9375 46.9236 82.9979 46.4788 82.9393C46.0579 82.8839 45.578 82.6949 45.3072 82.3991C45.0214 82.0872 45.0546 81.6041 45.5019 81.4201C45.6831 81.3454 45.8921 81.3433 46.0918 81.3594C46.6989 81.408 47.2766 81.6091 47.8147 81.8574C47.9587 81.9239 48.1034 81.996 48.2095 82.1032C48.3153 82.2101 48.3767 82.3605 48.3281 82.4952Z" fill="#586C17"/>
<path d="M48.4821 81.8836C48.3528 81.7343 48.1756 81.6339 47.9998 81.5417C47.3424 81.1962 46.6356 80.9157 45.8939 80.8485C45.6499 80.8264 45.394 80.8292 45.1729 80.9332C44.6262 81.1894 44.5855 81.8618 44.9349 82.2959C45.2661 82.7075 45.8528 82.9709 46.3673 83.048C46.9107 83.1295 47.4688 83.0455 47.9955 82.8905C48.2574 82.8133 48.5464 82.6872 48.6279 82.4299C48.6865 82.242 48.6115 82.033 48.4821 81.8836ZM48.3903 82.3056C48.3253 82.4828 48.0955 82.5696 47.8869 82.6229C47.4674 82.7297 47.0233 82.7876 46.5906 82.7315C46.1812 82.6786 45.7142 82.4971 45.4505 82.2134C45.1725 81.9143 45.2047 81.4513 45.6402 81.2744C45.8164 81.203 46.02 81.2008 46.2144 81.2162C46.805 81.2626 47.3674 81.4559 47.8908 81.6939C48.0309 81.7575 48.1716 81.8268 48.2749 81.9293C48.3778 82.0326 48.4375 82.1766 48.3903 82.3056Z" fill="#6BA91F"/>
<path d="M45.488 81.3271C45.488 81.3271 44.8938 81.9206 45.7149 82.4491C46.5359 82.9775 47.9687 82.6716 48.2352 82.458" stroke="#B2C965" stroke-miterlimit="10" stroke-linecap="round" stroke-linejoin="round"/>
<path d="M47.1894 79.7964C47.2984 79.8322 47.4327 79.849 47.5142 79.7686C47.5582 79.725 47.576 79.6607 47.5774 79.5985C47.581 79.4499 47.5017 79.3134 47.4249 79.1858C47.3616 79.0808 47.298 78.9757 47.2234 78.8789C47.1126 78.7356 46.9783 78.6124 46.8446 78.4898C46.7985 78.4473 46.7492 78.4034 46.6885 78.3887C46.2983 78.2947 46.2597 78.9196 46.3777 79.1294C46.552 79.4406 46.8511 79.6857 47.1894 79.7964Z" stroke="#B2C965" stroke-miterlimit="10" stroke-linecap="round" stroke-linejoin="round"/>
<path d="M49.9531 75.5151C50.0835 75.5937 50.2575 75.5655 50.3843 75.4812C50.5112 75.3968 50.5987 75.2661 50.6741 75.1339C50.9181 74.704 51.0646 74.2188 51.0989 73.7258C51.1047 73.6465 51.1064 73.5636 51.0739 73.4914C51.0425 73.4214 50.9814 73.3688 50.9156 73.3288C50.4394 73.0391 49.8045 73.3842 49.8405 73.9377C49.8595 74.2263 49.837 74.4654 49.7948 74.7537C49.7602 74.9938 49.703 75.3647 49.9531 75.5151Z" stroke="#B2C965" stroke-miterlimit="10" stroke-linecap="round" stroke-linejoin="round"/>
<path d="M50.2797 82.9211C50.3025 82.934 50.3297 82.9461 50.354 82.9365C50.3901 82.9222 50.3929 82.8725 50.389 82.8336C50.3622 82.5784 50.2997 82.3273 50.2039 82.0897C50.1364 81.9228 50.0431 81.752 49.8823 81.6706C49.8359 81.647 49.7834 81.6316 49.7319 81.6391C49.5876 81.6598 49.4986 81.8267 49.4986 81.9607C49.4983 82.0854 49.5801 82.1515 49.649 82.2462C49.8338 82.5013 49.997 82.7617 50.2797 82.9211Z" stroke="#B2C965" stroke-miterlimit="10" stroke-linecap="round" stroke-linejoin="round"/>
<path d="M55.5723 73.0188C55.8552 73.8023 56.2736 74.8882 56.8514 76.1659C57.164 76.8572 57.3405 77.2452 57.6106 77.7079C58.0269 78.4211 58.7325 79.4279 59.9313 80.457" stroke="#F8CDAB" stroke-miterlimit="10" stroke-linecap="round" stroke-linejoin="round"/>
<path d="M53.9934 85.911C54.0555 84.0717 54.1917 82.5864 54.3089 81.5427C54.4211 80.5466 54.5261 79.8627 54.5379 78.8234C54.5522 77.5353 54.4143 76.4759 54.2899 75.7635C54.2899 75.7635 54.8502 74.9832 55.4233 76.7543C56.1629 79.0406 57.3391 81.2133 57.6113 83.6308" stroke="#F8CDAB" stroke-miterlimit="10" stroke-linecap="round" stroke-linejoin="round"/>
<path d="M39.389 76.6031C39.5648 76.3772 39.832 76.0582 40.1911 75.7116C41.561 74.3903 43.0484 73.8512 44.3357 73.4385C47.6225 72.3856 50.8163 71.7707 52.2984 71.5073" stroke="#F8CDAB" stroke-miterlimit="10" stroke-linecap="round" stroke-linejoin="round"/>
<path d="M55.2593 71.9707C56.1111 72.2894 56.8982 72.7796 57.5602 73.4031C57.905 73.7279 58.1219 73.9712 58.5271 74.4596C59.7144 75.8888 59.8991 76.4969 61.105 78.0515C61.8528 79.0151 61.8471 78.8658 62.199 79.3992C62.9807 80.5833 63.2991 81.7602 63.4452 82.5931" stroke="#FCEFFD" stroke-miterlimit="10" stroke-linecap="round" stroke-linejoin="round"/>
<path d="M61.5183 90.3634C61.9528 89.8707 62.3133 89.3129 62.5838 88.7141" stroke="#FCEFFD" stroke-miterlimit="10" stroke-linecap="round" stroke-linejoin="round"/>
<path d="M55.9696 92.9549C56.543 91.8298 56.5809 90.4453 56.0696 89.2905" stroke="#FCEFFD" stroke-miterlimit="10" stroke-linecap="round" stroke-linejoin="round"/>
<path d="M55.3075 88.1462C54.9984 87.9203 54.8269 87.5195 54.8773 87.1396" stroke="#FCEFFD" stroke-miterlimit="10" stroke-linecap="round" stroke-linejoin="round"/>
<path d="M57.4241 92.6074C57.4916 91.7085 58.0029 90.8592 57.9154 89.9617C57.8171 88.9512 57.0021 88.1845 56.4912 87.3077C55.6848 85.9246 55.6344 84.2442 55.6055 82.6436" stroke="#FCEFFD" stroke-miterlimit="10" stroke-linecap="round" stroke-linejoin="round"/>
<path d="M40.5627 73.8548C41.3452 73.4124 42.3731 72.8962 43.6229 72.4285C43.873 72.3349 44.8649 71.969 46.1483 71.656C47.4785 71.3312 49.6669 70.9303 52.5767 70.9728" stroke="#FCEFFD" stroke-miterlimit="10" stroke-linecap="round" stroke-linejoin="round"/>
<path d="M53.8297 77.6333C53.8612 77.709 53.9058 77.7934 53.9819 77.8069C54.018 77.8134 54.048 77.8084 54.0663 77.8037C54.2124 77.7644 54.2856 77.7448 54.4086 77.6397C54.7462 77.3507 55.6116 77.2728 55.6455 76.9351C55.653 76.8605 55.6201 76.8312 55.5297 76.6829C55.3529 76.3924 55.3179 76.0312 55.2521 75.6903C55.1885 75.3609 55.0917 75.039 54.9642 74.7324C54.9388 74.6717 54.9091 74.6077 54.8545 74.5773C54.7994 74.5466 54.7337 74.5581 54.673 74.5698C54.5525 74.5938 54.4321 74.6174 54.3117 74.6413C53.7379 74.7549 53.311 74.806 53.3492 75.5227C53.3867 76.2255 53.5636 76.993 53.8297 77.6333Z" fill="#6BA91F"/>
<path d="M54.7537 74.9097C54.7537 74.9097 54.932 75.3999 54.9988 75.9012" stroke="#B2C965" stroke-miterlimit="10" stroke-linecap="round" stroke-linejoin="round"/>
<path d="M53.8887 73.1438C54.0059 73.247 54.147 73.3574 54.301 73.3296C54.3807 73.3149 54.4482 73.2645 54.5129 73.2156C54.9999 72.8458 56.0936 72.0948 55.1578 71.5681C54.4897 71.1922 53.9123 70.7253 53.2949 70.2786C52.6692 69.8259 52.4917 70.1825 52.0254 70.6109C51.7267 70.8853 51.6188 71.0725 51.9171 71.4052C52.4885 72.0419 53.2463 72.5778 53.8887 73.1438Z" fill="#6BA91F"/>
<path d="M54.8155 71.7935C55.047 71.9403 55.2339 72.0143 55.275 72.135" stroke="#B2C965" stroke-miterlimit="10" stroke-linecap="round" stroke-linejoin="round"/>
<path d="M52.7593 70.3411C52.7593 70.3411 53.998 71.1775 54.3489 71.4923" stroke="#B2C965" stroke-miterlimit="10" stroke-linecap="round" stroke-linejoin="round"/>
<path d="M62.2615 59.983C61.6441 60.8391 61.1832 61.803 60.9845 62.9525C60.1403 67.8402 64.4946 72.4586 69.0883 73.966C73.408 75.3834 78.6552 75.1173 82.6055 72.892C86.1795 70.8787 87.8981 67.2918 87.0985 63.3612C87.0216 62.9835 86.8409 62.1382 86.3224 61.0206C84.8082 57.7556 83.1039 57.8771 80.168 54.1859C78.8042 52.4709 77.8996 50.8445 76.5136 50.8881C76.1692 50.8988 75.9934 51.0067 75.0426 51.136C73.7342 51.314 72.8267 51.2032 72.4973 51.2875C70.3864 51.8288 69.2452 53.2287 67.9554 54.5814C66.1428 56.4826 63.7489 57.92 62.2615 59.983Z" fill="#FEE2B4"/>
<path d="M69.237 54.6472C67.09 56.5676 65.241 58.8772 63.7907 61.4508C63.3666 62.2032 62.964 63.0993 63.228 63.9332C63.4806 64.7307 64.2534 65.1752 64.9809 65.4753C65.7634 65.7983 66.7406 66.0091 67.3619 65.4014C67.7246 65.0466 67.8628 64.4924 67.8896 63.964C67.9161 63.4355 67.8489 62.9053 67.8818 62.3772C67.9571 61.1642 68.5485 60.0691 69.1241 59.0254C69.5221 58.3037 69.9205 57.582 70.3185 56.8602C70.5879 56.3722 70.8627 55.8763 71.2507 55.4932C71.6387 55.1102 72.1636 54.8494 72.6838 54.9287C72.752 54.9391 72.8228 54.9569 72.8735 55.0073C72.8735 55.0073 72.9746 55.1124 72.9514 55.3578C72.9057 55.8445 71.0277 57.8864 70.2181 59.3431C70.1692 59.4313 69.8079 60.7733 69.0862 63.4573C68.8758 64.2398 68.711 64.8726 68.7628 65.7333C68.7846 66.0977 68.8725 66.9595 69.3517 67.8989C69.7111 68.6031 70.0952 69.3559 70.8244 69.5753C71.5873 69.8047 72.4155 69.3566 72.8864 68.885C74.0483 67.7206 73.6292 65.8144 73.6142 62.7574C73.5967 59.2302 74.1251 55.7737 74.5035 55.7544C75.107 55.7237 74.5181 68.9482 77.8517 69.73C78.8493 69.964 80.2895 69.1076 81.0595 68.18C81.2296 67.9749 82.0538 66.9824 81.9509 65.6843C81.8873 64.8829 81.4997 64.3309 81.0595 63.7235C78.8668 60.6958 78.4698 60.5565 77.6723 59.1777C77.6723 59.1777 76.8363 57.7324 76.5008 55.2739C76.4368 54.8044 76.4272 54.3849 76.6137 54.3378C76.7537 54.3024 76.8952 54.3817 77.0149 54.4674C77.8331 55.052 78.3462 56.0202 78.7292 56.9971C79.1122 57.9739 79.3991 59.0029 79.9104 59.9083C80.3285 60.649 80.8923 61.2925 81.5533 61.7841C81.8848 62.0307 82.2525 62.2436 82.6523 62.2911C83.0525 62.339 83.4905 62.1939 83.7267 61.8409C83.9668 61.4822 83.9536 60.9806 83.7974 60.5711C83.6413 60.1616 83.363 59.8229 83.09 59.4931C81.5007 57.5738 79.9111 55.654 78.3219 53.7346C77.946 53.2805 77.5083 52.7932 76.9456 52.7614C76.211 52.7203 75.5757 53.4835 74.8454 53.3881C74.4749 53.3398 74.1533 53.0729 73.7839 53.0136C73.219 52.9225 72.6631 53.3298 72.0971 53.2491C71.8427 53.2126 71.6048 53.079 71.3489 53.0561C70.9316 53.019 70.7055 53.4895 70.4268 53.735C70.0545 54.0623 69.6125 54.311 69.237 54.6472Z" fill="#F8ECC9"/>
<path d="M69.0841 59.1878C69.5403 58.4364 69.9323 57.6465 70.2542 56.8283C70.3917 56.4792 70.5243 56.1126 70.7923 55.8507C71.0388 55.6099 71.3732 55.4841 71.6569 55.2887C71.782 55.2026 71.8992 55.1018 72.0385 55.0418C72.219 54.9639 72.434 54.9625 72.6084 55.0525C72.7828 55.1425 72.9089 55.3276 72.9128 55.5238C72.9171 55.7282 72.8221 55.8632 72.5816 56.1883C72.1282 56.8018 71.9013 57.1084 71.7055 57.4192C71.6087 57.5729 71.5133 57.7354 71.3371 57.9595C71.1549 58.1913 70.9999 58.3453 70.9688 58.3768C70.3574 58.9978 69.6636 60.9422 69.6636 60.9422C69.3827 61.7286 69.0676 62.6957 68.7657 63.8219" stroke="#F8CDAB" stroke-miterlimit="10" stroke-linecap="round" stroke-linejoin="round"/>
<path d="M73.6346 61.749C73.6346 61.749 73.9922 57.5004 74.0594 56.9412C74.1198 56.4367 74.3627 55.6768 74.5739 55.6982C74.5993 55.7007 74.6189 55.7136 74.6407 55.7336C74.8697 55.9444 74.8304 56.3849 74.8201 56.5921C74.7993 57.0098 74.9322 57.4221 74.9537 57.8402C75.0155 59.0489 75.1134 61.3527 75.132 61.7622C75.1648 62.485 75.2345 63.5244 75.3992 64.7928" stroke="#F8CDAB" stroke-miterlimit="10" stroke-linecap="round" stroke-linejoin="round"/>
<path d="M77.2475 56.5535C77.2475 56.5535 76.3214 55.3848 76.3432 54.9439C76.3654 54.503 76.4976 54.0618 77.1371 54.6352C77.7767 55.2087 78.7689 56.6639 79.0554 57.987C79.342 59.3101 80.7093 61.0301 81.1284 61.3831" stroke="#F8CDAB" stroke-miterlimit="10" stroke-linecap="round" stroke-linejoin="round"/>
<path d="M71.1231 52.8664C71.2228 53.1286 71.524 53.2983 71.8295 53.3348C72.135 53.3709 72.4437 53.2948 72.7299 53.1919C72.9568 53.1104 73.1819 53.0104 73.4255 52.9953C74.0429 52.9578 74.5607 53.467 75.1791 53.4873C75.9155 53.5113 76.4836 52.8485 77.2164 52.7795" stroke="#F8CDAB" stroke-miterlimit="10" stroke-linecap="round" stroke-linejoin="round"/>
<path d="M76.1077 51.1737C76.609 50.935 77.2232 51.0625 77.6931 51.3591C78.1625 51.6556 78.5173 52.099 78.8628 52.5335C79.9229 53.8673 80.983 55.2011 82.0431 56.5352" stroke="#FCEFFD" stroke-miterlimit="10" stroke-linecap="round" stroke-linejoin="round"/>
<path d="M73.4513 51.4155C72.6409 51.2258 71.7648 51.3312 71.0227 51.7078C70.0405 52.2059 69.3502 53.1184 68.6181 53.9412C67.6856 54.9888 66.6391 55.9274 65.5926 56.8614C64.8644 57.5113 64.1094 58.1963 63.7593 59.1077" stroke="#FCEFFD" stroke-miterlimit="10" stroke-linecap="round" stroke-linejoin="round"/>
<path d="M64.0165 67.7597C63.1819 66.7671 62.6896 65.492 62.641 64.196" stroke="#FCEFFD" stroke-miterlimit="10" stroke-linecap="round" stroke-linejoin="round"/>
<path d="M69.7 71.7804C68.9201 69.7752 68.1279 67.7044 68.1815 65.5535" stroke="#FCEFFD" stroke-miterlimit="10" stroke-linecap="round" stroke-linejoin="round"/>
<path d="M77.3668 72.4213C77.5401 71.0318 77.1757 69.5822 76.3657 68.4399" stroke="#FCEFFD" stroke-miterlimit="10" stroke-linecap="round" stroke-linejoin="round"/>
<path d="M84.904 69.2562C85.3456 68.2443 85.501 67.1092 85.3474 66.0159" stroke="#FCEFFD" stroke-miterlimit="10" stroke-linecap="round" stroke-linejoin="round"/>
<path d="M86.142 67.5565C86.2785 66.1973 86.2985 64.8128 86.0101 63.4776C85.7218 62.1424 85.1073 60.8525 84.1151 59.9136" stroke="#FCEFFD" stroke-miterlimit="10" stroke-linecap="round" stroke-linejoin="round"/>
<path d="M84.8039 65.0137C84.6428 64.1952 84.1051 63.4588 83.3748 63.0554" stroke="#FCEFFD" stroke-miterlimit="10" stroke-linecap="round" stroke-linejoin="round"/>
<path d="M74.3595 62.6187C73.8518 64.0796 73.8132 65.7125 74.3252 67.172C74.7154 68.2839 75.4092 69.2811 75.704 70.422C75.9991 71.5628 75.7404 72.997 74.6878 73.5265" stroke="#FCEFFD" stroke-miterlimit="10" stroke-linecap="round" stroke-linejoin="round"/>
<path d="M83.4827 70.1984C83.8174 68.4877 84.1297 66.613 83.2933 65.0841C82.2135 63.1101 79.4967 62.274 78.85 60.1191" stroke="#FCEFFD" stroke-miterlimit="10" stroke-linecap="round" stroke-linejoin="round"/>
<path d="M67.2176 58.1199C67.3615 58.1477 67.6356 58.201 67.7078 58.0759C67.7356 58.028 67.7338 57.9677 67.7321 57.9094C67.7246 57.6925 67.7174 57.4757 67.7099 57.2588C67.7042 57.0923 67.6874 56.9029 67.5402 56.7704C67.4405 56.6803 67.3033 56.6392 67.1736 56.6021C66.7859 56.491 66.3979 56.3802 66.0103 56.2687C65.7494 56.1937 65.4936 56.0704 65.2303 56.0083C65.1252 55.9833 65.0438 55.9879 64.9813 56.0133C64.8487 56.0669 64.8401 56.2223 64.8219 56.5899C64.804 56.9483 64.7951 57.1273 64.7997 57.1409C64.9941 57.6908 66.17 57.9176 67.2176 58.1199Z" fill="#6BA91F"/>
<path d="M65.0599 56.1169C65.464 56.2359 65.8752 56.362 66.2929 56.4957C66.7266 56.6347 67.15 56.7758 67.5631 56.9191" stroke="#B2C965" stroke-miterlimit="10" stroke-linecap="round" stroke-linejoin="round"/>
<path d="M76.5504 55.3954C76.6233 55.3221 76.6955 55.2346 76.6966 55.1313C76.6976 55.0563 76.6605 54.9863 76.6244 54.9205C76.4883 54.6715 76.424 54.545 76.4143 54.5365C76.2364 54.3771 75.8576 54.6211 74.8197 55.1213C74.307 55.3686 74.1048 55.4511 74.0622 55.6562C74.0176 55.8709 74.168 56.125 74.3606 56.2558C75.0966 56.7556 76.4758 55.4704 76.5504 55.3954Z" fill="#6BA91F"/>
<path d="M74.3131 55.6565C74.3131 55.6565 74.5582 55.5229 74.6196 55.5061" stroke="#B2C965" stroke-miterlimit="10" stroke-linecap="round" stroke-linejoin="round"/>
<path d="M75.1545 55.244C75.1545 55.244 76.1685 54.7202 76.2185 54.7148" stroke="#B2C965" stroke-miterlimit="10" stroke-linecap="round" stroke-linejoin="round"/>
<path d="M69.6779 53.795C69.8165 54.0112 69.9676 54.4896 70.3221 54.3292C70.6283 54.1906 70.9927 53.531 70.8473 53.2077C70.689 52.8564 70.4743 52.5341 70.2606 52.2137C70.053 51.9025 69.8454 51.5913 69.6382 51.28C69.5896 51.2075 69.54 51.1332 69.4696 51.081C69.2273 50.901 68.835 51.0482 68.6046 51.1854C68.2526 51.3951 68.2366 51.4158 68.3923 51.7931C68.6782 52.4859 69.2716 53.163 69.6779 53.795Z" fill="#6BA91F"/>
<path d="M69.3013 51.311L69.8805 52.0835" stroke="#B2C965" stroke-miterlimit="10" stroke-linecap="round" stroke-linejoin="round"/>
<path d="M74.1294 83.7142C73.4752 84.6592 72.9853 85.7218 72.7713 86.9877C71.8609 92.3707 76.4293 97.4347 81.2624 99.0736C85.8076 100.615 91.3374 100.299 95.5088 97.8337C99.2829 95.6028 101.109 91.6479 100.283 87.3254C100.114 86.4407 99.8428 85.5753 99.4755 84.7529C98.0896 81.6476 95.2023 80.1427 92.8227 77.9071C90.616 75.8341 89.7192 74.3102 87.6333 73.9226C86.4532 73.7032 85.4799 73.9565 84.9511 74.1001C82.7248 74.705 81.5165 76.2503 80.1516 77.7449C78.2336 79.8451 75.7051 81.4375 74.1294 83.7142Z" fill="#FEE2B4"/>
<path d="M80.9348 78.2991C80.4331 79.063 80.0905 79.9216 79.5992 80.6923C78.7428 82.0364 77.4747 83.0583 76.4329 84.2642C75.391 85.47 74.541 87.0218 74.8043 88.5935C74.9719 89.5939 75.7937 90.5958 76.8034 90.5014C77.161 90.4682 77.4962 90.301 77.7806 90.0813C78.5774 89.4664 78.9904 88.4699 79.1805 87.4816C79.3709 86.4933 79.372 85.4779 79.5267 84.4835C79.7618 82.9722 80.3456 81.5405 80.9248 80.1249C81.0666 79.7787 81.221 79.415 81.52 79.1902C81.8191 78.9651 82.3093 78.9498 82.5219 79.2578C82.6258 79.4085 82.6434 79.6015 82.6527 79.7844C82.871 84.1016 80.391 88.0822 79.7246 92.3533C79.5853 93.2465 79.5585 94.2584 80.1473 94.944C80.6604 95.5414 81.5115 95.7247 82.2993 95.7251C83.0207 95.7254 83.7542 95.5975 84.3884 95.2538C85.6528 94.5682 86.3456 93.1004 86.4407 91.6648C86.5357 90.2295 86.1213 88.8107 85.6346 87.4569C85.148 86.1032 84.5817 84.764 84.3527 83.3438C84.2147 82.4881 84.2022 81.6173 84.1901 80.7505C84.1819 80.1771 84.2055 79.5275 84.6331 79.1452C85.2777 78.5685 86.3774 79.0795 86.7537 79.8584C87.1303 80.6373 87.0431 81.5469 87.0927 82.4105C87.2224 84.6554 88.3208 86.7484 88.5344 88.9869C88.6259 89.9455 88.558 90.9427 88.9114 91.8388C89.5509 93.4609 91.6197 94.307 93.2514 93.6921C94.8832 93.0772 95.8761 91.1753 95.5535 89.4621C95.4509 88.9179 95.2219 88.3798 94.8114 88.0079C94.4712 87.6999 94.0332 87.5266 93.6537 87.269C93.1492 86.9264 92.7598 86.4429 92.3904 85.9581C91.0055 84.1402 89.7878 82.1951 88.7581 80.1549C88.6023 79.8459 88.4465 79.5136 88.4826 79.1695C88.5187 78.8254 88.8295 78.4871 89.169 78.5539C89.4552 78.6103 89.6195 78.9044 89.7442 79.1681C90.4706 80.7041 91.158 82.2844 92.2278 83.6042C93.2979 84.9241 94.8314 85.9763 96.5292 86.041C96.6589 86.046 96.8004 86.041 96.9005 85.9588C96.9876 85.887 97.0237 85.7723 97.0527 85.6633C97.1974 85.1142 97.2485 84.5043 96.9873 83.9998C96.6386 83.3259 95.8543 83.0326 95.1758 82.6931C93.4347 81.8228 92.0341 80.2918 91.3217 78.4803C91.0533 77.7979 90.8697 77.0611 90.4106 76.4894C89.9515 75.9178 89.0925 75.5712 88.4726 75.9624C88.2304 76.1154 88.0599 76.3562 87.8502 76.5513C87.286 77.0768 86.4653 77.243 85.6954 77.2012C84.8275 77.154 83.9453 76.5287 83.0978 76.6116C82.2053 76.697 81.3925 77.6021 80.9348 78.2991Z" fill="#F8ECC9"/>
<path d="M82.6737 76.6625C83.2064 76.442 83.8164 76.5553 84.3652 76.7318C84.914 76.9083 85.4549 77.1477 86.0305 77.1745C86.6961 77.2056 87.3704 76.9319 87.8255 76.4452C88.0689 76.1855 88.0874 76.089 88.3082 75.9558C88.8088 75.6531 89.4712 75.8264 89.975 76.0354" stroke="#F8CDAB" stroke-miterlimit="10" stroke-linecap="round" stroke-linejoin="round"/>
<path d="M79.8461 83.1071C79.9204 83.0574 80.8383 80.1798 81.037 79.6835C81.2353 79.1872 82.4015 78.4183 82.5501 79.4848C82.6991 80.5517 82.6244 82.7844 81.9795 84.7688C81.3346 86.7533 80.2431 89.9785 80.2431 89.9785" stroke="#F8CDAB" stroke-miterlimit="10" stroke-linecap="round" stroke-linejoin="round"/>
<path d="M85.1834 86.1899C84.5974 84.432 83.9636 82.5726 84.2401 80.6936C84.3987 79.6153 84.7535 78.4134 86.0141 79.0651C86.9405 79.5442 87.1002 80.1513 87.0684 81.0459C87.0224 82.3347 87.1896 83.6206 87.5669 84.854C87.9395 86.0709 88.5066 87.2564 88.538 88.5545" stroke="#F8CDAB" stroke-miterlimit="10" stroke-linecap="round" stroke-linejoin="round"/>
<path d="M91.2209 84.3433C90.6207 83.4751 90.0493 82.5865 89.527 81.6693C89.2658 81.2106 89.0168 80.7447 88.782 80.272C88.6062 79.9175 88.2339 79.4062 88.3983 78.9954C88.5766 78.5498 89.1708 78.1636 89.557 78.9657" stroke="#F8CDAB" stroke-miterlimit="10" stroke-linecap="round" stroke-linejoin="round"/>
<path d="M82.9242 75.0762C80.5114 77.6108 79.0658 79.0096 78.1775 79.8268C75.1052 82.654 77.8563 80.1301 76.6622 81.2531C75.5039 82.3421 75.1316 82.6901 74.6253 83.2932C74.069 83.9564 73.7449 84.4591 73.4909 85.0243C73.3351 85.3705 73.2365 85.6721 73.1747 85.8865" stroke="#FCEFFD" stroke-miterlimit="10" stroke-linecap="round" stroke-linejoin="round"/>
<path d="M87.4811 74.0937C88.6688 73.9601 89.766 74.75 90.5599 75.6436C91.6254 76.8431 91.5768 77.2486 92.9727 78.2805C93.6619 78.79 94.1986 79.0115 95.3477 79.9365C95.472 80.0366 95.8482 80.3417 96.277 80.7333C96.9733 81.3686 97.9313 82.3422 98.947 83.7324" stroke="#FCEFFD" stroke-miterlimit="10" stroke-linecap="round" stroke-linejoin="round"/>
<path d="M99.558 91.6282C99.7159 90.6113 99.8285 89.5877 99.895 88.5608" stroke="#FCEFFD" stroke-miterlimit="10" stroke-linecap="round" stroke-linejoin="round"/>
<path d="M98.489 90.2357C98.8481 88.6154 98.7623 86.8986 98.2439 85.3218C98.072 84.7991 97.8494 84.285 97.505 83.8558C96.8222 83.0062 95.7543 82.5892 94.811 82.0426C93.8681 81.4959 92.9402 80.6416 92.9291 79.5515" stroke="#FCEFFD" stroke-miterlimit="10" stroke-linecap="round" stroke-linejoin="round"/>
<path d="M94.4959 87.2578C95.4566 88.0056 96.2763 88.9342 96.8994 89.9804C97.2863 90.6303 97.6018 91.3392 97.6836 92.0909C97.8262 93.3997 97.1899 94.7635 96.0955 95.4949" stroke="#FCEFFD" stroke-miterlimit="10" stroke-linecap="round" stroke-linejoin="round"/>
<path d="M88.3111 97.9359C88.9728 96.7143 89.0682 95.2001 88.5651 93.9049C88.2607 93.1217 87.7534 92.4236 87.5065 91.6204C87.1374 90.4213 87.3703 89.06 86.7987 87.9431" stroke="#FCEFFD" stroke-miterlimit="10" stroke-linecap="round" stroke-linejoin="round"/>
<path d="M86.5807 85.7754C86.7855 87.0645 87.966 88.0753 88.0274 89.3794" stroke="#FCEFFD" stroke-miterlimit="10" stroke-linecap="round" stroke-linejoin="round"/>
<path d="M78.7167 96.0815C78.2518 95.4212 77.9088 94.6755 77.7098 93.893C77.6284 93.5718 77.5708 93.2356 77.6337 92.9105C77.7098 92.5178 77.9517 92.182 78.1664 91.8447C78.7731 90.8911 79.2026 89.8253 79.4263 88.7173" stroke="#FCEFFD" stroke-miterlimit="10" stroke-linecap="round" stroke-linejoin="round"/>
<path d="M75.7769 94.0066C75.5378 93.6204 75.2963 93.2288 75.1648 92.7939C75.0333 92.3591 75.0219 91.8693 75.2341 91.468" stroke="#FCEFFD" stroke-miterlimit="10" stroke-linecap="round" stroke-linejoin="round"/>
<path d="M84.8721 74.1617C84.7085 74.2356 84.3973 74.376 84.4034 74.5897C84.4059 74.6715 84.4455 74.7473 84.4845 74.8194C84.6295 75.0896 84.775 75.3593 84.9204 75.6294C85.0319 75.8367 85.1694 76.0643 85.4024 76.1211C85.5606 76.1593 85.7261 76.1075 85.8808 76.0564C86.3442 75.9028 86.8076 75.7495 87.2714 75.5969C87.5833 75.494 87.9209 75.4565 88.2271 75.3357C88.3493 75.2875 88.429 75.22 88.4762 75.1406C88.5762 74.9716 88.4862 74.768 88.2711 74.2871C88.0617 73.8183 87.957 73.5843 87.9434 73.5703C87.3979 73.0187 86.0619 73.6232 84.8721 74.1617Z" fill="#6BA91F"/>
<path d="M84.7625 74.5791C84.7625 74.5791 85.9212 74.0553 86.1773 74.011" stroke="#B2C965" stroke-miterlimit="10" stroke-linecap="round" stroke-linejoin="round"/>
<path d="M86.8794 73.8994C86.9909 73.8633 87.1192 73.8294 87.2621 73.803C87.3882 73.7794 87.5054 73.7658 87.6112 73.7583" stroke="#B2C965" stroke-miterlimit="10" stroke-linecap="round" stroke-linejoin="round"/>
<path d="M79.9179 79.9804C79.9837 80.1472 80.1084 80.4652 80.322 80.4698C80.4038 80.4716 80.4814 80.4355 80.5557 80.4002C80.8326 80.2687 81.1095 80.1368 81.3864 80.0054C81.599 79.9043 81.8334 79.7785 81.9013 79.5484C81.9473 79.3923 81.9041 79.2247 81.8605 79.0675C81.7305 78.5969 81.6004 78.1263 81.4711 77.6558C81.3839 77.3392 81.3632 77.0002 81.2578 76.6882C81.2156 76.5636 81.152 76.4807 81.0752 76.4296C80.9116 76.3209 80.7036 76.401 80.2127 76.5918C79.7343 76.7776 79.4949 76.8705 79.4806 76.8833C78.9025 77.4007 79.4395 78.7648 79.9179 79.9804Z" fill="#6BA91F"/>
<path d="M79.6099 77.2061C79.6099 77.2061 79.596 77.866 79.7571 78.458C79.9183 79.05 80.292 79.9954 80.292 79.9954" stroke="#B2C965" stroke-miterlimit="10" stroke-linecap="round" stroke-linejoin="round"/>
<path d="M82.7573 82.5449C82.6273 82.6038 82.3797 82.7157 82.3843 82.8857C82.3861 82.9508 82.4179 83.0112 82.449 83.0687C82.5644 83.2838 82.6802 83.4985 82.7956 83.7136C82.8842 83.8787 82.9935 84.0598 83.1793 84.1048C83.3054 84.1352 83.4366 84.0941 83.5598 84.0534C83.9285 83.9312 84.2973 83.809 84.6664 83.6875C84.9147 83.6057 85.183 83.5757 85.4267 83.4796C85.5239 83.4413 85.5875 83.3874 85.625 83.3241C85.7047 83.1898 85.6328 83.0276 85.4617 82.6446C85.2948 82.2716 85.2116 82.085 85.2009 82.074C84.7668 81.6352 83.7042 82.1161 82.7573 82.5449Z" fill="#6BA91F"/>
<path d="M82.5673 82.7384C82.5673 82.7384 82.4633 82.7906 83.3844 82.4115C84.3055 82.0327 84.7585 81.9509 84.7585 81.9509" stroke="#B2C965" stroke-miterlimit="10" stroke-linecap="round" stroke-linejoin="round"/>
<path d="M95.4341 62.8504C94.2972 66.5891 94.8396 71.1575 98.7956 73.0015C103.465 75.1777 109.401 75.2106 114.138 73.2594C115.778 72.5842 120.16 70.7795 120.911 67.0586C121.283 65.2157 120.693 63.4171 119.841 61.7999C118.448 59.1542 117.323 59.8723 114.85 56.6303C113.389 54.7155 112.012 52.1451 110.215 51.7278C109.684 51.6046 109.073 51.5545 109.073 51.5545C109.073 51.5545 107.803 51.4506 106.56 51.7243C105.03 52.0615 103.699 53.545 102.062 55.1696C100.268 56.95 98.0585 58.5282 96.5521 60.5748C96.0462 61.2622 95.6828 62.0329 95.4341 62.8504Z" fill="#FEE2B4"/>
<path d="M113.283 57.1191C114.102 58.797 116.063 59.4991 117.612 60.5424C118.49 61.134 119.311 61.9447 119.51 62.9852C119.708 64.0253 119.021 65.2679 117.963 65.324C117.098 65.3701 116.37 64.6509 115.979 63.8766C115.589 63.1027 115.41 62.2288 114.962 61.4863C114.388 60.5334 113.417 59.8721 112.831 58.9263C112.244 57.9788 112.063 56.7775 111.28 55.9833C110.617 56.9691 110.86 58.3168 111.389 59.3808C111.918 60.4448 112.7 61.3788 113.128 62.4871C113.33 63.0077 113.394 63.7108 112.929 64.0185C112.699 64.17 112.406 64.1735 112.131 64.1717C111.462 64.1678 110.693 64.1167 110.288 63.5847C109.944 63.1342 109.996 62.5082 110.045 61.9433C110.157 60.642 110.164 59.3315 110.065 58.0291C110.011 57.3124 109.914 56.5667 109.51 55.9715C109.326 55.6985 109.011 55.4473 108.695 55.5395C108.387 55.6288 108.256 55.9826 108.172 56.2913C107.392 59.1614 107.34 60.299 107.34 60.299C107.317 63.2964 107.766 65.4709 106.819 66.5163C106.78 66.5599 106.67 66.6771 106.522 66.8136C106.123 67.1827 105.427 67.8276 104.442 68.0019C104.186 68.0473 103.416 68.1484 102.6 67.7643C101.731 67.3552 101.015 66.4934 100.877 65.6252C100.732 64.7152 101.28 64.1692 103.907 60.9307C103.907 60.9307 106.152 58.1646 106.646 55.5406C106.664 55.4463 106.72 55.1708 106.57 55.044C106.483 54.97 106.358 54.9646 106.244 54.9721C105.344 55.0297 104.574 55.6228 103.911 56.2359C102.397 57.6372 101.111 59.2843 100.118 61.0929C99.8185 61.6392 99.5205 62.2274 98.9917 62.5568C98.4629 62.8862 97.6229 62.8037 97.3814 62.2295C97.1924 61.7804 97.4403 61.2734 97.7137 60.8703C99.2222 58.6455 101.611 57.2152 103.805 55.661C104.724 55.0097 105.691 54.2118 105.859 53.0974C106.426 53.1585 106.524 53.9646 106.958 54.3344C107.145 54.4937 107.39 54.5645 107.626 54.6309C108.294 54.8185 108.994 55.0139 109.695 54.9864C110.425 54.9578 110.937 54.4341 111.611 54.3569C112.827 54.2168 112.895 56.3256 113.283 57.1191Z" fill="#F8ECC9"/>
<path d="M104.992 54.3478C105.123 54.241 105.295 54.0809 105.462 53.8587C105.784 53.4303 105.964 52.9351 106.092 52.9676C106.114 52.9733 106.139 52.9908 106.159 53.0198C106.309 53.237 106.302 53.5393 106.417 53.7758C106.968 54.907 109.038 55.1875 110.103 54.8916C111.306 54.5572 111.418 54.067 111.418 54.067" stroke="#F8CDAB" stroke-miterlimit="10" stroke-linecap="round" stroke-linejoin="round"/>
<path d="M101.739 58.6623C102.476 57.6998 103.228 56.7186 104.191 55.968C104.462 55.7564 106.913 54.3187 106.625 55.4492C106.347 56.5432 105.994 57.6387 105.482 58.647C105.004 59.5874 104.271 60.3552 103.599 61.1562C103.059 61.8004 102.551 62.4764 102.069 63.166" stroke="#F8CDAB" stroke-miterlimit="10" stroke-linecap="round" stroke-linejoin="round"/>
<path d="M107.328 61.371C107.385 60.2948 107.507 59.2218 107.696 58.1607C107.767 57.7576 107.85 57.351 108.032 56.9845C108.214 56.6179 108.508 56.2906 108.893 56.1512C109.013 56.1077 109.143 56.0826 109.27 56.0991C109.539 56.1341 109.758 56.3524 109.867 56.6018C109.977 56.8508 109.996 57.1292 110.01 57.4011C110.067 58.5008 110.055 59.6027 110.042 60.7039" stroke="#F8CDAB" stroke-miterlimit="10" stroke-linecap="round" stroke-linejoin="round"/>
<path d="M111.589 59.6066C111.009 58.6487 110.81 57.4668 111.045 56.3721C111.07 56.2577 111.117 56.1255 111.23 56.0962C111.312 56.0752 111.396 56.1191 111.466 56.1681C111.788 56.3953 111.998 56.7497 112.143 57.116C112.372 57.6944 112.502 58.2932 112.784 58.8535C113.138 59.5566 113.623 60.1605 114.166 60.7257C114.375 60.9426 114.591 61.1534 114.765 61.3988C115.259 62.0966 115.359 62.9927 115.691 63.7813" stroke="#F8CDAB" stroke-miterlimit="10" stroke-linecap="round" stroke-linejoin="round"/>
<path d="M105.089 52.4814C104.037 53.4147 102.984 54.3479 101.932 55.2812C101.67 55.5134 101.408 55.7457 101.146 55.9779C100.676 56.3945 100.207 56.8115 99.7367 57.2281C97.9967 58.7713 96.1798 60.4305 95.5002 62.6547" stroke="#FCEFFD" stroke-miterlimit="10" stroke-linecap="round" stroke-linejoin="round"/>
<path d="M103.501 57.3704C103.05 57.7298 102.591 58.0985 102.28 58.5845C101.978 59.0582 101.835 59.6131 101.682 60.154C101.534 60.6739 101.372 61.1898 101.195 61.7004C101.08 62.0327 100.957 62.3661 100.763 62.6594C100.536 63.0042 100.219 63.2793 99.9518 63.5944C99.2833 64.383 98.9431 65.3991 98.7437 66.4135C98.6266 67.0102 98.5526 67.6251 98.6444 68.226C98.7873 69.1604 99.3151 69.9853 99.8431 70.7693C100.203 71.3038 100.658 71.8872 101.301 71.9301" stroke="#FCEFFD" stroke-miterlimit="10" stroke-linecap="round" stroke-linejoin="round"/>
<path d="M102.259 71.5042C100.933 70.8175 100.04 69.3626 100.03 67.8684" stroke="#FCEFFD" stroke-miterlimit="10" stroke-linecap="round" stroke-linejoin="round"/>
<path d="M96.8622 63.5928C96.0651 65.3828 96.2205 67.5659 97.2631 69.2252" stroke="#FCEFFD" stroke-miterlimit="10" stroke-linecap="round" stroke-linejoin="round"/>
<path d="M108.077 72.0561C107.283 71.5652 106.933 70.4647 107.298 69.6051C107.476 69.1863 107.791 68.844 108.047 68.4685C109.142 66.8636 109.102 64.6837 108.372 62.8833" stroke="#FCEFFD" stroke-miterlimit="10" stroke-linecap="round" stroke-linejoin="round"/>
<path d="M109.021 69.5422C108.836 70.4655 109.082 71.4666 109.676 72.198" stroke="#FCEFFD" stroke-miterlimit="10" stroke-linecap="round" stroke-linejoin="round"/>
<path d="M112.749 72.8424C113.367 72.3247 113.849 71.6451 114.133 70.8901" stroke="#FCEFFD" stroke-miterlimit="10" stroke-linecap="round" stroke-linejoin="round"/>
<path d="M115.852 70.7667C115.942 70.8092 116.054 70.7685 116.122 70.6963C116.19 70.6241 116.223 70.5266 116.253 70.4319C116.508 69.6116 116.585 68.7365 116.476 67.884" stroke="#FCEFFD" stroke-miterlimit="10" stroke-linecap="round" stroke-linejoin="round"/>
<path d="M115.942 66.4935C116 66.0126 115.688 65.5685 115.357 65.2148C115.025 64.8607 114.645 64.517 114.51 64.0511C114.444 63.8199 114.444 63.5751 114.406 63.3375C114.307 62.7066 113.925 62.1252 113.385 61.783" stroke="#FCEFFD" stroke-miterlimit="10" stroke-linecap="round" stroke-linejoin="round"/>
<path d="M110.949 52.241C112.261 52.9784 113.36 54.0892 114.085 55.4087C114.245 55.7003 114.386 56.0015 114.548 56.2923C114.699 56.5649 115.079 57.1609 115.662 57.8194C116.627 58.9074 117.045 58.8877 118.496 60.2465C119.08 60.7932 119.379 61.0758 119.685 61.5242C119.854 61.7714 120.371 62.5711 120.606 63.7526C120.818 64.8213 120.703 65.716 120.591 66.2512" stroke="#FCEFFD" stroke-miterlimit="10" stroke-linecap="round" stroke-linejoin="round"/>
<path d="M108.236 57.2318C108.297 57.3222 108.364 57.4173 108.464 57.4612C108.694 57.5623 108.933 57.3472 109.093 57.1529C109.252 56.9603 109.869 56.4151 109.796 56.1421C109.78 56.0835 109.743 56.0331 109.704 55.9863C109.53 55.7766 108.585 54.3481 108.402 54.5428C108.111 54.8512 107.409 55.3664 107.399 55.832C107.389 56.2757 107.997 56.8803 108.236 57.2318Z" fill="#6BA91F"/>
<path d="M108.372 54.5493C108.372 54.5493 108.855 54.8837 109.152 55.3514C109.449 55.8195 109.783 56.0199 109.746 56.2725" stroke="#B2C965" stroke-miterlimit="10" stroke-linecap="round" stroke-linejoin="round"/>
<path d="M107.547 52.6978C107.546 52.7575 107.547 52.8196 107.573 52.8736C107.622 52.9761 107.742 53.0197 107.85 53.0537C108.147 53.1462 108.442 53.2387 108.739 53.3313C108.8 53.3502 108.867 53.3691 108.926 53.3427C109.021 53.2995 109.031 53.1701 109.028 53.0654C109.01 52.2387 109.155 51.4087 109.453 50.6369C108.878 50.6619 108.238 50.2225 107.831 50.876C107.555 51.3179 107.55 52.2051 107.547 52.6978Z" fill="#6BA91F"/>
<path d="M108.249 50.8152C108.249 50.8152 108.042 51.1135 108.034 51.4655" stroke="#B2C965" stroke-miterlimit="10" stroke-linecap="round" stroke-linejoin="round"/>
<path d="M107.949 52.0393C107.949 52.0393 107.912 52.527 107.897 52.7153" stroke="#B2C965" stroke-miterlimit="10" stroke-linecap="round" stroke-linejoin="round"/>
<path d="M111.518 54.8834C111.549 54.1785 111.543 53.4717 111.5 52.7675C111.337 52.7993 111.164 52.7779 111.013 52.7068C110.908 52.6571 110.785 52.5835 110.686 52.645C110.607 52.6943 110.595 52.8029 110.592 52.8958C110.578 53.2609 110.398 54.0284 110.567 54.3557C110.668 54.5515 111.52 54.8277 111.518 54.8834Z" fill="#6BA91F"/>
<path d="M111.241 53.01C111.241 53.01 111.259 53.4395 111.253 53.4952" stroke="#B2C965" stroke-miterlimit="10" stroke-linecap="round" stroke-linejoin="round"/>
<path d="M112.433 57.0742C112.508 57.1231 112.545 57.1474 112.604 57.1699C112.943 57.3011 113.217 57.0928 114.381 56.3992C114.667 56.2288 114.772 56.1688 114.797 56.0427C114.835 55.8472 114.631 55.7468 114.232 55.1387C114.095 54.9286 114.075 54.8732 113.986 54.8282C113.777 54.7228 113.509 54.835 113.118 55.0622C112.225 55.581 111.779 55.8404 111.781 56.1845C111.785 56.5522 112.19 56.9152 112.433 57.0742Z" fill="#6BA91F"/>
<path d="M112.064 56.1615C112.064 56.1615 112.376 55.8496 112.721 55.6491C113.067 55.4487 113.824 55.0696 113.824 55.0696" stroke="#B2C965" stroke-miterlimit="10" stroke-linecap="round" stroke-linejoin="round"/>
<path d="M151.098 120.692C151.824 128.151 144.6 134.619 137.294 134.977C129.235 135.373 121.226 128.327 121.948 120.692C122.585 113.951 129.799 109.154 136.523 109.153C143.065 109.153 150.417 113.695 151.098 120.692Z" fill="#DB682C"/>
<path d="M136.523 132.23C144.573 132.23 151.098 127.064 151.098 120.692C151.098 114.319 144.573 109.153 136.523 109.153C128.473 109.153 121.948 114.319 121.948 120.692C121.948 127.064 128.473 132.23 136.523 132.23Z" fill="#F4970F"/>
<path d="M136.401 130.499C143.479 130.499 149.217 126.108 149.217 120.692C149.217 115.275 143.479 110.884 136.401 110.884C129.323 110.884 123.585 115.275 123.585 120.692C123.585 126.108 129.323 130.499 136.401 130.499Z" fill="#FDCE64"/>
<path d="M136.554 128.694C142.924 128.694 148.088 125.024 148.088 120.496C148.088 115.969 142.924 112.299 136.554 112.299C130.184 112.299 125.021 115.969 125.021 120.496C125.021 125.024 130.184 128.694 136.554 128.694Z" fill="#974A48"/>
<path d="M141.305 121.021C140.442 123.851 136.024 124.879 132.898 124.401C131.758 124.226 128.457 123.739 127.459 121.09C126.716 119.119 127.542 116.731 129.025 115.582C129.938 114.875 131.52 114.311 132.115 114.882C132.408 115.162 132.376 115.634 132.363 115.829C132.249 117.519 130.121 117.975 130.137 119.126C130.154 120.332 132.507 121.112 132.61 121.145C134.477 121.745 136.888 121.289 137.143 120.321C137.444 119.173 134.505 118.095 134.794 117.107C135.093 116.082 138.797 115.355 140.563 117.23C141.499 118.224 141.68 119.79 141.305 121.021Z" fill="#7D2F2D"/>
<path d="M146.634 121.296C146.013 124.23 142.473 125.406 140.536 126.049C135.592 127.69 130.753 126.238 130.769 125.678C130.787 125.098 139.092 126.605 141.978 122.423C142.197 122.106 143.039 120.885 142.953 119.318C142.794 116.403 139.546 114.495 139.959 113.892C140.213 113.52 141.582 114.056 141.689 114.098C144.241 115.101 147.294 118.182 146.634 121.296Z" fill="#7D2F2D"/>
<path d="M30.8421 28.8705C30.8954 31.3473 28.2575 34.2296 26.8551 35.7692C26.1094 36.5877 25.7364 36.9972 25.1333 37.4292C21.8219 39.8023 16.684 39.6251 13.4251 37.1698C12.8538 36.7396 12.454 36.2926 11.654 35.3987C9.79464 33.321 7.66267 30.9393 7.63337 28.8705C7.58335 25.3708 13.5309 21.4288 19.2379 21.4277C24.8489 21.4267 30.7635 25.2025 30.8421 28.8705Z" fill="#DB682C"/>
<path d="M19.238 36.1859C25.6468 36.1859 30.8422 32.8821 30.8422 28.8067C30.8422 24.7313 25.6468 21.4275 19.238 21.4275C12.8292 21.4275 7.63377 24.7313 7.63377 28.8067C7.63377 32.8821 12.8292 36.1859 19.238 36.1859Z" fill="#F4970F"/>
<path d="M19.1972 34.1193C24.6671 34.1193 29.1014 31.7187 29.1014 28.7574C29.1014 25.7961 24.6671 23.3955 19.1972 23.3955C13.7273 23.3955 9.293 25.7961 9.293 28.7574C9.293 31.7187 13.7273 34.1193 19.1972 34.1193Z" fill="#FF821E"/>
<path d="M19.2794 21.9521C25.4466 21.9521 30.4462 24.9624 30.4462 28.6754" stroke="#FFEE5F" stroke-miterlimit="10" stroke-linecap="round" stroke-linejoin="round"/>
<path d="M29.2329 31.5288C28.1546 32.4678 26.2484 33.8712 23.5265 34.6773C19.1493 35.9735 15.432 34.9045 14.0157 34.415" stroke="#FFEE5F" stroke-miterlimit="10" stroke-linecap="round" stroke-linejoin="round"/>
<path d="M20.4306 33.4493C20.616 33.5404 20.8107 33.633 21.0237 33.6323C21.4835 33.6312 21.8394 33.2192 22.1177 32.8484C22.3249 32.5722 22.5418 32.2149 22.3846 31.9294C22.2713 31.724 22.0109 31.6536 21.7819 31.5768C20.8493 31.2645 20.1133 30.5881 19.2226 30.1872C18.9085 30.0461 18.5608 29.9378 18.2071 29.9889C17.7012 30.0622 17.3025 30.4495 17.0624 30.8732C16.7976 31.3399 16.9223 31.5482 17.3418 31.7986C18.34 32.395 19.3826 32.9338 20.4306 33.4493Z" fill="#07961A"/>
<path d="M27.0448 31.0286C27.2152 30.9115 27.3907 30.7871 27.4946 30.6006C27.7187 30.199 27.5332 29.687 27.346 29.2629C27.2063 28.947 27.0009 28.5833 26.675 28.5808C26.4406 28.579 26.2516 28.772 26.0726 28.9342C25.3441 29.5948 24.3944 29.906 23.6087 30.4866C23.3318 30.6914 23.0674 30.9418 22.9391 31.2752C22.7555 31.7522 22.8984 32.2895 23.1503 32.7065C23.4279 33.1656 23.6705 33.1588 24.0939 32.9155C25.1026 32.3363 26.0826 31.6904 27.0448 31.0286Z" fill="#07961A"/>
<path d="M15.3366 29.7493C15.5071 29.6322 15.6825 29.5075 15.7865 29.3213C16.0105 28.9197 15.8251 28.4077 15.6378 27.984C15.5349 27.751 15.3059 27.3262 14.9668 27.3019C14.745 27.2858 14.5663 27.4509 14.4831 27.5277C13.652 28.2952 12.8845 29.1362 11.9988 29.8397C11.4739 30.2567 11.027 30.49 11.0641 30.8237C11.0788 30.9563 11.2002 31.1135 11.4425 31.4276C11.6754 31.7295 11.7691 31.7738 11.8312 31.7895C11.9866 31.8284 12.1607 31.7659 12.3861 31.6366C13.3944 31.057 14.3744 30.4111 15.3366 29.7493Z" fill="#07961A"/>
<path d="M21.9752 28.7172C22.1767 28.764 22.3868 28.8098 22.5944 28.7608C23.042 28.6554 23.295 28.1734 23.4819 27.7493C23.6212 27.4335 23.7513 27.0361 23.5333 26.7939C23.3765 26.6195 23.1067 26.6099 22.8663 26.5874C21.8869 26.4948 21.0169 26.0029 20.0583 25.8142C19.7203 25.7477 19.3573 25.7213 19.0243 25.8514C18.5484 26.0372 18.2475 26.5049 18.1096 26.9722C17.9577 27.4867 18.1264 27.6614 18.5916 27.8101C19.6996 28.1645 20.8375 28.4525 21.9752 28.7172Z" fill="#07961A"/>
<path d="M23.6862 25.54C23.6612 25.605 23.6362 25.6758 23.6477 25.7404C23.6562 25.7894 23.6845 25.8276 23.712 25.8637C24.0961 26.3607 24.553 26.7777 25.0625 27.096C25.8536 25.858 26.5971 24.5817 27.2892 23.2737C27.3189 23.2176 27.3499 23.1529 27.3374 23.0943C27.3256 23.0389 27.2788 23.0093 27.2356 22.985C26.7593 22.7156 26.2834 22.4455 25.8068 22.1768C25.2898 21.8852 25.1758 22.1872 24.9139 22.7824C24.5087 23.701 24.045 24.6 23.6862 25.54Z" fill="#6BA91F"/>
<path d="M24.9857 26.4614L25.904 25.0022" stroke="#B2C965" stroke-miterlimit="10" stroke-linecap="round" stroke-linejoin="round"/>
<path d="M26.1991 24.5267L26.888 23.3623" stroke="#B2C965" stroke-miterlimit="10" stroke-linecap="round" stroke-linejoin="round"/>
<path d="M19.9929 30.3894C19.811 30.5866 19.6177 30.7831 19.5163 31.0175C19.8632 31.278 20.2387 31.5113 20.6367 31.7131C20.8375 31.815 21.0962 31.9089 21.2945 31.8035C21.4346 31.7289 21.4939 31.5867 21.5185 31.5288C21.6547 31.209 22.0598 30.7577 22.8705 29.8556C23.22 29.4661 23.4733 28.9959 23.8317 28.6147C23.8613 28.5832 23.9846 28.4628 23.9371 28.3925C23.9121 28.3553 23.8617 28.3364 23.8156 28.3189C23.1339 28.0562 22.1767 27.3438 21.6075 28.1016C21.0387 28.8587 20.656 29.6701 19.9929 30.3894Z" fill="#6BA91F"/>
<path d="M20.0994 30.8889L20.8865 29.8228" stroke="#B2C965" stroke-miterlimit="10" stroke-linecap="round" stroke-linejoin="round"/>
<path d="M21.2634 29.2981C21.2634 29.2981 21.7883 28.3634 22.0012 28.2652C22.2145 28.1669 22.5097 28.2487 22.5097 28.2487" stroke="#B2C965" stroke-miterlimit="10" stroke-linecap="round" stroke-linejoin="round"/>
<path d="M22.4997 34.9482C22.7012 34.995 22.9113 35.0407 23.1189 34.9918C23.5665 34.8864 23.8195 34.4044 24.0064 33.9803C24.1457 33.6641 24.2758 33.2671 24.0578 33.0249C23.901 32.8505 23.6312 32.8409 23.3908 32.8183C22.4114 32.7258 21.5418 32.2338 20.5828 32.0455C20.2451 31.9791 19.8818 31.953 19.5491 32.0827C19.0732 32.2688 18.7724 32.7362 18.6345 33.2035C18.4826 33.718 18.6512 33.8927 19.1164 34.0414C20.2244 34.3954 21.362 34.6834 22.4997 34.9482Z" fill="#6BA91F"/>
<path d="M19.1154 33.5127C19.1647 33.5127 22.9034 34.6442 22.9034 34.6442" stroke="#B2C965" stroke-miterlimit="10" stroke-linecap="round" stroke-linejoin="round"/>
<path d="M15.0812 30.9523C15.2823 31.0002 15.4924 31.0466 15.7004 30.9987C16.1484 30.8955 16.4039 30.4146 16.5925 29.9912C16.7333 29.6757 16.8651 29.2795 16.6486 29.0361C16.4925 28.8611 16.2227 28.8503 15.9826 28.8264C15.004 28.7292 14.1361 28.2333 13.1782 28.0404C12.8406 27.9725 12.4776 27.9442 12.1442 28.0729C11.6672 28.2565 11.3646 28.7228 11.2245 29.1898C11.0702 29.7036 11.2381 29.879 11.7026 30.0298C12.8084 30.3889 13.9446 30.6822 15.0812 30.9523Z" fill="#6BA91F"/>
<path d="M12.161 28.3898C12.161 28.3898 12.4765 28.2687 13.4112 28.6167" stroke="#B2C965" stroke-miterlimit="10" stroke-linecap="round" stroke-linejoin="round"/>
<path d="M14.1961 28.8391C14.1961 28.8391 15.3766 29.2164 15.7211 29.2164" stroke="#B2C965" stroke-miterlimit="10" stroke-linecap="round" stroke-linejoin="round"/>
<path d="M18.4251 26.6923C18.5383 26.8652 18.6591 27.0435 18.8431 27.1514C19.2397 27.384 19.7556 27.21 20.1837 27.0321C20.5027 26.8995 20.8708 26.7019 20.8804 26.3764C20.8872 26.142 20.6985 25.9487 20.5406 25.7665C19.8961 25.0237 19.6059 24.0672 19.0425 23.269C18.8438 22.9879 18.5991 22.7181 18.2689 22.5823C17.7962 22.3883 17.2557 22.5194 16.8333 22.762C16.3681 23.0297 16.3699 23.2723 16.6036 23.701C17.1603 24.7218 17.7845 25.7158 18.4251 26.6923Z" fill="#6BA91F"/>
<path d="M18.5905 23.1328C18.5905 23.1821 19.5087 24.6742 19.5909 24.8711C19.6727 25.0679 20.1319 25.7893 20.3616 26.0351" stroke="#B2C965" stroke-miterlimit="10" stroke-linecap="round" stroke-linejoin="round"/>
<path d="M80.5778 41.4093C80.4999 41.3692 80.4346 41.3185 80.4346 41.3185C80.367 41.2703 80.2999 41.2135 80.292 41.1759C80.2731 41.1384 80.2255 41.0373 80.2091 40.9055C80.1891 40.7454 80.2227 40.6039 80.2945 40.5357C101.714 29.4081 123.133 18.2805 144.553 7.15332C145.057 7.63745 145.82 8.18983 146.856 8.29773C147.166 8.33025 147.354 8.30738 147.399 8.3842C147.681 8.86762 141.501 11.88 141.255 11.9997C139.495 12.8586 80.904 41.5765 80.5778 41.4093Z" fill="#6D3331"/>
<path d="M138.057 10.5204C138.666 11.2385 139.275 11.9567 139.884 12.6745C142.626 11.3511 145.368 10.0277 148.11 8.70462C148.119 8.42807 148.093 7.84997 147.704 7.22971C147.225 6.46617 146.487 6.10173 146.2 5.97632C143.486 7.49089 140.772 9.00546 138.057 10.5204Z" fill="#338989"/>
<path d="M139.555 10.1442C141.753 8.96802 143.95 7.79145 146.148 6.61523C146.39 6.72671 146.865 6.98218 147.23 7.46917C147.513 7.84754 147.612 8.20805 147.65 8.42529" stroke="#FCEFFD" stroke-miterlimit="10" stroke-linecap="round" stroke-linejoin="round"/>
<path d="M73.0075 35.6459C72.6395 36.5659 72.4319 37.5535 72.4955 38.6589C72.7656 43.3588 77.5802 46.737 81.9584 47.185C86.0759 47.6063 90.6639 46.2775 93.6963 43.4024C96.4399 40.8009 97.2145 37.1254 95.6885 33.6507C95.3763 32.9394 94.9815 32.2644 94.5148 31.6435C92.7523 29.2996 90.0358 28.59 87.6051 27.1687C85.3513 25.8506 84.3041 24.742 82.4762 24.8174C81.4418 24.8599 80.6725 25.26 80.2556 25.4826C78.5002 26.4195 77.7817 27.9508 76.922 29.4697C75.7137 31.6042 73.8943 33.4292 73.0075 35.6459Z" fill="#FEE2B4"/>
<path d="M76.1821 32.1016C75.4996 32.9012 74.7915 33.6955 74.3102 34.6302C73.8289 35.5649 73.5935 36.6764 73.9157 37.6772C73.9729 37.8551 74.0522 38.0345 74.1952 38.1545C74.5993 38.494 75.2113 38.186 75.6093 37.8394C76.8345 36.7714 77.7216 35.3215 78.115 33.7444C78.5209 32.1163 78.4891 30.2147 79.7082 29.0617C80.2452 29.7181 80.356 30.6346 80.2466 31.4756C80.1373 32.3163 79.8343 33.1181 79.6267 33.9402C79.1262 35.9225 79.1848 37.9995 79.3066 40.0407C79.367 41.0515 79.4627 42.1208 80.0591 42.9394C80.6554 43.758 81.9341 44.1631 82.7023 43.5029C83.0053 43.2424 83.1804 42.8662 83.3322 42.4964C83.7099 41.5781 84.0025 40.6084 84.015 39.6155C84.0286 38.5004 83.6899 37.4164 83.4308 36.3316C82.8613 33.9474 82.6562 31.4449 81.6229 29.2222C81.5204 29.0014 81.4068 28.7655 81.4468 28.5254C81.5275 28.0435 82.2032 27.8777 82.628 28.1192C83.0525 28.3611 83.2733 28.8402 83.4616 29.2908C84.6574 32.1502 85.6311 35.1011 86.3993 38.1038C86.5264 38.6008 86.7119 39.1735 87.1957 39.3447C87.6319 39.499 88.1296 39.2225 88.3679 38.8255C88.6063 38.4286 88.6423 37.9451 88.6459 37.4825C88.6513 36.7679 88.5927 36.0476 88.3958 35.3608C88.051 34.1564 87.3043 33.1138 86.5707 32.0984C85.7729 30.9936 84.9751 29.8892 84.1772 28.7845C84.0936 28.6687 84.0057 28.5347 84.0325 28.3947C84.0679 28.2117 84.2759 28.1224 84.4591 28.0895C85.178 27.9602 85.9198 28.2296 86.5214 28.6437C87.1231 29.0578 87.6137 29.6095 88.1282 30.1283C89.407 31.4177 90.9012 32.5497 92.633 33.096C92.9702 33.2024 93.3822 33.2703 93.6405 33.0291C93.8628 32.8215 93.8667 32.455 93.7299 32.1834C93.5934 31.9115 93.3476 31.7136 93.106 31.5289C91.2985 30.1451 89.3101 28.9974 87.2074 28.1249C86.3624 27.7741 85.4639 27.4436 84.8572 26.7586C84.5224 26.3806 84.1154 25.8486 83.6467 26.0358C83.5173 26.0876 83.4162 26.1895 83.3072 26.2759C82.1321 27.2127 80.2992 26.4681 79.4292 27.8062C78.452 29.3093 77.3565 30.7257 76.1821 32.1016Z" fill="#F8ECC9"/>
<path d="M79.7318 26.4655C79.7228 26.6952 79.7389 26.9668 79.9311 27.0926C80.1348 27.2258 80.4003 27.1133 80.6347 27.0475C80.8987 26.9736 81.1806 26.9657 81.4482 27.0247C81.5915 27.0561 81.7351 27.1069 81.8809 27.0911C81.9874 27.0793 82.0863 27.0332 82.1832 26.9875C82.4172 26.8768 82.6512 26.766 82.8852 26.6556C83.2668 26.4752 83.6752 26.269 83.8625 25.8913C83.89 25.836 83.9121 25.7713 83.8914 25.713C83.8742 25.6655 83.8321 25.6323 83.7921 25.6016C83.6334 25.4812 83.4748 25.3604 83.3162 25.24" stroke="#F8CDAB" stroke-miterlimit="10" stroke-linecap="round" stroke-linejoin="round"/>
<path d="M78.3616 32.4802C78.4223 31.8028 78.7703 31.1854 78.9136 30.5204C78.9968 30.1335 79.0129 29.7247 79.1865 29.3692C79.3016 29.1341 79.5685 28.9119 79.8036 29.0273C80.0912 29.1684 80.1516 29.6979 80.2227 29.9684C80.3288 30.3729 80.4081 30.7877 80.3988 31.2075C80.3867 31.7631 80.2223 32.2976 80.0751 32.8289C79.9204 33.3859 79.8068 33.9544 79.6725 34.5168C79.4963 35.256 79.3198 35.9963 79.1973 36.7463C79.0858 37.4301 79.019 38.1258 79.0765 38.8164" stroke="#F8CDAB" stroke-miterlimit="10" stroke-linecap="round" stroke-linejoin="round"/>
<path d="M82.4486 31.6238C82.1392 30.7055 81.8202 29.7901 81.4915 28.8787C81.4229 28.6886 81.3589 28.4592 81.4818 28.2988C81.5629 28.1927 81.7023 28.1527 81.8316 28.1187C81.9638 28.0841 82.0956 28.0498 82.2278 28.0151C82.2614 28.0062 82.2961 27.9972 82.3307 28.0008C82.375 28.0051 82.4151 28.0287 82.4519 28.0537C82.7152 28.2334 82.8938 28.5103 83.0568 28.7844C83.8653 30.1453 84.4645 31.6306 84.8257 33.1719" stroke="#F8CDAB" stroke-miterlimit="10" stroke-linecap="round" stroke-linejoin="round"/>
<path d="M86.2881 31.6236C85.4381 30.7193 84.7085 29.7021 84.1251 28.607C84.0643 28.4934 84.0072 28.3469 84.0858 28.2443C84.1365 28.1779 84.2269 28.1579 84.3098 28.1468C85.0205 28.0521 85.7436 28.2826 86.3585 28.6509C86.9734 29.0193 87.4972 29.5192 88.0149 30.0147C88.3154 30.3023 88.6159 30.59 88.9164 30.8772C89.2122 31.1602 89.5088 31.4439 89.8336 31.6933C90.2945 32.047 90.8072 32.3275 91.3296 32.5822C91.9252 32.8731 92.5358 33.1332 93.1586 33.3604" stroke="#F8CDAB" stroke-miterlimit="10" stroke-linecap="round" stroke-linejoin="round"/>
<path d="M77.7985 38.76C77.5691 39.7569 77.3901 40.7934 77.5837 41.7977C77.7774 42.8021 78.4148 43.7764 79.3816 44.1101C79.5342 44.1627 79.6943 44.1998 79.8315 44.2841C80.0151 44.397 80.1402 44.5825 80.2592 44.7626C80.5843 45.2538 80.9091 45.7451 81.2342 46.236" stroke="#FCEFFD" stroke-miterlimit="10" stroke-linecap="round" stroke-linejoin="round"/>
<path d="M76.9427 43.6173C76.4161 42.7998 76.2971 41.7333 76.6308 40.8201" stroke="#FCEFFD" stroke-miterlimit="10" stroke-linecap="round" stroke-linejoin="round"/>
<path d="M77.7256 37.4354C77.7745 37.0552 77.9092 36.6862 78.1161 36.3635" stroke="#FCEFFD" stroke-miterlimit="10" stroke-linecap="round" stroke-linejoin="round"/>
<path d="M73.0908 40.3994C72.8764 39.936 72.6995 39.4518 72.6163 38.9481C72.5334 38.4443 72.547 37.9187 72.7067 37.4338" stroke="#F8CDAB" stroke-miterlimit="10" stroke-linecap="round" stroke-linejoin="round"/>
<path d="M73.7668 34.3782C74.2541 33.0255 75.3792 32.0215 76.2196 30.8545C77.2089 29.4804 77.8263 27.8397 78.9883 26.6085C78.9883 26.6085 80.0805 25.1893 81.5097 24.8992" stroke="#F8CDAB" stroke-miterlimit="10" stroke-linecap="round" stroke-linejoin="round"/>
<path d="M87.4222 45.0575C86.7508 44.6556 86.0373 44.2061 85.7386 43.4829C85.6039 43.1571 85.5657 42.7994 85.5614 42.4471C85.5525 41.7247 85.6797 41.0076 85.7175 40.2862C85.8233 38.2754 85.2087 36.2338 84.0107 34.6152" stroke="#FCEFFD" stroke-miterlimit="10" stroke-linecap="round" stroke-linejoin="round"/>
<path d="M87.2585 42.2686C87.3229 42.8116 87.5919 43.3279 87.9999 43.6917C88.408 44.0554 88.9518 44.2637 89.4984 44.2655" stroke="#FCEFFD" stroke-miterlimit="10" stroke-linecap="round" stroke-linejoin="round"/>
<path d="M93.3718 41.9144C93.7631 40.79 94.159 39.5816 93.8488 38.4322C93.598 37.5032 92.9166 36.7526 92.186 36.1262" stroke="#FCEFFD" stroke-miterlimit="10" stroke-linecap="round" stroke-linejoin="round"/>
<path d="M88.2122 31.1123C88.627 31.9684 89.3576 32.6333 90.1469 33.1642C90.9362 33.6952 91.7962 34.1118 92.6047 34.6131C93.1339 34.9411 93.6498 35.3148 94.0153 35.8186C94.5598 36.5696 94.7146 37.5257 94.8539 38.4429" stroke="#FCEFFD" stroke-miterlimit="10" stroke-linecap="round" stroke-linejoin="round"/>
<path d="M82.7934 24.7051C83.1657 24.8023 83.7449 24.9756 84.4156 25.2789C85.4531 25.748 86.0252 26.2182 86.9877 26.8588C87.5605 27.2401 88.423 27.7821 89.5467 28.3688" stroke="#F8CDAB" stroke-miterlimit="10" stroke-linecap="round" stroke-linejoin="round"/>
<path d="M80.7761 26.7838C80.7654 26.8249 80.7554 26.8706 80.7769 26.9071C80.7972 26.9417 80.839 26.956 80.8776 26.9678C81.1606 27.0543 81.4436 27.1408 81.7265 27.2272C81.7851 27.2451 81.8459 27.2633 81.9066 27.2544C81.9763 27.2444 82.0367 27.1997 82.0867 27.15C82.2775 26.9596 82.3561 26.687 82.4329 26.4287C82.6644 25.6491 82.9449 24.8837 83.2715 24.1388C83.2483 24.192 82.1599 23.8901 82.0385 23.8926C81.7301 23.899 81.7208 24.0759 81.6261 24.3335C81.326 25.1499 80.997 25.9388 80.7761 26.7838Z" fill="#6BA91F"/>
<path d="M81.1799 26.5483C81.2517 26.1978 81.3532 25.8537 81.4825 25.52" stroke="#B2C965" stroke-miterlimit="10" stroke-linecap="round" stroke-linejoin="round"/>
<path d="M81.7005 24.7121C81.7376 24.6185 81.7751 24.5245 81.8123 24.4309" stroke="#B2C965" stroke-miterlimit="10" stroke-linecap="round" stroke-linejoin="round"/>
<path d="M83.8935 29.6829C83.915 29.6994 83.9393 29.7165 83.965 29.714C83.9893 29.7115 84.0064 29.6915 84.0215 29.6729C84.1311 29.5364 84.2405 29.4 84.3502 29.2635C84.3727 29.2352 84.3962 29.2056 84.4038 29.1695C84.4127 29.1277 84.3998 29.083 84.3816 29.0423C84.3119 28.8869 84.1712 28.7736 84.0382 28.6646C83.637 28.3363 83.2547 27.9847 82.8938 27.6121C82.9196 27.6389 82.5162 28.1712 82.4919 28.2398C82.4304 28.4142 82.5305 28.4642 82.6594 28.5828C83.0668 28.9591 83.4526 29.3442 83.8935 29.6829Z" fill="#6BA91F"/>
<path d="M82.8459 28.4446C83.0864 28.7168 83.3551 28.9648 83.6459 29.1824" stroke="#B2C965" stroke-miterlimit="10" stroke-linecap="round" stroke-linejoin="round"/>
<path d="M81.7412 39.3008C81.6601 39.2658 81.5904 39.2187 81.5904 39.2187C81.519 39.1747 81.4471 39.1222 81.4361 39.085C81.4139 39.0486 81.3582 38.9507 81.3303 38.8203C81.2967 38.662 81.3182 38.5187 81.3839 38.4466C101.804 26.0556 122.224 13.6646 142.644 1.27368C143.187 1.72602 143.996 2.23123 145.039 2.27625C145.351 2.28983 145.536 2.25588 145.588 2.32984C145.909 2.79504 140.001 6.17254 139.766 6.30688C138.084 7.26943 82.081 39.4481 81.7412 39.3008Z" fill="#6D3331"/>
<path d="M136.452 5.02391C137.12 5.70349 137.788 6.38306 138.457 7.06228C141.079 5.577 143.702 4.09173 146.325 2.6061C146.31 2.32956 146.235 1.75467 145.795 1.15942C145.252 0.42661 144.485 0.107903 144.188 0C141.609 1.67464 139.03 3.34927 136.452 5.02391Z" fill="#338989"/>
<path d="M137.913 4.55836C140.006 3.25245 142.097 1.94654 144.19 0.640625C144.441 0.737094 144.937 0.963263 145.341 1.42703C145.656 1.78718 145.785 2.1409 145.842 2.35528" stroke="#FCEFFD" stroke-miterlimit="10" stroke-linecap="round" stroke-linejoin="round"/>
</svg>
