<svg width="146" height="140" viewBox="0 0 146 140" fill="none" xmlns="http://www.w3.org/2000/svg">
<path d="M134.109 82.5268C140.638 50.7852 118.669 19.4451 85.0392 12.5268C51.4091 5.6085 18.8531 25.7318 12.3233 57.4735C5.79345 89.2151 27.7626 120.555 61.3927 127.473C95.0228 134.392 127.579 114.268 134.109 82.5268Z" fill="#DFAD7C"/>
<path opacity="0.15" d="M134.107 82.5234C127.577 114.266 95.0216 134.388 61.3927 127.471C45.2766 124.156 31.8388 115.231 22.9312 103.343C30.7427 109.75 40.2932 114.448 51.0304 116.657C84.6593 123.574 117.216 103.449 123.745 71.7091C127.144 55.1828 122.817 38.7641 113.14 25.8455C129.793 39.5029 138.55 60.9205 134.107 82.5234Z" fill="black"/>
<path opacity="0.15" d="M124.149 71.4818H124.149L124.149 71.4812C126.226 61.385 118.586 51.2826 107.086 48.9171C102.96 48.0686 98.901 48.3357 95.2923 49.487L96.6533 42.87C96.7012 42.6371 96.7401 42.4041 96.773 42.1711C96.7742 42.1626 96.7747 42.1539 96.7761 42.1454C96.8061 41.9273 96.8298 41.7094 96.847 41.4917C96.8508 41.445 96.8519 41.3983 96.8549 41.3514C96.8669 41.1719 96.8761 40.9928 96.8793 40.8137C96.8805 40.7507 96.879 40.6879 96.8792 40.6251C96.8793 40.4623 96.8778 40.2996 96.871 40.1373C96.868 40.0662 96.8629 39.9953 96.8585 39.9242C96.8493 39.7704 96.8381 39.617 96.8226 39.4638C96.815 39.388 96.8056 39.3123 96.7965 39.2366C96.7787 39.0889 96.7585 38.9414 96.735 38.7941C96.7225 38.7156 96.7089 38.6373 96.6947 38.559C96.6686 38.4148 96.6401 38.2713 96.6087 38.1279C96.5913 38.0487 96.5735 37.9694 96.5546 37.8905C96.5206 37.7489 96.4835 37.6078 96.4443 37.4671C96.4224 37.3882 96.4006 37.3093 96.3772 37.2306C96.335 37.0897 96.289 36.9496 96.2418 36.8096C96.2159 36.733 96.1907 36.6562 96.1635 36.58C96.1122 36.4378 96.057 36.2965 96.0006 36.1554C95.9717 36.0831 95.9444 36.0105 95.9142 35.9386C95.8521 35.7909 95.7854 35.6447 95.7177 35.4987C95.6881 35.435 95.6605 35.3709 95.6301 35.3073C95.5499 35.1409 95.4644 34.9761 95.3768 34.812C95.3549 34.7707 95.3348 34.7287 95.3125 34.6875C95.0878 34.2756 94.8408 33.8714 94.5724 33.4761C94.534 33.4195 94.4926 33.3643 94.4533 33.3079C94.3566 33.1695 94.2594 33.0316 94.1576 32.8954C94.1043 32.8241 94.0479 32.7543 93.9931 32.6838C93.9008 32.565 93.8087 32.4462 93.7124 32.3293C93.6494 32.2527 93.584 32.1776 93.5193 32.102C93.4266 31.9934 93.3338 31.885 93.2377 31.7782C93.1673 31.7001 93.0949 31.6233 93.0228 31.5461C92.9275 31.4442 92.8316 31.3426 92.7332 31.2425C92.657 31.165 92.5793 31.0884 92.5012 31.012C92.4021 30.915 92.302 30.8185 92.2001 30.7234C92.1187 30.6475 92.0365 30.5724 91.9534 30.4977C91.85 30.4049 91.7452 30.3129 91.6391 30.222C91.5532 30.1484 91.467 30.0752 91.3792 30.0027C91.271 29.9135 91.1611 29.8257 91.0503 29.7385C90.9606 29.668 90.871 29.5974 90.7798 29.5284C90.6664 29.4423 90.5506 29.3582 90.4343 29.2742C90.3416 29.2072 90.2495 29.1401 90.1553 29.0745C90.035 28.9909 89.9121 28.9095 89.7889 28.8282C89.6951 28.7662 89.6023 28.7032 89.5068 28.6427C89.3764 28.5596 89.2429 28.4796 89.1098 28.3992C89.018 28.3438 88.9276 28.2873 88.8346 28.2332C88.6848 28.1462 88.5317 28.0628 88.3787 27.979C88.2987 27.9351 88.2204 27.8895 88.1395 27.8468C87.9057 27.7231 87.6685 27.6032 87.4276 27.4876C87.3742 27.4621 87.3192 27.4388 87.2655 27.4135C87.0752 27.3242 86.884 27.2359 86.6894 27.1519C86.5914 27.1095 86.4908 27.0704 86.3917 27.0293C86.2386 26.966 86.0862 26.9022 85.9307 26.8423C85.8187 26.7989 85.7045 26.7588 85.5912 26.7172C85.4454 26.6637 85.2998 26.61 85.152 26.5595C85.0321 26.5185 84.9103 26.4802 84.7889 26.4413C84.6854 26.408 84.5839 26.3723 84.4795 26.3405C84.4823 26.3426 84.4848 26.3446 84.4876 26.3467C83.8451 26.1502 83.1871 25.9781 82.5111 25.8391C77.0628 24.7184 71.7948 25.7846 68.04 28.348C68.0124 28.3327 67.9848 28.3173 67.957 28.302C67.877 28.2581 67.7987 28.2126 67.7177 28.1698C67.4839 28.0461 67.2468 27.9262 67.0058 27.8105C66.9525 27.7849 66.8974 27.7617 66.8437 27.7365C66.6534 27.6472 66.4622 27.5589 66.2676 27.4747C66.1696 27.4324 66.069 27.3932 65.9701 27.3524C65.8171 27.289 65.6646 27.2253 65.5091 27.1653C65.3972 27.122 65.2829 27.0819 65.1696 27.0403C65.0238 26.9868 64.8782 26.933 64.7303 26.8825C64.6104 26.8415 64.4886 26.8033 64.3671 26.7641C64.2639 26.7309 64.1621 26.6951 64.0577 26.6633C64.0604 26.6654 64.063 26.6675 64.0658 26.6696C63.4233 26.4731 62.7653 26.3009 62.0893 26.1619C52.7403 24.2388 43.9136 28.7463 42.3744 36.2295L38.8281 53.4706C38.6168 54.4976 38.5589 55.5269 38.6315 56.5441C36.3394 57.7752 34.5827 59.5133 33.6561 61.6347C28.6975 63.0646 24.9663 66.3586 24.0587 70.7716L20.6557 87.3156C19.3745 93.5441 24.1368 99.9466 31.6609 102.819C31.6595 102.819 31.6584 102.819 31.6571 102.819C31.6703 102.824 31.6841 102.828 31.6974 102.833C31.9472 102.928 32.2005 103.019 32.4562 103.106C32.488 103.116 32.5192 103.128 32.551 103.139C32.8322 103.233 33.1169 103.322 33.4049 103.407C33.4147 103.41 33.4242 103.413 33.434 103.416C34.0393 103.592 34.6581 103.748 35.2912 103.878C39.1903 104.68 42.987 104.451 46.2169 103.412C47.7894 107.469 51.6223 111.041 56.7158 112.994C56.7144 112.994 56.7133 112.994 56.712 112.994C56.7254 112.999 56.7394 113.003 56.7526 113.008C57.0042 113.104 57.2592 113.196 57.5168 113.283C57.5491 113.294 57.5807 113.306 57.613 113.317C57.8967 113.413 58.184 113.503 58.4747 113.589C58.484 113.591 58.4931 113.594 58.5025 113.597C59.1125 113.775 59.7363 113.932 60.3746 114.064C66.0962 115.241 71.6037 114.199 75.4487 111.63C78.08 109.872 79.9328 107.4 80.5428 104.434L83.0719 92.1386C83.7763 93.3198 84.7295 94.543 86.0344 95.6971C86.3173 95.9473 86.6146 96.1949 86.9324 96.4357C87.8157 97.1135 88.8323 97.7558 90.0066 98.3374C90.2552 98.4626 90.5098 98.5835 90.7742 98.6981C91.4764 99.0149 92.237 99.3073 93.0474 99.5772C93.0423 99.5769 93.0374 99.5767 93.0321 99.5761C93.1094 99.602 93.1906 99.626 93.2691 99.6514C93.3913 99.6909 93.5134 99.7302 93.6381 99.7686C93.8821 99.8435 94.131 99.9166 94.3848 99.9875C94.4228 99.9981 94.4584 100.01 94.4968 100.02C94.7534 100.092 95.0137 100.159 95.2804 100.223C95.6664 100.318 96.0672 100.409 96.4776 100.493C96.8878 100.578 97.292 100.653 97.6845 100.717C97.9544 100.764 98.2201 100.805 98.4844 100.84C99.9021 101.039 101.213 101.116 102.427 101.095C102.715 101.094 102.996 101.083 103.274 101.066C103.602 101.049 103.922 101.024 104.235 100.992C105.173 100.896 106.044 100.738 106.853 100.533C107.241 100.434 107.612 100.324 107.97 100.208C112.465 98.7231 114.79 95.7497 115.874 94.1329C117.65 91.4825 120.459 84.2247 122.981 76.1073L122.977 76.1064C123.288 75.287 123.541 74.4374 123.722 73.5566L124.149 71.4818ZM80.8632 77.2747C80.7975 77.199 80.7291 77.1247 80.6617 77.0498C80.5653 76.9427 80.4686 76.8357 80.3688 76.7303C80.2957 76.6534 80.2205 76.5775 80.1456 76.5013C80.0463 76.4005 79.9464 76.2999 79.8439 76.2008C79.7648 76.1243 79.6843 76.0489 79.6033 75.9734C79.5002 75.8772 79.396 75.7816 79.2899 75.6873C79.2057 75.6124 79.1204 75.5382 79.0344 75.4644C78.927 75.3723 78.818 75.2812 78.7077 75.191C78.6187 75.1181 78.5292 75.0457 78.4382 74.974C78.3259 74.8855 78.2118 74.7983 78.0968 74.7117C78.0042 74.6419 77.9115 74.5723 77.8171 74.5038C77.6989 74.4181 77.5786 74.3342 77.4575 74.2506C77.3618 74.1844 77.2667 74.118 77.1695 74.0531C77.0448 73.9699 76.9176 73.8891 76.7901 73.8084C76.6927 73.7465 76.5964 73.6839 76.4975 73.6236C76.3632 73.5415 76.2259 73.4621 76.0888 73.3826C75.993 73.327 75.8987 73.2701 75.8015 73.2158C75.6471 73.1294 75.4892 73.0465 75.3316 72.9633C75.2484 72.9194 75.1669 72.8736 75.0827 72.8307C74.841 72.7072 74.5959 72.5875 74.347 72.4717C74.2901 72.4452 74.2312 72.421 74.1739 72.3951C73.9791 72.3066 73.7835 72.219 73.5844 72.1356C73.4823 72.0927 73.3775 72.053 73.2742 72.0116C73.117 71.9484 72.9602 71.8846 72.8006 71.8245C72.6843 71.7808 72.5657 71.7399 72.448 71.698C72.2982 71.6444 72.149 71.5905 71.9971 71.5398C71.8725 71.498 71.746 71.4591 71.6198 71.4194C71.5137 71.3859 71.4093 71.3501 71.3022 71.318C71.3051 71.3201 71.3079 71.3221 71.3106 71.324C70.6476 71.1249 69.969 70.9496 69.2722 70.8062C68.2887 70.6038 67.3122 70.4705 66.3485 70.3958L66.3864 70.2121C66.4282 70.0092 66.4611 69.806 66.4881 69.6027C66.4891 69.5955 66.4895 69.5881 66.4904 69.5808C66.5152 69.3905 66.5335 69.2 66.5454 69.0096C66.5481 68.9683 66.5481 68.9271 66.5502 68.8859C66.5556 68.7739 66.5619 68.6617 66.563 68.5498C66.8639 68.3733 67.1562 68.1872 67.4402 67.9931C68.2027 68.4147 69.005 68.7941 69.8442 69.1246C69.8429 69.1246 69.8417 69.1246 69.8404 69.1246C69.8535 69.1297 69.8671 69.1342 69.8801 69.1393C70.1232 69.2344 70.3696 69.3249 70.6185 69.4119C70.6503 69.423 70.6815 69.4349 70.7133 69.4459C70.9879 69.5403 71.2659 69.6297 71.5474 69.7137C71.5566 69.7166 71.5657 69.7196 71.575 69.7224C72.1662 69.8981 72.7711 70.0521 73.3903 70.1794C76.1992 70.7572 78.9593 70.7508 81.4903 70.2613C81.2594 72.7842 81.0869 75.2055 80.981 77.4124C80.9422 77.366 80.9029 77.3203 80.8632 77.2747Z" fill="black"/>
<path d="M61.0821 33.4902L57.5356 50.7316C55.9964 58.2149 62.3274 65.8402 71.6765 67.7633C81.0256 69.6865 89.8522 65.1789 91.3914 57.6957L94.938 40.4543L61.0821 33.4902Z" fill="#111427"/>
<path opacity="0.7" d="M94.9393 40.4541L91.3928 57.6961C89.8538 65.178 81.0267 69.6854 71.6763 67.762C70.4361 67.5069 69.2487 67.1503 68.1266 66.7087C76.0093 66.9476 82.8256 62.6982 84.1606 56.2085L87.7071 38.9666L94.9393 40.4541Z" fill="black"/>
<path d="M94.9407 40.4555C96.4801 32.9722 90.1492 25.3466 80.8001 23.4234C71.451 21.5001 62.6241 26.0074 61.0847 33.4908C59.5452 40.9741 65.8762 48.5996 75.2253 50.5229C84.5743 52.4462 93.4012 47.9388 94.9407 40.4555Z" fill="#EBEDF9"/>
<path opacity="0.1" d="M94.9393 40.4539C93.5102 47.4019 85.7992 51.7848 77.2214 50.8382C83.1802 49.4391 87.9436 45.1217 89.1488 39.2629C90.3535 33.4069 87.6832 27.5602 82.7654 23.9241C91.0173 26.4419 96.3673 33.5113 94.9393 40.4539Z" fill="black"/>
<path d="M77.1711 41.0483C76.4995 43.6278 75.9039 44.9973 75.9039 44.9973C75.9039 44.9973 75.5918 44.6915 75.224 44.1521C74.586 43.2058 73.7848 41.5405 74.2019 39.5129C72.9182 41.5898 70.9797 41.7419 70.9797 41.7419C70.9841 41.4618 71.0119 41.1978 71.0624 40.9524C71.3364 39.5165 72.2163 38.6661 72.3243 38.5676C72.3243 38.5676 72.3243 38.5676 72.3217 38.567C70.375 39.8836 68.5075 39.1483 68.5075 39.1483C68.5726 38.9875 68.6467 38.8341 68.7297 38.6881C69.614 37.1052 71.3814 36.4655 71.5019 36.4228C69.913 36.6216 68.0226 35.3895 68.0226 35.3895C69.5466 33.1654 72.6663 33.3743 72.6663 33.3743C71.7351 33.0646 70.8055 31.7129 70.8647 30.6628C71.4613 30.5692 73.6241 30.5026 75.9904 32.6024L77.3983 36.1152L77.6654 36.7827C77.6654 36.7827 77.8452 38.4694 77.1711 41.0483Z" fill="#FD9850"/>
<path opacity="0.15" d="M77.1711 41.0486C76.4995 43.628 75.9039 44.9976 75.9039 44.9976C75.9039 44.9976 75.5918 44.6917 75.224 44.1523C76.2315 41.9568 77.1554 38.7971 77.3985 36.1155L77.6655 36.7829C77.6655 36.7829 77.8452 38.4697 77.1711 41.0486Z" fill="black"/>
<path d="M90.1782 39.8456L86.9047 41.4317L83.1886 30.9973L86.4595 29.4106L86.4614 29.4139L90.1782 39.8456Z" fill="#E9423C"/>
<path d="M87.5126 42.7821L85.3351 43.8377L83.3011 38.1304L82.1797 34.9828L84.0682 34.0645L84.3578 33.9246C84.3578 33.9246 84.3597 33.9278 84.3618 33.931L87.5126 42.7821Z" fill="#E9423C"/>
<path d="M83.5218 40.213L81.3445 41.2686L78.1897 32.4111L78.4316 32.2949L80.3672 31.3555L80.3691 31.3587L81.5694 34.7304L83.5218 40.213Z" fill="#E9423C"/>
<path d="M80.5862 38.9952L78.4087 40.0519L74.7623 29.815L76.9397 28.7583L80.5862 38.9952Z" fill="#E9423C"/>
<path d="M81.8121 34.6119L81.5694 34.7305L80.3673 31.3555L78.4316 32.2949L76.4792 26.8124L78.6567 25.7568L81.8121 34.6119Z" fill="#E9423C"/>
<path d="M83.3013 38.1303L83.1831 38.1876L83.0118 38.2703L79.8596 29.4133L82.0347 28.3572L84.0685 34.0644L82.1799 34.9827L83.3013 38.1303Z" fill="#E9423C"/>
<path opacity="0.15" d="M61.366 48.2889L60.2949 53.4961C60.2781 53.5778 60.2804 53.6635 60.3033 53.7465C61.2024 57.0186 64.0561 59.6381 65.5753 60.8431C65.9991 61.1794 66.6615 61.0156 66.7564 60.5541L68.4021 52.5532C68.4538 52.3018 68.3113 52.038 68.0447 51.8958C67.0507 51.3656 64.584 49.956 62.6105 48.0567C62.1996 47.6615 61.4676 47.7949 61.366 48.2889Z" fill="white"/>
<path opacity="0.15" d="M86.9048 41.4319L88.963 39.4947L86.4615 29.4141L90.1782 39.8458L86.9048 41.4319Z" fill="black"/>
<path opacity="0.15" d="M85.3351 43.8377L86.5299 42.3355L84.3578 33.9246C84.3578 33.9246 84.3597 33.9278 84.3618 33.931L87.5125 42.7821L85.3351 43.8377Z" fill="black"/>
<path opacity="0.15" d="M83.3013 38.1303L83.1831 38.1876L81.9957 34.8183L83.4749 33.9114L82.0347 28.3572L84.0685 34.0644L82.1799 34.9827L83.3013 38.1303Z" fill="black"/>
<path opacity="0.15" d="M81.3444 41.2688L82.8399 39.9072L80.369 31.3589L81.5693 34.7306L83.5218 40.2132L81.3444 41.2688Z" fill="black"/>
<path opacity="0.15" d="M76.9396 28.7583L79.7547 38.5222L78.4086 40.0519L80.5862 38.9952L76.9396 28.7583Z" fill="black"/>
<path opacity="0.15" d="M81.8121 34.6119L81.5694 34.7305L80.3673 31.3555L78.4316 32.2949L80.2088 31.0391L78.6567 25.7568L81.8121 34.6119Z" fill="black"/>
<path opacity="0.15" d="M72.3311 38.5605C72.3305 38.5632 72.3281 38.5626 72.3243 38.5675C72.3243 38.5675 72.3243 38.5675 72.3217 38.567C70.3751 39.8836 68.5075 39.1482 68.5075 39.1482C68.5726 38.9874 68.6467 38.834 68.7297 38.688C69.6357 38.8885 70.8715 38.932 72.3311 38.5605Z" fill="black"/>
<path opacity="0.15" d="M74.2019 39.5129C72.9182 41.5899 70.9797 41.7419 70.9797 41.7419C70.9841 41.4618 71.0119 41.1978 71.0624 40.9525C72.2479 40.7493 72.856 40.5091 74.2019 39.5129Z" fill="black"/>
<path d="M40.6603 33.8132L37.1138 51.0546C35.5746 58.5379 41.9056 66.1632 51.2545 68.0863C60.6035 70.0095 69.4302 65.5019 70.9694 58.0187L74.5159 40.7773L40.6603 33.8132Z" fill="#111427"/>
<path opacity="0.7" d="M74.5175 40.7771L70.971 58.0191C69.4319 65.501 60.6049 70.0084 51.2545 68.085C50.0143 67.8299 48.8267 67.4733 47.7047 67.0317C55.5874 67.2706 62.4038 63.0212 63.7387 56.5315L67.2852 39.2896L74.5175 40.7771Z" fill="black"/>
<path d="M74.5183 40.7785C76.0578 33.2952 69.7268 25.6696 60.3778 23.7464C51.0287 21.8231 42.2018 26.3304 40.6624 33.8138C39.1229 41.2971 45.4539 48.9226 54.8029 50.8459C64.152 52.7692 72.9789 48.2618 74.5183 40.7785Z" fill="#EBEDF9"/>
<path opacity="0.1" d="M74.5175 40.7772C73.0884 47.7252 65.3774 52.108 56.7997 51.1614C62.7584 49.7624 67.5221 45.4449 68.7271 39.5862C69.9317 33.7301 67.2614 27.8835 62.3438 24.2473C70.5957 26.7651 75.9455 33.8345 74.5175 40.7772Z" fill="black"/>
<path d="M56.7494 41.3711C56.0777 43.9505 55.4821 45.3201 55.4821 45.3201C55.4821 45.3201 55.1701 45.0143 54.8022 44.4748C54.1642 43.5288 53.363 41.8632 53.7801 39.8357C52.4964 41.9126 50.5579 42.0647 50.5579 42.0647C50.5623 41.7845 50.5901 41.5205 50.6406 41.2752C50.9146 39.8393 51.7945 38.9889 51.9025 38.8904C51.9025 38.8904 51.9025 38.8904 51.8999 38.8898C49.9533 40.2064 48.0857 39.471 48.0857 39.471C48.1508 39.3102 48.2247 39.1568 48.308 39.0108C49.1922 37.4279 50.9597 36.7881 51.0801 36.7455C49.4912 36.9441 47.6008 35.7123 47.6008 35.7123C49.1248 33.4882 52.2447 33.697 52.2447 33.697C51.3135 33.3874 50.3839 32.0356 50.4431 30.9855C51.0397 30.8919 53.2025 30.8253 55.5688 32.9251L56.9767 36.4382L57.2438 37.1057C57.2438 37.1057 57.4234 38.7924 56.7494 41.3711Z" fill="#FD9850"/>
<path opacity="0.15" d="M56.7493 41.3711C56.0777 43.9505 55.4821 45.3201 55.4821 45.3201C55.4821 45.3201 55.17 45.0142 54.8021 44.4748C55.8097 42.2793 56.7336 39.1196 56.9766 36.438L57.2437 37.1055C57.2437 37.1055 57.4234 38.7924 56.7493 41.3711Z" fill="black"/>
<path d="M69.7563 40.1686L66.4829 41.7547L62.7667 31.3201L66.0377 29.7336L66.0396 29.7369L69.7563 40.1686Z" fill="#E9423C"/>
<path d="M67.091 43.1051L64.9134 44.1606L62.8794 38.4534L61.758 35.3058L63.6466 34.3875L63.9361 34.2476C63.9361 34.2476 63.9382 34.2508 63.9401 34.254L67.091 43.1051Z" fill="#E9423C"/>
<path d="M63.1002 40.5365L60.9226 41.592L57.7678 32.7345L58.0099 32.6184L59.9453 31.679L59.9472 31.6822L61.1477 35.0539L63.1002 40.5365Z" fill="#E9423C"/>
<path d="M60.1644 39.3184L57.987 40.3751L54.3405 30.1382L56.518 29.0813L60.1644 39.3184Z" fill="#E9423C"/>
<path d="M61.3903 34.9347L61.1478 35.0535L59.9454 31.6785L58.01 32.6179L56.0575 27.1354L58.2349 26.0798L61.3903 34.9347Z" fill="#E9423C"/>
<path d="M62.8795 38.4535L62.7615 38.5109L62.5902 38.5935L59.438 29.7364L61.6129 28.6804L63.6467 34.3876L61.7581 35.3059L62.8795 38.4535Z" fill="#E9423C"/>
<path opacity="0.15" d="M40.9442 48.6117L39.8731 53.8189C39.8563 53.9006 39.8586 53.9863 39.8813 54.0693C40.7804 57.3414 43.6341 59.9609 45.1533 61.1659C45.5771 61.5022 46.2395 61.3384 46.3345 60.8769L47.9801 52.876C48.0318 52.6247 47.8894 52.3608 47.6227 52.2186C46.6288 51.6884 44.162 50.2788 42.1884 48.3795C41.7778 47.9844 41.046 48.1175 40.9442 48.6117Z" fill="white"/>
<path opacity="0.15" d="M66.4829 41.7549L68.5411 39.8175L66.0396 29.7371L69.7563 40.1688L66.4829 41.7549Z" fill="black"/>
<path opacity="0.15" d="M64.9135 44.1606L66.1083 42.6585L63.9362 34.2476C63.9362 34.2476 63.9383 34.2508 63.9402 34.254L67.091 43.1053L64.9135 44.1606Z" fill="black"/>
<path opacity="0.15" d="M62.8794 38.4535L62.7614 38.5109L61.5738 35.1416L63.0531 34.2346L61.6128 28.6804L63.6466 34.3876L61.758 35.3059L62.8794 38.4535Z" fill="black"/>
<path opacity="0.15" d="M60.9226 41.592L62.4183 40.2304L59.9472 31.6821L61.1477 35.0539L63.1002 40.5364L60.9226 41.592Z" fill="black"/>
<path opacity="0.15" d="M56.518 29.0813L59.3331 38.8453L57.987 40.3751L60.1644 39.3184L56.518 29.0813Z" fill="black"/>
<path opacity="0.15" d="M61.3902 34.9347L61.1477 35.0535L59.9454 31.6785L58.0099 32.6179L59.7871 31.3621L58.2348 26.0798L61.3902 34.9347Z" fill="black"/>
<path opacity="0.15" d="M51.9093 38.8835C51.9087 38.8862 51.9063 38.8856 51.9025 38.8905C51.9025 38.8905 51.9025 38.8905 51.8998 38.89C49.9532 40.2066 48.0857 39.4712 48.0857 39.4712C48.1508 39.3104 48.2247 39.157 48.3079 39.011C49.2139 39.2115 50.4497 39.255 51.9093 38.8835Z" fill="black"/>
<path opacity="0.15" d="M53.78 39.8362C52.4964 41.9131 50.5579 42.0652 50.5579 42.0652C50.5622 41.7851 50.59 41.521 50.6405 41.2757C51.8261 41.0726 52.4341 40.8324 53.78 39.8362Z" fill="black"/>
<path d="M121.265 73.6916C118.743 81.8088 115.934 89.0668 114.158 91.7172C113.074 93.334 110.749 96.3074 106.254 97.7927C105.896 97.9083 105.525 98.0183 105.138 98.1169C104.059 98.3911 102.871 98.5801 101.56 98.6502C101.282 98.6671 101 98.6777 100.712 98.6788C99.4986 98.7006 98.1877 98.6228 96.7699 98.4244C96.5057 98.3892 96.2399 98.3484 95.97 98.3011C95.5776 98.2368 95.1734 98.1619 94.7632 98.0775C94.3527 97.9932 93.9519 97.9024 93.5659 97.8065C93.2992 97.7435 93.039 97.6762 92.7823 97.6041C91.4014 97.2268 90.1662 96.7808 89.0597 96.2819C88.7955 96.1672 88.5407 96.0462 88.2922 95.9212C87.1176 95.3396 86.1012 94.6973 85.2179 94.0194C84.9002 93.7786 84.6029 93.531 84.3199 93.2808C80.7732 90.1442 79.8079 86.4938 79.4506 84.578C78.8646 81.4417 79.1485 73.6646 80.0348 65.2107L121.265 73.6916Z" fill="#95325E"/>
<path d="M85.2182 94.0198C84.9004 93.779 84.6031 93.5315 84.3202 93.2812C83.8534 89.0865 83.8526 83.3316 84.7262 77.7785C84.7633 77.5586 84.9695 77.4092 85.1874 77.443C85.4126 77.481 85.5573 77.6836 85.5229 77.9041C84.6001 83.7761 84.6627 89.8561 85.2182 94.0198Z" fill="#702647"/>
<path d="M93.566 97.8069C93.2993 97.7439 93.0391 97.6766 92.7824 97.6045L94.6467 83.7562C94.6779 83.5378 94.88 83.3819 95.1016 83.4113C95.3205 83.4398 95.4759 83.6445 95.4468 83.8659L93.566 97.8069Z" fill="#702647"/>
<path d="M89.0599 96.2821C88.7957 96.1675 88.5409 96.0465 88.2924 95.9214L89.9894 81.7535C90.0153 81.5339 90.2152 81.3751 90.4348 81.401C90.6574 81.4248 90.8153 81.63 90.7868 81.849L89.0599 96.2821Z" fill="#702647"/>
<path d="M111.997 83.3882C110.608 88.8352 108.336 94.1226 106.254 97.7931C105.896 97.9087 105.525 98.0188 105.138 98.1173C107.289 94.5105 109.746 88.9487 111.216 83.1893C111.271 82.9731 111.49 82.8452 111.706 82.8982C111.92 82.9528 112.05 83.1717 111.997 83.3882Z" fill="#702647"/>
<path d="M100.523 84.9651L96.7701 98.4249C96.5059 98.3897 96.2402 98.3488 95.9703 98.3015L99.7447 84.7502C99.8054 84.5351 100.026 84.4105 100.241 84.4686C100.456 84.5291 100.581 84.7521 100.523 84.9651Z" fill="#702647"/>
<path d="M105.592 84.963L101.56 98.6503C101.282 98.6671 101 98.6777 100.712 98.6789L104.822 84.736C104.882 84.5236 105.106 84.3969 105.322 84.4633C105.534 84.5261 105.655 84.7511 105.592 84.963Z" fill="#702647"/>
<path opacity="0.15" d="M121.267 73.6915C118.744 81.8087 115.936 89.0667 114.159 91.7171C113.076 93.3338 110.751 96.3072 106.256 97.7925C105.897 97.9079 105.527 98.0182 105.139 98.1167C104.06 98.391 102.872 98.5799 101.561 98.6501C101.283 98.6669 101.002 98.6775 100.714 98.6786C99.5 98.7004 98.1889 98.6227 96.7713 98.4242C96.5071 98.3891 96.2414 98.3482 95.9715 98.3009C95.579 98.2366 95.1748 98.1617 94.7646 98.0774C94.3542 97.993 93.9534 97.9022 93.5673 97.8065C93.3007 97.7435 93.0404 97.6762 92.7837 97.6041C92.2752 97.4638 91.7874 97.3168 91.3179 97.16C92.1645 97.23 92.9674 97.258 93.7353 97.2433C94.0234 97.2421 94.3052 97.2317 94.5828 97.2147C95.8941 97.1445 97.0817 96.9556 98.1607 96.6814C98.5483 96.5828 98.9192 96.4727 99.2774 96.3572C103.772 94.8719 106.097 91.8984 107.181 90.2817C108.957 87.6313 111.766 80.3735 114.289 72.2561L121.267 73.6915Z" fill="black"/>
<path d="M122.299 69.0381L80.9216 60.5269L80.7875 60.4993L80.3606 62.5747C78.284 72.6699 85.9222 82.7731 97.4246 85.139C108.924 87.5045 119.93 81.2363 122.007 71.1411L122.434 69.0657L122.299 69.0381Z" fill="#FFFFFD"/>
<path opacity="0.1" d="M122.435 69.0656L122.008 71.141C119.932 81.2362 108.926 87.5044 97.4261 85.1389C97.1763 85.0874 96.927 85.0333 96.6819 84.9721C107.908 86.9247 118.485 80.7112 120.517 70.8342L120.944 68.7588L122.435 69.0656Z" fill="black"/>
<path d="M122.438 69.0674C124.515 58.9711 116.876 48.8685 105.375 46.5027C93.8748 44.1368 82.868 50.4035 80.791 60.4998C78.714 70.5961 86.3534 80.6987 97.8539 83.0645C109.355 85.4304 120.361 79.1637 122.438 69.0674Z" fill="#FFFFFD"/>
<path opacity="0.2" d="M122.438 69.0674C124.515 58.9711 116.876 48.8685 105.375 46.5027C93.8748 44.1368 82.868 50.4035 80.791 60.4998C78.714 70.5961 86.3534 80.6987 97.8539 83.0645C109.355 85.4304 120.361 79.1637 122.438 69.0674Z" fill="black"/>
<path d="M118.842 71.115C120.615 62.4957 114.093 53.8709 104.275 51.8512C94.457 49.8314 85.0603 55.1814 83.2872 63.8008C81.514 72.4201 88.0358 81.0448 97.854 83.0646C107.672 85.0844 117.069 79.7343 118.842 71.115Z" fill="#F48035"/>
<path opacity="0.2" d="M104.903 79.8768C104.414 79.7762 104 79.4049 103.871 78.8876C103.69 78.1683 104.127 77.439 104.846 77.2588C105.036 77.2113 105.223 77.1597 105.408 77.1035C106.117 76.8888 106.867 77.2902 107.082 78C107.297 78.7098 106.895 79.4592 106.185 79.6741C105.959 79.7425 105.731 79.8057 105.499 79.8636C105.298 79.9143 105.095 79.9162 104.903 79.8768Z" fill="black"/>
<path opacity="0.2" d="M109.927 77.3666C109.639 77.3074 109.368 77.1532 109.165 76.9093C108.692 76.3386 108.77 75.492 109.341 75.0184C111.008 73.6341 112.109 71.8345 112.525 69.8143C112.997 67.5176 112.555 65.1793 111.246 63.0523C110.858 62.4206 111.055 61.5936 111.686 61.205C112.318 60.8163 113.145 61.0134 113.534 61.6447C115.183 64.3257 115.759 67.4191 115.155 70.3553C114.616 72.9794 113.198 75.3065 111.056 77.0848C110.729 77.3556 110.312 77.4458 109.927 77.3666Z" fill="black"/>
<path opacity="0.2" d="M92.6746 75.6807C92.5698 75.6591 92.4703 75.6062 92.3917 75.522C89.4655 72.4016 89.5249 66.29 91.525 63.3105C91.6903 63.0643 92.024 62.9986 92.2702 63.164C92.5165 63.3293 92.5821 63.6629 92.4168 63.9092C90.8305 66.2722 90.45 71.8813 93.1751 74.7874C93.378 75.0036 93.367 75.3437 93.1507 75.5464C93.0183 75.6707 92.8399 75.7147 92.6746 75.6807Z" fill="black"/>
<path opacity="0.2" d="M96.9508 58.2259C96.8213 58.1992 96.7013 58.1251 96.6194 58.0082C96.449 57.7653 96.508 57.4304 96.7509 57.2601C99.2969 55.4756 104.926 56.8448 106.819 59.119C107.009 59.3469 106.978 59.6857 106.75 59.8755C106.523 60.0651 106.184 60.0348 105.994 59.8065C104.288 57.758 99.2893 56.7924 97.3675 58.1396C97.2415 58.228 97.0906 58.2546 96.9508 58.2259Z" fill="black"/>
<path opacity="0.2" d="M103.873 74.3858C103.761 74.3625 103.655 74.3032 103.574 74.209C103.381 73.9837 103.408 73.6446 103.633 73.4518C105.874 71.5342 106.142 69.7041 106.145 69.6859C106.184 69.3933 106.452 69.1855 106.745 69.2225C107.037 69.2606 107.246 69.5246 107.211 69.8178C107.2 69.9082 106.915 72.0575 104.331 74.268C104.2 74.3801 104.03 74.4182 103.873 74.3858Z" fill="black"/>
<path opacity="0.2" d="M103.276 68.4601C103.013 68.406 102.826 68.1622 102.849 67.888C103.11 64.8771 101.672 63.9912 101.61 63.9551C101.357 63.8056 101.268 63.479 101.414 63.2239C101.56 62.9689 101.88 62.8764 102.137 63.0188C102.223 63.0665 104.243 64.2306 103.92 67.9805C103.894 68.2761 103.634 68.4949 103.338 68.4694C103.317 68.4673 103.296 68.4643 103.276 68.4601Z" fill="black"/>
<path opacity="0.2" d="M98.6003 75.7001C98.4058 75.6602 98.2415 75.5136 98.1883 75.3086C97.6033 73.0526 98.6067 71.3494 98.6498 71.2781C98.8028 71.0239 99.1327 70.9416 99.3869 71.0952C99.6403 71.2478 99.7226 71.5767 99.5709 71.8306C99.5569 71.8548 98.762 73.2417 99.228 75.0391C99.3025 75.3262 99.13 75.6194 98.8429 75.6937C98.7608 75.7151 98.6782 75.716 98.6003 75.7001Z" fill="black"/>
<path opacity="0.25" d="M86.8285 118.265C86.53 118.204 86.2794 117.975 86.2058 117.659C86.1048 117.226 86.374 116.792 86.8073 116.691C99.4716 113.737 110.584 106.092 117.296 95.7166C117.538 95.3429 118.037 95.236 118.41 95.4777C118.784 95.7195 118.891 96.218 118.649 96.5918C111.712 107.315 100.24 115.212 87.1733 118.26C87.0564 118.288 86.9391 118.288 86.8285 118.265Z" fill="black"/>
<path opacity="0.25" d="M121.974 88.8473C121.929 88.838 121.884 88.8248 121.84 88.8076C121.426 88.6445 121.223 88.177 121.386 87.7629C121.924 86.3951 122.4 84.9843 122.801 83.5696C122.922 83.1416 123.363 82.8925 123.795 83.0139C124.223 83.1351 124.472 83.5806 124.351 84.0086C123.936 85.4742 123.443 86.9359 122.885 88.3529C122.739 88.7228 122.35 88.9248 121.974 88.8473Z" fill="black"/>
<path opacity="0.25" d="M108.741 36.1225C108.604 36.0944 108.472 36.0301 108.361 35.9289C104.809 32.6916 100.809 29.9438 96.4725 27.7613C96.0751 27.5614 95.9151 27.0768 96.1152 26.6795C96.3151 26.2819 96.7997 26.1215 97.1971 26.322C101.664 28.5703 105.786 31.4017 109.447 34.7379C109.776 35.0375 109.799 35.547 109.5 35.8759C109.301 36.094 109.01 36.178 108.741 36.1225Z" fill="black"/>
<path opacity="0.25" d="M25.0768 50.4989C25.0184 50.4868 24.9603 50.4682 24.9037 50.4425C24.499 50.2577 24.3206 49.7798 24.5054 49.375C26.7685 44.417 29.8858 39.8886 33.7707 35.9164C34.0818 35.5982 34.5921 35.5927 34.9101 35.9037C35.2282 36.2148 35.2339 36.7249 34.9227 37.0431C31.1686 40.8818 28.1567 45.256 25.9714 50.0442C25.8122 50.3922 25.4364 50.5728 25.0768 50.4989Z" fill="black"/>
<path opacity="0.25" d="M21.8908 60.264C21.4551 60.1744 21.1744 59.7484 21.264 59.3127C21.5612 57.868 21.9305 56.4236 22.3616 55.0192C22.4921 54.5941 22.9398 54.3546 23.3682 54.4855C23.7934 54.616 24.0324 55.0667 23.9019 55.4921C23.4858 56.8478 23.1293 58.2423 22.8424 59.6372C22.7525 60.073 22.3266 60.3537 21.8908 60.264Z" fill="black"/>
<path d="M22.3445 68.3557L18.9413 84.8998C17.4644 92.0804 24.0168 99.4955 33.5768 101.462C43.1368 103.428 52.0839 99.2016 53.5611 92.021L56.9643 75.4769L22.3445 68.3557Z" fill="#111427"/>
<path opacity="0.7" d="M56.9657 75.4767L53.5625 92.0214C52.0857 99.2007 43.1382 103.428 33.5769 101.461C32.3087 101.2 31.093 100.842 29.943 100.403C37.9865 100.731 44.8862 96.7273 46.1672 90.5L49.5704 73.9553L56.9657 75.4767Z" fill="black"/>
<path d="M56.9662 75.4788C58.4434 68.2981 51.891 60.8828 42.3309 58.9161C32.7709 56.9494 23.8234 61.1762 22.3463 68.3569C20.8691 75.5376 27.4215 82.9529 36.9816 84.9196C46.5416 86.8863 55.489 82.6595 56.9662 75.4788Z" fill="#EBEDF9"/>
<path opacity="0.1" d="M56.9656 75.4768C55.5942 82.1437 47.7835 86.2646 39.0225 85.2472C45.083 83.9753 49.8883 79.8807 51.0447 74.2589C52.2005 68.6396 49.4041 62.9814 44.3429 59.4216C52.791 61.9468 58.3359 68.815 56.9656 75.4768Z" fill="black"/>
<path d="M38.8492 75.8275C38.1963 78.3009 37.6058 79.6112 37.6058 79.6112C37.6058 79.6112 37.2837 79.3131 36.9016 78.7896C36.2391 77.8714 35.4012 76.2589 35.8014 74.3135C34.5179 76.2956 32.5426 76.418 32.5426 76.418C32.5435 76.1485 32.5685 75.8949 32.6171 75.6594C32.8789 74.2813 33.7656 73.4741 33.8747 73.3805C33.8747 73.3805 33.8747 73.3805 33.872 73.3799C31.9029 74.6225 29.9889 73.8917 29.9889 73.8917C30.0532 73.7377 30.1267 73.5912 30.21 73.4518C31.0921 71.9398 32.887 71.3463 33.0094 71.3067C31.3911 71.4781 29.4475 70.2693 29.4475 70.2693C30.9744 68.1483 34.1591 68.3882 34.1591 68.3882C33.2055 68.0787 32.2405 66.7665 32.2878 65.7571C32.8951 65.6744 35.1005 65.6372 37.5402 67.6868L39.02 71.0843L39.3007 71.7298C39.3007 71.7298 39.5048 73.3549 38.8492 75.8275Z" fill="#FD9850"/>
<path opacity="0.15" d="M38.8492 75.8274C38.1963 78.3008 37.6058 79.6111 37.6058 79.6111C37.6058 79.6111 37.2837 79.313 36.9016 78.7895C37.902 76.6897 38.8051 73.6612 39.0196 71.0842L39.3003 71.7297C39.3003 71.7297 39.5047 73.3548 38.8492 75.8274Z" fill="black"/>
<path d="M52.1016 74.8318L48.7824 76.3171L44.8621 66.2317L48.1788 64.7458L48.1809 64.7491L52.1016 74.8318Z" fill="#E9423C"/>
<path d="M49.4194 77.6243L47.2114 78.6127L45.0658 73.0965L43.883 70.0541L45.798 69.1941L46.0915 69.063C46.0915 69.063 46.0936 69.066 46.0957 69.0692L49.4194 77.6243Z" fill="#E9423C"/>
<path d="M45.3169 75.1031L43.1089 76.0915L39.7808 67.5304L40.0263 67.4216L41.9888 66.5417L41.9909 66.545L43.2572 69.804L45.3169 75.1031Z" fill="#E9423C"/>
<path d="M42.3073 73.8941L40.0993 74.8839L36.2526 64.9893L38.4606 63.9998L42.3073 73.8941Z" fill="#E9423C"/>
<path d="M43.503 69.6927L43.2571 69.8039L41.9888 66.5417L40.0263 67.4215L37.9666 62.1225L40.1745 61.134L43.503 69.6927Z" fill="#E9423C"/>
<path d="M45.0658 73.0966L44.9461 73.1501L44.7723 73.2277L41.4468 64.6669L43.6522 63.6777L45.7978 69.1941L43.8829 70.0541L45.0658 73.0966Z" fill="#E9423C"/>
<path opacity="0.15" d="M22.8181 82.5972L21.7903 87.5938C21.7743 87.6723 21.7775 87.7548 21.8019 87.835C22.7597 90.9943 25.703 93.5501 27.2676 94.7285C27.7041 95.0572 28.3776 94.908 28.4688 94.4652L30.0479 86.7879C30.0975 86.5468 29.9488 86.291 29.6751 86.1509C28.6547 85.6285 26.121 84.2417 24.0844 82.3897C23.6605 82.0039 22.9157 82.123 22.8181 82.5972Z" fill="white"/>
<path opacity="0.15" d="M48.7824 76.3173L50.8578 74.4791L48.1809 64.7493L52.1016 74.832L48.7824 76.3173Z" fill="black"/>
<path opacity="0.15" d="M47.2114 78.6127L48.4115 77.1823L46.0915 69.063C46.0915 69.063 46.0936 69.066 46.0957 69.0692L49.4196 77.6243L47.2114 78.6127Z" fill="black"/>
<path opacity="0.15" d="M45.0658 73.0966L44.9461 73.1501L43.6929 69.8937L45.1905 69.0396L43.6522 63.6777L45.7978 69.1941L43.8829 70.0541L45.0658 73.0966Z" fill="black"/>
<path opacity="0.15" d="M43.1089 76.0917L44.6176 74.8003L41.9909 66.5452L43.2572 69.8042L45.3169 75.1033L43.1089 76.0917Z" fill="black"/>
<path opacity="0.15" d="M38.4606 63.9998L41.4534 73.4287L40.0993 74.8839L42.3073 73.8941L38.4606 63.9998Z" fill="black"/>
<path opacity="0.15" d="M43.503 69.6927L43.2571 69.8039L41.9887 66.5417L40.0262 67.4215L41.8232 66.2353L40.1745 61.134L43.503 69.6927Z" fill="black"/>
<path opacity="0.15" d="M33.8815 73.3735C33.881 73.3762 33.8783 73.3756 33.8747 73.3802C33.8747 73.3802 33.8747 73.3802 33.8721 73.3796C31.903 74.6222 29.9889 73.8914 29.9889 73.8914C30.0532 73.7374 30.1268 73.5909 30.21 73.4515C31.1362 73.6555 32.3974 73.7127 33.8815 73.3735Z" fill="black"/>
<path opacity="0.15" d="M35.8017 74.3132C34.5182 76.2954 32.5428 76.4178 32.5428 76.4178C32.5438 76.1482 32.5688 75.8946 32.6174 75.6591C33.8239 75.4785 34.441 75.2549 35.8017 74.3132Z" fill="black"/>
<path d="M47.3914 78.0195L43.9315 94.8399C42.4298 102.14 49.0242 109.665 58.6604 111.648C68.2966 113.63 77.3257 109.318 78.8274 102.018L82.2873 85.1975L47.3914 78.0195Z" fill="#111427"/>
<path opacity="0.7" d="M82.2885 85.1974L78.8284 102.018C77.327 109.318 68.2976 113.629 58.6599 111.646C57.3815 111.384 56.1565 111.022 54.9976 110.578C63.1075 110.897 70.0717 106.816 71.3741 100.485L74.8342 83.6641L82.2885 85.1974Z" fill="black"/>
<path d="M82.2899 85.1998C83.7917 77.8992 77.1975 70.3739 67.5612 68.3916C57.9249 66.4092 48.8957 70.7205 47.3939 78.0211C45.892 85.3217 52.4862 92.847 62.1225 94.8293C71.7588 96.8117 80.788 92.5004 82.2899 85.1998Z" fill="#EBEDF9"/>
<path opacity="0.1" d="M82.2884 85.1973C80.8941 91.9756 73.0112 96.1775 64.1791 95.1584C70.2924 93.8553 75.1445 89.6853 76.3202 83.9696C77.4953 78.2565 74.6855 72.5105 69.5882 68.9014C78.1025 71.4534 83.6816 78.4243 82.2884 85.1973Z" fill="black"/>
<path d="M64.0209 85.5852C63.3583 88.1 62.7606 89.4328 62.7606 89.4328C62.7606 89.4328 62.4363 89.1304 62.0521 88.5989C61.3858 87.6668 60.5436 86.0295 60.9504 84.0515C59.6527 86.0684 57.6607 86.1959 57.6607 86.1959C57.6622 85.9221 57.6878 85.6641 57.7371 85.4248C58.0034 84.0237 58.899 83.2019 59.0091 83.1065C59.0091 83.1065 59.0091 83.1065 59.0064 83.106C57.0188 84.3723 55.09 83.6327 55.09 83.6327C55.155 83.4761 55.2295 83.3269 55.3135 83.1852C56.2057 81.647 58.0165 81.0408 58.14 81.0003C56.5079 81.1773 54.5502 79.9521 54.5502 79.9521C56.0935 77.7939 59.3043 78.0322 59.3043 78.0322C58.3433 77.7193 57.3727 76.3874 57.4218 75.3612C58.0343 75.2761 60.2582 75.2345 62.7147 77.3135L64.2009 80.7639L64.4827 81.4196C64.4827 81.4196 64.6861 83.0708 64.0209 85.5852Z" fill="#FD9850"/>
<path opacity="0.15" d="M64.0208 85.585C63.3582 88.0998 62.7606 89.4327 62.7606 89.4327C62.7606 89.4327 62.4362 89.1302 62.0521 88.5987C63.0643 86.4628 63.9803 83.3833 64.201 80.7639L64.4829 81.4197C64.4829 81.4197 64.686 83.0706 64.0208 85.585Z" fill="black"/>
<path d="M77.3851 84.5505L74.0356 86.0659L70.1003 75.8224L73.447 74.3066L73.4491 74.3097L77.3851 84.5505Z" fill="#E9423C"/>
<path d="M74.6757 87.3926L72.4477 88.4011L70.2938 82.7983L69.1062 79.7081L71.0386 78.8307L71.3348 78.697C71.3348 78.697 71.3369 78.7002 71.3389 78.7035L74.6757 87.3926Z" fill="#E9423C"/>
<path d="M70.5432 84.8379L68.3154 85.8462L64.9742 77.1508L65.222 77.04L67.2023 76.1423L67.2044 76.1455L68.4756 79.4556L70.5432 84.8379Z" fill="#E9423C"/>
<path d="M67.5108 83.6146L65.2828 84.6242L61.4211 74.5746L63.6492 73.5649L67.5108 83.6146Z" fill="#E9423C"/>
<path d="M68.7238 79.3419L68.4756 79.4554L67.2023 76.1421L65.2221 77.0397L63.1542 71.6576L65.3823 70.6492L68.7238 79.3419Z" fill="#E9423C"/>
<path d="M70.2938 82.7987L70.1729 82.8534L69.9976 82.9324L66.6593 74.2374L68.8847 73.2285L71.0386 78.8312L69.1062 79.7086L70.2938 82.7987Z" fill="#E9423C"/>
<path opacity="0.15" d="M47.8445 92.4935L46.7995 97.5736C46.7831 97.6532 46.7863 97.7372 46.8107 97.8185C47.7709 101.028 50.7345 103.62 52.3101 104.815C52.7498 105.149 53.429 104.996 53.5217 104.546L55.1273 96.74C55.1778 96.4949 55.0282 96.2352 54.7524 96.0932C53.7244 95.5638 51.172 94.1589 49.1216 92.28C48.6949 91.889 47.9436 92.0114 47.8445 92.4935Z" fill="white"/>
<path opacity="0.15" d="M74.0356 86.0658L76.1315 84.1939L73.4491 74.3096L77.3851 84.5504L74.0356 86.0658Z" fill="black"/>
<path opacity="0.15" d="M72.4477 88.4011L73.6601 86.9451L71.3348 78.697C71.3348 78.697 71.3369 78.7002 71.339 78.7035L74.6758 87.3926L72.4477 88.4011Z" fill="black"/>
<path opacity="0.15" d="M70.2938 82.7987L70.1729 82.8534L68.915 79.5459L70.4264 78.6751L68.8847 73.2285L71.0386 78.8312L69.1062 79.7086L70.2938 82.7987Z" fill="black"/>
<path opacity="0.15" d="M68.3154 85.8459L69.8387 84.5309L67.2044 76.1453L68.4756 79.4554L70.5433 84.8377L68.3154 85.8459Z" fill="black"/>
<path opacity="0.15" d="M63.6492 73.5649L66.6506 83.1431L65.2828 84.6242L67.5108 83.6146L63.6492 73.5649Z" fill="black"/>
<path opacity="0.15" d="M68.7237 79.3419L68.4756 79.4554L67.2023 76.1421L65.222 77.0397L67.0361 75.831L65.3822 70.6492L68.7237 79.3419Z" fill="black"/>
<path opacity="0.15" d="M59.0159 83.0996C59.0153 83.1023 59.0127 83.1017 59.0091 83.1064C59.0091 83.1064 59.0091 83.1064 59.0064 83.1058C57.0188 84.3721 55.09 83.6326 55.09 83.6326C55.155 83.476 55.2295 83.3268 55.3135 83.1851C56.2471 83.3911 57.5187 83.4471 59.0159 83.0996Z" fill="black"/>
<path opacity="0.15" d="M60.9504 84.0515C59.6527 86.0685 57.6607 86.196 57.6607 86.196C57.6622 85.9221 57.6878 85.6641 57.7372 85.4248C58.9541 85.2393 59.5769 85.011 60.9504 84.0515Z" fill="black"/>
<path d="M31.3912 60.9502L28.3016 75.97C26.9606 82.489 33.3236 89.3061 42.5136 91.1963C51.7036 93.0866 60.2405 89.3345 61.5815 82.8155L64.6711 67.7957L31.3912 60.9502Z" fill="#111427"/>
<path opacity="0.7" d="M64.6724 67.7955L61.5828 82.8157C60.2422 89.3333 51.7047 93.0856 42.5134 91.195C41.2942 90.9442 40.1246 90.6057 39.0168 90.1943C46.735 90.5775 53.3107 87.0068 54.4735 81.3534L57.5631 66.3333L64.6724 67.7955Z" fill="black"/>
<path d="M64.6731 67.7973C66.0141 61.2783 59.6513 54.461 50.4612 52.5704C41.2711 50.6799 32.7339 54.432 31.3929 60.951C30.0518 67.47 36.4147 74.2872 45.6047 76.1778C54.7948 78.0683 63.332 74.3163 64.6731 67.7973Z" fill="#EBEDF9"/>
<path opacity="0.1" d="M64.6724 67.7954C63.4273 73.848 55.9794 77.516 47.5656 76.4976C53.3652 75.404 57.9308 71.7283 58.9805 66.6247C60.0298 61.5232 57.2881 56.3445 52.3962 53.0518C60.5257 55.4387 65.9164 61.7474 64.6724 67.7954Z" fill="black"/>
<path d="M47.3002 67.9237C46.7001 70.1677 46.1474 71.3539 46.1474 71.3539C46.1474 71.3539 45.8354 71.0791 45.4635 70.5987C44.8186 69.7561 43.9977 68.2799 44.361 66.5137C43.1509 68.3041 41.2575 68.3945 41.2575 68.3945C41.2556 68.1494 41.2769 67.9186 41.3208 67.7049C41.5572 66.4536 42.3993 65.7282 42.5029 65.6444C42.5029 65.6444 42.5029 65.6444 42.5005 65.6439C40.625 66.7539 38.7813 66.0687 38.7813 66.0687C38.8414 65.9293 38.9105 65.7965 38.9886 65.6707C39.8187 64.304 41.534 63.783 41.6509 63.7482C40.1005 63.887 38.2237 62.7665 38.2237 62.7665C39.6659 60.8525 42.7229 61.1044 42.7229 61.1044C41.805 60.8127 40.8656 59.6085 40.9004 58.6902C41.482 58.6214 43.5967 58.6108 45.9585 60.5018L47.4137 63.6091L47.6897 64.1996C47.6897 64.1996 47.9028 65.6804 47.3002 67.9237Z" fill="#FD9850"/>
<path opacity="0.15" d="M47.3002 67.9237C46.7001 70.1676 46.1475 71.3539 46.1475 71.3539C46.1475 71.3539 45.8354 71.0791 45.4635 70.5987C46.4009 68.6984 47.2352 65.9517 47.4137 63.6089L47.6897 64.1994C47.6897 64.1994 47.9028 65.6803 47.3002 67.9237Z" fill="black"/>
<path d="M60.0003 67.1577L56.8324 68.4745L52.9661 59.2551L56.1315 57.938L56.1335 57.9408L60.0003 67.1577Z" fill="#E9423C"/>
<path d="M57.4572 69.6702L55.35 70.5465L53.2339 65.5039L52.0673 62.7228L53.895 61.9604L54.1751 61.8442C54.1751 61.8442 54.1772 61.8471 54.179 61.8499L57.4572 69.6702Z" fill="#E9423C"/>
<path d="M53.4957 67.3327L51.3885 68.209L48.1062 60.3829L48.3404 60.2866L50.2134 59.5066L50.2155 59.5094L51.4643 62.4887L53.4957 67.3327Z" fill="#E9423C"/>
<path d="M50.5964 66.2013L48.4892 67.0787L44.6953 58.0339L46.8026 57.1565L50.5964 66.2013Z" fill="#E9423C"/>
<path d="M51.699 62.3898L51.4643 62.4886L50.2134 59.5064L48.3403 60.2864L46.309 55.4424L48.4162 54.5662L51.699 62.3898Z" fill="#E9423C"/>
<path d="M53.2338 65.5038L53.1194 65.5513L52.9537 65.6201L49.6739 57.7944L51.7786 56.9177L53.8947 61.9603L52.0672 62.7227L53.2338 65.5038Z" fill="#E9423C"/>
<path opacity="0.15" d="M31.9957 73.9149L31.0627 78.4512C31.0481 78.5223 31.0521 78.5974 31.0763 78.6708C32.0282 81.5559 34.8783 83.9129 36.3914 85.0016C36.8136 85.3054 37.458 85.1766 37.5406 84.7747L38.9743 77.8047C39.0193 77.5857 38.8741 77.3516 38.61 77.2211C37.6258 76.7348 35.1812 75.446 33.2083 73.7392C32.7975 73.384 32.0842 73.4845 31.9957 73.9149Z" fill="white"/>
<path opacity="0.15" d="M56.8324 68.4746L58.8036 66.8236L56.1335 57.9409L60.0003 67.1578L56.8324 68.4746Z" fill="black"/>
<path opacity="0.15" d="M55.3499 70.5464L56.4857 69.2572L54.1748 61.844C54.1748 61.844 54.1769 61.8468 54.1788 61.8497L57.4569 69.6701L55.3499 70.5464Z" fill="black"/>
<path opacity="0.15" d="M53.2339 65.5038L53.1195 65.5513L51.8833 62.5748L53.3107 61.8132L51.7787 56.9177L53.8948 61.9603L52.0673 62.7227L53.2339 65.5038Z" fill="black"/>
<path opacity="0.15" d="M51.3885 68.2089L52.8218 67.0496L50.2155 59.5093L51.4643 62.4886L53.4957 67.3326L51.3885 68.2089Z" fill="black"/>
<path opacity="0.15" d="M46.8026 57.1565L49.7725 65.7687L48.4892 67.0787L50.5963 66.2013L46.8026 57.1565Z" fill="black"/>
<path opacity="0.15" d="M51.699 62.3898L51.4643 62.4886L50.2133 59.5064L48.3403 60.2864L50.0514 59.2259L48.4161 54.5662L51.699 62.3898Z" fill="black"/>
<path opacity="0.15" d="M42.5096 65.6382C42.509 65.6405 42.5066 65.6401 42.5032 65.6442C42.5032 65.6442 42.5032 65.6442 42.5007 65.6437C40.6252 66.7537 38.7815 66.0685 38.7815 66.0685C38.8416 65.9291 38.9107 65.7963 38.9888 65.6705C39.8794 65.8659 41.0897 65.9312 42.5096 65.6382Z" fill="black"/>
<path opacity="0.15" d="M44.361 66.5139C43.1509 68.3043 41.2574 68.3947 41.2574 68.3947C41.2555 68.1496 41.2769 67.9188 41.3208 67.7051C42.4764 67.5536 43.066 67.3565 44.361 66.5139Z" fill="black"/>
</svg>
