<svg width="152" height="140" fill="none" xmlns="http://www.w3.org/2000/svg"><path d="M73.666 140c40.408 0 73.165-23.942 73.165-53.475 0-29.534-32.757-53.475-73.165-53.475C33.257 33.05.5 56.99.5 86.525.5 116.058 33.257 140 73.666 140Z" fill="#BC1F17"/><path d="M73.278 130.272c36.631 0 66.327-20.352 66.327-45.458 0-25.105-29.696-45.457-66.327-45.457-36.63 0-66.326 20.352-66.326 45.457 0 25.106 29.695 45.458 66.326 45.458Z" stroke="#FCEFFD" stroke-miterlimit="10" stroke-linecap="round" stroke-linejoin="round"/><path d="M67.06 130.156c0 .347-.072 5.308-.072 5.308h10.226v-3.231l-3.861.231m6.757-2.348c.026.345.319 5.294.319 5.294l10.187-1.067-.237-3.218-3.83.632m7.171-3.584c.055.34.759 5.23.759 5.23l10.048-2.268-.505-3.174-3.758 1.083m6.881-4.702c.095.327 1.395 5.041 1.395 5.041l9.658-4.005-.89-3.052-3.584 1.731m5.452-5.892c.151.295 2.258 4.574 2.258 4.574l8.729-6.353-1.412-2.757-3.196 2.596m4.34-7.188c.212.236 3.207 3.683 3.207 3.683l6.975-8.915-1.981-2.203-2.493 3.523m1.767-7.638c.266.138 4.053 2.2 4.053 2.2l4.086-11.176-2.484-1.291-1.366 4.312m-1.97-7.316c.285-.067 4.383-.932 4.383-.932l-1.957-11.966-2.659.618.928 4.474M29.419 119.33c-.115.318-1.822 4.843-1.822 4.843l9.397 4.81 1.069-2.969-3.625-1.604m6.258.727c-.076.334-1.234 5.1-1.234 5.1l9.87 3.191.71-3.118-3.778-.982m7.606-.735c-.031.344-.556 5.266-.556 5.266l10.166 1.33.295-3.211-3.86-.273M78.814 38.99c-.002-.31.05-4.756.05-4.756l-10.226-.014.013 2.894 3.86-.2m-6.591 2.473c-.034-.308-.45-4.73-.45-4.73l-10.157 1.279.318 2.874 3.812-.689m-7.053 3.247c-.07-.3-1.003-4.626-1.003-4.626l-9.924 2.702.653 2.804 3.7-1.22m70.903 9.264c.117-.303 1.866-4.614 1.866-4.614l-9.451-4.212-1.096 2.826 3.648 1.389m15.022 11.925c.171-.264 2.679-4.005 2.679-4.005l-8.431-6.608-1.595 2.466 3.298 2.32m13.155 17.46a99.746 99.746 0 0 1 3.845-3.82l-7.031-8.628-2.004 1.996 2.798 3.115m-28.32-17.119c.073-.328 1.191-5.025 1.191-5.025l-9.95-2.518-.683 3.07 3.807.732m-7.18.252c.047-.305.785-4.668.785-4.668l-10.086-1.969-.434 2.85 3.839.54M6.902 86.462c-.285.069-4.376.982-4.376.982L4.58 99.387l2.654-.649-.965-4.463m4.148 5.922c-.222.223-3.446 3.361-3.446 3.361l6.601 9.311 2.07-2.086L13 107.416m5.81 3.637c-.163.286-2.56 4.343-2.56 4.343l8.462 6.846 1.522-2.672-3.304-2.395M9.805 71.92c-.237-.098-3.596-1.575-3.596-1.575L2.702 82.458l2.204.907 1.167-4.639m11.561-18.713c-.186-.197-2.815-3.096-2.815-3.096l-7.133 9.586 1.744 1.844L12 64.596m16.324-13.125a125.215 125.215 0 0 1-2.41-4.284l-8.875 7.23 1.316 2.294 3.257-2.894m19.038-8.631a139.409 139.409 0 0 1-1.578-4.804l-9.974 4.775.868 2.579 3.705-1.987" stroke="#FCEFFD" stroke-miterlimit="10" stroke-linecap="round" stroke-linejoin="round"/><path d="M67.37 41.826c5.054-.269 10.173-.371 15.286-.069 19.679 1.163 33.989 9.264 39.906 12.51a91.973 91.973 0 0 1 6.652 4.019c-.805-.29-2.043-.727-3.568-1.23-4.816-1.59-6.367-1.823-9.908-3.206a61.584 61.584 0 0 1-3.598-1.517c-2.436-1.12-3.445-1.813-6.706-3.029-7.324-2.73-15.393-4.796-23.76-6.08a131.387 131.387 0 0 0-14.303-1.398Z" fill="#6BA91F"/><path d="M44.86 30.966c4.03.497 19.495 2.545 44.43 11.411 5.291 1.882 11.043 4.184 22.547 8.787a1346.158 1346.158 0 0 1 17.257 7.043c-1.25-2.773-4.896-4.979-8.466-6.994-3.942-2.225-7.993-4.406-12.519-6.208-2.303-.917-4.716-1.731-7.127-2.544l-9.301-3.137c-3.51-1.183-7.024-2.368-10.677-3.383-5.411-1.505-11.088-2.627-16.752-3.735-2.925-.572-5.858-1.143-8.857-1.539a76.848 76.848 0 0 0-16.736-.354c1.467.129 3.62.335 6.2.653Z" fill="#6BA91F"/><path d="M132.129 58.336c-21.742-8.744-47.331-16.812-77.27-23a524.752 524.752 0 0 0-8.455-1.674c3.94.279 10.32.83 17.9 1.985 20.712 3.154 35.294 8.515 52.658 15.011a405.761 405.761 0 0 1 18.597 7.481l-3.43.197ZM57.27 14.024c5.069 4.115 9.414 7.5 12.683 10.004 19.836 15.194 27.981 19.36 36.874 21.617 1.76.446 3.219.734 4.15.904-1.985-1.41-4.9-3.428-8.51-5.728-4.065-2.59-7.114-4.33-10.808-6.431-14.519-8.258-15.371-8.666-19.026-10.809a346.915 346.915 0 0 1-15.364-9.557Z" fill="#6BA91F"/><path d="M54.736 14.716c3.11 2.862 6.471 5.76 10.327 8.651 11.519 8.637 27.414 16.997 42.619 22.464 1.509.542 3.516 1.226 4.304.977-2.534-1.946-6.251-3.473-9.467-4.835a243.504 243.504 0 0 1-12.628-5.787c-8.358-4.12-16.403-8.666-23.687-13.389-4.092-2.654-7.944-5.365-11.467-8.081Z" fill="#6BA91F"/><path d="M50.794 17.793c.222.135.494.3.818.493 12.154 7.255 36.954 17.571 36.954 17.571 10.933 4.54 12.786 5.167 15.459 6.278 0 0 1.72.72 3.362 1.457 5.77 2.583 10.424 5.638 17.823 9.104a129.18 129.18 0 0 0 4.986 2.206c-1.342-.41-3.089-.969-5.119-1.682-3.178-1.116-5.372-2.026-8.306-3.248-9.334-3.889-10.306-4.336-14.563-6.076-3.137-1.283-3.485-1.374-6.822-2.773l-8.707-3.65c-3.285-1.378-6.574-2.757-9.762-4.229-4.723-2.18-9.19-4.547-13.635-6.91-2.296-1.221-4.594-2.445-6.742-3.73-3.951-2.364-7.367-4.921-10.013-7.497.981.64 2.442 1.576 4.267 2.686Z" fill="#6BA91F"/><path d="M133.223 55.96A1128.781 1128.781 0 0 0 111.456 47c-22.695-9.063-42.2-15.978-68.913-25.46a2715.455 2715.455 0 0 0-9.327-3.292 395.124 395.124 0 0 0 16.01 7.487c13.592 5.993 29.184 11.494 59.815 22.253l21.694 7.616 3.025 1.062-.537-.708Z" fill="#6BA91F"/><path d="M133.753 56.52c-28.068-9.784-57.887-21.465-88.07-35.374a870.225 870.225 0 0 1-8.417-3.933c3.197 1.87 8.52 4.892 15.564 8.444 19.252 9.706 37.348 16.305 59.06 24.155a1102.803 1102.803 0 0 0 24.011 8.368l-2.148-1.66Z" fill="#6BA91F"/><path d="M46.566 15.17a71.513 71.513 0 0 0 3.587 3.007c5.088 3.988 9.455 6.29 12.945 8.092A590.986 590.986 0 0 0 85.049 37.01" stroke="#07961A" stroke-miterlimit="10" stroke-linecap="round" stroke-linejoin="round"/><path d="M38.162 30.165a95.27 95.27 0 0 1 13.81.136c6.037.503 11.237 1.601 21.39 3.777 4.522.968 8.252 1.828 10.815 2.431m38.301 17.106c-6.894-3.923-17.444-8.796-31.032-11.021a91.993 91.993 0 0 0-24.345-.711" stroke="#07961A" stroke-miterlimit="10" stroke-linecap="round" stroke-linejoin="round"/><path d="M46.55 33.612c3.657.24 8.61.664 14.46 1.461 3.542.483 6.137.928 7.817 1.216 26.79 4.584 35.575 5.693 46.765 11.447a76.74 76.74 0 0 1 1.9 1.01" stroke="#07961A" stroke-miterlimit="10" stroke-linecap="round" stroke-linejoin="round"/><path d="M114.648 44.237a57.45 57.45 0 0 0 3.421 3.147c1.243 1.054 2.832 2.402 4.739 3.61.898.57 1.744 1.122 2.998 1.725.752.362 2.791 1.328 5.322 1.823 2.693.527 3.363.235 6.037.21 2.813-.025 6.862.55 8.594 2.982 2.087 2.93.884 7.23-2.228 8.968-2.101 1.174-4.927 1.033-7.068-.028-2.754-1.363-4.224-3.96-6.291-6.027-1.709-1.71-3.908-2.768-6.123-3.762a29.847 29.847 0 0 0-2.19-.9c-3.721-1.344-6.734-1.114-6.735-1.353 0-.126.95-.217 4.167-.46 1.368-.103 2.519-.186 3.358-.246a35.271 35.271 0 0 1-2.825-2.652 34.43 34.43 0 0 1-5.176-7.037Z" fill="#B2C965"/><path d="M140.438 55.446a6.63 6.63 0 0 1 3.251 1.258m1.357 1.288a4.215 4.215 0 0 1 1.289 2.747m-1.468.955c-.121-.537-.611-.997-1.322-1.244m-.888-.574a21.418 21.418 0 0 0-3.042-1.421c-4.075-1.521-6.46-.97-11.372-2.396a33.345 33.345 0 0 1-2.352-.778m4.25-.003a9.586 9.586 0 0 0 4.85.736m2.27-.217a6.722 6.722 0 0 1 1.263-.053m-10.783 2.369c.829.412 1.84 1.011 2.887 1.882.842.7 1.509 1.41 2.024 2.036m.861 1.032c.466.495 3.052 3.169 6.336 3.303.711.03 2.062.085 3.444-.75a5.5 5.5 0 0 0 1.258-1.048" stroke="#FFEE5F" stroke-miterlimit="10" stroke-linecap="round" stroke-linejoin="round"/><path d="M144.206 62.967c-.522.48-1.689 1.415-3.392 1.67-2.177.325-3.883-.665-4.642-1.105-1.336-.775-1.195-1.165-3.348-2.923a28.51 28.51 0 0 0-3.56-2.488 26.276 26.276 0 0 0-4.359-2.044" stroke="#FFEE5F" stroke-miterlimit="10" stroke-linecap="round" stroke-linejoin="round"/><path d="M142.982 61.684s-4.017.673-12.188-3.85m15.376 4.406c.003-.03.026-.214-.089-.33-.116-.115-.293-.08-.327-.073-.429.085-.818.926-.572 1.4.02.038.123.236.327.276.185.036.389-.072.529-.273m-31.525-19.015s5.192 8.999 10.424 10.78m19.822 5.032c-.946-1.946-3.055-2.65-4.936-3.171-.322-.09-.825-.209-1.444-.382" stroke="#FFEE5F" stroke-miterlimit="10" stroke-linecap="round" stroke-linejoin="round"/><path d="M114.813 54.49c.13-.037 5.461-.618 7.836-.564" stroke="#FFEE5F" stroke-miterlimit="10" stroke-linecap="round" stroke-linejoin="round"/><path d="m126.37 72.07-5.967-.215c-8.821-11.072-26.439-18.626-46.737-18.626-18.241 0-34.319 6.1-43.792 15.37l-8.295-.298-.616 18.235c-.03.479-.049.96-.049 1.444 0 19.192 23.618 34.75 52.752 34.75 29.134 0 52.752-15.558 52.752-34.75l-.048-15.91Z" fill="#BF8C55"/><mask id="a" style="mask-type:luminance" maskUnits="userSpaceOnUse" x="20" y="53" width="107" height="70"><path d="m126.37 72.07-5.967-.215c-8.821-11.072-26.439-18.626-46.737-18.626-18.241 0-34.319 6.1-43.792 15.37l-8.295-.298-.616 18.235c-.03.479-.049.96-.049 1.444 0 19.192 23.618 34.75 52.752 34.75 29.134 0 52.752-15.558 52.752-34.75l-.048-15.91Z" fill="#fff"/></mask><g mask="url(#a)" stroke-miterlimit="10"><path d="M19.467 74.42c.412 32.792 39.87 42.171 66.037 38.221a95.402 95.402 0 0 0 18.463-4.707m4.635-2.317c.535 0 15.153-7.488 19.967-23.354" stroke="#FFEE5F" stroke-linecap="round" stroke-linejoin="round"/><path d="M19.467 89.572a48.207 48.207 0 0 0 13.787 16.282 48.2 48.2 0 0 0 18.48 8.498m19.076 3.393c10.177.238 18.21-1.278 23.371-2.601 3.832-.982 9.966-2.658 16.727-6.744a51.953 51.953 0 0 0 5.538-3.853m3.744-4.041s8.2-9.448 10.637-15.212M34.442 99.793c6.186 3.62 18.87 9.928 36.13 10.815 18.912.971 33.224-5.087 39.694-8.319" stroke="#805429"/></g><path d="M73.666 107.657c29.134 0 52.751-15.558 52.751-34.75 0-19.193-23.617-34.751-52.751-34.751-29.134 0-52.752 15.558-52.752 34.75 0 19.193 23.618 34.751 52.752 34.751Z" fill="#FDCE64"/><path d="M124.307 72.907c0 18.424-22.673 33.36-50.641 33.36-27.969 0-50.642-14.936-50.642-33.36 0-18.425 22.673-33.361 50.642-33.361" stroke="#FFEE5F" stroke-miterlimit="10"/><path d="M73.666 104.182c26.22 0 47.476-14.002 47.476-31.275 0-17.273-21.256-31.276-47.476-31.276S26.189 55.633 26.189 72.907c0 17.273 21.256 31.275 47.477 31.275Z" fill="#AA7037"/><mask id="b" style="mask-type:luminance" maskUnits="userSpaceOnUse" x="26" y="41" width="96" height="64"><path d="M73.666 104.182c26.22 0 47.476-14.002 47.476-31.275 0-17.273-21.256-31.276-47.476-31.276S26.189 55.633 26.189 72.907c0 17.273 21.256 31.275 47.477 31.275Z" fill="#fff"/></mask><g mask="url(#b)"><path d="m115.574 54.556-84.68 32.8 1.03 2.66 84.68-32.8-1.03-2.66Z" fill="#805429"/></g><mask id="c" style="mask-type:luminance" maskUnits="userSpaceOnUse" x="26" y="41" width="96" height="64"><path d="M73.666 104.182c26.22 0 47.476-14.002 47.476-31.275 0-17.273-21.256-31.276-47.476-31.276S26.189 55.633 26.189 72.907c0 17.273 21.256 31.275 47.477 31.275Z" fill="#fff"/></mask><g mask="url(#c)" fill="#BF8C55"><path d="m20.27 62.414-2.315 1.666 32.328 44.924 2.315-1.665L20.27 62.414Zm10.463-4.924-2.322 1.656 35.416 49.681 2.323-1.656-35.417-49.68Zm9.497-6.674-2.307 1.678 41.836 57.519 2.307-1.677-41.836-57.52Zm10.46-6.894-2.304 1.682 44.452 60.849 2.303-1.682-44.452-60.85Zm11.883-5.23-2.303 1.682 44.452 60.849 2.303-1.682-44.452-60.849Zm10.815-5.467-2.303 1.682 44.452 60.85 2.303-1.683-44.452-60.85Zm19.166 6.499-2.237 1.769L128.12 89.31l2.238-1.77-37.804-47.817ZM25.737 60.572l-2.315 1.665 32.328 44.925 2.315-1.666-32.328-44.924Zm10.225-4.448L33.64 57.78l35.416 49.681 2.322-1.656-35.416-49.68Zm10.21-7.922-2.307 1.677L85.7 107.4l2.307-1.678-41.836-57.52Zm10.459-6.895-2.303 1.682 44.452 60.85 2.303-1.683-44.452-60.85Zm11.885-5.23-2.303 1.683 44.451 60.849 2.304-1.683-44.452-60.849Zm14.852.235-2.301 1.686 40.411 55.143 2.3-1.686-40.41-55.143Zm17.382 3.948-2.244 1.76 33.406 42.586 2.244-1.76L100.75 40.26Z"/></g><mask id="d" style="mask-type:luminance" maskUnits="userSpaceOnUse" x="26" y="41" width="96" height="64"><path d="M73.666 104.182c26.22 0 47.476-14.002 47.476-31.275 0-17.273-21.256-31.276-47.476-31.276S26.189 55.633 26.189 72.907c0 17.273 21.256 31.275 47.477 31.275Z" fill="#fff"/></mask><g mask="url(#d)" stroke="#FDCE64" stroke-miterlimit="10" stroke-linecap="round" stroke-linejoin="round"><path d="m33.744 86.066 4.56 1.337m-2.896 1.218 1.233-3.55m2.54-1.025 4.56 1.337m-2.896 1.218 1.233-3.55m2.481-1.055 4.56 1.337m-2.896 1.218 1.233-3.55m1.857-.966 4.56 1.337m-2.897 1.218 1.233-3.55m3.819-1.56 4.56 1.337m-2.897 1.218 1.233-3.55m3.284-1.382 4.56 1.337m-2.897 1.218 1.233-3.55m3.165-1.323 4.56 1.337m-2.896 1.218 1.233-3.55m3.224-1.263 4.56 1.337m-2.897 1.218 1.233-3.55m3.164-1.442 4.561 1.338m-2.897 1.218 1.233-3.55m3.283-1.382 4.561 1.337m-2.897 1.218 1.233-3.55m2.452-1.204 4.56 1.337m-2.897 1.218 1.233-3.55m3.225-1.144 4.56 1.337m-2.897 1.218 1.233-3.55m3.224-1.501 4.561 1.337m-2.897 1.218 1.233-3.55m2.778-1.322c1.52.445 3.04.89 4.561 1.337m-2.898 1.218 1.234-3.55"/></g><path d="M32.852 64.305c1.59 2.252 3.92 2.91 6.251 3.569 2.46.695 7.749 1.648 13.091-.982 5.629-2.771 8.562-9.23 3.271-14.14-2.112-1.96-5.34-2.967-7.919-4.109-.424-.188-1.064-.465-1.927-.495-.296-.01-.902.126-2.116.32-.927.147-1.347.224-1.88.445a5.238 5.238 0 0 0-1.245.73c-.905.716-1.388 1.728-2.312 2.435-2.287 1.748-5.016 2.529-6.146 5.45-.876 2.27-.457 4.812.932 6.777Z" fill="#FEE2B4"/><path d="M35.715 55.207c-.486.35-.966.778-1.127 1.355-.161.577.146 1.316.738 1.41.664.104 1.154-.575 1.516-1.142a14.45 14.45 0 0 1 3.113-3.478c.239-.193.61-.373.82-.149.08.084.106.204.124.317.109.716-.033 1.456-.326 2.118-.267.601-.653 1.14-1.019 1.689-.677 1.014-1.302 2.102-1.504 3.305-.202 1.203.089 2.55 1.003 3.358.85.75 2.05.912 3.176 1.042.228.026.465.052.682-.025.235-.083.413-.275.568-.47.968-1.219 1.39-2.806 1.415-4.362.025-1.556-.323-3.095-.763-4.588-.186-.634-.392-1.273-.41-1.934-.018-.66.18-1.361.678-1.794a.812.812 0 0 1 .46-.216c.725-.064 1.389 1.201 1.628 1.667 1.695 3.306.455 6.162 2.137 7.488.986.779 2.735.836 3.663.094a2.05 2.05 0 0 0 .64-.914c.632-1.926-1.73-5.296-4.078-6.378-.234-.108-.85-.37-1.156-.985-.306-.617-.282-1.558.21-1.89.075-.049.253-.19.59-.122.87.174 1.525.86 2.175 1.46.65.6 1.46 1.18 2.338 1.06.299-.613-.419-1.212-1.027-1.521l-4.668-2.373c-.285-.145-.598-.294-.91-.23-.287.06-.504.284-.734.464-1.56 1.224-4.433.023-5.649 1.397-.56.632-.661 1.54-1.295 2.19-.866.89-2.01 1.438-3.008 2.157Z" fill="#F8ECC9"/><path d="M42.44 49.213c-.336.06-.608.14-.804.206-.305.103-.418.172-.51.276-.076.089-.23.31-.173.45.098.241.774.127 2.095-.01 1.647-.168 2.227-.21 2.675-.641.234-.225.307-.456.226-.615-.072-.139-.26-.18-.348-.193M37.74 55.44s1.4-1.222 1.71-1.7c.31-.476 1.173-.932 1.402-.362.23.57-.17 2.144-1.217 3.807-1.047 1.663-1.306 2.426-1.45 3.11m6.478-2.455s-.506-1.872-.743-3.03c-.238-1.16-.267-2.318.237-2.764.506-.445 1.397-.713 2.11.98.713 1.694 1.129 2.526 1.248 4.22.119 1.693.386 3 1.1 3.595m.245-7.212c-.599-.315-1.138-.8-1.314-1.474-.105-.4-.226-1.239.266-1.446.424-.178 1.047-.245 1.894.58.847.824 2.273 1.916 3.12 1.872" stroke="#F8CDAB" stroke-miterlimit="10" stroke-linecap="round" stroke-linejoin="round"/><path d="M33.255 55.444c.453-.897 1.461-1.332 2.348-1.805a13.258 13.258 0 0 0 3.71-2.942c.446-.508.874-1.067 1.483-1.361.519-.25 1.113-.28 1.688-.305m-2.134 1.664a2.08 2.08 0 0 0-.851.667c-.366.506-.262.912-.623 1.472-.14.218-.376.41-.839.781-.944.758-1.335.89-2.11 1.533-.412.34-.648.536-.897.838-.833 1.01-.964 2.177-1.046 2.9a7.818 7.818 0 0 0 .44 3.545m10.612-14.12c.903-.053 1.567.108 2.008.265.582.209.653.368 1.592.796.737.337.771.274 1.743.682.793.333 1.39.636 1.82.854.576.293 1.053.536 1.538.836.596.369 1.43.966 2.325 1.91m1.141 6.8a11.88 11.88 0 0 0 .4-2.23m-2.619 4.618a5.918 5.918 0 0 0-.128-3.998 5.915 5.915 0 0 0-2.663-2.985m-2.071-1.547c.233.217.482.416.744.596m5.389 5.697c.083-.969.073-1.953-.137-2.903-.21-.95-.63-1.866-1.293-2.578M38.427 65.63c-.463-.866-.937-1.774-.96-2.757m5.043-12.461a7.444 7.444 0 0 0-.659 2.715m1.297-2.41a3.438 3.438 0 0 0-.12 1.466m2.539-1.763a10.291 10.291 0 0 1 2.073 3.97m-2.222 5.725a3.835 3.835 0 0 0 .173 1.947c.21.58.556 1.099.82 1.656.451.956.65 2.079.299 3.075m1.707-.196c.21-.68.422-1.398.264-2.092-.23-1.007-1.16-1.677-1.717-2.547-.652-1.02-.766-2.28-.917-3.48-.152-1.202-.394-2.47-1.22-3.356m-7.449 6.383c-.212-1.053-.395-2.25.24-3.116.31-.42.77-.697 1.156-1.049a3.874 3.874 0 0 0 1.248-2.704" stroke="#FCEFFD" stroke-miterlimit="10" stroke-linecap="round" stroke-linejoin="round"/><path d="M48.192 46.591c0-.168-.017-.352-.133-.477-.085-.09-.207-.133-.325-.172-.442-.146-.66-.226-.681-.225-.388.006-.547.717-1.175 2.462-.31.863-.45 1.185-.265 1.477.194.306.658.443 1.03.386 1.422-.219 1.548-3.279 1.549-3.45Z" fill="#6BA91F"/><path d="M47.883 46.406s.063.765-.13 1.35m-.248.74s-.117.495-.381.887" stroke="#B2C965" stroke-miterlimit="10" stroke-linecap="round" stroke-linejoin="round"/><path d="M40.285 52.468c.014.016.068.076.13.067.037-.006.066-.036.09-.065.107-.121.212-.243.318-.365a.405.405 0 0 0 .061-.084c.044-.09.014-.2-.046-.28-.06-.08-.145-.137-.225-.197-.4-.301-.632-.86-.995-.864-.264-.003-.572.33-.579.628-.013.551 1.01.91 1.246 1.16Z" fill="#6BA91F"/><path d="M39.239 51.367s-.008.151.361.445c.37.293.654.443.74.526" stroke="#B2C965" stroke-miterlimit="10" stroke-linecap="round" stroke-linejoin="round"/><path d="M36.383 78.876c-.328 1.152-.289 2.138-.263 2.689.31 6.462 7.073 10.464 7.999 10.995.64.367 8.594 4.814 14.731 1.066.7-.427 2.999-1.845 4.21-4.691.747-1.755.961-3.744.565-5.818-.127-.665-.284-1.554-.807-2.572-.305-.592-.637-.977-.762-1.13-2.117-2.609-3.224-5.275-5.152-6.838-.95-.77-3.186-2.155-7.755-1.635-.743.098-10.953 1.564-12.766 7.934Z" fill="#FEE2B4"/><path d="M40.11 83.813c1.002 1.987 2.317 3.175 3.153 3.917.65.577 2.55 2.17 5.54 3.166 1.171.39 2.38.761 3.615.866 1.179.1 3.592-.324 2.94-2.162-.33-.933-1.34-1.176-1.498-2.325-.152-1.097.168-2.259.323-3.342.283-1.985.53-3.992.558-6 .006-.442-.234-1.696.105-2.045.091-.093 1.409 2.845 1.473 3.017 1.012 2.692 1.961 5.814 1.27 8.698-.072.303-.328 1.237.15 1.799.482.565 1.533.55 2.25.3 1.509-.529 2.094-2.304 2.398-3.224.226-.685.538-1.643.374-2.698-.367-2.371-2.719-2.49-4.787-5.142-2.49-3.193-1.292-5.855-3.461-6.879-.799-.377-2.087-.384-4.528.242l-4.819 1.234c-1.332.342-2.692.695-3.836 1.43-3.571 2.292-2.82 5.976-1.22 9.148Z" fill="#F8ECC9"/><path d="M38.833 84.536c.637.754 1.462 1.324 2.174 2.008 1.136 1.094 1.988 2.486 3.265 3.412 1.471 1.068 3.336 1.398 5.13 1.7.315.052.648.103.947-.01.595-.225.782-.967.823-1.602.14-2.153-.413-4.308-.273-6.462.092-1.414.481-2.791.651-4.198.17-1.407.097-2.915-.655-4.117-.323-.516-.812-.981-1.417-1.054-.912-.11-1.653.67-2.46 1.108-1.462.793-3.267.471-4.874.895-3.124.825-5.583 5.63-3.311 8.32Z" fill="#6D3331"/><path d="M50.487 75.864c-.171-.11-.59-.39-.993-.429-.114-.011-.237-.02-.333.043-.088.058-.134.164-.163.267-.08.277-.09.6-.29.804-.302.312-.82.145-1.183-.091-.362-.236-.759-.537-1.175-.432-.454.116-.659.79-.349 1.151-.249-.036-.52.035-.69.225-.353.396-.429 1.434.03 1.765.365.262.865.222 1.279.055.338-.137.677-.401.715-.774.219.227.457.455.754.548.05.016.69.137 1.077-.342a1.06 1.06 0 0 0 .097-1.157m-7.356.599c.747.17 1.118.862.952 1.343-.145.417-.711.728-1.087.583-.189-.074-.33-.258-.51-.358-.673-.37-1.26.45-1.637.97-.364.503-.77.926-.931 1.58-.29 1.183.463 2.186 1.527 1.782.327-.125.599-.37.794-.697.22-.369.347-.7.748-.306.365.359.663.808.871 1.308.192.462.328.997.69 1.285.439.348 1.042.196 1.507-.101.125-.08.26-.173.401-.15.14.021.248.15.352.262.523.563 1.25.862 1.962.805a1.46 1.46 0 0 0 .51-.164c.613-.323.827-.97 1.07-1.745.15-.476.317-1.167.357-2.028m-3.261 7.828c.392-.03.752-.34 1.137-.261.303.062.507.342.746.543.42.35 1.013.47 1.53.305.213-.068.43-.201.495-.421.064-.213-.032-.438-.125-.638l-.308-.663c-.044-.093-.092-.192-.177-.246-.095-.06-.215-.053-.326-.043l-.815.07c-.326.027-.704.035-.923-.216-.21-.242-.175-.614-.283-.92-.137-.383-.684-.784-1.094-.604-.375.165-.393.85-.55 1.235-.269.656-.395 1.949.693 1.86Z" stroke="#522625" stroke-miterlimit="10" stroke-linecap="round" stroke-linejoin="round"/><path d="M43.389 85.735c.153.38.502.705.911.721.261.01.511-.102.737-.234.25-.146.492-.33.623-.587.151-.3.129-.669-.009-.976-.137-.306-.377-.557-.645-.76-1.434-1.082-2.104.638-1.617 1.836Z" fill="#974A48"/><path d="M46.717 86.004c.277-.205.424-.58.333-.912-.26-.942-1.495-.457-1.849.149-.457.783 1.005 1.14 1.516.763Zm-.495 2.32c.158-1.159-1.66-1.483-1.828-.29-.16 1.144 1.67 1.44 1.828.29Zm.963.033c.171.248.427.424.68.589.3.195.684.388.998.216a.902.902 0 0 0 .269-.256c.285-.372.5-.798.63-1.249a.995.995 0 0 0 .05-.439c-.042-.241-.234-.43-.446-.553a1.74 1.74 0 0 0-1.093-.21c-.277.037-.55.14-.762.321-.417.36-.654 1.106-.326 1.58Zm2.39-4.076c-.105-.25-.377-.392-.644-.434-.815-.127-1.972.794-1.033 1.477.71.517 2.098-.036 1.677-1.043Zm-8.692-4.199c.208-.026.415-.1.574-.237a.721.721 0 0 0 .25-.47.603.603 0 0 0 .002-.084c-.016-.26-.2-.48-.407-.636-1.565-1.175-2.015 1.618-.42 1.427Zm1.624-1.374a.652.652 0 0 0 .28-.141c.207-.187.226-.501.23-.78.002-.165.001-.34-.087-.479a.708.708 0 0 0-.242-.214c-.633-.381-1.333-.076-1.424.686-.074.614.694 1.065 1.243.928Z" fill="#974A48"/><path d="M40.85 81.477a.742.742 0 0 0 .215-.244.603.603 0 0 0 .055-.252c.007-.257-.098-.504-.22-.73a1.618 1.618 0 0 0-.346-.469.712.712 0 0 0-.537-.187.816.816 0 0 0-.43.221c-.334.298-.818 1.164-.562 1.618.355.628 1.378.398 1.825.043Zm9.617-.988c.215.089.479.127.668-.009.137-.098.205-.268.23-.434.073-.465-.139-.947-.484-1.266-.453-.418-1.228-.252-1.38.397-.13.56.507 1.123.966 1.312Z" fill="#974A48"/><path d="M51.565 78.965c.267-.146.502-.366.62-.646.119-.28.105-.624-.075-.869-.449-.61-1.725-.555-1.975.221-.292.91.553 1.775 1.43 1.294Zm-2.229 2.277c-.053-.808-1.32-.678-1.362.092-.046.856 1.416.717 1.362-.092Z" fill="#974A48"/><path d="M50.58 77.326c-.148-.664-.587-1.224-1.056-1.716-.296-.31-.616-.609-1.003-.791-.74-.349-1.829-.077-1.856.89-.01.308.172.642.262.93.12.386.3.731.609 1.003.564.497 1.355.633 2.013.997.244.135.469.3.714.433.049.026.103.052.157.04.1-.02.132-.144.145-.245.064-.512.128-1.037.016-1.541Zm-.366.884c-.009.066-.031.147-.1.161-.038.008-.076-.01-.11-.027-.17-.087-.326-.195-.495-.284-.457-.239-1.005-.328-1.397-.655a1.384 1.384 0 0 1-.423-.658c-.062-.19-.188-.409-.182-.61.02-.635.775-.814 1.288-.586.27.12.491.316.696.52.326.323.63.69.734 1.127.078.33.034.675-.011 1.012Z" fill="#586C17"/><path d="M50.301 77.29c-.12-.542-.473-.998-.851-1.399-.238-.253-.495-.496-.807-.644-.595-.284-1.472-.062-1.495.726-.007.25.139.522.211.757.098.314.243.596.491.817.454.405 1.09.516 1.621.812.196.11.377.245.574.353.04.021.084.042.127.033.08-.017.106-.118.117-.2.051-.417.103-.845.012-1.256Zm-.295.72c-.007.053-.025.12-.08.13-.031.007-.062-.007-.089-.021-.137-.07-.263-.16-.398-.231-.368-.195-.81-.268-1.126-.534a1.131 1.131 0 0 1-.34-.536c-.05-.155-.151-.333-.146-.498.015-.517.624-.662 1.037-.476.216.097.395.257.56.423.262.263.508.563.59.918.064.27.028.55-.008.825Z" fill="#6BA91F"/><path d="M47.964 76.848c-.201-.317-.2-.665-.06-.839a.784.784 0 0 1 .344-.218.471.471 0 0 1 .169 0" stroke="#B2C965" stroke-miterlimit="10" stroke-linecap="round" stroke-linejoin="round"/><path d="M48.422 82.055c-.133-.156-.315-.26-.495-.357-.676-.36-1.402-.652-2.164-.723-.25-.023-.513-.02-.74.089-.563.267-.605.968-.246 1.42.34.43.944.705 1.472.785.558.085 1.132-.003 1.673-.165.27-.08.566-.212.65-.48.06-.195-.017-.414-.15-.569Zm-.094.44c-.067.185-.303.276-.517.331-.431.112-.887.172-1.332.113-.421-.055-.901-.244-1.172-.54-.286-.312-.252-.795.195-.979.181-.075.39-.077.59-.06.607.048 1.185.25 1.723.497.144.067.288.139.395.246.105.107.167.258.118.392Z" fill="#586C17"/><path d="M48.482 81.884c-.13-.15-.306-.25-.482-.342-.658-.346-1.364-.626-2.106-.694-.244-.022-.5-.019-.721.085-.547.256-.587.929-.238 1.363.331.411.918.675 1.432.752.544.081 1.102-.002 1.629-.157.261-.078.55-.204.632-.461.059-.188-.017-.397-.146-.546Zm-.092.422c-.065.177-.294.264-.503.317-.42.107-.864.165-1.296.108-.41-.052-.877-.234-1.14-.518-.279-.299-.246-.762.19-.939.175-.071.379-.073.573-.058.591.047 1.153.24 1.677.478.14.063.28.133.384.235.103.104.163.248.115.377Z" fill="#6BA91F"/><path d="M45.488 81.327s-.594.594.227 1.122c.82.529 2.254.223 2.52.009m-1.045-2.662c.108.036.243.053.324-.027a.245.245 0 0 0 .063-.17c.004-.15-.075-.286-.152-.413a3.224 3.224 0 0 0-.202-.307 3.192 3.192 0 0 0-.378-.39.375.375 0 0 0-.157-.1c-.39-.094-.428.53-.31.74.174.312.473.557.811.667Zm2.763-4.281c.13.079.304.05.431-.034a.985.985 0 0 0 .29-.347c.244-.43.39-.915.425-1.408a.484.484 0 0 0-.025-.235.385.385 0 0 0-.158-.162c-.477-.29-1.111.055-1.075.609.018.288-.004.527-.046.816-.035.24-.092.61.158.761Zm.327 7.406c.023.013.05.025.074.015.036-.014.039-.064.035-.102a2.764 2.764 0 0 0-.185-.744c-.068-.167-.16-.338-.322-.42a.256.256 0 0 0-.15-.03c-.144.02-.233.187-.233.32 0 .125.081.192.15.286.185.255.348.516.63.675Z" stroke="#B2C965" stroke-miterlimit="10" stroke-linecap="round" stroke-linejoin="round"/><path d="M55.572 73.019c.283.783.702 1.87 1.28 3.147.312.691.489 1.08.759 1.542.416.713 1.122 1.72 2.32 2.749m-5.938 5.454c.063-1.84.199-3.325.316-4.368.112-.996.217-1.68.229-2.72a16.718 16.718 0 0 0-.248-3.06s.56-.78 1.133.991c.74 2.287 1.916 4.46 2.188 6.877m-18.222-7.028a8.49 8.49 0 0 1 .802-.891c1.37-1.322 2.857-1.86 4.145-2.273 3.287-1.053 6.48-1.668 7.962-1.932" stroke="#F8CDAB" stroke-miterlimit="10" stroke-linecap="round" stroke-linejoin="round"/><path d="M55.26 71.97a6.887 6.887 0 0 1 2.3 1.433c.345.325.562.568.967 1.057 1.187 1.429 1.372 2.037 2.578 3.592.748.963.742.814 1.094 1.347a8.4 8.4 0 0 1 1.246 3.194m-1.927 7.77a6.616 6.616 0 0 0 1.066-1.649m-6.614 4.241a4.331 4.331 0 0 0 .1-3.665m-.763-1.144a1.095 1.095 0 0 1-.43-1.006m2.547 5.467c.068-.898.579-1.748.491-2.645-.098-1.01-.913-1.778-1.424-2.654-.806-1.383-.857-3.064-.886-4.664m-15.042-8.789a21.608 21.608 0 0 1 5.585-2.199c1.33-.325 3.519-.726 6.429-.683" stroke="#FCEFFD" stroke-miterlimit="10" stroke-linecap="round" stroke-linejoin="round"/><path d="M53.83 77.633c.031.076.076.16.152.174a.198.198 0 0 0 .084-.003c.146-.04.22-.06.343-.164.337-.29 1.203-.367 1.236-.705.008-.075-.025-.104-.115-.252-.177-.29-.212-.652-.278-.993a4.934 4.934 0 0 0-.288-.958c-.025-.06-.055-.124-.11-.155-.055-.03-.12-.019-.181-.007l-.361.071c-.574.114-1.001.165-.963.882a6.64 6.64 0 0 0 .48 2.11Z" fill="#6BA91F"/><path d="M54.754 74.91s.178.49.245.991" stroke="#B2C965" stroke-miterlimit="10" stroke-linecap="round" stroke-linejoin="round"/><path d="M53.889 73.144c.117.103.258.213.412.186a.525.525 0 0 0 .212-.114c.487-.37 1.58-1.121.645-1.648-.668-.376-1.246-.843-1.863-1.29-.626-.452-.803-.096-1.27.333-.298.274-.406.462-.108.794.572.637 1.33 1.173 1.972 1.739Z" fill="#6BA91F"/><path d="M54.816 71.793c.231.147.418.221.459.342m-2.515-1.794s1.238.837 1.589 1.151" stroke="#B2C965" stroke-miterlimit="10" stroke-linecap="round" stroke-linejoin="round"/><path d="M62.261 59.983c-.617.856-1.078 1.82-1.277 2.97-.844 4.887 3.51 9.506 8.104 11.013 4.32 1.417 9.567 1.151 13.518-1.074 3.574-2.013 5.292-5.6 4.493-9.53a10.208 10.208 0 0 0-.777-2.341c-1.514-3.265-3.218-3.144-6.154-6.835-1.364-1.715-2.268-3.342-3.654-3.298-.345.01-.52.119-1.471.248-1.309.178-2.216.067-2.546.151-2.11.542-3.252 1.942-4.542 3.294-1.812 1.902-4.206 3.339-5.694 5.402Z" fill="#FEE2B4"/><path d="M69.237 54.647a26.768 26.768 0 0 0-5.446 6.804c-.424.752-.827 1.648-.563 2.482.253.798 1.025 1.242 1.753 1.542.782.323 1.76.534 2.38-.074.364-.354.502-.909.529-1.437.026-.529-.041-1.059-.008-1.587.075-1.213.666-2.308 1.242-3.352l1.195-2.165c.269-.488.544-.984.932-1.367s.913-.644 1.433-.564a.33.33 0 0 1 .19.078s.1.105.077.35c-.045.487-1.923 2.53-2.733 3.986-.049.088-.41 1.43-1.132 4.114-.21.783-.375 1.416-.323 2.276.022.365.11 1.227.589 2.166.36.704.743 1.457 1.472 1.676.763.23 1.591-.218 2.062-.69 1.162-1.164.743-3.07.728-6.128-.017-3.527.511-6.983.89-7.003.603-.03.014 13.194 3.348 13.976.997.234 2.438-.622 3.207-1.55.17-.205.995-1.198.892-2.496-.064-.801-.451-1.353-.891-1.96-2.193-3.028-2.59-3.167-3.388-4.546 0 0-.836-1.446-1.171-3.904-.064-.47-.074-.89.113-.936.14-.036.281.044.4.13.82.584 1.332 1.552 1.715 2.53.383.976.67 2.005 1.181 2.91a6.04 6.04 0 0 0 1.643 1.876c.332.247.7.46 1.1.507.4.048.837-.097 1.074-.45.24-.359.227-.86.07-1.27-.156-.41-.434-.748-.707-1.078l-4.768-5.758c-.376-.454-.814-.942-1.376-.974-.735-.04-1.37.722-2.1.627-.371-.048-.693-.315-1.062-.374-.565-.092-1.12.316-1.687.235-.254-.036-.492-.17-.748-.193-.417-.037-.644.434-.922.679-.373.327-.815.576-1.19.912Z" fill="#F8ECC9"/><path d="M69.084 59.188c.456-.752.848-1.541 1.17-2.36.138-.349.27-.715.538-.977.247-.241.581-.367.865-.562.125-.086.242-.187.382-.247a.676.676 0 0 1 .57.01c.174.09.3.276.304.472.004.204-.09.34-.331.664-.454.614-.68.92-.876 1.231-.097.154-.193.316-.369.54-.182.232-.337.386-.368.418-.612.62-1.305 2.565-1.305 2.565a37.16 37.16 0 0 0-.898 2.88m4.869-2.073s.357-4.249.424-4.808c.06-.504.304-1.264.515-1.243a.12.12 0 0 1 .067.036c.229.21.19.65.18.858-.022.418.111.83.133 1.248.062 1.209.16 3.513.178 3.922.033.723.102 1.762.267 3.03m1.849-8.239s-.927-1.168-.905-1.61c.022-.44.155-.881.794-.308.64.574 1.632 2.029 1.918 3.352.287 1.323 1.654 3.043 2.073 3.396m-10.005-8.517c.1.263.401.432.706.469.306.036.615-.04.9-.143.228-.082.453-.182.697-.197.617-.037 1.135.472 1.753.492.736.024 1.305-.639 2.037-.708" stroke="#F8CDAB" stroke-miterlimit="10" stroke-linecap="round" stroke-linejoin="round"/><path d="M76.108 51.174c.501-.239 1.115-.111 1.585.185.47.297.824.74 1.17 1.174l3.18 4.002m-8.592-5.119a3.604 3.604 0 0 0-2.428.292c-.983.498-1.673 1.41-2.405 2.233-.932 1.048-1.979 1.986-3.025 2.92-.729.65-1.484 1.335-1.834 2.247m.257 8.652a5.931 5.931 0 0 1-1.375-3.564M69.7 71.78c-.78-2.005-1.572-4.076-1.519-6.227m9.186 6.868a5.731 5.731 0 0 0-1.001-3.981m8.538.816a6.048 6.048 0 0 0 .443-3.24m.795 1.54c.136-1.359.157-2.743-.132-4.078-.288-1.336-.903-2.626-1.895-3.564m.689 5.1a2.913 2.913 0 0 0-1.43-1.959m-9.014-.436c-.508 1.46-.547 3.094-.035 4.553.39 1.112 1.084 2.11 1.379 3.25.295 1.14.036 2.575-1.016 3.105m8.795-3.329c.334-1.71.647-3.585-.19-5.114-1.08-1.974-3.796-2.81-4.443-4.965" stroke="#FCEFFD" stroke-miterlimit="10" stroke-linecap="round" stroke-linejoin="round"/><path d="M67.218 58.12c.144.028.418.081.49-.044.028-.048.026-.108.024-.167l-.022-.65c-.006-.167-.023-.356-.17-.489-.1-.09-.237-.13-.366-.168l-1.164-.333c-.26-.075-.516-.199-.78-.26a.407.407 0 0 0-.249.004c-.132.054-.14.21-.16.577a9.187 9.187 0 0 0-.021.55c.194.55 1.37.778 2.418.98Z" fill="#6BA91F"/><path d="M65.06 56.117a55.136 55.136 0 0 1 2.503.802" stroke="#B2C965" stroke-miterlimit="10" stroke-linecap="round" stroke-linejoin="round"/><path d="M76.55 55.395c.073-.073.145-.16.147-.264a.442.442 0 0 0-.073-.21c-.136-.25-.2-.376-.21-.385-.178-.159-.556.085-1.594.585-.513.248-.715.33-.758.535-.044.215.106.469.299.6.736.5 2.115-.786 2.19-.86Z" fill="#6BA91F"/><path d="M74.313 55.657s.245-.134.307-.15m.534-.263s1.014-.524 1.065-.53" stroke="#B2C965" stroke-miterlimit="10" stroke-linecap="round" stroke-linejoin="round"/><path d="M69.678 53.795c.139.216.29.695.644.534.306-.138.67-.798.525-1.121-.158-.352-.373-.674-.586-.994l-.623-.934c-.048-.072-.098-.147-.168-.199-.243-.18-.635-.033-.865.104-.352.21-.368.23-.213.608.286.693.88 1.37 1.286 2.002Z" fill="#6BA91F"/><path d="m69.301 51.311.58.773" stroke="#B2C965" stroke-miterlimit="10" stroke-linecap="round" stroke-linejoin="round"/><path d="M74.13 83.714c-.655.945-1.145 2.008-1.359 3.274-.91 5.383 3.658 10.447 8.491 12.086 4.546 1.541 10.075 1.225 14.247-1.24 3.774-2.231 5.6-6.186 4.774-10.509-.169-.884-.44-1.75-.808-2.572-1.385-3.105-4.273-4.61-6.652-6.846-2.207-2.073-3.104-3.597-5.19-3.984-1.18-.22-2.153.034-2.682.177-2.226.605-3.434 2.15-4.8 3.645-1.917 2.1-4.446 3.692-6.022 5.97Z" fill="#FEE2B4"/><path d="M80.935 78.3c-.502.763-.844 1.622-1.336 2.392-.856 1.344-2.124 2.366-3.166 3.572-1.042 1.206-1.892 2.758-1.629 4.33.168 1 .99 2.002 2 1.907.357-.033.692-.2.977-.42.796-.615 1.21-1.611 1.4-2.6.19-.988.191-2.003.346-2.997.235-1.512.819-2.944 1.398-4.36.142-.345.296-.709.595-.934.3-.225.79-.24 1.002.068.104.15.121.344.13.526.219 4.318-2.261 8.298-2.927 12.57-.14.892-.166 1.904.422 2.59.513.597 1.364.78 2.152.781.722 0 1.455-.127 2.09-.471 1.264-.686 1.957-2.154 2.052-3.59.095-1.434-.32-2.853-.806-4.207-.487-1.354-1.053-2.693-1.282-4.113-.138-.856-.15-1.727-.163-2.593-.008-.574.016-1.224.443-1.606.645-.576 1.744-.066 2.12.713.377.78.29 1.689.34 2.552.13 2.245 1.228 4.338 1.441 6.577.092.959.024 1.956.377 2.852.64 1.622 2.709 2.468 4.34 1.853 1.632-.615 2.625-2.517 2.302-4.23-.102-.544-.331-1.082-.742-1.454-.34-.308-.778-.481-1.157-.739-.505-.343-.894-.826-1.264-1.31a37.364 37.364 0 0 1-3.632-5.804c-.156-.31-.311-.641-.275-.986.036-.344.346-.682.686-.615.286.056.45.35.575.614.727 1.536 1.414 3.116 2.484 4.436 1.07 1.32 2.603 2.372 4.301 2.437.13.005.271 0 .371-.082.088-.072.124-.187.153-.296.144-.549.196-1.159-.066-1.663-.348-.674-1.133-.967-1.811-1.307a8.055 8.055 0 0 1-3.854-4.213c-.269-.682-.452-1.419-.911-1.99-.46-.572-1.319-.919-1.938-.528-.243.153-.413.394-.623.59-.564.525-1.385.691-2.155.65-.867-.048-1.75-.673-2.597-.59-.893.085-1.706.99-2.163 1.687Z" fill="#F8ECC9"/><path d="M82.674 76.662c.532-.22 1.142-.107 1.691.07.549.176 1.09.416 1.666.442a2.343 2.343 0 0 0 1.794-.729c.244-.26.262-.356.483-.49.5-.302 1.163-.129 1.667.08m-10.129 7.072c.074-.05.992-2.927 1.191-3.424.198-.496 1.364-1.265 1.513-.198.15 1.067.074 3.3-.57 5.284-.645 1.984-1.737 5.21-1.737 5.21m4.94-3.789c-.586-1.758-1.22-3.617-.943-5.496.159-1.079.514-2.28 1.774-1.629.927.48 1.086 1.086 1.054 1.98a11.597 11.597 0 0 0 .499 3.809c.373 1.217.94 2.402.971 3.7m2.682-4.211a36.309 36.309 0 0 1-1.693-2.674c-.261-.458-.51-.924-.745-1.397-.176-.355-.548-.866-.384-1.277.179-.445.773-.831 1.159-.03" stroke="#F8CDAB" stroke-miterlimit="10" stroke-linecap="round" stroke-linejoin="round"/><path d="M82.924 75.076c-2.413 2.535-3.858 3.934-4.747 4.75-3.072 2.828-.32.304-1.515 1.427-1.158 1.09-1.53 1.437-2.037 2.04-.556.663-.88 1.166-1.134 1.731a6.459 6.459 0 0 0-.316.862m14.306-11.792c1.188-.134 2.285.656 3.079 1.55 1.065 1.2 1.017 1.605 2.413 2.636.689.51 1.226.731 2.375 1.656.124.1.5.406.929.797a20.027 20.027 0 0 1 2.67 3m.611 7.895c.158-1.017.27-2.04.337-3.067m-1.406 1.675a9.349 9.349 0 0 0-.245-4.914c-.172-.523-.395-1.037-.739-1.466-.683-.85-1.75-1.267-2.694-1.813-.943-.547-1.87-1.401-1.882-2.492m1.567 7.707a9.842 9.842 0 0 1 2.403 2.722c.387.65.703 1.36.785 2.11.142 1.31-.494 2.673-1.588 3.405m-7.785 2.441a4.878 4.878 0 0 0 .254-4.031c-.304-.783-.812-1.481-1.058-2.285-.37-1.199-.137-2.56-.708-3.677m-.219-2.168c.206 1.29 1.386 2.3 1.447 3.604m-9.31 6.703a6.665 6.665 0 0 1-1.007-2.189c-.082-.321-.14-.657-.076-.983.076-.392.318-.728.532-1.065a9.254 9.254 0 0 0 1.26-3.128m-3.649 5.29c-.24-.387-.48-.778-.612-1.213-.132-.435-.143-.925.07-1.326" stroke="#FCEFFD" stroke-miterlimit="10" stroke-linecap="round" stroke-linejoin="round"/><path d="M84.872 74.162c-.163.074-.475.214-.469.428a.532.532 0 0 0 .081.23l.436.81c.112.207.25.434.482.491.159.038.324-.013.479-.065l1.39-.46c.312-.102.65-.14.956-.26a.48.48 0 0 0 .25-.195c.1-.17.01-.373-.206-.854-.21-.469-.314-.703-.328-.717-.545-.551-1.881.053-3.07.592Z" fill="#6BA91F"/><path d="M84.763 74.58s1.158-.525 1.414-.569m.703-.111a3.035 3.035 0 0 1 .731-.142" stroke="#B2C965" stroke-miterlimit="10" stroke-linecap="round" stroke-linejoin="round"/><path d="M79.918 79.98c.066.167.19.485.404.49a.533.533 0 0 0 .234-.07l.83-.395c.213-.1.447-.227.515-.457.046-.156.003-.323-.04-.48l-.39-1.412c-.087-.317-.108-.656-.213-.968a.482.482 0 0 0-.183-.258c-.163-.11-.371-.029-.862.162-.479.186-.718.279-.732.291-.578.518-.041 1.882.437 3.097Z" fill="#6BA91F"/><path d="M79.61 77.206s-.014.66.147 1.252.535 1.537.535 1.537" stroke="#B2C965" stroke-miterlimit="10" stroke-linecap="round" stroke-linejoin="round"/><path d="M82.757 82.545c-.13.059-.377.17-.373.34a.422.422 0 0 0 .065.184l.347.645c.088.165.197.346.383.39.126.031.258-.01.38-.05l1.107-.367c.249-.081.517-.111.76-.207a.382.382 0 0 0 .199-.156c.08-.134.008-.296-.163-.68-.167-.372-.25-.559-.261-.57-.434-.439-1.497.042-2.444.47Z" fill="#6BA91F"/><path d="M82.567 82.738s-.104.053.817-.326c.921-.38 1.374-.461 1.374-.461" stroke="#B2C965" stroke-miterlimit="10" stroke-linecap="round" stroke-linejoin="round"/><path d="M95.434 62.85c-1.137 3.74-.594 8.307 3.362 10.151 4.669 2.177 10.605 2.21 15.342.258 1.64-.675 6.022-2.48 6.773-6.2.372-1.843-.218-3.642-1.07-5.26-1.393-2.645-2.518-1.927-4.991-5.169-1.461-1.915-2.838-4.485-4.635-4.902-.531-.123-1.142-.174-1.142-.174s-1.27-.103-2.513.17c-1.53.338-2.861 1.821-4.498 3.446-1.794 1.78-4.004 3.358-5.51 5.405a7.489 7.489 0 0 0-1.118 2.275Z" fill="#FEE2B4"/><path d="M113.283 57.12c.819 1.677 2.78 2.38 4.329 3.422.878.592 1.699 1.403 1.898 2.443.198 1.04-.489 2.283-1.547 2.339-.865.046-1.593-.673-1.984-1.447-.39-.774-.569-1.648-1.017-2.39-.574-.954-1.545-1.615-2.131-2.56-.587-.948-.768-2.15-1.551-2.944-.663.986-.42 2.334.109 3.398s1.311 1.998 1.739 3.106c.202.52.266 1.224-.199 1.532-.23.151-.523.154-.798.153-.669-.004-1.438-.055-1.843-.587-.344-.45-.292-1.077-.243-1.642a24.24 24.24 0 0 0 .02-3.914c-.054-.717-.151-1.462-.555-2.058-.184-.272-.499-.524-.815-.431-.308.089-.439.443-.523.751-.78 2.87-.832 4.008-.832 4.008-.023 2.997.426 5.172-.521 6.217a4.778 4.778 0 0 1-.297.298c-.399.369-1.095 1.014-2.08 1.188a3.123 3.123 0 0 1-1.842-.238c-.869-.409-1.585-1.27-1.723-2.139-.145-.91.403-1.456 3.03-4.694 0 0 2.245-2.766 2.739-5.39.018-.095.074-.37-.076-.497-.087-.074-.212-.08-.326-.072-.9.058-1.67.65-2.333 1.264a19.266 19.266 0 0 0-3.793 4.857c-.3.546-.597 1.134-1.126 1.464-.53.33-1.37.247-1.61-.328-.19-.449.058-.956.332-1.359 1.508-2.224 3.897-3.655 6.091-5.209.919-.651 1.886-1.45 2.054-2.564.567.061.665.868 1.099 1.237.187.16.432.23.668.297.668.188 1.368.383 2.069.355.73-.028 1.242-.552 1.916-.63 1.216-.14 1.284 1.97 1.672 2.763Z" fill="#F8ECC9"/><path d="M104.992 54.348a2.81 2.81 0 0 0 .47-.49c.322-.428.502-.923.63-.89a.125.125 0 0 1 .067.052c.15.217.143.52.258.756.551 1.131 2.621 1.411 3.686 1.116 1.203-.335 1.315-.825 1.315-.825m-9.679 4.595c.737-.962 1.489-1.943 2.452-2.694.271-.212 2.722-1.65 2.434-.519-.278 1.094-.631 2.19-1.143 3.198-.478.94-1.211 1.708-1.883 2.51a28.89 28.89 0 0 0-1.53 2.009m5.259-1.795c.057-1.076.179-2.15.368-3.21.071-.403.154-.81.336-1.177.182-.366.476-.693.861-.833a.81.81 0 0 1 .377-.052c.269.035.488.253.597.503.11.249.129.527.143.8.057 1.099.045 2.2.032 3.302m1.547-1.097a4.494 4.494 0 0 1-.544-3.235c.025-.114.072-.246.185-.276.082-.02.166.023.236.072.322.227.532.582.677.948.229.578.359 1.177.641 1.737.354.704.839 1.307 1.382 1.873.209.217.425.427.599.673.494.698.594 1.594.926 2.382" stroke="#F8CDAB" stroke-miterlimit="10" stroke-linecap="round" stroke-linejoin="round"/><path d="m105.089 52.481-3.157 2.8-.786.697c-.47.416-.939.834-1.41 1.25-1.74 1.543-3.556 3.203-4.236 5.427m8.001-5.285c-.451.36-.91.729-1.221 1.215-.302.473-.445 1.028-.598 1.569-.148.52-.31 1.036-.487 1.546-.115.333-.238.666-.432.96-.227.344-.544.62-.811.934-.669.789-1.009 1.805-1.208 2.82-.117.596-.191 1.211-.1 1.812.143.934.671 1.76 1.2 2.543.359.535.814 1.118 1.457 1.161" stroke="#FCEFFD" stroke-miterlimit="10" stroke-linecap="round" stroke-linejoin="round"/><path d="M102.259 71.504c-1.326-.687-2.219-2.141-2.229-3.636m-3.168-4.275c-.797 1.79-.641 3.973.401 5.632m10.814 2.831c-.794-.49-1.144-1.591-.779-2.45.178-.42.493-.762.749-1.137 1.095-1.605 1.055-3.785.325-5.586m.649 6.659a3.26 3.26 0 0 0 .655 2.656m3.073.644a4.736 4.736 0 0 0 1.384-1.952m1.719-.123c.09.042.202.002.27-.07a.667.667 0 0 0 .131-.265c.255-.82.332-1.695.223-2.548m-.534-1.391c.058-.48-.254-.924-.585-1.278-.332-.354-.712-.698-.847-1.164-.066-.231-.066-.476-.104-.714a2.286 2.286 0 0 0-1.021-1.554m-2.436-9.542a8.166 8.166 0 0 1 3.136 3.168c.16.291.301.593.463.883.151.273.531.869 1.114 1.527.965 1.088 1.383 1.069 2.834 2.427.584.547.883.83 1.189 1.278.169.247.686 1.047.921 2.229a6.263 6.263 0 0 1-.015 2.498" stroke="#FCEFFD" stroke-miterlimit="10" stroke-linecap="round" stroke-linejoin="round"/><path d="M108.236 57.232c.061.09.128.185.228.23.23.1.469-.115.629-.31.159-.192.776-.737.703-1.01a.428.428 0 0 0-.092-.156c-.174-.21-1.119-1.638-1.302-1.443-.291.308-.993.823-1.003 1.289-.01.444.598 1.048.837 1.4Z" fill="#6BA91F"/><path d="M108.372 54.55s.483.334.78.801c.297.468.631.669.594.922" stroke="#B2C965" stroke-miterlimit="10" stroke-linecap="round" stroke-linejoin="round"/><path d="M107.547 52.698c-.001.06 0 .122.026.176.049.102.169.146.277.18l.889.277c.061.02.128.038.187.012.095-.044.105-.173.102-.278a6.377 6.377 0 0 1 .425-2.428c-.575.025-1.215-.415-1.622.239-.276.442-.281 1.33-.284 1.822Z" fill="#6BA91F"/><path d="M108.249 50.815s-.207.299-.215.65m-.085.575-.052.675" stroke="#B2C965" stroke-miterlimit="10" stroke-linecap="round" stroke-linejoin="round"/><path d="M111.518 54.883c.031-.705.025-1.411-.018-2.116a.794.794 0 0 1-.487-.06c-.105-.05-.228-.123-.327-.062-.079.05-.091.158-.094.25-.014.366-.194 1.133-.025 1.46.101.197.953.473.951.528Z" fill="#6BA91F"/><path d="M111.241 53.01s.018.43.012.485" stroke="#B2C965" stroke-miterlimit="10" stroke-linecap="round" stroke-linejoin="round"/><path d="M112.433 57.074a.81.81 0 0 0 .171.096c.339.131.613-.077 1.777-.77.286-.171.391-.231.416-.357.038-.196-.166-.296-.565-.904-.137-.21-.157-.266-.246-.31-.209-.106-.477.006-.868.233-.893.519-1.339.778-1.337 1.123.004.367.409.73.652.89Z" fill="#6BA91F"/><path d="M112.064 56.161s.312-.311.657-.512c.346-.2 1.103-.58 1.103-.58" stroke="#B2C965" stroke-miterlimit="10" stroke-linecap="round" stroke-linejoin="round"/><path d="M151.098 120.692c.726 7.459-6.498 13.927-13.804 14.285-8.059.396-16.068-6.65-15.346-14.285.637-6.741 7.851-11.538 14.575-11.539 6.542 0 13.894 4.542 14.575 11.539Z" fill="#DB682C"/><path d="M136.523 132.23c8.05 0 14.575-5.166 14.575-11.538 0-6.373-6.525-11.539-14.575-11.539-8.05 0-14.575 5.166-14.575 11.539 0 6.372 6.525 11.538 14.575 11.538Z" fill="#F4970F"/><path d="M136.401 130.499c7.078 0 12.816-4.391 12.816-9.807 0-5.417-5.738-9.808-12.816-9.808s-12.816 4.391-12.816 9.808c0 5.416 5.738 9.807 12.816 9.807Z" fill="#FDCE64"/><path d="M136.554 128.694c6.37 0 11.534-3.67 11.534-8.198 0-4.527-5.164-8.197-11.534-8.197-6.37 0-11.533 3.67-11.533 8.197 0 4.528 5.163 8.198 11.533 8.198Z" fill="#974A48"/><path d="M141.305 121.021c-.863 2.83-5.281 3.858-8.407 3.38-1.14-.175-4.441-.662-5.439-3.311-.743-1.971.083-4.359 1.566-5.508.913-.707 2.495-1.271 3.09-.7.293.28.261.752.248.947-.114 1.69-2.242 2.146-2.226 3.297.017 1.206 2.37 1.986 2.473 2.019 1.867.6 4.278.144 4.533-.824.301-1.148-2.638-2.226-2.349-3.214.299-1.025 4.003-1.752 5.769.123.936.994 1.117 2.56.742 3.791Z" fill="#7D2F2D"/><path d="M146.634 121.296c-.621 2.934-4.161 4.11-6.098 4.753-4.944 1.641-9.783.189-9.767-.371.018-.58 8.323.927 11.209-3.255.219-.317 1.061-1.538.975-3.105-.159-2.915-3.407-4.823-2.994-5.426.254-.372 1.623.164 1.73.206 2.552 1.003 5.605 4.084 4.945 7.198Z" fill="#7D2F2D"/><path d="M30.842 28.87c.053 2.477-2.584 5.36-3.987 6.9-.746.818-1.119 1.227-1.722 1.66-3.311 2.372-8.449 2.195-11.708-.26-.571-.43-.971-.877-1.771-1.771-1.86-2.078-3.991-4.46-4.02-6.529-.05-3.5 5.897-7.441 11.604-7.442 5.61-.001 11.526 3.774 11.604 7.442Z" fill="#DB682C"/><path d="M19.238 36.186c6.409 0 11.604-3.304 11.604-7.38 0-4.075-5.195-7.379-11.604-7.379-6.409 0-11.604 3.304-11.604 7.38 0 4.075 5.195 7.379 11.604 7.379Z" fill="#F4970F"/><path d="M19.197 34.12c5.47 0 9.904-2.401 9.904-5.363 0-2.96-4.434-5.362-9.904-5.362s-9.904 2.401-9.904 5.362c0 2.962 4.434 5.362 9.904 5.362Z" fill="#FF821E"/><path d="M19.28 21.952c6.167 0 11.166 3.01 11.166 6.723m-1.213 2.854a15.343 15.343 0 0 1-5.707 3.148c-4.377 1.297-8.094.227-9.51-.262" stroke="#FFEE5F" stroke-miterlimit="10" stroke-linecap="round" stroke-linejoin="round"/><path d="M20.43 33.45c.186.09.38.183.594.182.46 0 .815-.413 1.094-.784.207-.276.424-.633.267-.919-.114-.205-.374-.275-.603-.352-.933-.313-1.669-.989-2.56-1.39-.314-.14-.661-.25-1.015-.198-.506.073-.905.46-1.145.884-.264.467-.14.675.28.926.998.596 2.04 1.135 3.089 1.65Zm6.615-2.421c.17-.117.346-.242.45-.428.224-.402.038-.914-.149-1.338-.14-.316-.345-.68-.671-.682-.234-.002-.423.191-.602.353-.729.66-1.679.972-2.464 1.553-.277.204-.542.455-.67.788-.183.477-.04 1.014.211 1.431.278.46.52.453.944.21a43.228 43.228 0 0 0 2.95-1.887ZM15.337 29.75c.17-.118.345-.242.45-.429.223-.401.038-.913-.15-1.337-.102-.233-.331-.658-.67-.682-.222-.016-.4.149-.484.226-.831.767-1.599 1.608-2.484 2.312-.525.417-.972.65-.935.984.015.132.136.29.379.604.232.302.326.346.388.361.156.04.33-.023.555-.152a43.479 43.479 0 0 0 2.95-1.888Zm6.638-1.033c.202.047.412.093.62.044.447-.106.7-.588.887-1.012.14-.316.27-.713.051-.955-.157-.175-.426-.184-.667-.207-.98-.092-1.85-.584-2.808-.773-.338-.066-.7-.093-1.034.037-.476.186-.777.654-.914 1.121-.152.515.016.69.482.838 1.108.355 2.245.643 3.383.907Z" fill="#07961A"/><path d="M23.686 25.54a.395.395 0 0 0-.038.2.287.287 0 0 0 .064.124c.384.497.841.914 1.35 1.232a54.028 54.028 0 0 0 2.227-3.822c.03-.056.06-.121.048-.18-.011-.055-.058-.085-.101-.109-.477-.27-.953-.54-1.43-.808-.516-.292-.63.01-.892.605-.405.919-.869 1.818-1.228 2.758Z" fill="#6BA91F"/><path d="m24.986 26.461.918-1.459m.296-.475.688-1.165" stroke="#B2C965" stroke-miterlimit="10" stroke-linecap="round" stroke-linejoin="round"/><path d="M19.993 30.39c-.182.197-.375.393-.477.627a7.59 7.59 0 0 0 1.12.696c.201.102.46.196.659.09a.52.52 0 0 0 .223-.274c.137-.32.542-.771 1.352-1.673.35-.39.603-.86.962-1.241.03-.032.153-.152.105-.223-.025-.037-.075-.056-.121-.073-.682-.263-1.64-.975-2.208-.217-.57.757-.952 1.568-1.615 2.287Z" fill="#6BA91F"/><path d="m20.1 30.889.787-1.066m.376-.525s.525-.935.738-1.033c.213-.098.509-.016.509-.016" stroke="#B2C965" stroke-miterlimit="10" stroke-linecap="round" stroke-linejoin="round"/><path d="M22.5 34.948c.201.047.411.093.619.044.448-.106.7-.588.887-1.012.14-.316.27-.713.052-.955-.157-.175-.427-.184-.667-.207-.98-.092-1.85-.584-2.808-.773-.338-.066-.701-.092-1.034.038-.476.186-.777.653-.915 1.12-.151.515.017.69.482.838 1.108.354 2.246.642 3.384.907Z" fill="#6BA91F"/><path d="M19.115 33.513c.05 0 3.788 1.131 3.788 1.131" stroke="#B2C965" stroke-miterlimit="10" stroke-linecap="round" stroke-linejoin="round"/><path d="M15.081 30.952c.201.048.411.095.62.047.447-.104.703-.584.892-1.008.14-.315.272-.712.056-.955-.157-.175-.426-.186-.666-.21-.979-.097-1.847-.593-2.805-.786-.337-.067-.7-.096-1.034.033-.477.183-.78.65-.92 1.117-.154.514.014.689.479.84 1.105.359 2.242.652 3.378.922Z" fill="#6BA91F"/><path d="M12.161 28.39s.316-.121 1.25.227m.785.223s1.18.376 1.525.376" stroke="#B2C965" stroke-miterlimit="10" stroke-linecap="round" stroke-linejoin="round"/><path d="M18.425 26.692c.113.173.234.352.418.46.397.232.913.058 1.34-.12.32-.133.688-.33.697-.656.007-.234-.181-.427-.34-.61-.644-.742-.934-1.699-1.497-2.497-.2-.281-.444-.55-.774-.687-.473-.194-1.013-.063-1.436.18-.465.268-.463.51-.23.939a43.192 43.192 0 0 0 1.822 2.991Z" fill="#6BA91F"/><path d="M18.59 23.133c0 .05.919 1.541 1 1.738.083.197.542.918.772 1.164" stroke="#B2C965" stroke-miterlimit="10" stroke-linecap="round" stroke-linejoin="round"/><path d="M80.578 41.41c-.078-.04-.143-.091-.143-.091-.068-.049-.135-.105-.143-.143a.844.844 0 0 1-.083-.27c-.02-.16.014-.302.085-.37l64.259-33.383c.504.484 1.267 1.037 2.303 1.145.31.032.498.01.543.086.282.484-5.898 3.496-6.144 3.616-1.76.859-60.351 29.577-60.677 29.41Z" fill="#6D3331"/><path d="m138.057 10.52 1.827 2.155 8.226-3.97a2.604 2.604 0 0 0-.406-1.475c-.479-.764-1.217-1.128-1.504-1.254l-8.143 4.544Z" fill="#338989"/><path d="m139.555 10.144 6.593-3.529c.242.112.717.367 1.082.854.283.379.382.739.42.956" stroke="#FCEFFD" stroke-miterlimit="10" stroke-linecap="round" stroke-linejoin="round"/><path d="M73.007 35.646c-.368.92-.575 1.907-.511 3.013.27 4.7 5.084 8.078 9.462 8.526 4.118.421 8.706-.907 11.738-3.783 2.744-2.601 3.519-6.277 1.993-9.751a10.101 10.101 0 0 0-1.174-2.008c-1.763-2.343-4.48-3.053-6.91-4.474-2.254-1.318-3.3-2.427-5.129-2.352-1.034.043-1.803.443-2.22.666-1.756.936-2.474 2.468-3.334 3.987-1.208 2.134-3.028 3.96-3.915 6.176Z" fill="#FEE2B4"/><path d="M76.182 32.102c-.682.8-1.39 1.594-1.872 2.528-.481.935-.716 2.046-.394 3.047.057.178.136.358.28.477.403.34 1.015.032 1.413-.315a8.06 8.06 0 0 0 2.506-4.095c.406-1.628.374-3.53 1.593-4.682.537.656.648 1.573.539 2.414-.11.84-.413 1.642-.62 2.464-.5 1.983-.442 4.06-.32 6.1.06 1.011.156 2.08.752 2.9.596.818 1.875 1.223 2.643.563.303-.26.478-.637.63-1.007.378-.918.67-1.888.683-2.88.014-1.116-.325-2.2-.584-3.284-.57-2.385-.775-4.887-1.808-7.11-.103-.22-.216-.457-.176-.697.08-.481.756-.647 1.181-.406.424.242.645.721.834 1.172a63.872 63.872 0 0 1 2.937 8.813c.127.497.313 1.07.797 1.24.436.155.934-.122 1.172-.519.238-.396.274-.88.278-1.343.005-.714-.053-1.434-.25-2.121-.345-1.205-1.092-2.247-1.825-3.263l-2.394-3.313c-.083-.116-.171-.25-.145-.39.036-.183.244-.273.427-.305.719-.13 1.46.14 2.062.554.602.414 1.093.966 1.607 1.484 1.279 1.29 2.773 2.422 4.505 2.968.337.106.75.174 1.008-.067.222-.208.226-.574.089-.846-.137-.271-.382-.47-.624-.654a26.297 26.297 0 0 0-5.899-3.404c-.845-.35-1.743-.681-2.35-1.366-.335-.378-.742-.91-1.21-.723-.13.052-.23.153-.34.24-1.175.937-3.008.192-3.878 1.53-.977 1.503-2.073 2.92-3.247 4.296Z" fill="#F8ECC9"/><path d="M79.732 26.465c-.01.23.007.502.2.628.203.133.468.02.703-.046.264-.073.546-.081.813-.022.144.031.287.082.433.066a.974.974 0 0 0 .302-.104l.702-.331c.382-.18.79-.387.977-.765.028-.055.05-.12.03-.178a.28.28 0 0 0-.1-.111l-.476-.362m-4.954 7.24c.06-.677.408-1.295.552-1.96.083-.386.099-.795.272-1.15.116-.236.382-.458.618-.343.287.141.348.67.419.941.106.405.185.82.176 1.24-.012.555-.177 1.09-.324 1.62-.155.558-.268 1.126-.403 1.689-.176.739-.352 1.48-.475 2.23-.111.683-.178 1.379-.12 2.07m3.372-7.193c-.31-.918-.629-1.834-.957-2.745-.07-.19-.133-.42-.01-.58.08-.106.22-.146.35-.18l.396-.104a.29.29 0 0 1 .103-.014.27.27 0 0 1 .12.053c.264.18.443.456.606.73a15.557 15.557 0 0 1 1.769 4.388m1.462-1.548a14.07 14.07 0 0 1-2.163-3.017c-.06-.114-.118-.26-.04-.363.052-.066.142-.086.225-.097.71-.095 1.434.136 2.049.504.614.368 1.138.868 1.656 1.364l.901.862c.296.283.593.567.918.816.46.354.973.634 1.496.89.595.29 1.206.55 1.829.777" stroke="#F8CDAB" stroke-miterlimit="10" stroke-linecap="round" stroke-linejoin="round"/><path d="M77.799 38.76c-.23.997-.409 2.033-.215 3.038.193 1.004.83 1.978 1.798 2.312.152.053.312.09.45.174.183.113.308.299.427.479l.975 1.473m-4.291-2.619a3.213 3.213 0 0 1-.312-2.797m1.095-3.385c.049-.38.183-.749.39-1.072" stroke="#FCEFFD" stroke-miterlimit="10" stroke-linecap="round" stroke-linejoin="round"/><path d="M73.09 40.4a5.744 5.744 0 0 1-.474-1.452c-.083-.504-.069-1.03.09-1.514m1.061-3.056c.487-1.352 1.612-2.356 2.453-3.523.989-1.375 1.606-3.015 2.768-4.247 0 0 1.093-1.419 2.522-1.709" stroke="#F8CDAB" stroke-miterlimit="10" stroke-linecap="round" stroke-linejoin="round"/><path d="M87.422 45.057c-.671-.401-1.385-.85-1.683-1.574-.135-.326-.173-.684-.178-1.036-.009-.722.119-1.44.156-2.16a8.842 8.842 0 0 0-1.706-5.672m3.247 7.654c.065.543.334 1.059.742 1.423.408.363.952.572 1.498.574m3.874-2.352c.391-1.124.787-2.332.477-3.482-.251-.929-.932-1.68-1.663-2.306m-3.974-5.014c.415.856 1.146 1.521 1.935 2.052.79.531 1.65.948 2.458 1.45.529.327 1.045.7 1.41 1.205.545.75.7 1.707.839 2.624" stroke="#FCEFFD" stroke-miterlimit="10" stroke-linecap="round" stroke-linejoin="round"/><path d="M82.793 24.705c.373.097.952.27 1.623.574 1.037.469 1.61.94 2.572 1.58a28.09 28.09 0 0 0 2.559 1.51" stroke="#F8CDAB" stroke-miterlimit="10" stroke-linecap="round" stroke-linejoin="round"/><path d="M80.776 26.784c-.01.04-.02.087 0 .123.021.035.063.049.102.06l.849.26a.412.412 0 0 0 .18.027c.07-.01.13-.054.18-.104.19-.19.27-.463.346-.721a19.6 19.6 0 0 1 .838-2.29c-.023.053-1.111-.249-1.233-.246-.308.006-.317.183-.412.44-.3.817-.629 1.606-.85 2.45Z" fill="#6BA91F"/><path d="M81.18 26.548c.072-.35.173-.694.302-1.028m.218-.808.112-.281" stroke="#B2C965" stroke-miterlimit="10" stroke-linecap="round" stroke-linejoin="round"/><path d="M83.894 29.683c.021.016.045.034.071.031.024-.002.041-.022.056-.041l.33-.41a.235.235 0 0 0 .053-.094.212.212 0 0 0-.022-.127c-.07-.155-.21-.268-.344-.377-.401-.329-.783-.68-1.144-1.053.026.027-.378.56-.402.628-.062.174.038.224.167.343.408.376.794.761 1.234 1.1Z" fill="#6BA91F"/><path d="M82.846 28.445c.24.272.51.52.8.737" stroke="#B2C965" stroke-miterlimit="10" stroke-linecap="round" stroke-linejoin="round"/><path d="M81.741 39.3c-.08-.034-.15-.081-.15-.081-.072-.044-.144-.097-.155-.134a.87.87 0 0 1-.106-.265c-.033-.158-.012-.301.054-.373l61.26-37.173c.543.452 1.352.957 2.395 1.002.312.014.497-.02.549.054.321.465-5.587 3.843-5.822 3.977-1.682.962-57.685 33.141-58.025 32.994Z" fill="#6D3331"/><path d="M136.452 5.024c.668.68 1.336 1.36 2.005 2.038l7.868-4.456a2.665 2.665 0 0 0-.53-1.447c-.543-.732-1.31-1.051-1.607-1.159l-7.736 5.024Z" fill="#338989"/><path d="M137.913 4.558 144.19.641c.251.096.747.322 1.151.786.315.36.444.714.501.928" stroke="#FCEFFD" stroke-miterlimit="10" stroke-linecap="round" stroke-linejoin="round"/></svg>