<svg width="146" height="140" fill="none" xmlns="http://www.w3.org/2000/svg"><path d="M134.109 82.527c6.529-31.742-15.44-63.082-49.07-70-33.63-6.918-66.186 13.205-72.716 44.947-6.53 31.741 15.44 63.081 49.07 69.999 33.63 6.919 66.186-13.205 72.716-44.946Z" fill="#DFAD7C"/><path opacity=".15" d="M134.107 82.523c-6.53 31.743-39.085 51.865-72.714 44.948-16.116-3.315-29.554-12.24-38.462-24.128 7.812 6.407 17.362 11.105 28.1 13.314 33.628 6.917 66.185-13.208 72.714-44.948 3.399-16.526-.928-32.945-10.605-45.864 16.653 13.658 25.41 35.075 20.967 56.678Z" fill="#000"/><path opacity=".15" d="M124.149 71.482c2.077-10.097-5.563-20.2-17.063-22.565-4.126-.848-8.185-.581-11.794.57l1.361-6.617c.048-.233.087-.466.12-.699l.003-.026c.03-.218.054-.436.071-.653.004-.047.005-.094.008-.14.012-.18.021-.36.024-.538v-.189c0-.163-.001-.325-.008-.488l-.012-.213c-.01-.154-.02-.307-.036-.46l-.026-.227a11.671 11.671 0 0 0-.353-1.77c-.022-.079-.043-.158-.067-.236a12.86 12.86 0 0 0-.135-.421c-.026-.077-.051-.154-.079-.23a13.373 13.373 0 0 0-.162-.425c-.03-.072-.057-.145-.087-.216a13.327 13.327 0 0 0-.196-.44l-.088-.192c-.08-.166-.166-.33-.253-.495l-.064-.124a14.629 14.629 0 0 0-.74-1.212l-.12-.168a15.823 15.823 0 0 0-.295-.413l-.165-.211a15.561 15.561 0 0 0-.28-.355l-.194-.227a16.383 16.383 0 0 0-.281-.324c-.07-.078-.143-.155-.215-.232a16.836 16.836 0 0 0-1.973-1.808l-.27-.21c-.114-.086-.23-.17-.346-.254-.092-.067-.184-.134-.279-.2-.12-.083-.243-.165-.366-.246-.094-.062-.187-.125-.282-.185-.13-.083-.264-.163-.397-.244-.092-.055-.182-.112-.275-.166-.15-.087-.303-.17-.456-.254-.08-.044-.159-.09-.24-.132a20.322 20.322 0 0 0-.711-.36c-.054-.025-.109-.048-.162-.073-.19-.09-.382-.178-.577-.262-.098-.043-.198-.082-.297-.123-.153-.063-.306-.127-.461-.187-.112-.043-.227-.083-.34-.125-.146-.053-.291-.107-.439-.157-.12-.041-.242-.08-.363-.119-.104-.033-.205-.069-.31-.1l.009.006a21.69 21.69 0 0 0-1.977-.508c-5.448-1.12-10.716-.054-14.471 2.509l-.083-.046c-.08-.044-.158-.09-.24-.132a20.41 20.41 0 0 0-.711-.36c-.053-.025-.109-.048-.162-.073-.19-.09-.382-.178-.576-.262-.098-.043-.199-.082-.298-.123-.153-.063-.305-.127-.46-.187-.113-.043-.227-.083-.34-.125-.146-.053-.292-.107-.44-.157-.12-.041-.241-.08-.363-.119-.103-.033-.205-.069-.31-.1l.009.006c-.643-.197-1.3-.37-1.977-.508-9.349-1.923-18.175 2.584-19.715 10.068l-3.546 17.24a11.237 11.237 0 0 0-.197 3.074c-2.292 1.231-4.048 2.97-4.975 5.09-4.958 1.43-8.69 4.725-9.597 9.138l-3.403 16.544c-1.281 6.228 3.48 12.63 11.005 15.503h-.004l.04.014c.25.095.503.186.76.273l.094.033c.281.094.566.183.854.268l.029.009c.605.176 1.224.332 1.857.462 3.9.802 7.696.573 10.926-.466 1.572 4.057 5.405 7.629 10.499 9.582h-.004l.04.014c.252.096.507.188.765.275l.096.034c.284.096.571.186.862.272l.027.008c.61.178 1.234.335 1.873.467 5.721 1.177 11.229.135 15.074-2.434 2.631-1.758 4.484-4.23 5.094-7.196l2.529-12.295a14.963 14.963 0 0 0 2.962 3.558c.283.25.58.498.898.739.884.677 1.9 1.32 3.075 1.901a23.922 23.922 0 0 0 3.04 1.24h-.015l.237.074a27.679 27.679 0 0 0 1.116.337c.038.01.073.022.112.032a31.185 31.185 0 0 0 3.188.697c.27.047.535.088.8.123 1.417.199 2.728.276 3.942.255.288-.001.569-.012.847-.029.328-.017.648-.042.961-.074a18.172 18.172 0 0 0 2.618-.459 18.26 18.26 0 0 0 1.117-.325c4.495-1.485 6.82-4.458 7.904-6.075 1.776-2.65 4.585-9.908 7.107-18.026h-.004c.311-.82.564-1.67.745-2.55l.427-2.075Zm-43.286 5.793c-.066-.076-.134-.15-.201-.225a17.134 17.134 0 0 0-.293-.32c-.073-.077-.148-.153-.223-.229a17.455 17.455 0 0 0-2.05-1.79 19.123 19.123 0 0 0-.639-.46c-.095-.067-.19-.133-.287-.198a18.776 18.776 0 0 0-.38-.245 14.471 14.471 0 0 0-.701-.425c-.096-.056-.19-.113-.287-.167-.155-.087-.313-.17-.47-.253-.084-.044-.165-.09-.25-.132a22.168 22.168 0 0 0-.735-.36l-.173-.076a24.41 24.41 0 0 0-.59-.26c-.102-.042-.207-.082-.31-.123a24.488 24.488 0 0 0-.473-.188c-.117-.043-.235-.084-.353-.126a23.98 23.98 0 0 0-.45-.158c-.126-.042-.252-.08-.378-.12-.106-.034-.21-.07-.318-.102a.764.764 0 0 0 .009.006 23.56 23.56 0 0 0-2.039-.518 23.508 23.508 0 0 0-2.924-.41l.038-.184a8.68 8.68 0 0 0 .102-.61l.002-.021c.025-.19.044-.381.055-.571.003-.042.003-.083.005-.124.006-.112.012-.224.013-.336.3-.177.593-.363.877-.557.763.422 1.565.801 2.404 1.132h-.004l.04.014c.243.095.49.186.739.273l.094.034c.275.094.553.184.834.268l.028.008c.591.176 1.196.33 1.815.457 2.81.578 5.57.572 8.1.082-.23 2.523-.403 4.945-.509 7.151a9.092 9.092 0 0 0-.118-.137Z" fill="#000"/><path d="m61.082 33.49-3.546 17.242c-1.54 7.483 4.791 15.108 14.14 17.031 9.35 1.923 18.176-2.584 19.715-10.067l3.547-17.242-33.856-6.964Z" fill="#111427"/><path opacity=".7" d="m94.94 40.454-3.547 17.242c-1.54 7.482-10.366 11.99-19.717 10.066a21.553 21.553 0 0 1-3.55-1.053c7.883.239 14.7-4.01 16.035-10.5l3.546-17.242 7.232 1.487Z" fill="#000"/><path d="M94.94 40.456c1.54-7.484-4.79-15.11-14.14-17.033-9.349-1.923-18.176 2.584-19.715 10.068-1.54 7.483 4.791 15.109 14.14 17.032 9.35 1.923 18.176-2.584 19.716-10.068Z" fill="#EBEDF9"/><path opacity=".1" d="M94.94 40.454c-1.43 6.948-9.14 11.33-17.719 10.384 5.96-1.399 10.723-5.716 11.928-11.575 1.204-5.856-1.466-11.703-6.384-15.339 8.252 2.518 13.602 9.587 12.174 16.53Z" fill="#000"/><path d="M77.171 41.048c-.672 2.58-1.267 3.95-1.267 3.95s-.312-.306-.68-.846c-.638-.946-1.44-2.611-1.022-4.64-1.284 2.078-3.222 2.23-3.222 2.23.004-.28.032-.544.082-.79.274-1.435 1.154-2.286 1.262-2.384l-.002-.001c-1.947 1.317-3.815.581-3.815.581.066-.16.14-.314.223-.46.884-1.583 2.651-2.223 2.772-2.265-1.589.199-3.48-1.034-3.48-1.034 1.525-2.224 4.644-2.015 4.644-2.015-.93-.31-1.86-1.661-1.801-2.711.596-.094 2.76-.16 5.125 1.94l1.408 3.512.267.668s.18 1.686-.494 4.265Z" fill="#FD9850"/><path opacity=".15" d="M77.171 41.049c-.672 2.579-1.267 3.949-1.267 3.949s-.312-.306-.68-.846c1.007-2.195 1.931-5.355 2.174-8.037l.267.668s.18 1.687-.494 4.266Z" fill="#000"/><path d="m90.178 39.846-3.273 1.586-3.716-10.435 3.27-1.586.002.003 3.717 10.432Z" fill="#E9423C"/><path d="m87.513 42.782-2.178 1.056-2.034-5.708-1.121-3.147 1.888-.918.29-.14.004.006 3.15 8.851Zm-3.991-2.569-2.178 1.056-3.154-8.858.242-.116 1.935-.94.002.004 1.2 3.371 1.953 5.483Z" fill="#E9423C"/><path d="m80.586 38.995-2.177 1.057-3.647-10.237 2.178-1.057 3.646 10.237Zm1.226-4.383-.243.118-1.202-3.374-1.935.939-1.953-5.483 2.178-1.055 3.155 8.855Z" fill="#E9423C"/><path d="m83.301 38.13-.118.058-.171.082-3.152-8.857 2.175-1.056 2.034 5.707-1.89.919 1.122 3.147Z" fill="#E9423C"/><path opacity=".15" d="m61.366 48.289-1.071 5.207a.535.535 0 0 0 .008.25c.9 3.273 3.753 5.892 5.272 7.097.424.336 1.087.173 1.181-.289l1.646-8c.052-.252-.09-.516-.357-.658-.994-.53-3.461-1.94-5.434-3.84-.411-.395-1.143-.261-1.245.233Z" fill="#fff"/><path opacity=".15" d="m86.905 41.432 2.058-1.937-2.501-10.08 3.716 10.43-3.273 1.587Z" fill="#000"/><path opacity=".15" d="m85.335 43.838 1.195-1.502-2.172-8.411.004.006 3.15 8.851-2.177 1.056Zm-2.034-5.708-.118.058-1.187-3.37 1.479-.907-1.44-5.554 2.034 5.707-1.89.919 1.122 3.147Zm-1.957 3.139 1.496-1.362-2.471-8.548 1.2 3.372 1.953 5.482-2.178 1.056ZM76.94 28.758l2.815 9.764-1.346 1.53 2.177-1.057-3.646-10.237Z" fill="#000"/><path opacity=".15" d="m81.812 34.612-.243.118-1.202-3.374-1.935.939 1.777-1.256-1.552-5.282 3.155 8.855Zm-9.481 3.948c0 .003-.003.003-.007.008l-.002-.001c-1.947 1.317-3.815.581-3.815.581.066-.16.14-.314.223-.46.906.2 2.141.244 3.601-.128Zm1.871.953c-1.284 2.077-3.222 2.229-3.222 2.229a4.25 4.25 0 0 1 .082-.79c1.186-.203 1.794-.443 3.14-1.44Z" fill="#000"/><path d="m40.66 33.813-3.546 17.242c-1.54 7.483 4.792 15.108 14.14 17.031 9.35 1.924 18.176-2.584 19.715-10.067l3.547-17.242-33.856-6.964Z" fill="#111427"/><path opacity=".7" d="M74.517 40.777 70.971 58.02c-1.54 7.482-10.366 11.99-19.717 10.066a21.552 21.552 0 0 1-3.55-1.053c7.883.239 14.7-4.01 16.035-10.5l3.546-17.242 7.233 1.487Z" fill="#000"/><path d="M74.518 40.779c1.54-7.484-4.791-15.11-14.14-17.033-9.35-1.923-18.176 2.584-19.716 10.068-1.54 7.483 4.792 15.109 14.14 17.032 9.35 1.923 18.177-2.584 19.716-10.067Z" fill="#EBEDF9"/><path opacity=".1" d="M74.517 40.777c-1.429 6.948-9.14 11.331-17.717 10.384 5.958-1.399 10.722-5.716 11.927-11.575 1.205-5.856-1.466-11.702-6.383-15.339 8.252 2.518 13.601 9.587 12.173 16.53Z" fill="#000"/><path d="M56.75 41.371c-.672 2.58-1.268 3.95-1.268 3.95s-.312-.307-.68-.846c-.638-.946-1.439-2.612-1.022-4.64-1.284 2.078-3.222 2.23-3.222 2.23a4.25 4.25 0 0 1 .083-.79c.274-1.436 1.154-2.286 1.262-2.385H51.9c-1.947 1.316-3.814.581-3.814.581.065-.16.139-.314.222-.46.884-1.583 2.652-2.223 2.772-2.266-1.589.2-3.48-1.033-3.48-1.033 1.525-2.224 4.645-2.015 4.645-2.015-.931-.31-1.861-1.661-1.802-2.712.597-.093 2.76-.16 5.126 1.94l1.408 3.513.267.668s.18 1.686-.495 4.265Z" fill="#FD9850"/><path opacity=".15" d="M56.75 41.371c-.672 2.58-1.268 3.95-1.268 3.95s-.312-.307-.68-.846c1.008-2.196 1.932-5.355 2.175-8.037l.267.667s.18 1.687-.495 4.266Z" fill="#000"/><path d="m69.756 40.169-3.273 1.586-3.716-10.435 3.27-1.586.003.003 3.716 10.432Z" fill="#E9423C"/><path d="m67.091 43.105-2.178 1.056-2.034-5.708-1.121-3.147 1.889-.918.29-.14.003.006 3.151 8.851ZM63.1 40.536l-2.177 1.056-3.155-8.858.242-.116 1.935-.939.002.003 1.2 3.372 1.953 5.482Z" fill="#E9423C"/><path d="m60.164 39.318-2.177 1.057-3.647-10.237 2.178-1.057 3.646 10.237Zm1.226-4.383-.242.118-1.203-3.374-1.935.939-1.953-5.483 2.178-1.055 3.155 8.855Z" fill="#E9423C"/><path d="m62.88 38.453-.119.058-.17.082-3.153-8.857 2.175-1.056 2.034 5.708-1.889.918 1.121 3.148Z" fill="#E9423C"/><path opacity=".15" d="m40.944 48.612-1.07 5.207a.538.538 0 0 0 .007.25c.9 3.272 3.753 5.892 5.272 7.097.424.336 1.087.172 1.181-.29l1.646-8c.052-.251-.09-.515-.357-.657-.994-.53-3.461-1.94-5.435-3.84-.41-.395-1.142-.261-1.244.233Z" fill="#fff"/><path opacity=".15" d="m66.483 41.755 2.058-1.938-2.501-10.08 3.716 10.432-3.273 1.586Z" fill="#000"/><path opacity=".15" d="m64.913 44.16 1.195-1.502-2.172-8.41.004.006 3.151 8.851-2.177 1.056Zm-2.033-5.707-.119.058-1.187-3.37 1.48-.906-1.441-5.555 2.034 5.708-1.889.918 1.121 3.148Zm-1.957 3.139 1.495-1.362-2.47-8.548 1.2 3.372 1.952 5.482-2.177 1.056Zm-4.405-12.511 2.815 9.764-1.346 1.53 2.177-1.057-3.646-10.237Z" fill="#000"/><path opacity=".15" d="m61.39 34.935-.242.118-1.203-3.374-1.935.939 1.777-1.256-1.552-5.282 3.155 8.855Zm-9.48 3.948c-.001.003-.004.003-.007.008l-.003-.001c-1.947 1.317-3.814.581-3.814.581.065-.16.139-.314.222-.46.906.2 2.142.244 3.601-.128Zm1.87.953c-1.284 2.077-3.222 2.23-3.222 2.23a4.18 4.18 0 0 1 .083-.79c1.185-.203 1.793-.444 3.139-1.44Z" fill="#000"/><path d="M121.265 73.692c-2.522 8.117-5.331 15.375-7.107 18.025-1.084 1.617-3.409 4.59-7.904 6.076a18.44 18.44 0 0 1-1.116.324 18.491 18.491 0 0 1-3.578.533c-.278.017-.56.028-.848.029a25.175 25.175 0 0 1-3.942-.255 19.69 19.69 0 0 1-.8-.123 30.391 30.391 0 0 1-2.404-.495 19.49 19.49 0 0 1-.784-.202 25.196 25.196 0 0 1-4.49-1.683 18.538 18.538 0 0 1-3.074-1.902 15.04 15.04 0 0 1-.898-.738c-3.547-3.137-4.512-6.787-4.87-8.703-.585-3.136-.302-10.913.585-19.367l41.23 8.48Z" fill="#95325E"/><path d="M85.218 94.02a15.448 15.448 0 0 1-.898-.739c-.467-4.195-.467-9.95.406-15.503a.406.406 0 0 1 .461-.335.4.4 0 0 1 .336.461c-.923 5.872-.86 11.952-.305 16.116Zm8.348 3.787a17.94 17.94 0 0 1-.784-.203l1.865-13.848a.405.405 0 0 1 .8.11l-1.881 13.94Zm-4.506-1.525a14.817 14.817 0 0 1-.768-.36l1.697-14.168a.403.403 0 1 1 .798.095L89.06 96.282Zm22.937-12.894c-1.389 5.447-3.661 10.735-5.743 14.405-.358.116-.729.226-1.116.324 2.151-3.607 4.608-9.168 6.078-14.928a.404.404 0 0 1 .49-.29.405.405 0 0 1 .291.49Zm-11.474 1.577-3.753 13.46c-.264-.035-.53-.076-.8-.123l3.775-13.552a.405.405 0 0 1 .496-.281c.215.06.34.283.282.496Zm5.069-.002L101.56 98.65c-.278.017-.56.028-.848.029l4.11-13.943a.398.398 0 0 1 .5-.273.402.402 0 0 1 .27.5Z" fill="#702647"/><path opacity=".15" d="M121.267 73.692c-2.523 8.117-5.331 15.375-7.108 18.025-1.083 1.617-3.408 4.59-7.903 6.076-.359.115-.729.225-1.117.324a18.49 18.49 0 0 1-3.578.533 25.165 25.165 0 0 1-4.79-.226 19.51 19.51 0 0 1-.8-.123 30.54 30.54 0 0 1-2.404-.495 28.852 28.852 0 0 1-2.25-.647 23.801 23.801 0 0 0 3.266.056c1.311-.07 2.499-.26 3.578-.534.387-.098.758-.208 1.116-.324 4.495-1.485 6.82-4.459 7.904-6.075 1.776-2.65 4.585-9.908 7.108-18.026l6.978 1.436Z" fill="#000"/><path d="m122.299 69.038-41.377-8.511-.135-.028-.426 2.076c-2.077 10.095 5.561 20.198 17.064 22.564 11.499 2.365 22.505-3.903 24.582-13.998l.427-2.075-.135-.028Z" fill="#FFFFFD"/><path opacity=".1" d="m122.435 69.066-.427 2.075c-2.076 10.095-13.082 16.363-24.582 13.998-.25-.052-.499-.106-.744-.167 11.226 1.953 21.803-4.26 23.835-14.138l.427-2.075 1.491.307Z" fill="#000"/><path d="M122.438 69.067c2.077-10.096-5.562-20.198-17.063-22.564-11.5-2.366-22.507 3.9-24.584 13.997-2.077 10.096 5.562 20.199 17.063 22.564 11.501 2.366 22.507-3.9 24.584-13.997Z" fill="#FFFFFD"/><path opacity=".2" d="M122.438 69.067c2.077-10.096-5.562-20.198-17.063-22.564-11.5-2.366-22.507 3.9-24.584 13.997-2.077 10.096 5.562 20.199 17.063 22.564 11.501 2.366 22.507-3.9 24.584-13.997Z" fill="#000"/><path d="M118.842 71.115c1.773-8.62-4.749-17.244-14.567-19.264-9.818-2.02-19.215 3.33-20.988 11.95-1.773 8.62 4.749 17.244 14.567 19.264 9.818 2.02 19.215-3.33 20.988-11.95Z" fill="#F48035"/><path opacity=".2" d="M104.903 79.877a1.342 1.342 0 0 1-.057-2.618c.19-.048.377-.1.562-.156a1.343 1.343 0 0 1 .777 2.571 14.41 14.41 0 0 1-.686.19 1.35 1.35 0 0 1-.596.013Zm5.024-2.51a1.343 1.343 0 0 1-.586-2.348c1.667-1.385 2.768-3.184 3.184-5.205.472-2.296.03-4.635-1.279-6.762a1.344 1.344 0 0 1 2.288-1.407c1.649 2.68 2.225 5.774 1.621 8.71-.539 2.624-1.957 4.951-4.099 6.73a1.35 1.35 0 0 1-1.129.282ZM92.675 75.68a.533.533 0 0 1-.283-.158c-2.926-3.12-2.867-9.232-.867-12.212a.537.537 0 1 1 .892.6c-1.587 2.362-1.967 7.971.758 10.877a.537.537 0 0 1-.5.894Zm4.275-17.454a.537.537 0 0 1-.2-.966c2.547-1.784 8.176-.415 10.069 1.859a.537.537 0 1 1-.825.688c-1.706-2.049-6.705-3.015-8.626-1.667a.536.536 0 0 1-.417.086Zm6.923 16.16a.538.538 0 0 1-.24-.934c2.241-1.918 2.509-3.748 2.512-3.766a.537.537 0 0 1 1.066.132c-.011.09-.296 2.24-2.88 4.45a.536.536 0 0 1-.458.118Zm-.597-5.926a.538.538 0 0 1-.427-.572c.261-3.01-1.177-3.897-1.239-3.933a.54.54 0 0 1-.196-.731.534.534 0 0 1 .723-.205c.086.047 2.106 1.212 1.783 4.962a.538.538 0 0 1-.644.48ZM98.6 75.7a.537.537 0 0 1-.412-.391c-.585-2.256.419-3.96.462-4.03a.536.536 0 0 1 .92.552c-.013.024-.808 1.41-.342 3.208a.537.537 0 0 1-.628.661Z" fill="#000"/><path opacity=".25" d="M86.829 118.265a.805.805 0 0 1-.022-1.574c12.665-2.954 23.777-10.599 30.489-20.974a.806.806 0 0 1 1.353.875c-6.937 10.723-18.409 18.62-31.476 21.668a.788.788 0 0 1-.344.005Zm35.145-29.418a.805.805 0 0 1-.588-1.084 45.113 45.113 0 0 0 1.415-4.193.806.806 0 0 1 1.55.439 46.425 46.425 0 0 1-1.466 4.344.806.806 0 0 1-.911.494Zm-13.233-52.724a.802.802 0 0 1-.38-.194 53.038 53.038 0 0 0-11.889-8.168.806.806 0 1 1 .725-1.439 54.672 54.672 0 0 1 12.25 8.416.806.806 0 0 1-.706 1.385ZM25.077 50.499a.806.806 0 0 1-.571-1.124c2.262-4.958 5.38-9.486 9.265-13.459a.806.806 0 0 1 1.152 1.127c-3.754 3.839-6.766 8.213-8.952 13.001a.806.806 0 0 1-.894.455Zm-3.187 9.765a.806.806 0 0 1-.626-.951c.297-1.445.666-2.89 1.098-4.294a.806.806 0 0 1 1.54.473 45.26 45.26 0 0 0-1.06 4.145.806.806 0 0 1-.951.627Z" fill="#000"/><path d="M22.345 68.356 18.94 84.9c-1.477 7.18 5.076 14.596 14.636 16.562 9.56 1.966 18.507-2.26 19.984-9.441l3.403-16.544-34.62-7.121Z" fill="#111427"/><path opacity=".7" d="M56.966 75.477 53.562 92.02c-1.476 7.18-10.424 11.407-19.985 9.44a23.447 23.447 0 0 1-3.634-1.058c8.043.328 14.943-3.676 16.224-9.903l3.403-16.545 7.396 1.522Z" fill="#000"/><path d="M56.966 75.479c1.477-7.18-5.075-14.596-14.635-16.563-9.56-1.967-18.508 2.26-19.985 9.44-1.477 7.182 5.076 14.597 14.636 16.564 9.56 1.966 18.507-2.26 19.984-9.441Z" fill="#EBEDF9"/><path opacity=".1" d="M56.966 75.477c-1.372 6.667-9.183 10.788-17.944 9.77 6.061-1.272 10.866-5.366 12.023-10.988 1.155-5.62-1.64-11.278-6.702-14.837 8.448 2.525 13.993 9.393 12.623 16.055Z" fill="#000"/><path d="M38.85 75.828c-.654 2.473-1.244 3.783-1.244 3.783s-.322-.298-.704-.821c-.663-.919-1.5-2.531-1.1-4.477-1.284 1.983-3.26 2.105-3.26 2.105.002-.27.026-.523.075-.759.262-1.378 1.149-2.185 1.258-2.279h-.003c-1.97 1.243-3.883.512-3.883.512.064-.154.138-.3.221-.44.882-1.512 2.677-2.106 2.8-2.145-1.619.171-3.562-1.038-3.562-1.038 1.526-2.12 4.711-1.88 4.711-1.88-.953-.31-1.919-1.623-1.871-2.632.607-.083 2.813-.12 5.252 1.93l1.48 3.397.28.646s.205 1.625-.45 4.097Z" fill="#FD9850"/><path opacity=".15" d="M38.85 75.827c-.654 2.474-1.244 3.784-1.244 3.784s-.322-.298-.704-.822c1-2.1 1.903-5.128 2.118-7.705l.28.646s.205 1.625-.45 4.097Z" fill="#000"/><path d="m52.102 74.832-3.32 1.485-3.92-10.085 3.317-1.486.002.003 3.92 10.083Z" fill="#E9423C"/><path d="m49.42 77.624-2.209.989-2.145-5.516-1.183-3.043 1.915-.86.294-.131.004.006 3.323 8.555Zm-4.103-2.521-2.208.989-3.328-8.562.245-.108 1.963-.88.002.003 1.266 3.259 2.06 5.3Z" fill="#E9423C"/><path d="m42.307 73.894-2.208.99-3.846-9.895L38.46 64l3.846 9.895Zm1.196-4.201-.246.11-1.268-3.261-1.963.88-2.06-5.3 2.209-.988 3.328 8.559Z" fill="#E9423C"/><path d="m45.066 73.097-.12.053-.174.078-3.325-8.561 2.205-.99 2.146 5.517-1.915.86 1.183 3.043Z" fill="#E9423C"/><path opacity=".15" d="m22.818 82.597-1.028 4.997a.49.49 0 0 0 .012.241c.958 3.16 3.901 5.715 5.466 6.894.436.328 1.11.179 1.2-.264l1.58-7.677c.05-.241-.1-.497-.373-.637-1.02-.522-3.554-1.91-5.59-3.761-.425-.386-1.17-.267-1.267.207Z" fill="#fff"/><path opacity=".15" d="m48.782 76.317 2.076-1.838-2.677-9.73 3.92 10.083-3.319 1.485Z" fill="#000"/><path opacity=".15" d="m47.211 78.613 1.2-1.43-2.32-8.12.005.006 3.324 8.555-2.209.989Zm-2.145-5.516-.12.053-1.253-3.256 1.498-.854-1.539-5.362 2.146 5.516-1.915.86 1.183 3.043Zm-1.957 2.995 1.509-1.292-2.627-8.255 1.266 3.26 2.06 5.298-2.208.989ZM38.46 64l2.993 9.429-1.354 1.455 2.208-.99L38.461 64Z" fill="#000"/><path opacity=".15" d="m43.503 69.693-.246.11-1.268-3.261-1.963.88 1.797-1.187-1.648-5.101 3.328 8.559Zm-9.621 3.681c-.001.002-.004.002-.007.006h-.003c-1.969 1.242-3.883.511-3.883.511.064-.154.138-.3.221-.44.926.205 2.187.262 3.672-.077Zm1.92.939c-1.284 1.982-3.26 2.105-3.26 2.105.002-.27.027-.523.075-.759 1.207-.18 1.824-.404 3.185-1.346Z" fill="#000"/><path d="m47.391 78.02-3.46 16.82c-1.501 7.3 5.093 14.825 14.73 16.808 9.636 1.982 18.665-2.33 20.166-9.63l3.46-16.82-34.896-7.178Z" fill="#111427"/><path opacity=".7" d="m82.288 85.197-3.46 16.821c-1.501 7.3-10.53 11.611-20.168 9.628a23.338 23.338 0 0 1-3.662-1.068c8.11.319 15.074-3.762 16.376-10.093l3.46-16.82 7.454 1.532Z" fill="#000"/><path d="M82.29 85.2c1.502-7.3-5.093-14.826-14.729-16.808-9.636-1.983-18.665 2.329-20.167 9.63-1.502 7.3 5.092 14.825 14.729 16.807 9.636 1.983 18.665-2.329 20.167-9.63Z" fill="#EBEDF9"/><path opacity=".1" d="M82.288 85.197c-1.394 6.779-9.277 10.98-18.109 9.961 6.113-1.303 10.965-5.473 12.141-11.188 1.175-5.713-1.634-11.46-6.732-15.069 8.515 2.552 14.094 9.523 12.7 16.296Z" fill="#000"/><path d="M64.02 85.585c-.662 2.515-1.26 3.848-1.26 3.848s-.324-.303-.708-.834c-.666-.932-1.508-2.57-1.102-4.547-1.297 2.016-3.29 2.144-3.29 2.144.002-.274.028-.532.077-.771.266-1.401 1.162-2.223 1.272-2.319h-.003c-1.987 1.266-3.916.527-3.916.527a3.53 3.53 0 0 1 .223-.448c.893-1.538 2.703-2.144 2.827-2.185-1.632.177-3.59-1.048-3.59-1.048 1.544-2.158 4.754-1.92 4.754-1.92-.96-.313-1.931-1.645-1.882-2.67.612-.086 2.836-.127 5.293 1.952l1.486 3.45.282.656s.203 1.65-.462 4.165Z" fill="#FD9850"/><path opacity=".15" d="M64.02 85.585c-.662 2.515-1.26 3.848-1.26 3.848s-.324-.303-.708-.834c1.012-2.136 1.928-5.216 2.149-7.835l.282.656s.203 1.65-.462 4.165Z" fill="#000"/><path d="m77.385 84.55-3.35 1.516L70.1 75.822l3.347-1.515.002.003 3.936 10.24Z" fill="#E9423C"/><path d="M74.676 87.393 72.448 88.4l-2.154-5.603-1.188-3.09 1.933-.877.296-.134.004.007 3.337 8.689Zm-4.133-2.555-2.228 1.008-3.34-8.695.247-.111 1.98-.898.002.004 1.272 3.31 2.067 5.382Z" fill="#E9423C"/><path d="m67.51 83.615-2.227 1.01-3.862-10.05 2.228-1.01 3.862 10.05Zm1.214-4.273-.248.113-1.274-3.313-1.98.898-2.068-5.382 2.228-1.009 3.342 8.693Z" fill="#E9423C"/><path d="m70.294 82.799-.121.054-.175.08-3.339-8.696 2.226-1.008 2.154 5.602-1.933.878 1.188 3.09Z" fill="#E9423C"/><path opacity=".15" d="m47.844 92.493-1.044 5.08a.5.5 0 0 0 .01.246c.96 3.209 3.924 5.801 5.5 6.996.44.334 1.119.181 1.212-.269l1.605-7.806c.05-.245-.099-.505-.375-.647-1.028-.53-3.58-1.934-5.63-3.813-.427-.391-1.178-.269-1.278.213Z" fill="#fff"/><path opacity=".15" d="m74.036 86.066 2.096-1.872-2.683-9.884 3.936 10.24-3.35 1.516Z" fill="#000"/><path opacity=".15" d="m72.448 88.401 1.212-1.456-2.325-8.248.004.007 3.337 8.689-2.228 1.008Zm-2.154-5.602-.121.054-1.258-3.307 1.511-.87-1.541-5.448 2.154 5.603-1.933.878 1.188 3.09Zm-1.979 3.047 1.524-1.315-2.635-8.386 1.272 3.31 2.067 5.383-2.228 1.008ZM63.65 73.565l3 9.578-1.367 1.481 2.228-1.01-3.862-10.05Z" fill="#000"/><path opacity=".15" d="m68.724 79.342-.248.113-1.274-3.313-1.98.898 1.814-1.209-1.654-5.182 3.342 8.693ZM59.016 83.1c0 .002-.003.002-.007.006h-.003c-1.987 1.266-3.916.527-3.916.527a3.53 3.53 0 0 1 .223-.448c.934.206 2.206.262 3.703-.085Zm1.934.952c-1.297 2.016-3.29 2.144-3.29 2.144.002-.274.028-.532.077-.771 1.217-.186 1.84-.414 3.213-1.373Z" fill="#000"/><path d="m31.391 60.95-3.09 15.02c-1.34 6.519 5.023 13.336 14.213 15.226 9.19 1.89 17.726-1.861 19.067-8.38l3.09-15.02-33.28-6.846Z" fill="#111427"/><path opacity=".7" d="m64.672 67.796-3.09 15.02c-1.34 6.517-9.877 10.27-19.069 8.379a23.937 23.937 0 0 1-3.496-1c7.718.383 14.294-3.188 15.456-8.842l3.09-15.02 7.11 1.463Z" fill="#000"/><path d="M64.673 67.797c1.341-6.519-5.022-13.336-14.212-15.227-9.19-1.89-17.727 1.862-19.068 8.381-1.341 6.519 5.022 13.336 14.212 15.227 9.19 1.89 17.727-1.862 19.068-8.38Z" fill="#EBEDF9"/><path opacity=".1" d="M64.672 67.795c-1.245 6.053-8.693 9.721-17.106 8.703 5.8-1.094 10.365-4.77 11.414-9.873 1.05-5.102-1.692-10.28-6.584-13.573 8.13 2.387 13.52 8.695 12.276 14.743Z" fill="#000"/><path d="M47.3 67.924c-.6 2.244-1.153 3.43-1.153 3.43s-.312-.275-.683-.755c-.645-.843-1.466-2.32-1.103-4.085-1.21 1.79-3.103 1.88-3.103 1.88a3.303 3.303 0 0 1 .063-.69 3.68 3.68 0 0 1 1.182-2.06H42.5c-1.876 1.11-3.72.425-3.72.425.06-.14.13-.273.208-.398.83-1.367 2.545-1.888 2.662-1.923-1.55.139-3.427-.981-3.427-.981 1.442-1.915 4.499-1.663 4.499-1.663-.918-.291-1.857-1.495-1.823-2.414.582-.069 2.697-.08 5.059 1.812l1.455 3.107.276.59s.213 1.481-.39 3.725Z" fill="#FD9850"/><path opacity=".15" d="M47.3 67.924c-.6 2.244-1.152 3.43-1.152 3.43s-.313-.275-.684-.755c.937-1.9 1.771-4.647 1.95-6.99l.276.59s.213 1.481-.39 3.725Z" fill="#000"/><path d="m60 67.158-3.168 1.317-3.866-9.22 3.166-1.317.002.003L60 67.158Z" fill="#E9423C"/><path d="m57.457 69.67-2.107.876-2.116-5.042-1.167-2.781 1.828-.763.28-.116.004.006 3.278 7.82Zm-3.961-2.337-2.108.876-3.282-7.826.234-.096 1.873-.78.002.002 1.25 2.98 2.03 4.844Z" fill="#E9423C"/><path d="m50.596 66.201-2.107.878-3.794-9.045 2.108-.877 3.793 9.044Zm1.103-3.811-.235.099-1.25-2.983-1.874.78-2.031-4.844 2.107-.876L51.7 62.39Z" fill="#E9423C"/><path d="m53.234 65.504-.115.047-.165.07-3.28-7.827 2.105-.876 2.116 5.042-1.828.763 1.167 2.78Z" fill="#E9423C"/><path opacity=".15" d="m31.996 73.915-.933 4.536a.425.425 0 0 0 .013.22c.952 2.885 3.802 5.242 5.315 6.33.423.304 1.067.176 1.15-.226l1.433-6.97c.045-.22-.1-.453-.364-.584-.984-.486-3.429-1.775-5.402-3.482-.41-.355-1.124-.255-1.212.176Z" fill="#fff"/><path opacity=".15" d="m56.832 68.475 1.972-1.651-2.67-8.883L60 67.158l-3.168 1.317Z" fill="#000"/><path opacity=".15" d="m55.35 70.546 1.136-1.289-2.311-7.413.004.006 3.278 7.82-2.107.876Zm-2.116-5.042-.114.047-1.237-2.976 1.428-.762-1.532-4.895 2.116 5.042-1.828.763 1.167 2.78Zm-1.845 2.705 1.433-1.16-2.607-7.54 1.25 2.98 2.03 4.844-2.106.876Zm-4.586-11.052 2.97 8.612-1.284 1.31 2.107-.878-3.793-9.044Z" fill="#000"/><path opacity=".15" d="m51.699 62.39-.235.099-1.25-2.983-1.874.78 1.711-1.06-1.635-4.66L51.7 62.39Zm-9.189 3.248-.007.006h-.002c-1.876 1.11-3.72.424-3.72.424.06-.139.13-.272.208-.397.89.195 2.1.26 3.52-.033Zm1.851.876c-1.21 1.79-3.104 1.88-3.104 1.88-.002-.244.02-.475.064-.689 1.155-.151 1.745-.349 3.04-1.191Z" fill="#000"/></svg>