<svg width="162" height="140" fill="none" xmlns="http://www.w3.org/2000/svg"><path d="M16.683 27.851c-4.84 3.63-9.557 7.635-12.715 12.795-3.158 5.16-4.576 11.687-2.47 17.359C4.148 65.142 11.844 69.97 12.97 77.5c.767 5.13-1.76 10.091-3.757 14.878-1.997 4.786-3.455 10.507-.786 14.954 1.903 3.17 5.519 4.958 7.627 7.995 1.774 2.555 2.314 5.742 3.493 8.62 2.954 7.214 9.936 12.225 17.42 14.405 7.485 2.18 15.467 1.87 23.207.939 17.554-2.111 34.585-7.291 51.352-12.901 2.766-.925 5.642-1.877 8.538-1.529 2.895.346 5.811 2.404 6.123 5.304.101.945-.072 1.923.189 2.837.581 2.032 3.167 2.915 5.204 2.354 2.038-.561 3.616-2.139 5.045-3.696a108.53 108.53 0 0 0 21.783-35.664c2.673-7.232 4.493-15.59.914-22.42-1.353-2.583-3.394-4.749-4.8-7.303-6.029-10.949 1.079-25.06-2.872-36.918-3.752-11.256-15.979-16.94-26.984-21.375-6.966-2.81-13.991-5.634-21.379-6.99-8.984-1.65-18.256-1.07-27.253.508C54.516 5.27 34.16 14.743 16.683 27.85Z" fill="#98A9D8"/><path d="M29.362 128.589a28.787 28.787 0 0 0-7.064-11.407c-.324-.321-.668-.642-1.095-.802-.426-.16-.96-.12-1.273.211a24.549 24.549 0 0 0 6.798 13.704c.603.61 1.493 1.228 2.245.815.813-.445.68-1.641.39-2.521Zm5.3 4.927c-.873-1.101-2.119-2.039-3.524-2.043-.06 1.486.826 2.968 2.163 3.619.602.293 1.512.312 1.753-.312.167-.432-.105-.901-.392-1.264Zm110.972-34.688c-.027 1.707.451 3.913 2.144 4.14 1.369.183 2.428-1.137 3.117-2.333 4.226-7.34 6.171-15.974 5.499-24.417-.107-1.341-.725-3.073-2.065-2.961-.807.066-1.358.822-1.777 1.515a48.286 48.286 0 0 0-6.918 24.056Zm1.572 12.117c.475-.702.965-1.445 1.036-2.29.071-.845-.445-1.803-1.286-1.906a1.267 1.267 0 0 0-.74.139c-.936.502-.852 1.829-1.025 2.878-.126.766-.334 1.795.375 2.113.626.282 1.254-.365 1.64-.934ZM17.914 34.766c-.3-1.168-1.658-1.815-2.856-1.684-1.199.13-2.248.848-3.174 1.619a22.002 22.002 0 0 0-6.25 8.518c-.646 1.576-1.113 3.293-.84 4.976.271 1.682 1.433 3.308 3.093 3.695 1.615.377 3.316-.491 4.393-1.753 1.077-1.261 1.655-2.862 2.212-4.425l3.092-8.681c.26-.73.523-1.515.33-2.265ZM8.49 58.443c.016.6.27 1.192.695 1.617.926-.083 1.81-.887 1.745-1.814-.065-.927-1.34-1.586-2.024-.957-.31.285-.427.732-.416 1.154Z" fill="#fff"/><path d="M125.394 121.633c-27.909 9.219-55.731 9.219-83.64 0a14.699 14.699 0 0 1-9.335-9.336c-9.22-27.909-9.22-55.73 0-83.64a14.7 14.7 0 0 1 9.335-9.335c27.909-9.22 55.731-9.22 83.64 0a14.698 14.698 0 0 1 9.336 9.335c9.219 27.91 9.219 55.731 0 83.64a14.697 14.697 0 0 1-9.336 9.336Z" fill="#353A68"/><path d="M122.902 118.228c-28.82 9.52-57.55 9.52-86.369 0a15.18 15.18 0 0 1-9.64-9.641c-9.52-28.819-9.52-57.549 0-86.368a15.18 15.18 0 0 1 9.64-9.64c28.82-9.52 57.55-9.52 86.368 0a15.179 15.179 0 0 1 9.641 9.64c9.52 28.82 9.52 57.55 0 86.369a15.18 15.18 0 0 1-9.64 9.64Z" fill="#fff"/><path d="M79.718 125.546c-14.332 0-28.88-2.406-43.24-7.15a15.4 15.4 0 0 1-9.754-9.753c-4.743-14.36-7.148-28.908-7.148-43.24 0-14.331 2.405-28.88 7.148-43.24a15.401 15.401 0 0 1 9.754-9.753c14.36-4.744 28.908-7.149 43.24-7.149 14.331 0 28.879 2.405 43.24 7.149a15.4 15.4 0 0 1 9.752 9.753c4.744 14.36 7.15 28.909 7.15 43.24 0 14.332-2.405 28.88-7.149 43.24a15.402 15.402 0 0 1-9.753 9.753c-14.361 4.744-28.909 7.15-43.24 7.15Zm0-119.93c-14.294 0-28.805 2.4-43.13 7.131a15.044 15.044 0 0 0-9.527 9.528c-9.453 28.618-9.453 57.64 0 86.257a15.044 15.044 0 0 0 9.528 9.527c14.324 4.732 28.835 7.131 43.129 7.132 14.293-.001 28.804-2.4 43.128-7.132a15.046 15.046 0 0 0 9.528-9.527c9.453-28.617 9.453-57.639-.001-86.257a15.044 15.044 0 0 0-9.527-9.528c-14.324-4.732-28.835-7.13-43.128-7.13Z" fill="#272525"/><path d="M121.944 116.965c-27.91 9.219-55.732 9.219-83.64 0a14.7 14.7 0 0 1-9.336-9.336c-9.22-27.909-9.22-55.73 0-83.64a14.7 14.7 0 0 1 9.336-9.336c27.909-9.219 55.73-9.219 83.64 0a14.7 14.7 0 0 1 9.335 9.336c9.22 27.909 9.22 55.731 0 83.64a14.7 14.7 0 0 1-9.335 9.336Z" fill="#F7F1ED"/><path d="M28.968 23.989c-9.22 27.909-9.22 55.73 0 83.64a14.703 14.703 0 0 0 9.336 9.336c27.908 9.219 55.73 9.219 83.64 0a14.688 14.688 0 0 0 6.169-3.979L32.947 17.82a14.68 14.68 0 0 0-3.979 6.169Z" fill="#DCD8D5"/><path d="M112.491 105.401c-21.6 7.136-43.134 7.135-64.734 0a11.375 11.375 0 0 1-7.226-7.225c-7.135-21.6-7.135-43.134 0-64.734a11.376 11.376 0 0 1 7.226-7.226c21.6-7.135 43.133-7.135 64.733 0a11.377 11.377 0 0 1 7.226 7.226c7.135 21.6 7.135 43.134 0 64.734a11.375 11.375 0 0 1-7.225 7.225Z" fill="#fff"/><path d="M80.124 110.93c-10.747 0-21.656-1.803-32.423-5.36a11.587 11.587 0 0 1-7.339-7.338c-7.106-21.515-7.106-43.332 0-64.846a11.586 11.586 0 0 1 7.34-7.338c10.767-3.557 21.676-5.36 32.422-5.36 10.746 0 21.655 1.803 32.422 5.36a11.585 11.585 0 0 1 7.338 7.338c7.107 21.515 7.108 43.332.001 64.845a11.586 11.586 0 0 1-7.339 7.339c-10.767 3.557-21.676 5.36-32.422 5.36Zm0-89.887c-10.71 0-21.58 1.797-32.312 5.342a11.232 11.232 0 0 0-7.112 7.113c-7.083 21.44-7.083 43.182 0 64.622a11.232 11.232 0 0 0 7.112 7.113c10.732 3.545 21.603 5.342 32.312 5.342 10.708 0 21.579-1.797 32.311-5.342a11.231 11.231 0 0 0 7.112-7.113c7.083-21.44 7.083-43.182 0-64.622a11.231 11.231 0 0 0-7.112-7.113c-10.732-3.545-21.603-5.342-32.311-5.342Z" fill="#272525"/><path d="M130.267 80.56c-2.776-8.332-7.841-15.676-12.842-22.895L91.827 20.721a106.625 106.625 0 0 1-34.699 20.21c-10.484 3.678-22.223 6.127-29.546 14.483a218.678 218.678 0 0 0 40.914 65.265c21.774-11.392 41.814-25.782 61.771-40.12Z" fill="#34292A"/><path d="M129.932 73.616c-5.017-12.814-26.263-48.268-49.23-60.42-11.983 17.913-32.28 28.135-51.79 37.295 5.492 26 20.062 49.989 40.6 66.852 22.21-6.51 52.561-31.236 60.42-43.727Z" fill="#627B1D"/><path d="M32.188 48.944c-.068.032-.137.064-.204.097 3.098 12.149 10.765 28.87 17.48 38.475 7.121 10.185 15.552 19.375 23.965 28.522l.072-.026c-3.478-6.802-9.18-12.158-14.27-17.864C48.311 85.902 37.69 65.07 32.187 48.944Z" fill="#778E23"/><path d="m36.821 46.712-.384.188c3.63 12.253 11.273 28.878 17.493 37.774 6.514 9.318 16.016 20.609 24.057 29.51.24-.107.482-.216.723-.326-3.961-6.335-10.574-13.574-15.013-18.552-10.316-11.568-21.025-32.555-26.876-48.594Zm88.495 32.872c.348-.391.681-.777 1.004-1.158-4.424-5.339-9.904-10.069-14.942-15.02-14.151-13.908-25.213-30.218-32.42-47.748-.128.172-.253.345-.381.515 4.025 12.416 11.122 24.018 19.582 34.622 8.147 10.212 17.562 19.58 27.157 28.79ZM41.243 44.506l-.211.108C45.44 56.728 54.33 73.74 60.298 81.622c6.54 8.64 16.267 20.486 22.186 30.427l.18-.09c-5.324-10.238-14.91-22.24-21.506-30.82-6.02-7.834-15.157-24.664-19.915-36.633ZM59.63 33.774l-.055.039C62.94 45.187 73.521 60.277 80.36 69.308c6.46 8.533 15.12 21.189 20.881 31.246l.185-.132C96.24 90.08 87.727 77.29 81.219 68.825c-6.897-8.975-17.79-23.82-21.588-35.051Zm7.148 44.346c-5.67-7.22-16.024-25.47-21.602-35.66l-.373.197c3.933 8.73 13.27 24.091 17.16 29.623 7.667 10.905 16.735 25.855 23.185 38.38l.395-.215c-3.419-8.575-8.846-19.236-13.692-25.858-1.618-2.21-3.381-4.31-5.073-6.465Zm9.1-7.577c-5.959-7.588-15.8-24.239-20.977-33.673l-.225.141c3.24 7.886 12.257 21.818 16.386 27.69 7.848 11.162 17.484 27.261 24.002 40.059l.299-.194C91.91 95.707 85.97 83.868 80.95 77.008c-1.618-2.21-3.381-4.31-5.073-6.465Zm51.928 6.064.054-.07c-1.221-8.978-16.516-21.24-22.754-29.685-1.81-2.45-5.526-4.96-7.42-7.348-6.632-8.365-12.058-16.767-17.188-26.015-.071.106-.145.21-.218.315 2.885 7.242 7.777 13.575 12.265 20.011 9.262 13.284 27.88 28.25 35.261 42.792Zm-.018-5.451a184.906 184.906 0 0 0-36.41-49.251c4.91 4.98 9.157 10.567 13.358 16.158 8.079 10.753 16.059 21.605 23.052 33.093Zm-51.893 8.591c-3.469-6.026-7.296-11.89-11.638-17.321-3.965-4.96-11.145-15.18-16.023-21.635l-.472.262c6.896 11.622 19.831 26.149 26.156 36.825 4.965 8.38 10.32 21.368 17.112 29.412.18-.11.362-.219.542-.33-2.837-4.139-6.577-9.666-8.235-12.87-2.54-4.91-4.684-9.551-7.442-14.343Zm21.565-16.17c-3.964-6.827-8.34-13.47-13.301-19.622-4.801-5.952-9.664-12.114-14.477-18.105l-.31.282C76.55 38.788 87.715 48.935 95.2 61.46c5.979 10.004 9.726 21.654 17.718 30.015l.37-.313c-2.588-3.678-5.26-7.383-7.323-11.335-2.904-5.563-5.354-10.822-8.506-16.25Zm-2.92 5.573c-3.827-6.697-8.05-13.213-12.84-19.248-4.428-5.577-10.546-14.623-15.42-21.115-.141.117-.281.235-.424.35 7.226 12.526 19.47 25.98 26.503 37.936 5.479 9.314 9.017 20.082 15.959 28.167l.536-.426c-2.185-3.153-4.367-6.346-6.102-9.724-2.803-5.456-5.169-10.615-8.212-15.94Zm9.656 26.294c-2.639-3.867-5.547-7.716-7.699-11.874-2.54-4.91-4.685-9.552-7.443-14.344-3.468-6.026-7.296-11.89-11.637-17.32-4.2-5.255-10.251-14.322-14.789-20.27-.096.071-.193.14-.289.212 6.485 11.57 18.195 24.462 24.74 35.51 5.618 9.484 8.982 20.647 17.117 28.086Zm-2.477-35.825c-4.012-6.897-8.439-13.608-13.46-19.824-4.785-5.923-9.632-12.052-14.43-18.018l-.338.36C80.76 34.762 91.926 44.94 99.433 57.48c6.02 10.056 9.805 21.758 17.81 30.196l.382-.349c-2.584-3.663-5.24-7.356-7.298-11.292-2.939-5.62-5.419-10.932-8.608-16.416Z" fill="#778E23"/><path d="M98.187 24.468a.655.655 0 0 0-.27-.11c-.95 2.082-2.533 3.907-4.13 5.52-2.951 2.979-7.543-1.615-4.593-4.593.746-.753 1.571-1.61 2.093-2.387.356-.531.715-1.077.965-1.668-.168.397.086-1.09.05-.347a3.68 3.68 0 0 1 .143-.843c-.414-.12-.857-.168-1.29-.195a20.761 20.761 0 0 0-8.368 1.208c-.412-.926-1.58-1.172-2.57-1.385-1.773-.381-3.605-1.031-5.348-.535-.511.145-1.007.397-1.348.805-.341.407-.502.988-.322 1.488.186.513.675.847 1.15 1.116a14.137 14.137 0 0 0 4.09 1.542c-4.218-.524-8.65 1.738-10.698 5.463-.416.755-.696 1.803-.067 2.391.517.484 1.34.35 2.02.154a23.36 23.36 0 0 0 4.829-2.007 11.582 11.582 0 0 0-3.088 3.435c-.383.658-.693 1.518-.26 2.146.39.567 1.186.645 1.874.632a19.354 19.354 0 0 0 5.914-1.047 9.173 9.173 0 0 0-2.703 1.65c-.314.276-.626.613-.652 1.03-.026.423.265.816.633 1.028.368.211.8.275 1.222.318 2.414.25 4.88-.022 7.185-.78a.905.905 0 0 0-.48.643 19.98 19.98 0 0 0 12.287-1.788c.458-.229.943-.516 1.11-.998.256-.732-.354-1.487-1.015-1.891-.662-.404-1.448-.668-1.913-1.288a11.793 11.793 0 0 0 3.85-7.616c.037-.394.022-.86-.3-1.091Z" fill="#51600F"/><path d="M56.23 55.05c10.115-4.363 14.777-16.1 10.414-26.214-4.364-10.115-16.1-14.777-26.215-10.414-10.114 4.363-14.777 16.1-10.413 26.215 4.363 10.114 16.1 14.776 26.214 10.413Z" fill="#34292A"/><path d="M64.623 36.974c1.837-10.862-5.478-21.156-16.34-22.994-10.861-1.837-21.155 5.478-22.993 16.34-1.837 10.861 5.478 21.156 16.34 22.993 10.86 1.837 21.155-5.478 22.993-16.34Z" fill="#827486"/><path d="M64.906 35.391c2.66-11.906-4.837-23.714-16.743-26.373C36.257 6.358 24.45 13.854 21.79 25.76s4.836 23.714 16.742 26.374 23.714-4.837 26.374-16.743Z" fill="#fff"/><path d="M43.35 52.842c-12.278 0-22.267-9.99-22.267-22.268 0-12.279 9.99-22.268 22.268-22.268 12.279 0 22.268 9.99 22.268 22.268s-9.99 22.268-22.268 22.268Zm0-44.18c-12.082 0-21.912 9.83-21.912 21.912 0 12.083 9.83 21.913 21.913 21.913s21.913-9.83 21.913-21.913S55.434 8.661 43.35 8.661Z" fill="#272525"/><path d="M62.818 34.93c2.403-10.75-4.363-21.414-15.113-23.818-10.75-2.403-21.414 4.363-23.817 15.113C21.484 36.975 28.25 47.638 39 50.042S60.414 45.68 62.818 34.93Z" fill="#7F3A13"/><path d="M45.289 41.614c-.88 0-1.69-.503-2.189-1.408a3.846 3.846 0 0 1-.282-3.044c.169-.514.404-1.006.632-1.482.208-.435.423-.885.583-1.344.388-1.112.333-2.146-.15-2.835-.68-.973-2.015-1.118-2.75-1.119h-.002c-1.515 0-3.003.468-4.442.92-.673.212-1.368.43-2.061.6-1.309.321-4.554.848-6.44-1.195-.907-.982-1.368-2.48-1.332-4.333.071-3.667 1.886-7.432 4.855-10.072 2.698-2.4 6.39-3.97 10.395-4.421 2.871-.324 5.317.01 7.27.99a.133.133 0 1 1-.12.238c-1.906-.958-4.301-1.283-7.12-.964-3.951.445-7.59 1.992-10.248 4.355-2.914 2.592-4.696 6.285-4.766 9.878-.024 1.243.175 2.972 1.262 4.148 1.79 1.938 4.919 1.427 6.18 1.118.686-.168 1.377-.386 2.045-.596 1.459-.458 2.967-.932 4.523-.932h.002c.786 0 2.218.16 2.968 1.232.532.76.6 1.88.183 3.075-.164.473-.383.93-.594 1.371-.225.469-.457.953-.62 1.45a3.578 3.578 0 0 0 .263 2.833c.581 1.054 1.628 1.505 2.666 1.148a.133.133 0 0 1 .087.252 2.443 2.443 0 0 1-.798.137Zm9.238-.497c-.237 0-.471-.022-.7-.067-1.405-.28-2.51-1.52-2.515-2.824 0-.074.076-.133.133-.134.074 0 .133.06.133.133.005 1.182 1.016 2.309 2.301 2.564 1.147.228 2.456-.173 3.503-1.073.835-.718 1.522-1.72 2.16-3.155 2.47-5.556 1.932-12.444-1.37-17.55a.133.133 0 1 1 .223-.145c3.35 5.18 3.895 12.167 1.39 17.803-.655 1.471-1.363 2.504-2.23 3.248-.901.775-1.993 1.2-3.028 1.2Zm-26.545-2.219c-.452 0-.818-.403-.996-.643-1.086-1.464-1.328-3.43-1.523-5.008-.053-.432-.113-.923.029-1.383.134-.436.528-.906 1.074-.91.41 0 .794.254 1.179.776a7.312 7.312 0 0 1 1.166 6.175c-.148.554-.386.87-.728.965a.727.727 0 0 1-.201.028Zm-1.411-7.677c-.397.002-.715.364-.825.721-.125.406-.069.866-.018 1.272.2 1.628.428 3.474 1.471 4.882.135.18.532.625.912.517.244-.068.422-.322.543-.777.536-2.001.106-4.28-1.123-5.948-.331-.449-.645-.667-.96-.667Z" fill="#391701"/><path d="M32.965 35.287a1.36 1.36 0 0 1-.648-.168.133.133 0 0 1-.069-.106c-.022-.3.007-.728.277-1.057.261-.32.752-.44 1.08-.25a.73.73 0 0 1 .347.571.898.898 0 0 1-.273.752 1.056 1.056 0 0 1-.714.258Zm-.455-.368c.142.066.3.102.455.102a.79.79 0 0 0 .536-.19.636.636 0 0 0 .187-.526.47.47 0 0 0-.217-.369c-.216-.125-.56-.032-.74.188-.194.236-.23.55-.221.795Z" fill="#391701"/><path d="M29.71 26.051c-.343 1.24-.495 2.722.37 3.673.567.622 1.457.86 2.299.842.84-.018 1.659-.258 2.477-.452a22.611 22.611 0 0 1 7.162-.514c.665.059 1.414.122 1.92-.314.636-.549.491-1.64-.084-2.253-.576-.612-1.432-.86-2.25-1.05-.819-.19-1.677-.366-2.337-.886-.906-.714-1.242-1.91-1.614-3.002-.372-1.092-.94-2.264-2.023-2.662-.835-.307-1.8-.056-2.522.464-.722.52-1.24 1.273-1.683 2.045a17.747 17.747 0 0 0-1.715 4.11Zm12.205-2.508c-.25.64.32 1.283.838 1.736l2.589 2.264c.836-.628 1.069-1.877.646-2.834-.423-.957-1.399-1.603-2.429-1.785-.626-.11-1.414.026-1.644.619ZM55.242 38.15c-.442-.077-.8-.392-1.131-.695-1.264-1.15-2.615-2.468-2.758-4.171.925.042 1.818.332 2.71.584.892.252 1.817.468 2.737.358.92-.11 1.843-.608 2.23-1.45.109 1.887-.805 3.802-2.339 4.905-.424.305-.935.558-1.449.469Zm-15.573 6.927c.164-.157.314-.349.337-.574.022-.226-.134-.48-.36-.488-.207-.008-.367.173-.491.339-.107.142-.214.293-.246.468-.031.175.038.382.201.452.193.082.407-.053.559-.197Zm7.91-.703c-.23.102-.467.21-.63.402-.161.192-.223.494-.07.694.206.271.689.163.848-.138.159-.302.056-.685-.148-.958Zm-4.772 2.847c-.298.544-.054 1.315.503 1.588.16-.767-.124-.901-.503-1.588Zm12.414-21.175c-.48.033-.89.49-.873.97a.678.678 0 0 0 .895-.073.678.678 0 0 0-.022-.897Zm2.537 15.987c.468-.314.6-1.03.277-1.492-.283.34-.496.74-.62 1.164-.04.137-.052.323.077.384.086.04.188-.003.266-.056ZM38.765 15.618a.77.77 0 0 0 1.002-.323.77.77 0 0 0-.333-.998 1.864 1.864 0 0 0-.669 1.32Zm2.282-.037c-.128.152-.26.313-.303.507-.042.194.039.431.227.495.233.08.48-.168.473-.414-.006-.246-.19-.455-.397-.588Zm-15.5 12.843c.5-.156.71-.877.37-1.276l-.37 1.276Zm.927 4.726c.056.013.116.01.172-.008.182-.061.272-.28.25-.472-.021-.191-.127-.361-.23-.524l-.211-.043c-.12.17-.242.35-.268.556-.025.206.084.445.287.491Zm.945 2.897c.23.054.434-.167.534-.382a1.84 1.84 0 0 0-.188-1.832c-.353.44-.578.983-.639 1.544-.029.266.033.609.293.67Zm9.984-1.891c-.361.163-.615.54-.631.936.351.054.736.101 1.039-.085.302-.187.393-.712.078-.874-.15-.077-.333-.046-.486.023Zm-3.643 4.061c-.34.152-.322.724.004.906.327.183.779-.022.925-.366.146-.344.026-.761-.225-1.038l-.703.498Zm25.011-6.78c.16.098.38.011.49-.14.11-.15.139-.344.16-.529a19.656 19.656 0 0 0-1.368-9.822c-.34-.815-.937-1.734-1.818-1.678A24.38 24.38 0 0 1 58.6 30.882c-.01.204-.001.449.172.555Zm-4.34-14.348a.898.898 0 0 0 .952.315c.462-.139.74-.71.563-1.158-.176-.449-.767-.678-1.2-.465-.459.225-.62.897-.315 1.308Z" fill="#BB672E"/><path d="M69.278 20.2c.088-2.516 2.068-4.84 4.537-5.327 2.47-.487 5.184.913 6.22 3.207.858 1.901.594 4.136-.094 6.106L69.278 20.2Z" fill="#BE7CB3"/><path d="M79.519 23.752a179.297 179.297 0 0 0-9.881-3.893c.43-1.25 1.158-2.429 2.23-3.202 1.07-.774 2.513-1.09 3.754-.634 1.414.52 2.332 1.915 2.817 3.341.485 1.427.636 2.948 1.08 4.388Z" fill="#F7F1ED"/><path d="M79.876 24.27h-.01a.089.089 0 0 1-.078-.098c.164-1.532.095-2.854-.213-4.042-.366-1.41-1.07-2.597-2.034-3.429-1.064-.917-2.456-1.36-3.724-1.181-.984.138-1.952.647-2.726 1.433-.688.698-1.227 1.602-1.602 2.685a.089.089 0 1 1-.168-.058c.384-1.108.937-2.034 1.644-2.752.8-.813 1.805-1.34 2.827-1.483 1.317-.185 2.762.271 3.864 1.222.993.856 1.716 2.073 2.09 3.519.314 1.209.385 2.552.218 4.106a.088.088 0 0 1-.088.078Z" fill="#A54499"/><path d="M77.826 23.444a.09.09 0 0 1-.088-.08l-.026-.273v-.022c-.137-1.557-.35-3.415-1.358-4.806-.319-.439-.854-1.006-1.594-1.22-.87-.25-1.923.051-2.747.787-.773.69-1.28 1.651-1.695 2.498a.089.089 0 0 1-.159-.078c.422-.862.94-1.841 1.736-2.552.869-.776 1.986-1.093 2.914-.824.789.226 1.353.824 1.688 1.286 1.103 1.52 1.277 3.553 1.417 5.188a.089.089 0 0 1-.08.097l-.008-.001Z" fill="#A54499"/><path d="M76.86 22.853a.089.089 0 0 1-.088-.083 7.856 7.856 0 0 0-.797-2.912c-.377-.758-.809-1.226-1.319-1.431-.61-.246-1.39-.11-2.033.355-.616.445-1.044 1.108-1.38 1.699a.089.089 0 1 1-.154-.088c.346-.607.787-1.29 1.43-1.755.692-.5 1.536-.645 2.203-.376.552.222 1.014.719 1.412 1.517.459.921.74 1.951.815 2.979a.09.09 0 0 1-.082.095h-.007Z" fill="#A54499"/><path d="M75.742 22.512a.089.089 0 0 1-.083-.056l-.352-.886c-.149-.374-.302-.76-.556-1.072-.268-.33-.629-.526-.969-.526h-.018c-.54.01-.96.46-1.334.942a.089.089 0 1 1-.14-.109c.401-.517.857-.998 1.471-1.01.394-.009.822.213 1.129.591.27.334.429.733.582 1.118l.353.887a.09.09 0 0 1-.083.122Z" fill="#A54499"/><path d="M83.442 38.066c-.239-2.34.86-4.768 2.774-6.134 1.913-1.365 4.568-1.614 6.702-.628 2.134.986 3.665 3.168 3.866 5.511l-13.342 1.25Z" fill="#BE7CB3"/><path d="M95.679 36.816c-4.014.02-8.027.332-11.996.931.223-1.7 1.032-3.41 2.498-4.297 1.56-.945 3.598-.793 5.252-.026 1.654.766 3.09 1.672 4.246 3.392Z" fill="#F7F1ED"/><path d="M96.512 36.87a.089.089 0 0 1-.07-.035c-1.026-1.31-1.971-2.473-3.147-3.414-.942-.755-2.436-1.662-4.204-1.703a5.364 5.364 0 0 0-3.735 1.407 5.38 5.38 0 0 0-1.713 3.606.089.089 0 1 1-.177-.011 5.563 5.563 0 0 1 1.77-3.726 5.593 5.593 0 0 1 3.86-1.454c1.816.042 3.346.97 4.31 1.741 1.19.954 2.143 2.124 3.176 3.444a.089.089 0 0 1-.015.125.089.089 0 0 1-.055.02Z" fill="#A54499"/><path d="M84.94 37.96a.089.089 0 0 1-.086-.069c-.29-1.313.46-2.831 1.744-3.53 1.16-.632 2.673-.65 4.048-.048 1.145.5 2.193 1.402 3.115 2.679.03.04.02.095-.02.123a.09.09 0 0 1-.123-.02c-.905-1.25-1.928-2.131-3.044-2.62-1.325-.58-2.78-.564-3.892.041-1.217.663-1.93 2.098-1.655 3.337a.089.089 0 0 1-.086.108Z" fill="#A54499"/><path d="m86.024 37.71-.006-.001a.089.089 0 0 1-.082-.095c.06-.846.634-1.646 1.464-2.038.744-.352 1.67-.379 2.539-.074.687.24 1.336.672 1.932 1.286.028 0 .056.014.073.04l.097.145a.089.089 0 0 1-.14.109c-.62-.685-1.3-1.16-2.022-1.413-.825-.29-1.701-.265-2.404.067-.772.365-1.307 1.107-1.363 1.89a.088.088 0 0 1-.088.083Z" fill="#A54499"/><path d="m87.42 37.627-.018-.001a.088.088 0 0 1-.07-.104c.141-.74.906-1.15 1.555-1.159h.028c.58 0 1.18.239 1.833.73a.09.09 0 0 1 .017.125.088.088 0 0 1-.124.017c-.62-.467-1.185-.694-1.726-.694h-.026c-.586.008-1.263.39-1.382 1.014a.089.089 0 0 1-.088.072Zm7.402-3.444a.09.09 0 0 1-.061-.025l-1.445-1.38a.09.09 0 0 1-.003-.126.089.089 0 0 1 .126-.003l1.444 1.38a.089.089 0 0 1-.06.154Zm.228-.453a.088.088 0 0 1-.062-.024l-.652-.625a.089.089 0 1 1 .123-.128l.652.624a.09.09 0 0 1-.062.154Z" fill="#A54499"/><path d="M94.292 31.632c-1.705-1.029-2.791-3.009-2.742-5 .05-1.99 1.232-3.915 2.986-4.858 1.754-.943 4.011-.87 5.7.187l-5.944 9.671Z" fill="#BE7CB3"/><path d="M99.674 22.71a70.486 70.486 0 0 0-5.475 8.597c-1.037-1.016-1.783-2.434-1.639-3.88.154-1.536 1.295-2.838 2.656-3.569 1.36-.73 2.704-1.24 4.458-1.148Z" fill="#F7F1ED"/><path d="M93.442 30.963a.09.09 0 0 1-.058-.02 4.725 4.725 0 0 1-1.627-3.104 4.725 4.725 0 0 1 .983-3.364c.955-1.212 2.366-1.777 3.38-2.037 1.253-.321 2.531-.37 3.952-.398a.09.09 0 0 1 .09.087.088.088 0 0 1-.087.09c-1.409.028-2.676.076-3.91.393-.989.253-2.36.802-3.286 1.975a4.543 4.543 0 0 0-.945 3.236 4.544 4.544 0 0 0 1.565 2.985.089.089 0 0 1-.057.157Z" fill="#A54499"/><path d="M94.924 30.607a.086.086 0 0 1-.037-.008c-1.043-.474-1.693-1.76-1.512-2.992.163-1.11.924-2.148 2.035-2.775.924-.522 2.074-.774 3.407-.748.049 0 .088.041.087.09-.001.05-.033.088-.09.087a9.466 9.466 0 0 0-.177-.002c-1.229 0-2.284.245-3.14.728-1.063.6-1.791 1.59-1.946 2.646-.17 1.156.436 2.362 1.41 2.805a.088.088 0 0 1-.037.17Z" fill="#A54499"/><path d="M95.304 29.745a.089.089 0 0 1-.058-.021c-.546-.474-.797-1.276-.64-2.042.141-.687.597-1.33 1.248-1.766.513-.343 1.136-.563 1.855-.655a.086.086 0 0 1 .073-.03l.147.007a.09.09 0 0 1 .004.178c-.777.07-1.443.288-1.98.648-.614.41-1.04 1.013-1.173 1.654-.145.704.084 1.439.582 1.872a.088.088 0 0 1-.058.155Z" fill="#A54499"/><path d="M95.96 28.76a.087.087 0 0 1-.066-.03c-.435-.477-.322-1.211.005-1.659.297-.406.771-.698 1.45-.894a.088.088 0 0 1 .11.06.089.089 0 0 1-.061.11c-.64.185-1.083.456-1.355.829-.29.396-.376 1.041-.018 1.435a.089.089 0 0 1-.066.148Zm-.235-6.491a.089.089 0 0 1-.015-.176l1.67-.276a.089.089 0 1 1 .03.175l-1.671.276a.101.101 0 0 1-.014 0Zm.725-.536a.089.089 0 0 1-.015-.177l.755-.123a.086.086 0 0 1 .102.073.09.09 0 0 1-.073.102l-.755.124a.088.088 0 0 1-.014 0Z" fill="#A54499"/><path d="M72.712 35.59c1.36 1.9 3.745 3.018 6.076 2.848 2.33-.17 4.528-1.62 5.599-3.698.349-.677.578-1.51.224-2.185-.313-.597-.993-.897-1.642-1.081-3.039-.865-6.321-.124-9.228 1.116-.64.272-1.338.647-1.519 1.318-.157.584.139 1.19.49 1.682Z" fill="#BE7CB3"/><path d="M82.345 31.756a13.915 13.915 0 0 0-8.069 1.011c-.667.301-1.401.798-1.393 1.53.008.675.654 1.156 1.272 1.428 1.9.836 4.103.75 6.104.195 1.187-.33 2.375-.85 3.166-1.795.343-.41.609-.97.421-1.47-.214-.573-.898-.793-1.5-.9Z" fill="#F7F1ED"/><path d="M76.815 35.527c-.649 0-1.293-.058-1.916-.175-.302-.056-.618-.13-.887-.297-.31-.192-.509-.489-.533-.794-.043-.547.436-.962.845-1.214 1.386-.853 3.033-1.13 4.46-1.29.641-.07 1.13-.102 1.584-.102.79 0 1.465.101 2.063.31.278.097.665.268.814.63.12.291.047.668-.187.96-.209.263-.506.435-.77.575a11.64 11.64 0 0 1-5.473 1.397Zm3.553-3.695c-.448 0-.93.031-1.564.101-1.408.157-3.03.43-4.387 1.265-.368.226-.797.59-.762 1.049.02.248.188.494.45.656.23.143.497.213.826.275a10.31 10.31 0 0 0 1.883.171c1.849 0 3.712-.475 5.39-1.375.248-.133.527-.294.716-.53.194-.243.257-.55.16-.782-.092-.226-.317-.394-.707-.53-.58-.202-1.236-.3-2.005-.3Z" fill="#A54499"/><path d="M75.738 34.72c-.15 0-.28-.016-.396-.049-.305-.084-.54-.305-.595-.563-.09-.407.235-.814.868-1.088a12.093 12.093 0 0 1 4.714-.994c.319 0 .61.016.89.05.258.032.863.157.935.637.05.336-.212.66-.719.889-1.675.756-3.519.927-5.301 1.093-.122.011-.26.024-.396.024Zm4.591-2.517a11.93 11.93 0 0 0-4.644.98c-.205.089-.868.415-.765.887.043.194.227.363.469.43a1.3 1.3 0 0 0 .349.041c.127 0 .261-.012.38-.023 1.767-.164 3.596-.335 5.244-1.078.203-.092.67-.344.616-.701-.055-.37-.611-.466-.78-.486a7.18 7.18 0 0 0-.869-.05Z" fill="#A54499"/><path d="M77.746 33.73c-.158 0-.318-.007-.475-.019-.259-.02-.422-.138-.428-.306-.005-.14.096-.254.299-.337a5.51 5.51 0 0 1 2.388-.4.793.793 0 0 1 .328.072c.13.067.21.197.2.324-.011.157-.138.276-.377.355a6.16 6.16 0 0 1-1.935.31Zm1.474-.893c-.685 0-1.38.137-2.011.395-.072.03-.191.09-.189.167.003.09.167.127.264.135a6.017 6.017 0 0 0 2.341-.283c.113-.037.25-.102.256-.2.005-.065-.051-.125-.106-.154a.634.634 0 0 0-.256-.052c-.1-.006-.2-.008-.3-.008Zm-1.642 4.446c-1.585 0-3.174-.47-4.47-1.379a.088.088 0 0 1-.022-.123.088.088 0 0 1 .124-.022c2.085 1.462 4.947 1.761 7.29.762a.089.089 0 0 1 .07.163 7.639 7.639 0 0 1-2.992.599Zm.016.6c-.445 0-.889-.056-1.317-.17a.09.09 0 0 1-.064-.109.089.089 0 0 1 .11-.063 4.98 4.98 0 0 0 2.206.076.09.09 0 0 1 .104.07.089.089 0 0 1-.07.104 5.1 5.1 0 0 1-.97.092Z" fill="#A54499"/><path d="M75.54 22.986c-2.023-.479-4.274.164-5.738 1.64-1.463 1.475-2.089 3.732-1.593 5.75.161.657.494 1.35 1.126 1.596.559.217 1.19.02 1.732-.234 2.543-1.196 4.31-3.61 5.535-6.139.27-.556.519-1.216.248-1.772-.235-.483-.788-.717-1.31-.84Z" fill="#BE7CB3"/><path d="M71.321 31.184a12.375 12.375 0 0 0 4.819-5.392c.272-.59.473-1.354.04-1.84-.399-.447-1.113-.392-1.686-.213-1.763.55-3.19 1.893-4.207 3.434-.603.915-1.096 1.958-1.074 3.054.01.475.159 1.005.576 1.231.479.26 1.066.007 1.532-.274Z" fill="#F7F1ED"/><path d="M70.573 31.234a.772.772 0 0 1-.35-.078c-.253-.126-.426-.425-.44-.761-.014-.3.086-.59.18-.84.829-2.19 2.336-4.016 4.245-5.14.273-.161.509-.277.772-.32.316-.052.634.032.829.223.352.345.273.907.145 1.318-.431 1.384-1.374 2.533-2.24 3.474-.728.793-1.543 1.582-2.57 1.993a1.55 1.55 0 0 1-.571.13Zm4.594-6.977a.993.993 0 0 0-.159.013c-.236.038-.455.147-.71.297-1.874 1.105-3.355 2.899-4.17 5.051-.088.232-.18.503-.168.77.011.272.146.511.342.61.19.094.439.076.776-.06.993-.397 1.791-1.171 2.506-1.949.851-.926 1.78-2.056 2.2-3.406.113-.363.188-.856-.1-1.138a.729.729 0 0 0-.517-.188Z" fill="#A54499"/><path d="M71.237 30.562a.527.527 0 0 1-.353-.124c-.32-.272-.163-.76-.04-1.027.682-1.487 1.818-2.68 2.917-3.833.153-.16.326-.342.548-.449.25-.12.547-.11.738.03.302.225.323.692.056 1.25a10.763 10.763 0 0 1-2.223 3.093 7.352 7.352 0 0 1-.986.818c-.135.09-.398.242-.657.242Zm3.437-5.34a.677.677 0 0 0-.288.067c-.193.093-.347.255-.496.412-1.09 1.142-2.215 2.324-2.885 3.784-.082.178-.246.614-.006.818a.35.35 0 0 0 .238.082c.212 0 .44-.133.557-.212.311-.211.626-.472.963-.799a10.586 10.586 0 0 0 2.186-3.042c.085-.178.336-.778-.002-1.03a.442.442 0 0 0-.267-.08Z" fill="#A54499"/><path d="M72.33 29.091a.303.303 0 0 1-.248-.114c-.086-.115-.072-.273.045-.47a5.535 5.535 0 0 1 1.448-1.606.547.547 0 0 1 .3-.119c.07 0 .133.027.178.076.06.065.11.19-.002.412a4.907 4.907 0 0 1-1.37 1.666.72.72 0 0 1-.265.146.408.408 0 0 1-.086.01Zm1.544-2.131a.374.374 0 0 0-.193.083 5.356 5.356 0 0 0-1.401 1.555c-.052.088-.104.207-.056.273.027.036.092.051.15.037a.561.561 0 0 0 .199-.113 4.724 4.724 0 0 0 1.32-1.606c.024-.047.075-.163.03-.21-.007-.01-.02-.02-.049-.02Zm-4.17.005a.089.089 0 0 1-.08-.127c1.012-2.09 3.157-3.597 5.466-3.842a.089.089 0 0 1 .019.177c-2.25.238-4.34 1.707-5.325 3.742a.089.089 0 0 1-.08.05Z" fill="#A54499"/><path d="M70.394 25.065a.088.088 0 0 1-.07-.144 4.595 4.595 0 0 1 1.581-1.285.089.089 0 0 1 .078.16 4.42 4.42 0 0 0-1.52 1.235.087.087 0 0 1-.07.034Z" fill="#A54499"/><path d="M83.869 23.03c2.09.047 4.19-.313 6.146-1.055 1.375-.521 2.762-1.315 3.394-2.643.318-.668.406-1.494.034-2.134-.417-.718-1.283-1.028-2.094-1.203a12.684 12.684 0 0 0-9.014 1.457c-.654.385-1.285.842-1.724 1.462-.44.619-.666 1.424-.454 2.153.21.72.82 1.276 1.508 1.574.69.298 1.453.37 2.204.388Z" fill="#BE7CB3"/><path d="M91.47 16.48a12.015 12.015 0 0 0-8.931 1.136c-.581.33-1.15.722-1.516 1.28-.368.557-.498 1.312-.178 1.898.45.823 1.539 1.01 2.477 1.016a15.544 15.544 0 0 0 5.984-1.156c1.28-.525 2.585-1.333 3.032-2.641.123-.362.163-.793-.066-1.099-.186-.248-.503-.354-.802-.434Z" fill="#F7F1ED"/><path d="M82.89 21.497a3.04 3.04 0 0 1-.85-.102c-.465-.133-.827-.418-.995-.783-.19-.415-.13-.955.16-1.41.275-.432.705-.737 1.048-.955 1.282-.812 2.859-1.328 4.56-1.494.422-.041.861-.062 1.304-.062 1.1 0 2.244.123 3.496.376a.09.09 0 0 1 .071.082c.031.634-.342 1.274-1.11 1.904-1.796 1.472-4.247 2.291-7.285 2.434a9.99 9.99 0 0 1-.399.01Zm5.227-4.63c-.437 0-.87.021-1.287.062-1.674.163-3.224.67-4.482 1.468-.328.208-.737.498-.994.9-.257.405-.314.88-.148 1.24.146.319.467.57.882.688.226.065.481.095.802.095.13 0 .26-.004.39-.01 3-.142 5.415-.948 7.182-2.395.692-.568 1.044-1.136 1.046-1.689-1.213-.241-2.323-.358-3.391-.358Z" fill="#A54499"/><path d="M83.65 20.438c-.378 0-.754-.023-1.117-.068-.493-.061-.79-.235-.885-.518-.098-.297.053-.627.438-.957 1.604-1.372 3.965-2.001 7.006-1.861.747.034 1.205.272 1.327.689.083.285-.026.633-.28.884-.213.212-.49.34-.78.463-2.188.933-4.002 1.368-5.708 1.368Zm4.627-3.246c-2.606 0-4.65.618-6.076 1.838-.226.194-.477.484-.384.765.07.212.319.346.737.399a8.97 8.97 0 0 0 1.097.066c1.68 0 3.473-.43 5.64-1.354.282-.12.532-.236.724-.425.207-.206.3-.485.234-.71-.124-.425-.702-.54-1.164-.56a19 19 0 0 0-.808-.019Z" fill="#A54499"/><path d="M84.006 19.537c-.13 0-.259-.002-.389-.007-.163-.006-.362-.033-.46-.192a.32.32 0 0 1-.036-.247c.055-.217.297-.374.37-.416a8.708 8.708 0 0 1 4.605-1.19c.43.01.696.15.768.4.1.345-.24.628-.59.778a10.927 10.927 0 0 1-4.268.874Zm3.878-1.877a8.505 8.505 0 0 0-4.303 1.168c-.15.088-.263.208-.287.306a.136.136 0 0 0 .016.111c.053.087.195.103.314.108 1.563.056 3.15-.24 4.58-.854.097-.041.576-.263.49-.564-.066-.226-.406-.268-.602-.273a8.018 8.018 0 0 0-.208-.002Zm-1.489 4.618a.089.089 0 0 1-.022-.174c1.428-.377 2.904-.765 4.186-1.547 1.419-.865 2.35-2.12 2.555-3.444a.089.089 0 0 1 .175.027c-.213 1.375-1.174 2.676-2.638 3.569-1.304.795-2.793 1.187-4.233 1.567a.081.081 0 0 1-.023.002Zm-2.483.29c-.4 0-.802-.02-1.2-.08-.677-.102-1.633-.37-2.348-1.073a.089.089 0 1 1 .124-.127c.681.67 1.6.926 2.25 1.023.841.127 1.708.074 2.547.024.046-.008.09.034.094.083a.089.089 0 0 1-.084.094c-.455.028-.919.056-1.383.056Z" fill="#A54499"/><path d="M77.2 28.644c.77 1.431 1.96 2.582 3.483 3.368 1.07.552 2.423.922 4.023.413.806-.257 1.682-.778 2.188-1.476.567-.782.545-1.578.405-2.243-.526-2.495-2.355-4.318-5.019-5-.649-.167-1.362-.268-2.165-.127-.802.14-1.712.555-2.372 1.208-.652.646-.978 1.443-1.012 2.112-.033.67.192 1.231.469 1.745Z" fill="#BE7CB3"/><path d="M86.852 29.127c-.353-2.546-2.064-4.445-4.66-5.17-.563-.158-1.186-.261-1.897-.116-.713.146-1.532.588-2.004 1.213-.662.878-.424 1.737-.063 2.368.786 1.377 1.992 2.467 3.524 3.188 1.036.487 2.37.792 3.879.172.417-.171.871-.447 1.093-.815.18-.297.163-.583.128-.84Z" fill="#F7F1ED"/><path d="M84.29 30.35c-.127 0-.25-.005-.368-.014-2.214-.168-4.018-1.236-5.362-3.176-.182-.262-.363-.55-.405-.918-.047-.406.1-.847.401-1.21.338-.406.897-.734 1.46-.856.427-.094.836-.087 1.383.03 1.338.29 2.49.985 3.331 2.013.73.89 1.243 2.016 1.572 3.445a.09.09 0 0 1-.034.091c-.538.395-1.204.596-1.978.596Zm-3.684-6.06c-.19 0-.37.019-.552.059-.526.114-1.048.42-1.361.797-.271.325-.403.718-.362 1.076.038.328.206.593.374.837 1.313 1.893 3.072 2.936 5.23 3.1.114.009.233.014.355.014.712 0 1.326-.178 1.825-.528-.322-1.374-.82-2.459-1.522-3.314-.816-.997-1.934-1.672-3.232-1.951a3.553 3.553 0 0 0-.755-.09Z" fill="#A54499"/><path d="M84.179 29.734c-.29 0-.525-.094-.76-.198-2.21-.988-3.489-2.155-4.024-3.676-.133-.378-.077-.699.168-.954.287-.297.697-.36.99-.36.04 0 .08.002.118.004 2.041.109 3.613 1.252 4.672 3.398.261.532.204 1.006-.166 1.373a1.479 1.479 0 0 1-.973.413h-.025Zm-3.625-5.01c-.26 0-.62.053-.863.305-.197.205-.24.458-.129.772.518 1.471 1.767 2.606 3.929 3.573.225.1.431.183.687.183h.023a1.31 1.31 0 0 0 .851-.361c.315-.313.36-.706.131-1.17-1.028-2.083-2.55-3.193-4.522-3.299a1.75 1.75 0 0 0-.107-.003Z" fill="#A54499"/><path d="M83.843 28.62c-.142 0-.297-.034-.435-.096-1.218-.54-2.162-1.413-2.73-2.523-.037-.07-.132-.257.007-.455.11-.155.3-.24.535-.24a.91.91 0 0 1 .229.028c1.372.355 2.453 1.159 3.043 2.263.16.3.128.583-.09.8a.778.778 0 0 1-.56.222Zm-2.623-3.137c-.102 0-.288.022-.39.165-.064.092-.044.175.006.273.55 1.073 1.463 1.917 2.644 2.441.116.052.245.08.363.08a.596.596 0 0 0 .434-.172c.162-.16.182-.359.059-.59-.575-1.075-1.59-1.827-2.932-2.174a.742.742 0 0 0-.184-.023Zm2.366 6.219c-.452 0-.897-.05-1.325-.152-1.327-.315-2.314-1.036-3.268-1.735a.088.088 0 0 1-.02-.123.09.09 0 0 1 .125-.02c.94.688 1.912 1.4 3.204 1.706 1.439.34 3.089.08 4.527-.717a.089.089 0 0 1 .086.155 6.93 6.93 0 0 1-3.329.886Zm-5.213-2.445a.089.089 0 0 1-.072-.037c-.386-.533-.786-1.084-.993-1.755-.164-.528-.267-1.362.17-2.335a.088.088 0 0 1 .117-.045.09.09 0 0 1 .045.118c-.414.922-.317 1.71-.163 2.209.2.644.59 1.183.968 1.704a.089.089 0 0 1-.072.141Z" fill="#A54499"/><path d="m108.865 39.83-19.627 90.08 1.198.261 19.628-90.081-1.199-.261Z" fill="#EED2BF"/><path d="M108.868 39.834 89.24 129.915l.568.124 19.628-90.082-.568-.123Z" fill="#C99979"/><path d="m90.582 130.405-1.577-.343 19.711-90.458 1.577.344-19.71 90.457Zm-1.116-.64.82.179 19.546-89.7-.82-.179-19.546 89.7Z" fill="#272525"/><path d="M111.291 40.654c.172-1.148.998-2.25.669-3.363-.368-1.247-2.031-1.659-3.262-1.237-2.207.756-3.334 3.196-3.859 5.47-.525 2.272-.735 4.722-2.09 6.621l3.87 3.136c.402.326.839.666 1.356.702.677.048 1.27-.439 1.719-.948 1.735-1.965 2.5-4.748 2.013-7.324-.192-1.017-.568-2.034-.416-3.057Z" fill="#ED9636"/><path d="M108.068 52.164a1.27 1.27 0 0 1-.105-.004c-.591-.041-1.071-.43-1.456-.741l-4-3.24.097-.137c1.038-1.454 1.399-3.282 1.747-5.05.098-.496.199-1.01.315-1.509.484-2.098 1.567-4.772 3.974-5.597.324-.111.686-.17 1.047-.17 1.211 0 2.17.599 2.443 1.525.224.76-.046 1.505-.309 2.226-.144.398-.294.81-.355 1.213-.108.726.062 1.444.24 2.204.063.265.125.53.175.794.495 2.615-.292 5.48-2.054 7.475-.6.68-1.175 1.011-1.759 1.011Zm-5.078-4.053 3.741 3.032c.425.345.814.632 1.257.664.503.033 1.015-.255 1.574-.888 1.69-1.915 2.446-4.664 1.971-7.175-.049-.259-.11-.518-.171-.778-.179-.76-.364-1.545-.245-2.338.065-.438.221-.867.372-1.281.254-.698.493-1.356.302-2.005-.277-.937-1.306-1.27-2.103-1.27-.322 0-.644.052-.931.15-2.254.773-3.28 3.331-3.744 5.342a45.92 45.92 0 0 0-.312 1.498c-.346 1.75-.703 3.559-1.711 5.05Z" fill="#272525"/><path d="M108.281 50.632c.858-.485 1.765-1.021 2.196-1.907.125-.256.204-.532.27-.81a10.08 10.08 0 0 0-.141-5.2 9.991 9.991 0 0 1-2.296 4.108c-.252.27-.531.535-.88.655-.35.12-.787.056-1.01-.24a21.299 21.299 0 0 1 2.377-2.822 1.297 1.297 0 0 1-.986-.667c-.978.619-1.967 1.247-2.76 2.09-.664.707-1.172 1.545-1.654 2.387a20.386 20.386 0 0 1 3.976 2.358c.12.091.247.187.397.206.181.023.353-.07.511-.158Z" fill="#BB672E"/><path d="M107.835 39.935c.242.39.835.365 1.241.15.713-.379 1.141-1.148 1.356-1.927.111-.404.176-.82.193-1.24-.164-.177-.432-.23-.669-.184-.237.046-.449.176-.642.32a4.308 4.308 0 0 0-1.468 1.977c-.106.294-.175.639-.011.904Zm1.435 1.101c-.079-.106-.243-.113-.361-.052-.117.061-.197.174-.272.283-.156.228-.309.472-.336.747-.026.275.115.586.38.663.244.07.51-.082.644-.298.133-.216.161-.48.168-.733.012-.506.261-.462-.223-.61Z" fill="#F9CAA0"/><path d="M106.478 49.768c-.544 0-1.104-.075-1.602-.328a.177.177 0 1 1 .16-.316c.661.336 1.445.318 2.192.25a17.69 17.69 0 0 0 2.776-.484.178.178 0 1 1 .089.344 18.21 18.21 0 0 1-2.833.493c-.25.023-.514.04-.782.04Zm1.628.878a3.28 3.28 0 0 1-1.306-.269.177.177 0 1 1 .142-.326 2.93 2.93 0 0 0 1.771.176c.095-.02.19.04.211.137a.177.177 0 0 1-.137.21 3.247 3.247 0 0 1-.681.072Z" fill="#272525"/><path d="M108.949 58.917c.076-.386-.059-.778-.111-1.168-.132-.99.273-1.972.318-2.97.062-1.406-.613-2.778-1.611-3.77-.998-.99-2.293-1.635-3.627-2.082-.823-.275-1.953-.364-2.339.413-.205.413-.092.904-.101 1.364-.023 1.167-.852 2.285-.57 3.417.057.228.159.45.149.685-.019.467-.449.789-.772 1.126a3.11 3.11 0 0 0-.69 3.06c.31.938 1.051 1.665 1.82 2.283 1.243 1 2.952 1.846 4.377 1.128.525-.264.932-.71 1.326-1.147l1.214-1.343c.265-.293.541-.607.617-.995Z" fill="#ED9636"/><path d="M104.636 62.849c-1.28 0-2.519-.78-3.332-1.435-.695-.56-1.536-1.333-1.878-2.365-.364-1.1-.07-2.402.731-3.24.06-.061.123-.123.187-.185.269-.264.524-.513.536-.825.006-.136-.038-.28-.085-.43-.02-.068-.041-.136-.058-.205-.175-.7.043-1.386.255-2.05.147-.464.3-.943.309-1.412.003-.124-.005-.25-.011-.375-.019-.357-.038-.725.131-1.066.23-.464.707-.709 1.38-.709.459 0 .892.113 1.174.207 1.58.529 2.789 1.224 3.696 2.124 1.118 1.11 1.724 2.533 1.663 3.903-.019.416-.098.828-.174 1.227-.113.592-.22 1.15-.145 1.713.014.106.035.214.055.32.057.292.115.595.054.906-.088.447-.405.798-.66 1.08l-1.213 1.343c-.384.424-.818.904-1.379 1.187a2.72 2.72 0 0 1-1.236.287ZM102.8 48.907c-.535 0-.893.172-1.061.512-.128.257-.112.564-.095.889.007.134.014.268.012.4-.01.521-.171 1.026-.327 1.514-.205.644-.399 1.254-.248 1.856.016.063.035.125.054.186.052.173.108.352.1.55-.019.453-.351.777-.643 1.063-.061.06-.121.119-.178.178a2.938 2.938 0 0 0-.651 2.882c.312.944 1.106 1.672 1.763 2.2.629.507 1.871 1.356 3.11 1.356.386 0 .748-.084 1.076-.248.501-.253.895-.687 1.275-1.108l1.213-1.343c.237-.262.506-.56.575-.91.048-.244-.002-.5-.054-.77a5.782 5.782 0 0 1-.059-.342c-.082-.62.036-1.233.149-1.826.074-.386.151-.786.168-1.175.057-1.27-.511-2.596-1.559-3.635-.867-.862-2.031-1.53-3.558-2.04a3.474 3.474 0 0 0-1.062-.189Z" fill="#272525"/><path d="M100.435 57.04c.062-.036-.081-.034-.09.037-.233 1.85.951 3.784 2.705 4.42.391-.41.382-1.135-.018-1.535a2.572 2.572 0 0 0 2.048 1.77 2.572 2.572 0 0 0 2.466-1.115c.398-.61.513-1.366.49-2.094l-1.415-.113c-.319-.025-.657-.058-.911-.25-.255-.193-.369-.607-.145-.835-.841-.325-1.719-.614-2.621-.594-.902.02-1.841.4-2.323 1.162-.061.097-.248-.95-.186-.852Z" fill="#BB672E"/><path d="M107.084 56.386c-.467-.177-1.036-.181-1.426.13-.39.313-.473.995-.078 1.301.185.144.43.183.664.193.385.016.796-.045 1.093-.29.296-.247.425-.722.196-1.032-.109-.147-.278-.237-.449-.302Z" fill="#BB672E"/><path d="M106.825 51.806c-.247-.502-.553-1.02-1.057-1.265-.463-.226-1.025-.183-1.483-.422-.39-.203-.81-.609-1.189-.386-.232.138-.287.456-.243.723.11.655.64 1.15 1.169 1.552.908.687 1.928 1.276 2.584 2.206.492.698.743 1.562.704 2.416.383-.29.576-.779.603-1.259.027-.479-.092-.954-.233-1.413a14.734 14.734 0 0 0-.855-2.152Zm-3.612.803a1.512 1.512 0 0 0-.153 1.562c.066.131.178.267.325.257.129-.01.221-.13.278-.246.245-.5.167-1.141-.189-1.569-.039-.046-.091-.094-.151-.086-.047.007-.082.045-.11.082Z" fill="#F9CAA0"/><path d="M104.767 82.688c-.279-.584-.592-1.196-1.143-1.535-.507-.312-1.134-.342-1.729-.333-1.821.03-3.636.35-5.358.942-.886.304-1.795.72-2.318 1.496-.383.567-.514 1.262-.629 1.936a88.504 88.504 0 0 0-.728 5.194c-.075.68-.093 1.486.446 1.908.324.253.763.288 1.174.312l6.378.377c.195.012.395.023.581-.037.29-.093.499-.34.687-.578a30.041 30.041 0 0 0 2.416-3.544c.577-.993 1.11-2.07 1.104-3.22-.005-1.024-.439-1.993-.881-2.918Z" fill="#ED9636"/><path d="M101.092 93.172c-.081 0-.162-.004-.243-.009l-6.378-.377c-.377-.023-.893-.053-1.273-.35-.605-.473-.592-1.353-.513-2.067.19-1.732.436-3.483.73-5.205.129-.755.267-1.427.656-2.004.573-.85 1.588-1.283 2.408-1.565 1.746-.6 3.568-.921 5.414-.951l.173-.001c.527 0 1.135.042 1.651.36.577.355.902.964 1.21 1.61.47.984.894 1.954.899 2.994.006 1.191-.539 2.294-1.129 3.309a30.295 30.295 0 0 1-2.43 3.565c-.209.264-.441.53-.772.637a1.336 1.336 0 0 1-.403.054Zm.974-12.175-.168.001c-1.808.03-3.593.343-5.304.932-.815.28-1.718.67-2.229 1.427-.349.519-.478 1.152-.6 1.867a88.569 88.569 0 0 0-.727 5.184c-.073.66-.085 1.385.379 1.748.27.212.647.25 1.075.275l6.378.378c.073.004.148.008.222.008a.98.98 0 0 0 .294-.037c.236-.076.42-.29.602-.52a29.985 29.985 0 0 0 2.402-3.523c.564-.971 1.086-2.022 1.08-3.129-.005-.967-.411-1.897-.864-2.843-.285-.596-.581-1.156-1.076-1.46-.439-.272-.987-.308-1.464-.308Z" fill="#272525"/><path d="M102.473 91.126c1.002-1.767 2.031-3.63 2.059-5.66-.44.058-.844-.216-1.264-.359-.42-.142-1.017-.06-1.118.37-.046.198.033.4.054.601.088.839-.784 1.427-1.547 1.786a39.367 39.367 0 0 1-6.525 2.39 1.9 1.9 0 0 1-.829.956c.074.256.073.534-.004.79a59.22 59.22 0 0 0 5.012-.597l-.263.839a4.962 4.962 0 0 0 4.068-1.325 2.298 2.298 0 0 0-1.158 1.706c.714-.163 1.154-.86 1.515-1.498Zm.116-7.183a2.38 2.38 0 0 1 2.191.662c-.329-.853-1.224-1.43-1.42-2.322-.045-.203-.055-.424-.175-.593-.214-.299-.653-.292-1.018-.25-2.034.238-4.05.638-6.02 1.193-.564.159-1.173.368-1.478.868a12.17 12.17 0 0 1 5.178.375c.607.18 1.23.41 1.854.308.303-.049.588-.175.888-.241Z" fill="#BB672E"/><path d="M100.451 85.873a26.176 26.176 0 0 0-3.044 1.914c-.192.14-.405.362-.308.578.54.1 1.096-.05 1.603-.263.955-.402 1.819-1.037 2.439-1.867.117-.159-.646-.17-.69-.362Z" fill="#BB672E"/><path d="M95.46 86.935c-.254.431-.644.776-.856 1.229.696.035 1.342-.34 1.921-.726a22.966 22.966 0 0 0 3.249-2.631c.065-.064.135-.138.134-.23 0-.1-.086-.178-.167-.237-1.074-.784-2.536-.684-3.854-.508a.674.674 0 0 0-.278.079c-.153.098-.203.305-.176.485.027.18.115.343.182.512.259.653.2 1.422-.156 2.027Zm-.559-1.685a3.574 3.574 0 0 0-1.064 2.15 4.04 4.04 0 0 0 1.064-2.15Z" fill="#F9CAA0"/><path d="M98.073 89.529a.177.177 0 0 1-.07-.34l5.949-2.58a.177.177 0 0 1 .141.326l-5.95 2.58a.177.177 0 0 1-.07.014Zm1.715 1.385a.177.177 0 0 1-.068-.341 4.65 4.65 0 0 1 1.347-.335.178.178 0 0 1 .033.354 4.29 4.29 0 0 0-1.244.309.175.175 0 0 1-.068.013Z" fill="#272525"/><path d="M95.723 79.319c.516.673 1.401.928 2.23 1.108 1.288.28 2.594.48 3.907.596.398.035.816.06 1.181-.104.418-.186.696-.585.934-.976a15.313 15.313 0 0 0 2.11-6.038c.213-1.691.142-3.415.456-5.09.207-1.1.58-2.195.483-3.31-.097-1.116-.86-2.29-1.977-2.364.519-.158.472-.997.026-1.307-.446-.309-1.041-.246-1.579-.17-1.686.238-3.588.608-4.496 2.05-.301.478-.458 1.031-.61 1.576L97.3 69.16c-.655 2.333-1.31 4.667-1.83 7.034-.23 1.056-.403 2.267.253 3.125Z" fill="#ED9636"/><path d="M102.33 81.226a5.55 5.55 0 0 1-.486-.026 31.48 31.48 0 0 1-3.929-.6c-.894-.194-1.795-.471-2.332-1.174-.685-.895-.542-2.1-.286-3.27.52-2.375 1.187-4.748 1.832-7.044l1.087-3.87c.154-.55.314-1.118.631-1.622.944-1.498 2.88-1.886 4.622-2.131a5.26 5.26 0 0 1 .726-.064c.402 0 .722.086.979.264.304.212.474.632.413 1.023a.816.816 0 0 1-.121.324c1.017.3 1.645 1.423 1.735 2.453.074.852-.117 1.692-.302 2.504-.065.285-.13.57-.184.854-.179.955-.233 1.948-.285 2.908-.038.713-.079 1.45-.169 2.172a15.558 15.558 0 0 1-2.136 6.109c-.257.423-.558.843-1.012 1.045-.22.1-.469.145-.783.145Zm1.865-19.446c-.229 0-.469.03-.676.06-1.663.234-3.509.6-4.371 1.969-.29.46-.443 1.004-.59 1.53l-1.087 3.87c-.644 2.29-1.31 4.66-1.827 7.024-.238 1.086-.377 2.198.22 2.978.492.642 1.356.875 2.127 1.043 1.276.278 2.583.478 3.884.592.151.013.304.025.455.025.262 0 .465-.036.639-.113.383-.171.642-.557.854-.906a15.205 15.205 0 0 0 2.086-5.969c.089-.71.129-1.44.167-2.147.052-.972.107-1.977.291-2.954.054-.29.12-.578.185-.868.179-.785.364-1.597.295-2.394-.09-1.028-.792-2.133-1.813-2.202l-.969-.066.929-.281c.167-.05.224-.2.242-.315.04-.253-.074-.543-.265-.676-.197-.136-.444-.2-.776-.2Z" fill="#272525"/><path d="M102.707 79.951a13.492 13.492 0 0 0 2.262-4.232c-1.137-.263-2.272.32-3.356.748-1.384.546-2.847.86-4.266 1.304-.403.127-.823.276-1.1.595-.277.319-.345.858-.034 1.143.165.15.395.2.614.245l4.172.848c.276.056.564.112.837.042.366-.095.637-.397.871-.693Z" fill="#BB672E"/><path d="M104.051 70.656c.355-.803.713-1.617.852-2.484s.036-1.807-.469-2.525a45.96 45.96 0 0 1-5.819 11.157 4.74 4.74 0 0 0 1.985-.147c.318-.094.635-.226.87-.459.229-.226.365-.527.495-.822l2.086-4.72Zm1.35.219a115.852 115.852 0 0 0-1.913 4.244c-.081.188-.159.415-.048.588.171.076.348-.087.459-.238a6.514 6.514 0 0 0 1.224-3.176c.021-.204.457-1.318.278-1.418Z" fill="#BB672E"/><path d="M98.582 68.245a23.84 23.84 0 0 0-1.513 6.69c.225.172.51-.115.647-.363l4.945-9.015a.814.814 0 0 0 .117-.31c.01-.139-.053-.27-.102-.4a2.178 2.178 0 0 1-.086-1.245c.058-.256.161-.53.056-.77-.184-.42-.796-.368-1.222-.198-.493.197-.96.458-1.385.774-.186.138-.37.295-.46.508-.102.24-.068.512-.058.773.046 1.235-.496 2.403-.94 3.556Zm5.965-3.056c.106-.232.198-.539.011-.712-.202-.187-.533-.028-.722.173a1.985 1.985 0 0 0-.532 1.27c.209.19.555.14.777-.035.222-.174.349-.44.466-.696Z" fill="#F9CAA0"/><path d="M102.451 80.947h-.006a5.38 5.38 0 0 1-4.123-2.212.178.178 0 0 1 .289-.206 5.018 5.018 0 0 0 3.845 2.063.177.177 0 0 1-.005.355Zm-.349-3.467a.177.177 0 0 1-.061-.344l3.613-1.334a.177.177 0 1 1 .123.333l-3.614 1.334a.177.177 0 0 1-.061.011Z" fill="#272525"/><path d="M103.144 94.805a35.314 35.314 0 0 0-5.31-2.872c-.412-.179-.855-.353-1.297-.279-.497.085-.885.464-1.224.836a19.905 19.905 0 0 0-3.081 4.5c-.123.246-.243.508-.224.782.036.546.582.895 1.07 1.145a51.77 51.77 0 0 0 6.42 2.76c.561.197 1.143.388 1.737.353.934-.055 1.767-.677 2.28-1.46.512-.784.747-1.715.906-2.638.224-1.299-1.231-1.81-1.277-3.127Z" fill="#ED9636"/><path d="M101.092 102.212c-.563 0-1.103-.174-1.653-.368a52.134 52.134 0 0 1-6.443-2.769c-.52-.267-1.123-.655-1.166-1.291-.02-.314.109-.604.243-.873a20.047 20.047 0 0 1 3.109-4.54c.347-.382.764-.796 1.325-.891.483-.082.96.1 1.397.29a35.576 35.576 0 0 1 5.338 2.887l.077.05.003.092c.019.564.322.964.643 1.389.375.497.764 1.01.632 1.775-.148.858-.375 1.85-.933 2.704-.595.91-1.499 1.486-2.418 1.54a2.669 2.669 0 0 1-.154.005Zm-4.339-10.398a1.11 1.11 0 0 0-.187.016c-.45.076-.815.442-1.121.78a19.688 19.688 0 0 0-3.054 4.46c-.118.235-.222.465-.206.69.03.458.536.775.973.999a51.688 51.688 0 0 0 6.398 2.75c.52.183 1.029.347 1.536.347l.132-.003c.807-.048 1.608-.564 2.142-1.381.523-.8.738-1.748.88-2.57.106-.613-.205-1.024-.566-1.501-.308-.409-.656-.87-.709-1.496a35.106 35.106 0 0 0-5.21-2.81c-.327-.141-.674-.28-1.008-.28Z" fill="#272525"/><path d="M102.431 100.225a4.505 4.505 0 0 0 .747-2.001c.052-.444-.117-1.05-.562-1.025-.606.574-1.482.743-2.311.838-2.27.26-4.565.155-6.848.05-.132.165.056.397.239.507 1.01.61 2.28.586 3.37 1.034.765.314 1.418.848 2.154 1.221.738.374 1.648.573 2.376.183.345-.184.615-.484.835-.807Z" fill="#BB672E"/><path d="M99.254 97.671c.732-.137 1.478-.33 2.078-.773.373-.275.697-.697.649-1.158-.451-.116-.922.065-1.34.27a9.957 9.957 0 0 0-1.756 1.107c-.107.085-.224.195-.213.331.02.235.35.267.582.224Z" fill="#BB672E"/><path d="M97.036 92.887a.638.638 0 0 0-.29-.033c-.154.031-.26.168-.363.287-.349.412-.797.727-1.175 1.113-.377.386-.694.885-.671 1.424.462.004.923-.05 1.383-.102l4.509-.518c.109-.013.235-.036.288-.132-.395-.599-.997-1.039-1.644-1.35-.648-.31-1.345-.5-2.037-.689Zm-.783 3.333c-.506.091-1.028.19-1.451.482-.093.064-.19.179-.131.276.047.078.158.077.249.066a20.937 20.937 0 0 0 4.18-.944c-.931-.221-1.906-.05-2.848.12Z" fill="#F9CAA0"/><path d="M101.617 97.5a.178.178 0 0 1-.123-.305 4.25 4.25 0 0 0 1.241-2.39.177.177 0 0 1 .35.055 4.599 4.599 0 0 1-1.345 2.59.178.178 0 0 1-.123.05Zm-5.316 1.25c-1.525 0-3.043-.206-4.513-.612a.178.178 0 0 1-.124-.218.18.18 0 0 1 .219-.124c1.47.405 2.986.61 4.512.598a.178.178 0 0 1 .002.355H96.3Z" fill="#272525"/><path d="M85.469 39.135 70.552 130.11l1.21.199L86.68 39.333l-1.21-.198Z" fill="#EED2BF"/><path d="M85.466 39.131 70.55 130.106l.573.094L86.04 39.225l-.574-.094Z" fill="#C99979"/><path d="m71.924 130.527-1.593-.262 14.977-91.36 1.593.261-14.977 91.361Zm-1.148-.581.828.136 14.852-90.596-.828-.136-14.852 90.596Z" fill="#272525"/><path d="M86.743 35.316c-1.043-.17-2.042.598-2.55 1.524-.509.926-.662 1.999-.948 3.015-.653 2.325-2.008 4.377-3.142 6.509-1.135 2.132-2.08 4.5-1.803 6.9.135 1.162.558 2.284 1.17 3.28.325.527.747 1.053 1.345 1.212.457.12.94.006 1.398-.109l5.766-1.442-.228-9.039c-.023-.95-.047-1.9-.004-2.848.053-1.14.204-2.275.451-3.39.237-1.066.563-2.143.447-3.23-.116-1.086-.824-2.206-1.902-2.382Z" fill="#ED9636"/><path d="M81.235 57.984c-.168 0-.32-.018-.466-.057-.703-.187-1.164-.825-1.45-1.29-.65-1.057-1.064-2.217-1.195-3.353-.302-2.605.815-5.111 1.821-7.004.27-.506.552-1.008.834-1.51.885-1.578 1.802-3.21 2.295-4.963.077-.275.145-.554.213-.833.18-.75.368-1.525.75-2.22.611-1.113 1.721-1.78 2.734-1.614 1.189.195 1.93 1.425 2.05 2.54.1.936-.118 1.863-.329 2.759-.041.176-.082.352-.121.527a19.838 19.838 0 0 0-.447 3.359c-.044.943-.02 1.905.004 2.836l.231 9.18-5.905 1.477c-.293.075-.66.166-1.019.166ZM86.45 35.47c-.898 0-1.703.732-2.1 1.457-.36.653-.541 1.405-.717 2.132-.069.283-.138.567-.216.846-.505 1.794-1.431 3.444-2.328 5.04-.28.5-.56 1-.829 1.503-.983 1.847-2.073 4.289-1.783 6.797.127 1.085.522 2.194 1.146 3.208.254.412.658.978 1.238 1.132.387.103.915-.01 1.31-.11l5.628-1.407-.225-8.897c-.023-.937-.047-1.906-.003-2.86a20.15 20.15 0 0 1 .577-3.952c.204-.867.415-1.764.32-2.64-.104-.982-.74-2.062-1.753-2.227a1.658 1.658 0 0 0-.265-.022Z" fill="#272525"/><path d="M82.168 51.76c-.068.376-.136.766-.043 1.136.094.37.394.718.775.737.53.027.877-.53 1.104-1.009l2.414-5.106c.163-.346.328-.695.417-1.066.114-.47.104-.96.116-1.445.03-1.226.21-2.449.533-3.632-.656 1.325-1.85 2.284-2.941 3.281-1.091.998-2.16 2.166-2.416 3.622l.675-.03-.634 3.512Zm2.859 4.469c.488.163 1.064.217 1.483-.083.453-.325.565-.941.618-1.496a20.837 20.837 0 0 0-.239-5.708 17.394 17.394 0 0 0-2.515 6.3c-.027.145-.051.297-.013.44.076.289.381.452.666.547Z" fill="#BB672E"/><path d="M87.138 39.621c.172-.245.353-.493.43-.782.105-.384.015-.791-.075-1.179-.089-.382-.185-.78-.439-1.08a.458.458 0 0 0-.186-.144.405.405 0 0 0-.293.025c-.43.187-.553.742-.516 1.21.037.467.174.945.041 1.394-.108.367-.382.659-.643.939a38.537 38.537 0 0 0-3.824 4.825c1.292-.184 2.409-1.019 3.262-2.005.853-.986 1.496-2.134 2.243-3.203ZM79.17 52.245c-.126.39-.237.81-.13 1.208.146.545.656.9 1.13 1.207l1.022.664a11.4 11.4 0 0 0 .032-5.301c-.067-.287-.147-.575-.29-.833-.043-.076-.103-.158-.191-.164-.104-.006-.178.096-.23.186a15.736 15.736 0 0 0-1.343 3.032Z" fill="#F9CAA0"/><path d="M80.693 56.56a.178.178 0 0 1-.06-.345 20.534 20.534 0 0 0 3.9-1.89c.324-.201.692-.442.968-.755.286-.323.438-.691.43-1.038a.178.178 0 0 1 .173-.181c.1.002.18.075.182.173.01.435-.173.891-.519 1.282-.307.348-.701.606-1.045.82a20.916 20.916 0 0 1-3.97 1.924.176.176 0 0 1-.06.01Z" fill="#272525"/><path d="M84.864 55.269c-.37 0-.74-.024-1.108-.07a.178.178 0 1 1 .045-.353 8.38 8.38 0 0 0 1.912.025.177.177 0 1 1 .036.353c-.294.03-.589.045-.885.045Zm-1.579-8.421a.177.177 0 0 1-.143-.283 37.543 37.543 0 0 1 4.527-5.11.178.178 0 0 1 .244.259 37.156 37.156 0 0 0-4.484 5.061.18.18 0 0 1-.144.073Z" fill="#272525"/><path d="M88.027 58.505a5.306 5.306 0 0 0-4.238-2.272l-2.315.112a6.926 6.926 0 0 0-2.162.356c-.444.148-.887.352-1.19.708-.388.453-.489 1.077-.558 1.668a31.33 31.33 0 0 0-.157 5.552l7.205.522c.287.02.588.039.85-.08.242-.111.418-.324.582-.533.71-.9 1.376-1.836 1.99-2.805.235-.37.466-.755.55-1.185.14-.712-.148-1.444-.557-2.043Z" fill="#ED9636"/><path d="M84.939 65.343c-.113 0-.228-.007-.34-.015l-7.36-.533-.008-.155a31.556 31.556 0 0 1 .157-5.584c.073-.622.18-1.271.598-1.762.36-.423.897-.637 1.27-.761a7.068 7.068 0 0 1 2.217-.365l2.307-.112a5.476 5.476 0 0 1 4.394 2.35c.359.524.751 1.328.585 2.177-.088.455-.322.85-.574 1.247a33.753 33.753 0 0 1-2 2.82c-.188.236-.379.46-.649.583-.167.075-.356.11-.597.11Zm-7.363-.88 7.049.51c.103.008.209.015.314.015.188 0 .33-.025.45-.08.197-.09.35-.27.516-.48a33.346 33.346 0 0 0 1.98-2.79c.233-.367.449-.73.525-1.124.143-.729-.21-1.44-.53-1.91a5.11 5.11 0 0 0-4.094-2.194l-2.304.112a6.743 6.743 0 0 0-2.114.346c-.535.179-.878.381-1.112.655-.354.416-.449 1.005-.516 1.574a31.172 31.172 0 0 0-.164 5.366Z" fill="#272525"/><path d="M84.89 60.664c-.526-.1-.964-.443-1.42-.721-.822-.502-1.783-.822-2.741-.738-.96.083-1.905.615-2.338 1.474-.21.417-.294.885-.375 1.344L77.81 63.2c-.022.127-.042.268.031.375.078.114.231.142.368.162l3.284.46c1.286.18 2.698.334 3.79-.367 1.214-.78 1.616-2.352 1.78-3.786-.672.376-1.417.764-2.173.62Z" fill="#BB672E"/><path d="M87.156 59.067c.033-.246-.219-.425-.438-.543l-1.335-.72a2.09 2.09 0 0 0-.563 1.284c-.014.193.008.405.142.542.152.156.396.168.613.15a3.537 3.537 0 0 0 1.203-.325c.17-.08.353-.2.378-.388Z" fill="#BB672E"/><path d="M82.4 78.55c-2.276-1.543-5.51-1.08-7.71.572-.812.61-1.538 1.406-1.806 2.386-.29 1.06-.008 2.184.272 3.246l.985 3.735c.075.285.163.591.396.774.23.18.545.195.838.197a27.701 27.701 0 0 0 4.375-.311c.536-.082 1.1-.193 1.506-.552.347-.306.532-.752.697-1.184a33.808 33.808 0 0 0 1.55-5.374c.159-.794.282-1.655-.07-2.385-.22-.459-.61-.817-1.033-1.103Z" fill="#ED9636"/><path d="m75.597 89.64-.223-.002c-.331-.003-.677-.023-.947-.236-.288-.226-.386-.597-.458-.868l-.985-3.734c-.259-.982-.58-2.204-.271-3.339.244-.896.874-1.73 1.87-2.48 1.312-.986 2.982-1.551 4.583-1.551 1.24 0 2.394.337 3.333.974.529.359.886.743 1.094 1.175.38.79.242 1.702.083 2.496a34.07 34.07 0 0 1-1.558 5.402c-.18.474-.373.926-.745 1.254-.443.391-1.032.508-1.598.594a28.06 28.06 0 0 1-4.178.314Zm3.57-11.856c-1.526 0-3.119.54-4.37 1.48-.932.7-1.518 1.471-1.742 2.29-.284 1.044.012 2.165.273 3.155l.984 3.734c.076.288.154.539.334.68.183.143.45.157.73.16h.221c1.375 0 2.763-.104 4.126-.31.513-.078 1.045-.182 1.415-.51.311-.273.484-.683.648-1.114a33.679 33.679 0 0 0 1.542-5.345c.148-.737.278-1.582-.054-2.273-.18-.374-.498-.712-.974-1.034-.88-.597-1.965-.913-3.134-.913Z" fill="#272525"/><path d="M81.268 85.361a11.176 11.176 0 0 0 1.61-2.811c.126-.322.238-.655.253-1 .047-1.143-.967-2.047-1.985-2.57-1.365-.701-3.056-1.036-4.417-.327a3.206 3.206 0 0 0-1.133.984l.524.107a2.542 2.542 0 0 0-1.202 1.448 19.7 19.7 0 0 1 3.31-.174c.765.024 1.615.136 2.102.726.22.267.337.603.436.935.26.873.43 1.774.502 2.682Z" fill="#BB672E"/><path d="M78.052 82.096c-.52-.319-1.194-.224-1.765-.01-.816.305-1.57.859-1.95 1.642-.147.306-.236.647-.204.985.077.819.907 1.448 1.73 1.425.821-.023 1.565-.603 1.921-1.345.356-.741.363-1.614.168-2.413-.07-.285.395-.29.1-.284Zm-.427 4.464c.106.274.478.37.746.252.27-.119.44-.392.532-.67a1.992 1.992 0 0 0-.094-1.462 2.193 2.193 0 0 0-1.182 1.444c-.035.143-.055.298-.002.436Z" fill="#F9CAA0"/><path d="M81.602 88.52h-.013a.178.178 0 0 1-.165-.189c.087-1.302.03-2.616-.169-3.905-.092-.598-.229-1.29-.551-1.886-.332-.613-.838-1.054-1.39-1.207a.177.177 0 1 1 .096-.342c.644.18 1.23.683 1.606 1.381.348.644.493 1.372.59 2 .202 1.314.26 2.655.172 3.983a.177.177 0 0 1-.177.165Z" fill="#272525"/><path d="M76.841 67.285c-.932 3.204-1.51 6.794.008 9.766.115.225.25.453.459.595.236.16.535.188.82.208a43.16 43.16 0 0 0 6.522-.031c.244-.02.493-.043.717-.14.218-.095.4-.254.57-.42 1.335-1.316 1.993-3.186 2.25-5.043.14-1.02.17-2.08-.158-3.056-.295-.88-.868-1.646-1.532-2.294-2.032-1.985-5.226-2.92-7.829-1.782-.5.218-.983.518-1.301.96-.264.366-.4.805-.526 1.237Z" fill="#BB672E"/><path d="M81.182 78.14c-1.02 0-2.051-.037-3.067-.11-.326-.022-.641-.058-.906-.237-.241-.162-.391-.414-.518-.661-1.656-3.244-.805-7.202-.02-9.896.14-.483.279-.913.55-1.291.297-.412.747-.746 1.375-1.02a6.181 6.181 0 0 1 2.493-.507c1.973 0 4.04.868 5.531 2.324.772.754 1.302 1.55 1.577 2.364.289.862.341 1.86.165 3.138-.301 2.18-1.097 3.958-2.302 5.145-.167.164-.371.347-.623.456-.259.112-.544.136-.773.154a43.29 43.29 0 0 1-3.482.14Zm-.093-13.367c-.835 0-1.626.16-2.35.477-.569.249-.97.543-1.229.902-.239.333-.367.733-.498 1.183-.768 2.637-1.604 6.504-.005 9.636.121.237.235.418.4.528.193.13.446.158.733.178a43.11 43.11 0 0 0 6.495-.031c.258-.022.47-.044.66-.126.199-.086.372-.242.516-.383 1.148-1.132 1.908-2.84 2.198-4.941.17-1.222.122-2.168-.15-2.976-.255-.761-.756-1.51-1.487-2.223-1.425-1.393-3.4-2.224-5.283-2.224Z" fill="#272525"/><path d="M77.934 76.404c.083.266.177.548.398.716.192.145.444.177.683.201.9.09 1.804.141 2.709.15 1.26.012 2.66-.115 3.52-1.038.56-.602.782-1.435.985-2.233l1.058-4.162c.04-.153.078-.318.026-.467-.058-.167-.214-.277-.362-.375l-1.05-.7c-.424.341-.27 1.022-.481 1.523-.177.42-.596.677-.989.907l-2.12 1.237c.133-.495.22-1.002.258-1.513.022-.304-.03-.695-.324-.777-.268-.075-.506.174-.68.391a11.988 11.988 0 0 1-3.357 2.875c-.396.228-.853.501-.909.954-.023.195.036.389.094.575l.54 1.736Zm.355-10.286c2.33-.501 4.742.09 7.052.68-.578-.518-1.185-1.014-1.875-1.368-.69-.353-1.475-.559-2.245-.464-.362.045-.711.154-1.059.262-.665.208-1.352.428-1.873.89Z" fill="#7F3A13"/><path d="M83.223 67.16a.378.378 0 0 0-.2.038c-.078.049-.11.146-.133.236a7.67 7.67 0 0 0-.183 3.014c.017.123.054.269.172.31.096.035.199-.018.286-.07.46-.266.923-.535 1.319-.89.395-.356.722-.808.838-1.326.051-.234.057-.49-.053-.702-.194-.377-.668-.499-1.089-.55a8.295 8.295 0 0 0-.957-.06Z" fill="#ED9636"/><path d="M80.037 73.01c-.698.02-1.342.586-1.45 1.277A2.649 2.649 0 0 0 81.14 73l-1.104.01Z" fill="#391701"/><path d="M77.38 77.893a.178.178 0 0 1-.086-.333 22.839 22.839 0 0 0 4.264-3.072.177.177 0 1 1 .24.263 23.204 23.204 0 0 1-4.33 3.12.18.18 0 0 1-.088.022Z" fill="#272525"/><path d="M73.026 94.6c.043 1.956.25 3.909.62 5.83.097.504.232 1.049.64 1.359.58.439 1.406.199 2.087-.058l3.17-1.198c.42-.158.847-.321 1.194-.604.46-.375.737-.923.995-1.457.885-1.83 1.727-3.769 1.673-5.8-.055-2.033-1.263-4.173-3.235-4.663-.881-.218-1.812-.093-2.693.127-1.293.321-2.593.886-3.408 1.94-.964 1.25-1.077 2.945-1.043 4.524Z" fill="#ED9636"/><path d="M75.08 102.21c-.353 0-.656-.095-.9-.28-.46-.348-.607-.94-.709-1.466a35.14 35.14 0 0 1-.623-5.86c-.033-1.557.069-3.325 1.081-4.636.729-.944 1.875-1.6 3.505-2.005 1.13-.281 2.006-.318 2.779-.126 2.14.531 3.316 2.831 3.37 4.83.055 2.089-.805 4.051-1.692 5.882-.291.603-.571 1.133-1.041 1.517-.374.304-.836.479-1.244.633l-3.171 1.198c-.41.154-.89.313-1.355.313Zm4.107-14.137c-.486 0-1.031.077-1.667.235-1.55.385-2.632 1-3.31 1.877-.944 1.223-1.038 2.916-1.006 4.41.042 1.944.249 3.896.616 5.802.09.462.214.978.574 1.25.184.14.408.208.686.208.407 0 .85-.147 1.23-.29l3.171-1.198c.401-.152.816-.309 1.145-.576.414-.338.674-.832.947-1.397.867-1.791 1.709-3.709 1.655-5.718-.05-1.864-1.131-4.006-3.1-4.495a3.9 3.9 0 0 0-.941-.108Z" fill="#272525"/><path d="M75.694 90.742a7.552 7.552 0 0 1 3.207-.48c.559.038 1.145.154 1.562.528.443.396.614 1.005.926 1.511.176.285.525.566.811.394.277-.166.213-.58.099-.882a9.664 9.664 0 0 0-1.236-2.278c-.178-.243-.381-.489-.663-.594a1.69 1.69 0 0 0-.422-.08c-.866-.092-1.75-.182-2.602.001-.624.134-1.207.41-1.778.695-.256.128-.525.27-.67.518-.144.247-.097.627.166.741.19.083.406 0 .6-.074Zm1.561 9.709 1.978-.955c.493-.239.998-.485 1.38-.878.385-.398.618-.917.825-1.43.32-.795.602-1.605.842-2.427.082-.282.092-.69-.195-.757-.1-.024-.26-.098-.179-.162l-6.3 5.977c.492.05.987.07 1.482.065a2.236 2.236 0 0 1-.452.662c.195.094.424-.001.619-.095Zm-.3-2.269c.048.039.12.018.175-.008.296-.137.542-.36.78-.58 1.347-1.248 2.7-2.684 2.99-4.496.015-.094.003-.223-.09-.237-.064-.01-.116.044-.157.093a225.01 225.01 0 0 0-2.882 3.58c-.353.447-.714.916-.844 1.471-.014.062-.02.137.028.177Z" fill="#BB672E"/><path d="M77.415 91.054c-.341-.398-.983-.315-1.46-.098a3.91 3.91 0 0 0-2.12 2.473c-.108.386-.143.837.101 1.156.163.212.426.328.69.372.625.106 1.253-.142 1.816-.434.992-.513 1.96-1.252 2.301-2.315.089-.274.131-.572.058-.85-.073-.279-1.108-.23-1.386-.304Zm-1.664 4.576c.033-.071-.1-.087-.167-.046a1.903 1.903 0 0 0-.87 1.752c.556.119 1.11-.317 1.324-.843.215-.527-.524-.347-.287-.863Z" fill="#F9CAA0"/><path d="M74.12 101.95a.178.178 0 0 1-.175-.156c-.142-1.12.245-2.332 1.09-3.412.74-.948 1.734-1.684 2.688-2.357a.177.177 0 1 1 .204.29c-.97.685-1.901 1.376-2.613 2.285-.775.991-1.145 2.139-1.017 3.15a.177.177 0 0 1-.176.2Zm-.442-1.903a.177.177 0 0 1-.177-.168 6.693 6.693 0 0 1 .191-1.985.18.18 0 0 1 .216-.13.179.179 0 0 1 .129.216 6.346 6.346 0 0 0-.181 1.88.178.178 0 0 1-.168.187h-.01Z" fill="#272525"/><path d="m113.835 44.436-4.996 92.054 1.224.067 4.997-92.054-1.225-.067Z" fill="#EED2BF"/><path d="m113.837 44.438-4.997 92.054.581.031 4.996-92.054-.58-.031Z" fill="#C99979"/><path d="m110.25 136.76-1.611-.087 5.019-92.444 1.612.088-5.02 92.443Zm-1.203-.453.838.046 4.977-91.67-.838-.046-4.977 91.67Z" fill="#272525"/><path d="M117.425 42.58a5.327 5.327 0 0 0-2.747-2.407c-.878-.336-1.956-.402-2.683.194-1.077.882-.792 2.548-.847 3.939-.092 2.343-1.406 4.43-2.363 6.57-.957 2.14-1.536 4.77-.253 6.731.879 1.342 2.458 2.066 4.025 2.409 1.142.25 2.418.312 3.398-.325 1.201-.78 1.586-2.333 1.84-3.742.654-3.618 1.094-7.345.413-10.958-.157-.834-.377-1.666-.783-2.412Z" fill="#ED9636"/><path d="M114.044 60.371c-.461 0-.974-.06-1.525-.181-1.336-.293-3.138-.962-4.135-2.485-1.398-2.136-.642-4.932.239-6.901.213-.477.448-.958.674-1.424.788-1.62 1.604-3.295 1.674-5.082.011-.274.008-.559.006-.847-.011-1.21-.022-2.461.906-3.222.679-.557 1.793-.63 2.859-.222a5.54 5.54 0 0 1 2.84 2.487c.456.839.668 1.757.801 2.463.711 3.77.19 7.688-.412 11.023-.278 1.538-.703 3.07-1.919 3.86-.543.353-1.219.531-2.008.531Zm-.665-20.275c-.513 0-.94.138-1.271.408-.797.653-.786 1.818-.776 2.944.002.294.005.585-.006.864-.074 1.861-.905 3.57-1.71 5.223-.225.463-.458.942-.669 1.413-.844 1.89-1.576 4.56-.266 6.562.932 1.423 2.643 2.054 3.914 2.332a6.868 6.868 0 0 0 1.449.174c.72 0 1.33-.16 1.814-.474 1.158-.751 1.517-2.265 1.763-3.625.597-3.303 1.113-7.18.413-10.894-.191-1.011-.427-1.739-.764-2.36a5.18 5.18 0 0 0-2.655-2.324 3.518 3.518 0 0 0-1.236-.243Z" fill="#272525"/><path d="M108.732 56.818c.142.414.485.724.82 1.006.678.572 1.4 1.124 2.242 1.403 1.364.452 2.965.086 3.997-.914 1.136-1.101 1.506-2.757 1.732-4.322.397-2.762.508-5.602-.106-8.324-.102-.452-.299-.976-.75-1.078-.016 3.937-.789 8.096-3.404 11.04l-.244-2.093c-.026-.22-.1-.494-.319-.527-.178-.027-.325.13-.436.273l-1.005 1.291c-.073.095-.152.193-.262.24-.334.142-.635-.25-.785-.579-.151-.329-.441-.724-.779-.595a6.98 6.98 0 0 0-.725 2.123c-.06.35-.091.72.024 1.056Z" fill="#BB672E"/><path d="M113.061 49.39c.739-1.204.828-2.705.64-4.104-.188-1.4-.628-2.753-.877-4.144-.395-.08-.669.393-.738.791-.196 1.118.134 2.252.387 3.358.308 1.347.504 2.72.588 4.099Zm1.49-2.4c.145-1.7-.083-3.43-.661-5.035-.058-.158-.137-.334-.299-.384.051 1.915.304 3.824.75 5.687.126.036.199-.138.21-.268Zm.267 1.684a10.26 10.26 0 0 0-1.885 4.457c-.016.097-.029.2.016.288.07.138.262.174.406.116.144-.057.248-.181.342-.304 1.157-1.507 1.4-2.678 1.121-4.557Zm-4.799 5.007a3.078 3.078 0 0 0 1.128-2.74c-.319-.064-.625.15-.857.377a4.343 4.343 0 0 0-1.261 2.546c.294.21.707.04.99-.183Z" fill="#F9CAA0"/><path d="M112.23 59.52c-.137 0-.273-.003-.41-.01-.776-.043-1.31-.254-1.633-.643a.177.177 0 1 1 .274-.227c.256.31.707.477 1.379.515a7.089 7.089 0 0 0 3.65-.785c.659-.342 1.068-.723 1.25-1.164a.178.178 0 0 1 .328.136c-.215.521-.678.96-1.414 1.343a7.44 7.44 0 0 1-3.424.836Zm-.628-8.889h-.004a.177.177 0 0 1-.173-.181 45.594 45.594 0 0 0-.384-7.074.178.178 0 0 1 .153-.2.18.18 0 0 1 .2.153c.313 2.356.443 4.755.386 7.129a.179.179 0 0 1-.178.173Zm-1.527-.374-.022-.001a.178.178 0 0 1-.154-.198l.345-2.794a.175.175 0 0 1 .199-.154c.096.012.166.1.154.198l-.346 2.794a.178.178 0 0 1-.176.155Z" fill="#272525"/><path d="M119.085 62.501c-.32-1.091-1.331-1.834-2.361-2.316a10.106 10.106 0 0 0-7.169-.5c-.336.103-.68.233-.915.494-.342.38-.371.936-.463 1.439-.338 1.848-1.719 3.367-2.115 5.203a5.14 5.14 0 0 0 .272 3.022c.091.22.202.44.387.59.277.224.66.246 1.015.276 1.762.146 3.487.71 4.994 1.634.254.156.518.327.816.338.201.007.396-.06.583-.135 1.625-.652 2.934-1.973 3.763-3.516.829-1.544 1.205-3.3 1.3-5.05.028-.496.033-1.002-.107-1.479Z" fill="#BB672E"/><path d="m113.577 72.859-.037-.001c-.33-.013-.615-.187-.866-.342l-.037-.022a11.236 11.236 0 0 0-4.915-1.609l-.044-.004c-.357-.029-.761-.062-1.069-.311-.221-.18-.346-.434-.439-.66a5.336 5.336 0 0 1-.281-3.126c.198-.918.636-1.76 1.06-2.576.435-.836.885-1.7 1.054-2.622l.043-.26c.071-.449.144-.912.463-1.266.261-.29.632-.434.994-.545 2.358-.723 5.063-.534 7.296.51 1.322.617 2.172 1.456 2.456 2.426.148.504.143 1.038.116 1.54-.108 1.965-.553 3.69-1.323 5.123-.905 1.685-2.273 2.963-3.853 3.597-.191.077-.398.148-.618.148Zm-1.102-13.43c-.983 0-1.948.143-2.868.426-.313.096-.63.216-.834.443-.248.275-.31.667-.376 1.083-.014.09-.029.18-.045.268-.179.975-.641 1.864-1.088 2.723-.413.794-.84 1.616-1.028 2.487a4.976 4.976 0 0 0 .262 2.916c.076.184.175.39.334.519.223.18.554.208.874.234l.045.003c1.788.15 3.541.723 5.071 1.66l.037.022c.225.139.457.281.694.29l.023.178v-.178c.151 0 .303-.049.486-.122 1.502-.603 2.807-1.824 3.673-3.436.745-1.387 1.176-3.06 1.28-4.975.026-.47.031-.967-.102-1.42-.322-1.098-1.409-1.804-2.265-2.205a9.922 9.922 0 0 0-4.173-.916Z" fill="#272525"/><path d="M109.36 66.891c-.995-.152-2.045.575-2.253 1.56a.903.903 0 0 0 .009.494c.063.175.205.31.352.423 1.146.89 2.727.942 4.03 1.578.435.213.851.495 1.329.571.473.076.956-.06 1.398-.245 1.914-.793 3.4-2.547 3.869-4.565.088-.38.142-.783.034-1.16-.109-.375-.413-.716-.801-.763-.28-.034-.553.084-.81.199l-3.662 1.634c-.767.342-1.591.692-2.419.55-.365-.063-.71-.22-1.076-.276Z" fill="#7F3A13"/><path d="m117.309 62.725.013-.264c-.445-.045-.845.25-1.2.523a31.682 31.682 0 0 1-4.001 2.61c-.43.236-.935.593-.854 1.077.553.082 1.1-.143 1.614-.362 1.492-.638 3.001-1.286 4.29-2.27.141-.109.285-.228.355-.391.117-.28-.015-.602-.191-.848-.177-.247-.042.227-.026-.075Zm-1.137-.685c.095-.147.19-.317.15-.488-.041-.17-.299-.273-.394-.126a4.175 4.175 0 0 0-1.058 1.707c.574-.106.985-.604 1.302-1.093Zm-6.365-1.13 4.632-.435c.104-.01.208-.02.312-.032-.424-.333-.978-.45-1.514-.509a8.666 8.666 0 0 0-3.654.394c-.152.05-.328.137-.339.297-.009.12.091.227.205.267.113.04.238.03.358.018Z" fill="#7F3A13"/><path d="M107.879 64.83a4.857 4.857 0 0 0 .128 1.5.373.373 0 0 0 .082.18c.104.105.279.06.417.006a21.073 21.073 0 0 0 4.434-2.362c.442-.309.909-.697.965-1.233-.505-.167-1.05-.152-1.58-.106a14.677 14.677 0 0 0-3.247.657c-.382.124-.786.284-1.001.622-.138.217-.18.48-.198.736Zm6.497-3.212c-.588-.343-1.328-.179-1.985 0-.003.06-.004.122-.006.183a2.033 2.033 0 0 0 1.991-.183Z" fill="#ED9636"/><path d="M114.158 69.439c-.078.13-.157.28-.118.426.075.279.473.284.747.193 1.643-.54 2.729-2.401 2.392-4.097a13.445 13.445 0 0 0-3.021 3.478Z" fill="#391701"/><path d="M106.708 70.448a.196.196 0 0 1-.108-.032c-.063-.042-.096-.147-.078-.22l.487-1.96c.082-.327.183-.733.482-1.01.334-.31.796-.36 1.204-.384a16.883 16.883 0 0 1 2.394.033c.668.055 1.298-.291 1.991-.717l3.868-2.38a.178.178 0 0 1 .244.058.176.176 0 0 1-.058.244l-3.868 2.38c-.576.355-1.367.841-2.207.769a16.669 16.669 0 0 0-2.344-.032c-.346.02-.736.06-.982.289-.223.206-.31.555-.379.835l-.441 1.774a.185.185 0 0 1 .034.058c.026.086-.01.18-.096.243a.233.233 0 0 1-.143.052Z" fill="#272525"/><path d="m118.409 85.931-.711-.71a17.341 17.341 0 0 0-5.071-.51c-1.649.08-3.428.475-4.476 1.751-.74.902-.996 2.11-1.055 3.277-.115 2.269.425 4.515.981 6.718.054.212.138.457.348.52.12.035.248-.003.367-.04l3.43-1.074c1.559-.488 3.239-1.064 4.149-2.42.644-.961.792-2.164.847-3.32.035-.728.038-1.474-.19-2.166-.226-.694 2.072-1.795 1.381-2.026Z" fill="#B25820"/><path d="M108.528 97.168a.528.528 0 0 1-.153-.022c-.331-.097-.428-.482-.47-.646-.606-2.397-1.098-4.561-.986-6.77.073-1.467.432-2.573 1.095-3.38.905-1.102 2.454-1.712 4.604-1.815a17.484 17.484 0 0 1 5.124.514l.047.011.719.719c.142.06.189.157.203.23.05.257-.239.502-.676.873-.365.31-.916.779-.838 1.019.246.749.232 1.544.199 2.23-.053 1.12-.2 2.4-.877 3.41-.911 1.358-2.527 1.954-4.244 2.491l-3.429 1.074a1.053 1.053 0 0 1-.318.062Zm4.923-12.299c-.273 0-.544.007-.816.02-2.045.098-3.508.665-4.346 1.686-.614.746-.946 1.784-1.016 3.172-.109 2.16.378 4.297.976 6.665.042.164.106.358.227.393a.188.188 0 0 0 .053.007.77.77 0 0 0 .21-.045l3.43-1.074c1.654-.518 3.209-1.088 4.055-2.35.628-.935.764-2.105.818-3.228.031-.656.045-1.413-.182-2.104-.153-.467.431-.962.946-1.4.188-.16.462-.392.538-.511l-.736-.72a17.156 17.156 0 0 0-4.157-.51Z" fill="#272525"/><path d="M116.998 86.545a8.554 8.554 0 0 0-4.355 2.135c-.064.059-.13.123-.152.207-.022.086.005.176.031.261a7.238 7.238 0 0 1 .152 3.538c-.755.377-1.558.801-1.944 1.551 1.097.297 2.23.458 3.367.48a.742.742 0 0 0 .311-.04c.112-.048.193-.147.27-.242.544-.67 1.1-1.363 1.361-2.186.154-.484.2-.996.245-1.502.093-1.053.621-3.15.714-4.202Z" fill="#7F3A13"/><path d="M111.786 92.515c.106-.282.151-.585.181-.885.061-.62.063-1.248.005-1.87-.384 2.048-1.771 3.743-3.11 5.338.485-.265.943-.576 1.391-.9.625-.45 1.261-.962 1.533-1.683Zm-2.095-6.758c-.342.13-.737.4-.655.756l6.204-.79c.098-.1.048-.281-.064-.366-.112-.084-.26-.098-.401-.108-1.712-.12-3.477-.097-5.084.508Z" fill="#7F3A13"/><path d="M108.306 87.332c-.347.37-.371.93-.361 1.437.003.16.01.329.089.469.078.14.251.242.402.184.084-.032.144-.105.203-.174.628-.742 1.485-1.264 2.392-1.613.907-.35 1.867-.538 2.826-.696-.791-.288-1.602-.58-2.445-.584-.798-.004-1.574.251-2.321.531-.284.107-.577.224-.785.446Z" fill="#ED9636"/><path d="M115.248 87.79c.524-.31 1.156-.69 1.152-1.299a8.168 8.168 0 0 0-3.82 2.34c-.079.086-.16.183-.166.299-.008.129.077.242.151.348.467.675.6 1.57.349 2.351a5.8 5.8 0 0 0 1.567-2.837c.064-.284.111-.585.287-.818.124-.164.302-.278.48-.384Z" fill="#391701"/><path d="M107.828 82.487c.139.295.455.456.752.59a24.327 24.327 0 0 0 5.994 1.815c.282.047.592.084.835-.066.302-.185.383-.577.472-.92.492-1.887 2.022-3.41 2.334-5.334.279-1.717-.468-3.432-1.35-4.931-.653-1.111-1.543-2.27-2.82-2.438-.711-.093-1.418.144-2.096.378-.692.24-1.433.515-1.841 1.123-.424.632-.379 1.451-.448 2.209-.219 2.388-1.705 4.523-1.904 6.913-.018.224-.023.458.072.661Z" fill="#ED9636"/><path d="M114.974 85.112a2.71 2.71 0 0 1-.429-.044 24.495 24.495 0 0 1-6.037-1.83c-.321-.144-.676-.327-.84-.675-.113-.239-.109-.502-.088-.75.102-1.228.541-2.399.964-3.53.41-1.093.833-2.224.939-3.385.014-.148.023-.299.032-.45.039-.637.079-1.295.446-1.842.459-.683 1.309-.977 1.931-1.191.654-.226 1.412-.486 2.177-.387 1.423.188 2.365 1.53 2.95 2.524.737 1.254 1.682 3.142 1.372 5.05-.173 1.066-.71 2.015-1.229 2.933-.436.77-.887 1.567-1.109 2.417l-.019.075c-.089.348-.191.742-.532.952a.987.987 0 0 1-.528.133ZM113.72 71.36c-.586 0-1.185.207-1.712.39-.744.257-1.39.513-1.753 1.054-.313.466-.348 1.049-.386 1.665-.009.155-.019.309-.033.46-.11 1.21-.542 2.363-.96 3.478-.415 1.109-.845 2.256-.943 3.434-.019.231-.017.416.056.57.112.24.39.38.664.504a24.126 24.126 0 0 0 5.95 1.803c.265.043.551.058.713-.042.219-.135.298-.442.374-.739l.02-.075c.233-.895.696-1.712 1.143-2.503.527-.932 1.025-1.811 1.188-2.815.291-1.795-.619-3.606-1.328-4.813-.547-.93-1.421-2.185-2.691-2.352a2.337 2.337 0 0 0-.302-.019Z" fill="#272525"/><path d="M114.194 72.18c.073-.165-.014-.368-.159-.476-.145-.108-.334-.138-.514-.144-.825-.027-1.593.384-2.306.798-.209.121-.423.249-.568.443-.145.194-.204.472-.079.679.087.142.241.226.361.341.428.413.33 1.127.088 1.67-.243.543-.605 1.065-.615 1.66-.001.06.004.128.049.17.036.034.09.042.14.044.406.015.77-.232 1.092-.48a17.675 17.675 0 0 0 3.526-3.63c.106-.147.214-.31.203-.49-.019-.29-.325-.462-.591-.58-.417-.184-.21.18-.627-.005Zm1.759 9.221c.38-.553.763-1.113 1.013-1.736a4.586 4.586 0 0 0 .326-1.556c.007-.233-.007-.48-.132-.679-.125-.198-.393-.322-.602-.217-.203 1.28-1.043 2.385-2.059 3.188-1.016.803-2.207 1.346-3.376 1.903-.264.126-.577.376-.455.642.046.102.147.166.244.222a7.082 7.082 0 0 0 2.739.906c.129.015.264.025.383-.025.14-.06.232-.19.318-.315l1.601-2.333Zm-6.233-1.566a2.595 2.595 0 0 0-.899 1.419c-.039.168-.056.363.054.496.173.21.521.114.731-.06.618-.51.127-1.054.114-1.855Z" fill="#BB672E"/><path d="M113.913 79.128c.881-.95 1.79-1.947 2.155-3.19.122-.418.176-.88-.002-1.277-.179-.397-.651-.683-1.059-.532a1.31 1.31 0 0 0-.379.249c-1.16.977-2.196 2.1-3.077 3.335-.144.202-.29.426-.283.675.005.18.091.352.094.533.005.277-.183.515-.358.73-.53.647-1.047 1.339-1.248 2.15-.058.234-.08.505.072.692.16.199.468.222.703.124.236-.099.417-.292.591-.479a4397.51 4397.51 0 0 0 2.791-3.01Zm1.728-1.254c-.742.26-1.25 1.07-1.16 1.852.415.041.808-.255.992-.629.185-.373.198-.808.168-1.223Z" fill="#F9CAA0"/><path d="M113.994 81.904a.178.178 0 0 1-.116-.312c.538-.466 1.175-.799 1.792-1.12.696-.364 1.354-.707 1.887-1.229.373-.362.7-.92.505-1.397a.177.177 0 1 1 .328-.135c.262.64-.13 1.342-.584 1.786-.572.558-1.283.93-1.972 1.289-.598.312-1.217.635-1.724 1.074a.173.173 0 0 1-.116.044Z" fill="#272525"/><path d="M115.876 96.847c-.547-.64-1.147-1.27-1.915-1.615-.997-.448-2.144-.36-3.232-.239-.861.096-1.806.254-2.357.922-.848 1.029-.279 2.55-.27 3.883.011 1.562-.803 3.199-.155 4.621.568 1.248 2.024 1.778 3.334 2.185l1.837.57c.455.142.946.283 1.398.132.539-.179.862-.716 1.138-1.212l2.309-4.156c.229-.412.465-.856.424-1.325-.033-.372-.237-.704-.442-1.017a27.212 27.212 0 0 0-2.069-2.749Z" fill="#ED9636"/><path d="M114.095 107.549h-.001c-.341 0-.682-.097-1.029-.205l-1.837-.57c-1.355-.421-2.85-.979-3.443-2.282-.435-.955-.246-1.999-.062-3.008.101-.558.206-1.134.202-1.685-.003-.368-.051-.762-.097-1.143-.122-1.012-.249-2.058.407-2.854.594-.72 1.589-.886 2.475-.985.46-.052.953-.1 1.436-.1.742 0 1.36.116 1.888.353.831.374 1.456 1.054 1.977 1.662a27.288 27.288 0 0 1 2.081 2.767c.218.332.435.69.471 1.098.048.541-.226 1.033-.446 1.428l-2.308 4.155c-.305.548-.652 1.1-1.238 1.295-.148.05-.304.074-.476.074Zm-1.949-12.476a12.6 12.6 0 0 0-1.397.097c-.817.091-1.731.24-2.24.858-.56.678-.448 1.604-.329 2.585.048.39.096.795.099 1.183.005.585-.103 1.178-.208 1.751-.181.999-.353 1.943.037 2.798.532 1.169 1.885 1.673 3.225 2.089l1.837.571c.32.099.632.188.924.188.134 0 .253-.018.365-.055.466-.155.757-.623 1.039-1.131l2.309-4.155c.241-.434.438-.824.403-1.224-.029-.325-.213-.628-.414-.934a26.869 26.869 0 0 0-2.055-2.732c-.496-.578-1.088-1.224-1.853-1.568-.481-.216-1.051-.321-1.742-.321Z" fill="#272525"/><path d="m108.783 96.912 1.852.026c.108.002.224.006.311.072.234.178.024.544.036.838.01.267.216.48.409.665l4.345 4.165 1.302-1.833c.079-.11.161-.229.171-.364.012-.153-.068-.297-.146-.43l-1.629-2.768c-.21-.359-.427-.724-.743-.994-.42-.359-.979-.514-1.527-.583a6.015 6.015 0 0 0-4.381 1.206Zm4.146 9.014c.172.187.484.028.66-.157a2.932 2.932 0 0 0 .751-2.464c-.045-.262-.128-.523-.293-.731-.165-.208-.421-.355-.686-.341a21.264 21.264 0 0 0-.512 3.3c-.011.137-.014.292.08.393Z" fill="#BB672E"/><path d="M116.29 104.418a.177.177 0 0 1-.17-.128 6.624 6.624 0 0 0-2.583-3.599.178.178 0 0 1 .202-.292 6.98 6.98 0 0 1 2.722 3.792.177.177 0 0 1-.171.227Zm-1.7 2.738a.175.175 0 0 1-.073-.016 2.194 2.194 0 0 1-1.155-1.232.177.177 0 0 1 .333-.124c.167.451.529.836.967 1.032a.178.178 0 0 1-.072.34Z" fill="#272525"/><path d="m95.222 32.882-11.45 91.483 1.217.152 11.45-91.482-1.217-.153Z" fill="#EED2BF"/><path d="m95.217 32.876-11.45 91.482.577.073 11.45-91.483-.577-.072Z" fill="#C99979"/><path d="m85.151 124.732-1.601-.2 11.496-91.863 1.602.2-11.497 91.863Zm-1.169-.537.833.105 11.4-91.095-.832-.105-11.401 91.095Z" fill="#272525"/><path d="M97.627 28.325c-.725-.294-1.55.08-2.17.558-2.404 1.847-3.23 5.045-3.905 8l-1.019 4.453c-.14.61-.28 1.239-.18 1.857.182 1.14 1.12 1.985 1.999 2.732.79.67 1.7 1.382 2.733 1.294.817-.07 1.505-.638 2.047-1.255 1.765-2.01 2.537-4.739 2.65-7.412.111-2.672-.382-5.33-.872-7.96-.166-.893-.441-1.925-1.282-2.267Z" fill="#ED9636"/><path d="M94.91 47.404c-1.007 0-1.872-.664-2.673-1.344-.978-.832-1.872-1.674-2.06-2.839-.105-.66.048-1.332.184-1.925l1.018-4.453c.738-3.229 1.597-6.277 3.97-8.101.413-.319 1.05-.698 1.73-.698.217 0 .424.04.616.117.898.365 1.207 1.418 1.39 2.4.486 2.602.987 5.293.874 8-.09 2.133-.63 5.17-2.693 7.52-.721.822-1.43 1.252-2.166 1.315a2.664 2.664 0 0 1-.19.008Zm2.17-19.005c-.454 0-.992.221-1.516.624-2.278 1.752-3.116 4.736-3.839 7.899l-1.019 4.453c-.134.589-.273 1.198-.178 1.79.168 1.045 1.013 1.838 1.939 2.624.75.638 1.557 1.26 2.442 1.26.054 0 .107-.002.16-.007.64-.055 1.272-.446 1.93-1.195 1.995-2.272 2.518-5.225 2.605-7.302.112-2.666-.386-5.337-.867-7.92-.166-.887-.436-1.834-1.176-2.135a1.273 1.273 0 0 0-.482-.091Z" fill="#272525"/><path d="M94.082 45.423c.306.197.623.398.982.458.623.102 1.234-.243 1.708-.66 1.545-1.36 2.18-3.511 2.24-5.57.058-2.057-.382-4.092-.63-6.136a22.554 22.554 0 0 1-5.471 7.91 6.357 6.357 0 0 1 1.41-3.671c-.606-.076-1.108.448-1.461.947-.98 1.38-1.698 3.227-.927 4.734.45.88 1.318 1.454 2.15 1.988Z" fill="#BB672E"/><path d="M93.898 35.708c-.04.292-.069.596.028.875.096.278.35.523.645.516.222-.005.416-.145.581-.293.666-.599 1.1-1.413 1.425-2.248.503-1.295.77-2.683.786-4.073.003-.325-.1-.754-.425-.77-.193-.009-.35.147-.476.295a11.227 11.227 0 0 0-2.564 5.698Zm-1.519 1.115a1.914 1.914 0 0 0-.402 1.182c.13.07.282-.037.381-.145a2.423 2.423 0 0 0 .507-2.342l-.486 1.305Z" fill="#F9CAA0"/><path d="M96.978 46.626a.178.178 0 0 1-.152-.087c-.46-.78-.935-1.585-1.554-2.26-.474-.517-1.247-1.175-2.239-1.379a.178.178 0 0 1-.138-.21.179.179 0 0 1 .21-.137c.858.176 1.698.69 2.428 1.487.644.702 1.13 1.524 1.598 2.319a.177.177 0 0 1-.153.267Zm-.961-10.114a.178.178 0 0 1-.135-.293 10.567 10.567 0 0 0 2.51-6.211.18.18 0 0 1 .188-.166c.098.005.173.09.167.187a10.926 10.926 0 0 1-2.595 6.421.177.177 0 0 1-.135.062Zm-3.64-3.009a.177.177 0 0 1-.105-.32l1.978-1.47a.177.177 0 1 1 .212.286l-1.979 1.469a.18.18 0 0 1-.106.035Z" fill="#272525"/><path d="M92.576 44.909a10.04 10.04 0 0 0-2.46.948c-.263.143-.53.31-.683.567-.143.242-.166.534-.186.815l-.223 3.13c-.012.162-.023.33.03.485.06.18.197.32.285.487.293.553-.006 1.232-.375 1.737-.37.505-.83.999-.893 1.621-.114 1.14 1.105 1.905 2.147 2.381l1.884.862c.41.186.854.378 1.293.286.283-.058.529-.228.765-.394 1.132-.794 2.288-1.611 3.084-2.741.797-1.13 1.177-2.655.611-3.917-.151-.338-.37-.662-.392-1.032-.031-.513.318-.965.451-1.462.236-.88-.255-1.828-.967-2.398-.712-.569-3.497-1.116-4.371-1.375Z" fill="#BB672E"/><path d="M93.161 58.43c-.386 0-.756-.155-1.132-.327l-1.885-.862c-1.59-.726-2.347-1.588-2.25-2.56.057-.567.402-1.018.735-1.455.065-.084.13-.168.191-.253.256-.35.643-1.017.362-1.549a1.704 1.704 0 0 0-.109-.171c-.07-.103-.144-.21-.188-.342-.064-.19-.05-.384-.038-.556l.223-3.13c.019-.27.043-.608.21-.892.18-.303.482-.485.75-.632.789-.43 1.631-.755 2.504-.965l.047-.011.045.013c.218.065.562.149.96.246 1.228.3 2.91.712 3.472 1.162.705.563 1.296 1.58 1.028 2.582a3.8 3.8 0 0 1-.213.56c-.128.29-.25.563-.232.845.014.24.13.468.25.71.044.086.088.173.127.26.647 1.442.1 3.06-.628 4.092-.824 1.169-2.048 2.027-3.128 2.784-.238.167-.508.356-.83.423a1.3 1.3 0 0 1-.27.027Zm-.59-13.338a9.843 9.843 0 0 0-2.37.92c-.228.125-.482.276-.615.502-.125.212-.145.491-.162.737l-.223 3.13c-.01.144-.02.294.02.416.03.086.085.168.145.255.046.067.092.134.13.206.372.703-.084 1.507-.389 1.924-.063.087-.129.173-.195.26-.318.415-.618.807-.665 1.274-.08.805.608 1.546 2.045 2.203l1.885.861c.352.161.67.294.984.294a.988.988 0 0 0 .199-.02c.251-.051.479-.211.699-.366 1.107-.776 2.253-1.58 3.04-2.698.672-.952 1.18-2.435.595-3.742-.037-.082-.079-.164-.12-.246-.132-.263-.269-.534-.288-.848-.022-.368.122-.694.262-1.01.077-.174.15-.339.195-.508.226-.847-.292-1.722-.907-2.213-.501-.401-2.206-.818-3.334-1.094a26.278 26.278 0 0 1-.93-.237Z" fill="#272525"/><path d="M92.928 57.572c.203-.03.386-.133.563-.237a19.324 19.324 0 0 0 2.944-2.158c.316-.278.63-.574.818-.95.189-.376.23-.852.004-1.206a4.75 4.75 0 0 0-1.755.867c-.31.245-.605.537-.985.645-.38.109-.88-.063-.951-.452a8.75 8.75 0 0 0 1.066-.917 20.188 20.188 0 0 0-3.008.22c-.65.097-1.363.27-1.727.815-.406.608-.196 1.468.287 2.017.482.548 1.174.856 1.843 1.15.286.124.592.252.9.206Zm-2.961-9.502c-.207.093-.318.323-.364.546-.099.469.02.968.268 1.378.113.187.254.362.326.568.075.216.069.45.115.674.066.327.246.63.502.844.766-.927.694-2.332.144-3.401-.098-.192-.214-.38-.385-.51-.172-.128-.41-.187-.606-.099Zm7.336.895c.325-.466.195-1.137-.157-1.583-.352-.445-.877-.715-1.391-.957-.769-.362-1.56-.696-2.397-.842-.837-.146-1.73-.092-2.488.291-.226.114-.467.326-.405.57.871.132 1.757-.022 2.638-.044.88-.023 1.83.117 2.473.719-.142.077-.315.058-.476.078-.16.02-.342.116-.349.278-.01.196.226.297.415.349.79.213 1.578.543 2.137 1.14Z" fill="#7F3A13"/><path d="M94.668 48.413c-.314-.267-.795-.26-1.16-.072-.508.262-.82.832-.838 1.403-.018.571.232 1.13.614 1.555.254-.12.409-.377.544-.623.333-.604.637-1.224.91-1.858.032-.073.064-.153.049-.231a.323.323 0 0 0-.12-.174Z" fill="#ED9636"/><path d="M93.925 56.089c.24-.066.525-.233.482-.478-.03-.172-.21-.27-.376-.328a2.87 2.87 0 0 0-2.35.231c-.12.144-.06.377.079.5.14.125.333.166.518.19a4.22 4.22 0 0 0 1.647-.115Z" fill="#391701"/><path d="M82.868 94.297c.616 1.16 1.97 1.719 3.259 1.97 1.275.247 2.591.28 3.877.098.932-.132 1.867-.385 2.65-.908 1.473-.983 2.217-2.83 2.188-4.602-.03-1.77-.739-3.47-1.669-4.977-.455-.737-1.097-1.514-1.963-1.523-.509-.005-.975.264-1.413.525-2.359 1.407-4.798 2.891-6.308 5.185-.824 1.25-1.323 2.909-.621 4.232Z" fill="#B25820"/><path d="M88.361 96.658c-.76 0-1.524-.073-2.268-.217-1.164-.227-2.695-.767-3.382-2.061-.636-1.199-.4-2.848.63-4.413 1.562-2.373 4.114-3.896 6.365-5.24.411-.244.923-.55 1.49-.55.776.008 1.467.534 2.128 1.607 1.099 1.78 1.67 3.485 1.695 5.068.033 1.976-.835 3.797-2.267 4.752-.704.47-1.595.777-2.723.936-.55.079-1.11.118-1.668.118Zm2.847-12.125c-.482 0-.927.265-1.32.5-2.219 1.323-4.733 2.824-6.251 5.13-.958 1.454-1.187 2.968-.612 4.05.62 1.17 2.048 1.667 3.135 1.879 1.251.243 2.558.276 3.819.097 1.075-.152 1.917-.44 2.576-.88 1.332-.888 2.14-2.594 2.109-4.45-.025-1.519-.578-3.163-1.642-4.888-.593-.96-1.186-1.432-1.814-1.438Z" fill="#272525"/><path d="M85.38 92.862a7.551 7.551 0 0 1-1.506.273l.895 1.971a.693.693 0 0 0 .175.266c.107.085.252.1.388.108 2.155.144 4.33-.041 6.43-.545-.04-.314-.353-.534-.665-.585-.312-.052-.63.022-.942.071-.836.132-1.7.085-2.517-.136a18.094 18.094 0 0 1 5.58-.553c.3-.801.615-1.597.943-2.387-.494-.251-1.074-.251-1.627-.221a18.715 18.715 0 0 0-5.444 1.124c-.568.209-1.127.446-1.71.614Zm4.004-7.309a15.904 15.904 0 0 0-2.802 2.124c-.273.26-.555.566-.568.944-.001.048.003.1.033.139.064.08.19.05.286.011l3.969-1.587c.481-.192.965-.386 1.404-.66.062-.039.13-.089.135-.162.007-.078-.06-.14-.12-.189l-.975-.786c-.124-.1-.258-.205-.416-.223-.135-.015-.269.034-.392.09-.19.087-.374.191-.554.299Z" fill="#7F3A13"/><path d="M90.79 88.43c.44.035.928-.019 1.24-.332.312-.313.3-.947-.107-1.119-.568.176-1.19.395-1.477.915-.059.108-.1.24-.046.351.066.136.24.172.39.184Z" fill="#ED9636"/><path d="M85.11 92.568c.732.343 1.593.158 2.37-.064a30.382 30.382 0 0 0 4.839-1.838c.187-.09.408-.266.325-.456a9.753 9.753 0 0 0-7.618 1.923c-.055.043-.113.093-.127.162-.025.122.099.22.212.273Z" fill="#391701"/><path d="M84.795 89.275a.177.177 0 0 1-.16-.1l-.142-.296a.178.178 0 0 1 .064-.226.179.179 0 0 1 .232.036c.135.16.38.244.645.228.266-.018.53-.123.786-.224l5.092-2.02a.177.177 0 1 1 .131.33l-5.092 2.02c-.269.106-.572.227-.894.248a1.277 1.277 0 0 1-.518-.07.182.182 0 0 1-.144.074Z" fill="#272525"/><path d="M95.001 77.612c.051-1.53-.856-2.973-2.071-3.905-1.215-.93 1.696-.755.213-1.132l-.256-.002c-1.08-.688-2.488-.435-3.733-.13-1.588.39-3.327.95-4.128 2.375-.4.712-.505 1.547-.602 2.357-.303 2.542-.606 5.13-.158 7.65.189 1.056.564 2.17 1.448 2.778.971.668 2.33.526 3.35-.064 1.02-.591 1.765-1.555 2.43-2.527a33.741 33.741 0 0 0 2.74-4.813c.382-.822.737-1.682.767-2.587Z" fill="#ED9636"/><path d="M87.227 88.223c-.605 0-1.163-.164-1.614-.474-.772-.531-1.27-1.477-1.522-2.893-.457-2.568-.145-5.178.157-7.701.093-.783.2-1.67.623-2.424.813-1.446 2.518-2.036 4.24-2.46.633-.155 1.376-.314 2.087-.314.686 0 1.256.143 1.74.439l.248.007c.34.086.563.157.566.35.003.186-.18.24-.434.312-.123.036-.498.144-.516.233 0 0-.007.082.236.269 1.39 1.065 2.19 2.58 2.14 4.051-.033.968-.421 1.878-.783 2.656a34.014 34.014 0 0 1-2.755 4.838c-.671.98-1.437 1.971-2.488 2.58a3.91 3.91 0 0 1-1.925.531Zm3.971-15.912c-.673 0-1.39.155-2.002.305-1.644.404-3.269.96-4.016 2.289-.388.69-.49 1.541-.58 2.291-.298 2.499-.607 5.082-.159 7.597.234 1.318.684 2.189 1.374 2.663.823.567 2.134.523 3.16-.072.99-.573 1.725-1.528 2.372-2.473a33.65 33.65 0 0 0 2.727-4.788c.347-.746.72-1.617.75-2.517.046-1.357-.703-2.762-2.002-3.758-.105-.08-.423-.324-.368-.616.052-.273.374-.391.668-.48h-.002l-.285-.002-.043-.027c-.435-.277-.956-.412-1.594-.412Z" fill="#272525"/><path d="M91.244 73.088c-1.665.067-3.314.51-4.79 1.286-.354.187-.753.511-.65.899.103.39.614.472 1.018.464a18.906 18.906 0 0 0 2.634-.24c-.767.973-.87 2.313-.754 3.547.115 1.233.416 2.46.336 3.696a89.342 89.342 0 0 0 3.59-4.175 3.931 3.931 0 0 0-.758 2.555 8.724 8.724 0 0 0 1.515-3.394c.088-.42.144-.855.064-1.277-.098-.52-.394-.98-.698-1.413a25.304 25.304 0 0 0-1.507-1.948Z" fill="#BB672E"/><path d="M86.169 76.682c-1.1 1.047-1.286 2.846-.63 4.215.215.45.612.913 1.109.859.448-.05.736-.497.892-.92.444-1.2.355-2.52.26-3.796-.011-.156-.024-.317-.097-.455-.139-.264-.474-.38-.768-.334-.294.046-.55.226-.766.431Zm.664 6.481a2.06 2.06 0 0 0-.958 1.289c.474.038.909-.316 1.116-.744.208-.427-.183-.07-.158-.545Z" fill="#F9CAA0"/><path d="M85.213 74.843a.178.178 0 0 1-.07-.341 10.713 10.713 0 0 1 5.803-.719.178.178 0 0 1-.054.351 10.35 10.35 0 0 0-5.61.695.183.183 0 0 1-.07.014Z" fill="#272525"/><path d="M92.866 57.118c-.927.24-1.843.523-2.745.845-.57.203-1.185.47-1.438 1.02-.17.37-.137.8-.187 1.205-.092.755-.474 1.438-.84 2.105-.758 1.384-1.487 2.818-1.756 4.373-.269 1.556-.02 3.27 1.003 4.473 1.441 1.696 3.922 1.945 6.144 2.07.411.023.853.039 1.2-.183.264-.17.43-.452.587-.723l2.123-3.684c.269-.468.548-.982.47-1.517-.155-1.055-1.549-1.488-1.92-2.488-.432-1.164.703-2.307.872-3.538.187-1.367-.834-2.58-1.82-3.545-.194-.189-.397-.381-.652-.47-.334-.115-.7-.032-1.041.057Z" fill="#ED9636"/><path d="M93.406 73.4a6.67 6.67 0 0 1-.368-.014c-2.37-.134-4.805-.408-6.27-2.132-.972-1.144-1.352-2.827-1.042-4.618.277-1.603 1.029-3.066 1.775-4.428l.024-.044c.349-.636.71-1.293.795-1.998.014-.113.021-.229.028-.345.02-.304.039-.618.174-.913.271-.591.9-.884 1.539-1.113.902-.322 1.83-.608 2.76-.85.37-.096.804-.169 1.144-.052.302.104.532.33.718.51.976.956 2.071 2.24 1.872 3.697-.07.505-.29.988-.502 1.454-.318.697-.618 1.356-.38 1.998.156.42.515.734.895 1.067.463.405.94.824 1.034 1.457.091.619-.246 1.204-.492 1.632l-2.123 3.683c-.15.262-.339.588-.644.785-.31.198-.664.223-.937.223Zm.14-16.218c-.207 0-.428.053-.636.107-.92.24-1.838.522-2.73.841-.526.188-1.108.43-1.335.926-.108.235-.125.503-.142.787-.008.123-.015.246-.03.366-.095.773-.472 1.46-.836 2.126l-.024.044c-.732 1.335-1.469 2.768-1.737 4.318-.292 1.686.059 3.264.963 4.327 1.374 1.617 3.727 1.878 6.02 2.008.114.006.23.012.347.012.334 0 .565-.052.746-.168.233-.15.39-.422.528-.662l2.123-3.684c.285-.496.516-.943.448-1.402-.073-.504-.482-.862-.916-1.242-.396-.348-.807-.707-.994-1.21-.289-.78.056-1.537.39-2.269.202-.443.41-.902.473-1.355.178-1.3-.852-2.497-1.769-3.394-.203-.199-.375-.356-.585-.429a.915.915 0 0 0-.303-.047Z" fill="#272525"/><path d="M94.394 60.239a92.508 92.508 0 0 0-.024-.343c.194 1.674-.74 3.258-1.727 4.624-.986 1.367-2.099 2.752-2.346 4.419-.034.232-.007.536.217.606.141.044.29-.036.414-.117a8.076 8.076 0 0 0 2.413-2.436c.701.311.807 1.285.584 2.018-.224.733-.67 1.413-.702 2.179-.008.185.039.412.215.469.13.041.266-.033.38-.11.902-.611 1.553-1.52 2.184-2.41.377-.53.773-1.142.652-1.782-.123-.646-.724-1.068-1.129-1.587a2.959 2.959 0 0 1-.518-2.536c.198-.748.696-1.432.679-2.206-.013-.568-.304-1.087-.586-1.579l-.961-1.673-.85 1.205 1.105 1.259ZM87.031 70.64a2.899 2.899 0 0 0 2.7 1.303c.203-.022.41-.068.574-.189.164-.12.277-.328.236-.527l1.24.043c-.716-.22-1.41-.513-2.066-.873-.93-.51-1.813-1.164-2.85-1.385-.287.497-.14 1.143.166 1.628Z" fill="#BB672E"/><path d="M93.63 67.022a.177.177 0 0 1-.167-.238 22.321 22.321 0 0 1 2.677-5.177.178.178 0 1 1 .291.203 21.97 21.97 0 0 0-2.634 5.095.177.177 0 0 1-.166.117ZM88.671 64.9a.178.178 0 0 1-.178-.175l-.086-4.756a.178.178 0 0 1 .355-.007l.087 4.756a.178.178 0 0 1-.175.181h-.003Z" fill="#272525"/><path d="m72.946 33.036-14.917 90.976 1.21.198 14.917-90.975-1.21-.199Z" fill="#EED2BF"/><path d="m72.944 33.033-14.917 90.975.574.094 14.916-90.975-.573-.094Z" fill="#C99979"/><path d="m59.4 124.429-1.592-.261 14.977-91.36 1.593.26L59.4 124.43Zm-1.147-.581.828.136 14.852-90.596-.828-.136-14.852 90.596Z" fill="#272525"/><path d="M72.926 29.051a5.943 5.943 0 0 0-2.776 4.236c-.1.756-.083 1.604-.599 2.166-.458.499-1.23.63-1.653 1.16-.386.486-.375 1.167-.345 1.788l.156 3.244c.025.528.056 1.077.305 1.544.355.664 1.075 1.032 1.753 1.36.789.382 1.66.774 2.51.567.515-.124.952-.454 1.372-.775l1.706-1.306c.263-.201.537-.416.672-.719.226-.506.002-1.087-.194-1.605-.327-.862-.58-1.804-.357-2.698.15-.598.501-1.123.762-1.681a5.74 5.74 0 0 0 .543-2.649c-.077-1.896-1.21-3.716-2.88-4.62l-.975-.012Z" fill="#B25820"/><path d="M71.786 45.352c-.699 0-1.392-.302-2.097-.643-.606-.294-1.436-.695-1.832-1.436-.273-.511-.3-1.1-.326-1.619l-.156-3.244c-.034-.708-.03-1.386.384-1.906.244-.306.582-.487.91-.66.284-.152.553-.295.751-.511.38-.414.444-1.036.505-1.636.015-.146.03-.29.049-.433a6.084 6.084 0 0 1 2.86-4.364l.183.304c-1.438.868-2.469 2.442-2.691 4.107-.019.138-.033.28-.047.422-.067.658-.137 1.339-.597 1.84-.24.26-.548.425-.847.584-.308.164-.6.32-.798.568-.337.424-.338 1.03-.307 1.668l.156 3.244c.023.482.05 1.028.284 1.469.316.59.945.93 1.673 1.284.823.398 1.625.74 2.393.554.487-.118.921-.45 1.305-.744l1.706-1.305c.233-.179.498-.381.618-.65.194-.436-.003-.955-.194-1.458-.303-.8-.614-1.83-.367-2.816.108-.435.317-.83.517-1.21.088-.167.177-.334.256-.504a5.56 5.56 0 0 0 .526-2.566c-.074-1.84-1.168-3.595-2.787-4.47l.169-.313c1.727.934 2.894 2.806 2.973 4.768a5.913 5.913 0 0 1-.56 2.731c-.08.175-.172.347-.262.519-.2.38-.39.738-.488 1.13-.222.89.07 1.854.35 2.593.211.556.444 1.171.191 1.74-.156.352-.472.594-.726.788l-1.706 1.306c-.412.315-.878.67-1.438.807a2.302 2.302 0 0 1-.533.062Z" fill="#272525"/><path d="m73.69 40.473 1.126-2.522c.383-.858.75-1.919.192-2.675.07.394.12.803.02 1.19-.162.623-.678 1.08-1.168 1.496l-4.785 4.07c.468.257 1.027.267 1.561.272.139.214-.08.475-.278.635l-1.139.916c1.046.188 2.114.249 3.174.18.349-.022.704-.06 1.02-.21.312-.15.565-.399.81-.644l1.215-1.21a6.522 6.522 0 0 0-1.749-1.498Zm-4.557-3.18a3.34 3.34 0 0 0 .59-.085l2.647-.543a.283.283 0 0 0 .143-.058c.082-.077.047-.211.007-.315l-1.106-2.87a8.639 8.639 0 0 1-2.31 2.77c-.158.125-.326.249-.424.424-.1.175-.107.42.039.56.107.1.266.121.414.117Z" fill="#7F3A13"/><path d="M74.017 40.038a.177.177 0 0 1-.139-.288 16 16 0 0 0 2.007-3.272.178.178 0 0 1 .323.148 16.35 16.35 0 0 1-2.052 3.345.177.177 0 0 1-.14.067Zm-.931 4.018a.178.178 0 0 1-.16-.256l1.395-2.842a.178.178 0 0 1 .319.156l-1.394 2.843a.177.177 0 0 1-.16.099Zm-3.516-2.359a.178.178 0 0 1-.119-.31 30.437 30.437 0 0 0 4.24-4.63.178.178 0 0 1 .285.212 30.846 30.846 0 0 1-4.289 4.683.176.176 0 0 1-.118.045Zm1.082-3.072a.178.178 0 0 1-.11-.318l1.836-1.437a.178.178 0 1 1 .22.28l-1.837 1.437a.177.177 0 0 1-.11.038Z" fill="#272525"/><path d="M72.86 44.662c-.18-.186-.375-.366-.615-.462-.372-.15-.792-.08-1.187-.007-1.203.22-2.422.447-3.522.98-1.1.535-2.084 1.424-2.454 2.59-.27.85-.196 1.766-.16 2.659a28.91 28.91 0 0 1-.144 4.314c-.104.958-.302 1.997-1.033 2.625-.319.273-.746.482-.87.883-.147.48.219.954.559 1.324 1.063 1.16 2.299 2.403 3.87 2.466 1.242.05 2.37-.661 3.407-1.345 1.19-.784 2.433-1.63 3.052-2.912.31-.643.44-1.355.568-2.058.344-1.903.69-3.828.582-5.759-.109-1.931-.718-3.9-2.054-5.298Z" fill="#ED9636"/><path d="M67.428 62.214c-.044 0-.087 0-.13-.003-1.611-.064-2.857-1.281-3.995-2.523-.391-.426-.768-.937-.597-1.495.11-.354.396-.566.672-.771.086-.064.172-.128.252-.196.677-.582.867-1.55.971-2.509.154-1.42.203-2.862.144-4.288l-.011-.263c-.037-.816-.075-1.66.178-2.457.349-1.097 1.277-2.079 2.547-2.695 1.13-.548 2.368-.776 3.567-.996.463-.085.93-.126 1.285.017.278.112.498.318.677.505 1.232 1.29 1.978 3.21 2.102 5.41.11 1.962-.243 3.914-.585 5.8-.127.706-.26 1.434-.582 2.104-.657 1.363-2.02 2.262-3.114 2.983-1.142.753-2.185 1.377-3.381 1.377Zm4.313-17.925c-.206 0-.416.035-.65.078-1.176.216-2.39.439-3.477.966-1.183.574-2.044 1.48-2.363 2.483-.234.737-.197 1.548-.162 2.333l.011.265c.06 1.444.01 2.904-.145 4.341-.112 1.032-.323 2.078-1.094 2.74a5 5 0 0 1-.27.211c-.242.18-.47.348-.545.59-.119.388.196.8.519 1.153 1.087 1.186 2.273 2.349 3.747 2.408 1.14.043 2.17-.57 3.302-1.316 1.058-.698 2.375-1.566 2.99-2.841.301-.626.429-1.331.552-2.013.339-1.866.688-3.796.58-5.717-.119-2.115-.831-3.957-2.004-5.185-.153-.16-.338-.334-.552-.42a1.174 1.174 0 0 0-.44-.076Z" fill="#272525"/><path d="M72.751 46.23c.086-.073.019-.212-.052-.302l-.483-.61c-.16-.202-.335-.415-.581-.493-.195-.062-.406-.028-.607.01-1.775.338-3.575 1.114-4.594 2.606l6.21-1.17a.225.225 0 0 0 .107-.04Zm.194 2.87c-.505.682.064 1.64-.027 2.483-.072.664-.557 1.21-1.084 1.622-1.069.833-2.37 1.298-3.58 1.907-1.21.61-2.402 1.441-2.935 2.687-.074.175-.138.36-.266.5-.21.231-.546.29-.815.449-.27.157-.472.549-.251.769a.525.525 0 0 0 .231.12c.701.202 1.427-.163 2.065-.517l3.995-2.216c-.384.861-1.272 1.374-2.134 1.756-.862.383-1.787.716-2.429 1.407a.896.896 0 0 0-.228.363.715.715 0 0 0 .051.46c.225.524.838.793 1.408.784.57-.008 1.11-.239 1.633-.466.88-.381 1.771-.77 2.528-1.358 1.476-1.148 2.308-2.971 2.613-4.816.305-1.844.135-3.73-.071-5.588-.025-.23-.102-.514-.33-.549-.147-.021-.285.083-.374.203Z" fill="#BB672E"/><path d="M71.684 47.368a7.962 7.962 0 0 0-3.172 1.22c-.255.168-.525.398-.52.703.617.415 1.442.222 2.155.014.793-.23 1.621-.481 2.211-1.06.134-.131.26-.3.243-.486-.018-.186-.182-.333-.361-.386-.18-.054-.371-.033-.556-.005Zm-5.719 2.962a.692.692 0 0 0 .019.38c.05.12.172.216.3.2a3.15 3.15 0 0 0 .788-2.052 2.04 2.04 0 0 0-1.107 1.472Z" fill="#F9CAA0"/><path d="M64.405 60.092a1.39 1.39 0 0 1-.387-.054c-.562-.163-.919-.666-1.237-1.167a.177.177 0 1 1 .3-.19c.293.462.593.888 1.036 1.016.468.136.992-.106 1.446-.343a46.963 46.963 0 0 0 4.86-2.924.177.177 0 1 1 .202.293 47.354 47.354 0 0 1-4.897 2.946c-.404.21-.86.423-1.323.423Zm9.354-5.097a.178.178 0 0 1-.177-.166 41.257 41.257 0 0 1 .26-8.238.178.178 0 0 1 .352.047 40.878 40.878 0 0 0-.258 8.167.178.178 0 0 1-.166.189h-.011Z" fill="#272525"/><path d="M70.697 61.924c-1.186-.535-2.554-.466-3.836-.248-.885.151-1.759.368-2.612.648-.426.14-.86.305-1.179.621-.391.39-.55.949-.69 1.482a133.22 133.22 0 0 0-1.248 5.134c-.329 1.475-.633 2.999-.373 4.487.044.253.115.521.312.686.172.144.407.18.629.213l6.106.872c.528.076 1.08.149 1.582-.034.348-.127.641-.367.922-.609a30.602 30.602 0 0 0 2.92-2.87c.551-.62 1.089-1.282 1.353-2.07.492-1.464-.045-3.064-.685-4.47-.706-1.551-1.646-3.141-3.2-3.842Z" fill="#BB672E"/><path d="M68.665 76.077a6.2 6.2 0 0 1-.884-.082l-6.107-.873c-.223-.031-.501-.07-.717-.252-.242-.203-.324-.514-.373-.792-.26-1.486.028-3.003.374-4.556a136.41 136.41 0 0 1 1.25-5.14c.162-.615.33-1.158.737-1.563.352-.348.829-.525 1.249-.663a18.27 18.27 0 0 1 2.637-.655c1.71-.292 2.912-.204 3.94.26 1.673.755 2.636 2.498 3.289 3.932.6 1.317 1.22 3.03.692 4.6-.284.844-.866 1.543-1.39 2.131a30.893 30.893 0 0 1-2.936 2.886c-.303.26-.606.507-.977.642a2.262 2.262 0 0 1-.784.125Zm-.09-14.387c-.5 0-1.051.053-1.684.16a18.03 18.03 0 0 0-2.586.643c-.4.131-.814.284-1.11.578-.344.342-.496.837-.645 1.401a137.22 137.22 0 0 0-1.246 5.128c-.337 1.516-.62 2.995-.37 4.417.037.214.096.451.251.58.128.108.312.141.54.174l6.106.872c.588.085 1.106.117 1.496-.025.315-.115.59-.338.868-.577a30.528 30.528 0 0 0 2.902-2.852c.5-.563 1.056-1.228 1.318-2.009.488-1.453-.106-3.083-.678-4.34-.627-1.377-1.547-3.049-3.112-3.755-.59-.265-1.26-.395-2.05-.395Z" fill="#272525"/><path d="M68.1 68.868c-.294-.723-.59-1.532-1.279-1.902a4.733 4.733 0 0 1-.669 1.807l-.852-3.14c-.091-.335-.186-.679-.391-.96-.205-.28-.548-.487-.89-.432-.481.076-.742.593-.914 1.048a28.603 28.603 0 0 0-1.695 7.197c-.04.4-.054.855.229 1.14.15.153.36.227.562.297l2.552.88c.23.079.461.158.703.183.241.025.485-.006.725-.041 1.462-.217 2.91-.624 4.194-1.353 1.284-.73 2.401-1.8 3.04-3.131-.789.455-1.622.835-2.484 1.132-.277.096-.57.183-.858.132-.505-.09-.835-.568-1.086-1.015-.333-.595-.63-1.21-.886-1.841Z" fill="#7F3A13"/><path d="M68.512 66.26a4.642 4.642 0 0 0 1.34 3.572c.26.259.579.497.946.513.214.009.423-.058.625-.128a18.43 18.43 0 0 0 1.828-.744c-.364-.11-.674-.345-.972-.581a35.97 35.97 0 0 1-3.498-3.158c-.117.497-.233.018-.27.527Z" fill="#7F3A13"/><path d="M67.802 63.553c.425.183.806.456 1.22.66.416.204.893.34 1.34.224.449-.117.834-.555.761-1.012-.037-.233-.181-.434-.33-.617-.226-.28-.479-.547-.794-.718-.417-.225-.908-.263-1.382-.264a10.263 10.263 0 0 0-4.12.86c-.099.044-.216.13-.179.23 1.137.333 2.396.17 3.484.638Zm3.502 2.047a1.44 1.44 0 0 0 .33-1.632 1.746 1.746 0 0 0-.33 1.632Z" fill="#ED9636"/><path d="M63.087 66.348a32.875 32.875 0 0 0-.655 6.11c-.005.402.111.933.512.956a.704.704 0 0 0 .324-.082c1.104-.5 1.81-1.76 1.66-2.963-.134-1.065-1.478-3.011-1.841-4.021Z" fill="#391701"/><path d="M73.381 80.477c-.14-1.522-1.379-2.698-2.632-3.574a20.208 20.208 0 0 0-4.504-2.366l-2.145-.43c-.662.348-1.149.947-1.617 1.53l-3.815 4.75c-.637.793-1.305 1.663-1.344 2.681-.068 1.739 1.666 2.963 3.26 3.66a24.4 24.4 0 0 0 4.896 1.55c.694.14 1.413.252 2.108.112 1.137-.227 2.036-1.083 2.79-1.964a20.576 20.576 0 0 0 2.023-2.81c.573-.957 1.083-2.028.98-3.139Z" fill="#BB672E"/><path d="M66.907 88.632c-.505 0-1.001-.087-1.462-.181a24.57 24.57 0 0 1-4.931-1.561c-1.292-.565-3.446-1.813-3.368-3.83.044-1.116.818-2.08 1.384-2.785l3.815-4.75c.453-.565.967-1.205 1.673-1.575l.055-.03 2.207.443a20.322 20.322 0 0 1 4.571 2.394c1.701 1.19 2.586 2.401 2.707 3.704.11 1.205-.479 2.368-1.005 3.246a20.81 20.81 0 0 1-2.04 2.834c-.695.811-1.65 1.775-2.89 2.023-.226.046-.46.068-.716.068Zm-2.779-14.338c-.614.341-1.087.931-1.507 1.454l-3.815 4.75c-.693.863-1.27 1.652-1.305 2.577-.07 1.806 1.947 2.962 3.155 3.49a24.205 24.205 0 0 0 4.859 1.538c.443.09.918.174 1.391.174.232 0 .444-.02.647-.06 1.132-.228 2.033-1.138 2.69-1.907a20.434 20.434 0 0 0 2.006-2.785c.529-.884 1.056-1.935.955-3.031-.11-1.192-.947-2.32-2.557-3.445a19.987 19.987 0 0 0-4.464-2.345l-2.055-.41Z" fill="#272525"/><path d="M72.058 80.397c-.358-.066-.622.305-.85.588-.552.685-1.398 1.06-2.236 1.329-1.355.435-2.78.653-4.203.644l3.783-1.285c.508-.173 1.095-.431 1.194-.96-2.535.977-5.44.955-7.959-.06-.157-.064-.319-.132-.489-.131-.276.002-.52.188-.688.406a1.79 1.79 0 0 0-.093 1.997c-.343.202-.772.03-1.156-.076-.384-.105-.913-.06-1.024.323-.085.29.138.57.346.788a37.823 37.823 0 0 0 3.74 3.411c.404.322.84.646 1.35.723.46.07.922-.07 1.365-.209l1.917-.598c.463-.144.931-.291 1.34-.55.437-.273.787-.66 1.131-1.043 1.124-1.247 2.274-2.537 2.84-4.116.158-.44.15-1.098-.308-1.181Zm-9.928-3.1c.369-.04.724-.156 1.083-.252a9.92 9.92 0 0 1 6.543.531 7.807 7.807 0 0 0-4.096-2.39c-.294-.065-.597-.113-.896-.072-.406.055-.77.269-1.112.495-.645.425-1.281.954-1.522 1.688Z" fill="#7F3A13"/><path d="M71.08 78.675c.178.03.295-.22.214-.381-.081-.161-.266-.237-.438-.292-1.54-.489-3.217-.303-4.78.105-.79.206-1.588.48-2.208 1.011-.272.233-.52.584-.41.925.112.347.526.483.887.538.978.147 1.975.068 2.96-.017 1.487-.13 2.971-.272 4.455-.427.121-.013.258-.034.328-.134.13-.184-.077-.415-.261-.544l-1.97-1.375 1.224.591Z" fill="#ED9636"/><path d="m63.657 86.446-.073-.001c-1.21-.02-2.366-.519-3.385-.96a.178.178 0 0 1 .14-.325c.99.427 2.111.912 3.25.93 1.042.016 2.062-.348 3.042-.7l3.666-1.32a.178.178 0 0 1 .12.334l-3.666 1.32c-.942.338-2.006.722-3.094.722Z" fill="#272525"/><path d="M66.784 86.481c-.54 0-1.08-.06-1.602-.178a.177.177 0 0 1-.134-.213.176.176 0 0 1 .213-.133 6.916 6.916 0 0 0 2.73.063.177.177 0 1 1 .063.35 7.158 7.158 0 0 1-1.27.112Zm-5.673-8.641a.178.178 0 0 1-.026-.353l4.36-.664a.177.177 0 1 1 .052.35l-4.36.665a.172.172 0 0 1-.026.002Z" fill="#272525"/><path d="M63.018 96.354c.97-.265 1.942-.53 2.912-.793 1.206-.329 2.58-.807 3.001-1.983.27-.753.055-1.59-.23-2.337a13.04 13.04 0 0 0-3.43-5.011 17.1 17.1 0 0 0-6.323 2.126c-.923.53-1.9 1.346-1.826 2.408.042.595.415 1.11.778 1.583a113.556 113.556 0 0 0 2.597 3.272c.27.329.561.669.958.822.496.19 1.05.052 1.563-.087Z" fill="#ED9636"/><path d="M61.995 96.712c-.222 0-.42-.035-.604-.106-.421-.163-.716-.492-1.03-.874a113.012 113.012 0 0 1-2.603-3.277c-.403-.528-.77-1.053-.813-1.679-.065-.928.597-1.818 1.914-2.574a17.382 17.382 0 0 1 6.39-2.149l.08-.01.06.055a13.22 13.22 0 0 1 3.477 5.08c.267.7.535 1.613.231 2.46-.433 1.21-1.756 1.722-3.121 2.094l-2.912.793c-.361.098-.715.186-1.069.186Zm3.218-10.296a17.03 17.03 0 0 0-6.177 2.094c-.83.477-1.805 1.253-1.736 2.241.036.528.357.987.74 1.488a112.406 112.406 0 0 0 2.594 3.267c.283.343.544.637.885.768.391.152.922.053 1.452-.092l2.913-.793c1.272-.347 2.502-.813 2.88-1.871.264-.738.016-1.57-.229-2.214a12.874 12.874 0 0 0-3.322-4.888Z" fill="#272525"/><path d="M67.735 93.13c.356-1.346-.394-2.712-1.124-3.897a.436.436 0 0 0 .237.424c.008-.98-.914-1.707-1.821-2.075-1.031-.419-2.337-.536-3.149.225l.475-.047-4.484 2.085a18.183 18.183 0 0 1 7.21-.17c.42.075.88.191 1.119.544l-1.56-.05 3.097 2.96Z" fill="#BB672E"/><path d="M63.789 90.133a6.676 6.676 0 0 0-5.563.912c.852.202 1.758-.285 2.608-.073L60.4 92.14c.337.226.789.037 1.143-.16 1.001-.558 1.31-1.186 2.246-1.847Z" fill="#BB672E"/><path d="M61.275 92.618c-.311.219-.64.5-.66.88.451.251.985.3 1.5.31a12.737 12.737 0 0 0 3.264-.351c.338-.082.745-.267.74-.615-.001-.163-.1-.307-.202-.433a4.544 4.544 0 0 0-1.396-1.159.825.825 0 0 0-.316-.112c-.136-.01-.268.04-.394.091-.894.367-1.746.834-2.536 1.389Zm5.348 1.337a19.629 19.629 0 0 0-3.993 1.099c-.136.053-.295.14-.297.286.335.195.755.139 1.133.056a10.821 10.821 0 0 0 2.698-.984c.478-.25.415.081.459-.457Z" fill="#F9CAA0"/></svg>